<svg width="73" height="28" viewBox="0 0 73 28" fill="none" xmlns="http://www.w3.org/2000/svg">
<g clip-path="url(#clip0_631_1692)">
<path d="M12.2244 30.4478H6.44876L9.63982 28.6694C9.97338 28.4828 10.0939 28.0595 9.90822 27.7255L9.4326 26.8727C9.2456 26.5387 8.82191 26.4189 8.48857 26.6053L7.16116 27.345C7.31726 27.0317 7.41441 26.7246 7.45035 26.4262C7.51022 25.9295 7.39751 25.4812 7.12438 25.1297C6.68047 24.5585 5.90538 24.3686 5.23941 24.6679C5.12135 24.721 5.06866 24.8597 5.12172 24.9778C5.17479 25.0958 5.31351 25.1486 5.4316 25.0955C5.89963 24.8851 6.44354 25.0175 6.75426 25.4174C7.20044 25.9916 7.02929 26.8897 6.29819 27.8258L6.01513 27.9836L5.81029 27.6166C5.75769 27.5221 5.68941 27.4396 5.6091 27.3715C5.65888 27.0734 5.79766 26.6877 5.9511 26.4357C6.01841 26.3251 5.98338 26.181 5.87282 26.1136C5.76226 26.0463 5.61807 26.0814 5.55076 26.1919C5.38563 26.4631 5.24254 26.8388 5.17057 27.1713C4.97426 27.1399 4.77494 27.1745 4.59957 27.2723L4.51854 27.3175C4.48638 26.6412 4.59122 26.0752 4.82747 25.667C4.89232 25.555 4.85407 25.4116 4.74204 25.3467C4.63007 25.282 4.48663 25.3201 4.42179 25.4322C4.10829 25.9739 3.98882 26.6926 4.06554 27.57L3.78251 27.7278C2.58663 26.8388 1.41647 26.6571 0.63138 27.246C0.0630054 27.6724 -0.15112 28.4268 0.110693 29.0807C0.377818 29.7479 1.04576 30.1541 1.96594 30.2399L0.606974 30.9971C0.273599 31.1831 0.15338 31.606 0.33913 31.9402L0.814662 32.7937C0.94138 33.0207 1.17819 33.1489 1.42197 33.1489C1.53616 33.1489 1.65188 33.1208 1.75854 33.0616C1.75863 33.0615 1.75872 33.0615 1.75882 33.0614L3.29029 32.2079V36.0254C3.29029 36.4844 3.66376 36.8577 4.12282 36.8577H11.9608C12.4198 36.8577 12.7933 36.4844 12.7933 36.0254V31.0166C12.7933 30.7029 12.5381 30.4478 12.2244 30.4478ZM4.41363 31.0453L3.71907 29.7997L5.83407 28.6211L6.52857 29.8666L5.47101 30.456C5.43326 30.4661 5.39932 30.4854 5.37166 30.5114L4.41363 31.0453ZM8.71713 27.0146C8.75169 26.9953 8.78922 26.9861 8.82632 26.9861C8.90532 26.9861 8.98216 27.0277 9.02344 27.1014L9.49869 27.9535C9.55894 28.0619 9.51957 28.1995 9.41132 28.2601L6.93804 29.6384L6.24357 28.3929L8.71713 27.0146ZM4.82785 27.6818C4.89072 27.6467 4.96022 27.6289 5.03085 27.6289C5.06982 27.6289 5.1091 27.6343 5.14779 27.6453C5.25657 27.6762 5.34638 27.7469 5.40085 27.8449L5.6056 28.2116L3.49076 29.3901L3.28569 29.0222C3.24532 28.9499 3.22788 28.8687 3.23416 28.7874C3.23438 28.7851 3.23466 28.7829 3.23482 28.7806C3.23726 28.7547 3.24188 28.7288 3.24919 28.7031C3.28004 28.5947 3.35085 28.5051 3.44876 28.4506L4.82785 27.6818ZM0.545849 28.9066C0.362693 28.4491 0.513505 27.9205 0.912662 27.6211C1.48751 27.1899 2.37551 27.3271 3.32966 27.9803L3.22079 28.041C3.04841 28.1368 2.91585 28.2842 2.83854 28.4628C2.52904 28.3653 2.2511 28.3118 1.85294 28.2682C1.72416 28.2542 1.60854 28.347 1.59444 28.4757C1.58035 28.6044 1.67326 28.7201 1.80191 28.7342C2.23988 28.7821 2.49754 28.8418 2.77138 28.9336C2.78569 29.0436 2.82072 29.1509 2.87629 29.2505L3.08135 29.6184L2.82547 29.761C1.66235 29.8881 0.811693 29.5706 0.545849 28.9066ZM1.53066 32.652C1.42369 32.7112 1.28329 32.6716 1.22404 32.5655L0.748724 31.7124C0.688474 31.604 0.727318 31.4668 0.835224 31.4067L3.00307 30.1987C3.00994 30.1953 3.0166 30.1916 3.02304 30.1876L3.30963 30.0279L4.00419 31.2735L3.41444 31.6022C3.41319 31.6028 3.41197 31.6036 3.41072 31.6042L1.53066 32.652ZM3.75904 36.0255V31.9467L5.60763 30.9165H6.68835V32.9921C6.68835 33.1216 6.79329 33.2265 6.92272 33.2265C7.05216 33.2265 7.1571 33.1216 7.1571 32.9921V30.9165H8.92644V36.389H7.1571V34.1026C7.1571 33.9731 7.05216 33.8682 6.92272 33.8682C6.79329 33.8682 6.68835 33.9731 6.68835 34.1026V36.389H4.12282C3.92222 36.389 3.75904 36.2259 3.75904 36.0255ZM12.3245 36.0255C12.3245 36.2259 12.1613 36.389 11.9608 36.389H9.39522V30.9165H12.2244C12.2787 30.9165 12.3245 30.9623 12.3245 31.0166V36.0255Z" fill="white" fill-opacity="0.25"/>
<path d="M11.3665 25.1972C11.3697 25.226 11.6671 28.0918 10.6637 29.1795C10.5759 29.2747 10.5819 29.4229 10.677 29.5107C10.7221 29.5523 10.779 29.5728 10.8359 29.5728C10.899 29.5728 10.962 29.5474 11.0082 29.4973C12.1545 28.2547 11.8463 25.273 11.8326 25.1466C11.8186 25.0179 11.7031 24.9251 11.5743 24.9389C11.4456 24.9529 11.3526 25.0685 11.3665 25.1972Z" fill="white" fill-opacity="0.25"/>
<path d="M13.5101 24.8487C13.1136 25.4558 12.9876 25.9976 12.9824 26.0204C12.9538 26.1465 13.0327 26.2717 13.1587 26.3005C13.1763 26.3045 13.1938 26.3065 13.2111 26.3065C13.3179 26.3065 13.4144 26.233 13.4394 26.1246C13.4406 26.1197 13.5566 25.6294 13.9117 25.091C14.379 24.3826 15.0213 23.9267 15.8207 23.7358C15.9466 23.7058 16.0244 23.5794 15.9943 23.4535C15.9643 23.3275 15.8379 23.2499 15.7119 23.2799C14.7995 23.4977 14.0381 24.0401 13.5101 24.8487Z" fill="white" fill-opacity="0.25"/>
<path d="M8.70019 23.5638C8.70101 23.5695 8.70207 23.5831 8.69997 23.6106L8.64479 24.2925C8.63694 24.3648 8.62144 24.5267 8.75357 24.6267C8.88794 24.7284 9.04579 24.6646 9.11557 24.6365L9.74194 24.3754C9.75435 24.3714 9.78494 24.3713 9.79626 24.3748L10.4276 24.6374C10.4673 24.6535 10.5385 24.6822 10.6178 24.6822C10.6728 24.6822 10.7317 24.6684 10.7866 24.6268C10.9183 24.5271 10.9029 24.3652 10.8951 24.2927L10.8409 23.6117C10.8388 23.5842 10.8396 23.5703 10.8403 23.5641L11.2953 23.0158C11.3479 22.9561 11.4517 22.8352 11.4028 22.6786C11.3532 22.5196 11.1917 22.4795 11.1227 22.4624L10.4309 22.2908L10.067 21.6834C10.0336 21.627 9.94469 21.477 9.77107 21.4766C9.77079 21.4766 9.77051 21.4766 9.77026 21.4766C9.5971 21.4766 9.50738 21.626 9.47357 21.6823C9.47354 21.6824 9.47351 21.6825 9.47347 21.6825L9.11244 22.2853L9.10916 22.2908L8.41685 22.4625C8.34804 22.4797 8.18685 22.52 8.13741 22.6789C8.08866 22.8356 8.19594 22.9606 8.24469 23.0159L8.70019 23.5638ZM9.24432 22.7402C9.4006 22.7016 9.45697 22.6242 9.50541 22.5415L9.76991 22.0997L10.0368 22.5452C10.0851 22.6262 10.1411 22.7021 10.2953 22.7402L10.8092 22.8676L10.4783 23.2663C10.3695 23.3949 10.3651 23.5374 10.3735 23.6481L10.4113 24.123L9.97747 23.9425C9.85422 23.8904 9.68785 23.8902 9.56341 23.942L9.12879 24.1232L9.16729 23.6473C9.17491 23.5471 9.17251 23.3987 9.06379 23.2679L8.73088 22.8676L9.24432 22.7402Z" fill="white" fill-opacity="0.25"/>
<path d="M15.8807 28.403C15.9301 28.3474 16.0376 28.2228 15.9891 28.0661C15.9397 27.9066 15.7776 27.8663 15.7084 27.8491L15.0176 27.6778L14.653 27.0691C14.6192 27.0128 14.5295 26.8633 14.3563 26.8633C14.356 26.8633 14.3557 26.8633 14.3555 26.8633C14.1825 26.8637 14.0936 27.0127 14.0599 27.0696L13.6981 27.6719L13.6947 27.6778L13.0038 27.8491C12.9346 27.8663 12.7726 27.9065 12.7232 28.066C12.6747 28.2228 12.7822 28.3474 12.8316 28.4029L13.2863 28.9508C13.287 28.957 13.2878 28.9707 13.2857 28.9973L13.2305 29.6791C13.2231 29.7512 13.2081 29.9144 13.3406 30.014C13.4747 30.1147 13.6318 30.0512 13.7013 30.0232L14.3277 29.7621C14.3405 29.758 14.3718 29.758 14.3828 29.7614L15.0133 30.0241C15.053 30.0401 15.1241 30.0689 15.2034 30.0689C15.2582 30.0689 15.3169 30.0551 15.3717 30.0139C15.5042 29.9144 15.4892 29.7512 15.4818 29.6791L15.4267 28.9984C15.4246 28.971 15.4253 28.957 15.4261 28.9508L15.8807 28.403ZM15.064 28.6531C14.9552 28.7816 14.9508 28.9242 14.9593 29.0352L14.9977 29.5098L14.5631 29.3287C14.4393 29.2772 14.2729 29.2772 14.1492 29.3287L13.7145 29.5098L13.7531 29.034C13.7614 28.9242 13.7571 28.7816 13.6497 28.6548L13.3174 28.2543L13.8316 28.1267C13.9867 28.088 14.0428 28.0108 14.0911 27.9284L14.3565 27.4862L14.6118 27.9124L14.6212 27.9284C14.6695 28.0108 14.7256 28.088 14.8811 28.1268L15.395 28.2543L15.064 28.6531Z" fill="white" fill-opacity="0.25"/>
<path d="M13.5007 23.4841C14.1472 23.4841 14.6732 22.9587 14.6732 22.3128C14.6732 21.6665 14.1472 21.1406 13.5007 21.1406C12.8541 21.1406 12.3281 21.6665 12.3281 22.3128C12.3281 22.9587 12.8541 23.4841 13.5007 23.4841ZM13.5007 21.6094C13.8887 21.6094 14.2044 21.9249 14.2044 22.3128C14.2044 22.7002 13.8887 23.0153 13.5007 23.0153C13.1126 23.0153 12.7969 22.7002 12.7969 22.3128C12.7969 21.9249 13.1126 21.6094 13.5007 21.6094Z" fill="white" fill-opacity="0.25"/>
</g>
<g clip-path="url(#clip1_631_1692)">
<path d="M60.2244 14.4478H54.4488L57.6398 12.6694C57.9734 12.4828 58.0939 12.0595 57.9082 11.7255L57.4326 10.8727C57.2456 10.5387 56.8219 10.4189 56.4886 10.6053L55.1612 11.345C55.3173 11.0317 55.4144 10.7246 55.4503 10.4262C55.5102 9.92952 55.3975 9.48121 55.1244 9.12974C54.6805 8.55852 53.9054 8.36865 53.2394 8.66793C53.1213 8.72099 53.0687 8.85971 53.1217 8.97781C53.1748 9.09584 53.3135 9.14855 53.4316 9.09549C53.8996 8.88512 54.4435 9.01749 54.7543 9.41737C55.2004 9.99155 55.0293 10.8897 54.2982 11.8258L54.0151 11.9836L53.8103 11.6166C53.7577 11.5221 53.6894 11.4396 53.6091 11.3715C53.6589 11.0734 53.7977 10.6877 53.9511 10.4357C54.0184 10.3251 53.9834 10.181 53.8728 10.1136C53.7623 10.0463 53.6181 10.0814 53.5508 10.1919C53.3856 10.4631 53.2425 10.8388 53.1706 11.1713C52.9743 11.1399 52.7749 11.1745 52.5996 11.2723L52.5185 11.3175C52.4864 10.6412 52.5912 10.0752 52.8275 9.66699C52.8923 9.55496 52.8541 9.41159 52.742 9.34674C52.6301 9.28196 52.4866 9.32015 52.4218 9.43218C52.1083 9.97387 51.9888 10.6926 52.0655 11.57L51.7825 11.7278C50.5866 10.8388 49.4165 10.6571 48.6314 11.246C48.063 11.6724 47.8489 12.4268 48.1107 13.0807C48.3778 13.7479 49.0458 14.1541 49.9659 14.2399L48.607 14.9971C48.2736 15.1831 48.1534 15.606 48.3391 15.9402L48.8147 16.7937C48.9414 17.0207 49.1782 17.1489 49.422 17.1489C49.5362 17.1489 49.6519 17.1208 49.7585 17.0616C49.7586 17.0615 49.7587 17.0615 49.7588 17.0614L51.2903 16.2079V20.0254C51.2903 20.4844 51.6638 20.8577 52.1228 20.8577H59.9608C60.4198 20.8577 60.7933 20.4844 60.7933 20.0254V15.0166C60.7933 14.7029 60.5381 14.4478 60.2244 14.4478ZM52.4136 15.0453L51.7191 13.7997L53.8341 12.6211L54.5286 13.8666L53.471 14.456C53.4333 14.4661 53.3993 14.4854 53.3717 14.5114L52.4136 15.0453ZM56.7171 11.0146C56.7517 10.9953 56.7892 10.9861 56.8263 10.9861C56.9053 10.9861 56.9822 11.0277 57.0234 11.1014L57.4987 11.9535C57.5589 12.0619 57.5196 12.1995 57.4113 12.2601L54.938 13.6384L54.2436 12.3929L56.7171 11.0146ZM52.8278 11.6818C52.8907 11.6467 52.9602 11.6289 53.0308 11.6289C53.0698 11.6289 53.1091 11.6343 53.1478 11.6453C53.2566 11.6762 53.3464 11.7469 53.4008 11.8449L53.6056 12.2116L51.4908 13.3901L51.2857 13.0222C51.2453 12.9499 51.2279 12.8687 51.2342 12.7874C51.2344 12.7851 51.2347 12.7829 51.2348 12.7806C51.2373 12.7547 51.2419 12.7288 51.2492 12.7031C51.28 12.5947 51.3508 12.5051 51.4488 12.4506L52.8278 11.6818ZM48.5458 12.9066C48.3627 12.4491 48.5135 11.9205 48.9127 11.6211C49.4875 11.1899 50.3755 11.3271 51.3297 11.9803L51.2208 12.041C51.0484 12.1368 50.9158 12.2842 50.8385 12.4628C50.529 12.3653 50.2511 12.3118 49.8529 12.2682C49.7242 12.2542 49.6085 12.347 49.5944 12.4757C49.5803 12.6044 49.6733 12.7201 49.8019 12.7342C50.2399 12.7821 50.4975 12.8418 50.7714 12.9336C50.7857 13.0436 50.8207 13.1509 50.8763 13.2505L51.0813 13.6184L50.8255 13.761C49.6623 13.8881 48.8117 13.5706 48.5458 12.9066ZM49.5307 16.652C49.4237 16.7112 49.2833 16.6716 49.224 16.5655L48.7487 15.7124C48.6885 15.604 48.7273 15.4668 48.8352 15.4067L51.0031 14.1987C51.0099 14.1953 51.0166 14.1916 51.023 14.1876L51.3096 14.0279L52.0042 15.2735L51.4144 15.6022C51.4132 15.6028 51.412 15.6036 51.4107 15.6042L49.5307 16.652ZM51.759 20.0255V15.9467L53.6076 14.9165H54.6883V16.9921C54.6883 17.1216 54.7933 17.2265 54.9227 17.2265C55.0522 17.2265 55.1571 17.1216 55.1571 16.9921V14.9165H56.9264V20.389H55.1571V18.1026C55.1571 17.9731 55.0522 17.8682 54.9227 17.8682C54.7933 17.8682 54.6883 17.9731 54.6883 18.1026V20.389H52.1228C51.9222 20.389 51.759 20.2259 51.759 20.0255ZM60.3245 20.0255C60.3245 20.2259 60.1613 20.389 59.9608 20.389H57.3952V14.9165H60.2244C60.2787 14.9165 60.3245 14.9623 60.3245 15.0166V20.0255Z" fill="white" fill-opacity="0.25"/>
<path d="M59.3665 9.19717C59.3697 9.22598 59.6671 12.0918 58.6637 13.1795C58.5759 13.2747 58.5819 13.4229 58.677 13.5107C58.7221 13.5523 58.779 13.5728 58.8359 13.5728C58.899 13.5728 58.962 13.5474 59.0082 13.4973C60.1545 12.2547 59.8463 9.27298 59.8326 9.14664C59.8186 9.01795 59.7031 8.92507 59.5743 8.93886C59.4456 8.95286 59.3526 9.06848 59.3665 9.19717Z" fill="white" fill-opacity="0.25"/>
<path d="M61.5101 8.84867C61.1136 9.45579 60.9876 9.99764 60.9824 10.0204C60.9538 10.1465 61.0327 10.2717 61.1587 10.3005C61.1763 10.3045 61.1938 10.3065 61.2111 10.3065C61.3179 10.3065 61.4144 10.233 61.4394 10.1246C61.4406 10.1197 61.5566 9.62942 61.9117 9.09104C62.379 8.38264 63.0213 7.92667 63.8207 7.73583C63.9466 7.70579 64.0244 7.57936 63.9943 7.45345C63.9643 7.32754 63.8379 7.24986 63.7119 7.27989C62.7995 7.49767 62.0381 8.04014 61.5101 8.84867Z" fill="white" fill-opacity="0.25"/>
<path d="M56.7002 7.56378C56.701 7.56947 56.7021 7.58309 56.7 7.61059L56.6448 8.29253C56.6369 8.36484 56.6214 8.52672 56.7536 8.62669C56.8879 8.72837 57.0458 8.66462 57.1156 8.63647L57.7419 8.37541C57.7543 8.37141 57.7849 8.37128 57.7963 8.37478L58.4276 8.63741C58.4673 8.65347 58.5385 8.68222 58.6178 8.68222C58.6728 8.68222 58.7317 8.66838 58.7866 8.62678C58.9183 8.52706 58.9029 8.36516 58.8951 8.29266L58.8409 7.61169C58.8388 7.58425 58.8396 7.57031 58.8403 7.56412L59.2953 7.01578C59.3479 6.95609 59.4517 6.83525 59.4028 6.67856C59.3532 6.51959 59.1917 6.4795 59.1227 6.46237L58.4309 6.29078L58.067 5.68344C58.0336 5.62697 57.9447 5.47703 57.7711 5.47656C57.7708 5.47656 57.7705 5.47656 57.7703 5.47656C57.5971 5.47656 57.5074 5.626 57.4736 5.68234C57.4735 5.68241 57.4735 5.68247 57.4735 5.68253L57.1124 6.28525L57.1092 6.29081L56.4168 6.4625C56.348 6.47969 56.1868 6.51997 56.1374 6.67891C56.0887 6.83556 56.1959 6.96056 56.2447 7.01591L56.7002 7.56378ZM57.2443 6.74022C57.4006 6.70159 57.457 6.62419 57.5054 6.5415L57.7699 6.09969L58.0368 6.54525C58.0851 6.62622 58.1411 6.70206 58.2953 6.74016L58.8092 6.86759L58.4783 7.26634C58.3695 7.39491 58.3651 7.53744 58.3735 7.64809L58.4113 8.12297L57.9775 7.94247C57.8542 7.89041 57.6878 7.89025 57.5634 7.94203L57.1288 8.12316L57.1673 7.64731C57.1749 7.54709 57.1725 7.39872 57.0638 7.26794L56.7309 6.86756L57.2443 6.74022Z" fill="white" fill-opacity="0.25"/>
<path d="M63.8807 12.403C63.9301 12.3474 64.0376 12.2228 63.9891 12.0661C63.9397 11.9066 63.7776 11.8663 63.7084 11.8491L63.0176 11.6778L62.653 11.0691C62.6192 11.0128 62.5295 10.8633 62.3563 10.8633C62.356 10.8633 62.3557 10.8633 62.3555 10.8633C62.1825 10.8637 62.0936 11.0127 62.0599 11.0696L61.6981 11.6719L61.6947 11.6778L61.0038 11.8491C60.9346 11.8663 60.7726 11.9065 60.7232 12.066C60.6747 12.2228 60.7822 12.3474 60.8316 12.4029L61.2863 12.9508C61.287 12.957 61.2878 12.9707 61.2857 12.9973L61.2305 13.6791C61.2231 13.7512 61.2081 13.9144 61.3406 14.014C61.4747 14.1147 61.6318 14.0512 61.7013 14.0232L62.3277 13.7621C62.3405 13.758 62.3718 13.758 62.3828 13.7614L63.0133 14.0241C63.053 14.0401 63.1241 14.0689 63.2034 14.0689C63.2582 14.0689 63.3169 14.0551 63.3717 14.0139C63.5042 13.9144 63.4892 13.7512 63.4818 13.6791L63.4267 12.9984C63.4246 12.971 63.4253 12.957 63.4261 12.9508L63.8807 12.403ZM63.064 12.6531C62.9552 12.7816 62.9508 12.9242 62.9593 13.0352L62.9977 13.5098L62.5631 13.3287C62.4393 13.2772 62.2729 13.2772 62.1492 13.3287L61.7145 13.5098L61.7531 13.034C61.7614 12.9242 61.7571 12.7816 61.6497 12.6548L61.3174 12.2543L61.8316 12.1267C61.9867 12.088 62.0428 12.0108 62.0911 11.9284L62.3565 11.4862L62.6118 11.9124L62.6212 11.9284C62.6695 12.0108 62.7256 12.088 62.8811 12.1268L63.395 12.2543L63.064 12.6531Z" fill="white" fill-opacity="0.25"/>
<path d="M61.5007 7.48409C62.1472 7.48409 62.6732 6.95866 62.6732 6.31281C62.6732 5.66647 62.1472 5.14062 61.5007 5.14062C60.8541 5.14062 60.3281 5.66647 60.3281 6.31281C60.3281 6.95866 60.8541 7.48409 61.5007 7.48409ZM61.5007 5.60938C61.8887 5.60938 62.2044 5.92494 62.2044 6.31281C62.2044 6.70019 61.8887 7.01534 61.5007 7.01534C61.1126 7.01534 60.7969 6.70019 60.7969 6.31281C60.7969 5.92494 61.1126 5.60938 61.5007 5.60938Z" fill="white" fill-opacity="0.25"/>
</g>
<path d="M69.6706 25.8832H65.3747L67.7482 24.9069C67.9963 24.8044 68.086 24.572 67.9479 24.3887L67.5941 23.9205C67.455 23.7371 67.1399 23.6713 66.8919 23.7737L65.9046 24.1797C66.0207 24.0078 66.093 23.8391 66.1197 23.6753C66.1642 23.4026 66.0804 23.1565 65.8773 22.9635C65.5471 22.6499 64.9706 22.5457 64.4752 22.71C64.3874 22.7391 64.3482 22.8153 64.3877 22.8801C64.4271 22.9449 64.5303 22.9739 64.6182 22.9447C64.9663 22.8292 65.3708 22.9019 65.602 23.1215C65.9338 23.4367 65.8065 23.9298 65.2627 24.4437L65.0522 24.5303L64.8998 24.3289C64.8607 24.277 64.8099 24.2317 64.7502 24.1943C64.7872 24.0307 64.8904 23.8189 65.0046 23.6805C65.0546 23.6198 65.0286 23.5407 64.9463 23.5037C64.8641 23.4668 64.7569 23.486 64.7068 23.5467C64.584 23.6956 64.4775 23.9019 64.424 24.0844C64.278 24.0672 64.1297 24.0861 63.9993 24.1398L63.939 24.1646C63.9151 23.7934 63.9931 23.4826 64.1688 23.2585C64.217 23.197 64.1886 23.1183 64.1053 23.0827C64.022 23.0471 63.9153 23.0681 63.8671 23.1296C63.6339 23.427 63.545 23.8216 63.6021 24.3033L63.3916 24.3899C62.5021 23.9018 61.6317 23.8021 61.0477 24.1254C60.625 24.3595 60.4657 24.7737 60.6605 25.1327C60.8591 25.499 61.356 25.722 62.0404 25.7691L61.0296 26.1849C60.7816 26.2869 60.6922 26.5191 60.8304 26.7026L61.1841 27.1712C61.2783 27.2959 61.4545 27.3662 61.6358 27.3662C61.7207 27.3662 61.8068 27.3508 61.8861 27.3183C61.8862 27.3182 61.8863 27.3182 61.8863 27.3182L63.0254 26.8496V28.9455C63.0254 29.1975 63.3032 29.4024 63.6447 29.4024H69.4746C69.816 29.4024 70.0938 29.1975 70.0938 28.9455V26.1955C70.0938 26.0233 69.904 25.8832 69.6706 25.8832ZM63.861 26.2113L63.3444 25.5274L64.9175 24.8804L65.4341 25.5642L64.6475 25.8878C64.6194 25.8933 64.5941 25.9039 64.5736 25.9182L63.861 26.2113ZM67.0619 23.9984C67.0876 23.9878 67.1156 23.9827 67.1432 23.9827C67.2019 23.9827 67.2591 24.0056 67.2898 24.046L67.6433 24.5138C67.6881 24.5733 67.6588 24.6489 67.5783 24.6822L65.7386 25.4389L65.2221 24.7551L67.0619 23.9984ZM64.1691 24.3647C64.2159 24.3454 64.2675 24.3356 64.3201 24.3356C64.3491 24.3356 64.3783 24.3386 64.4071 24.3446C64.488 24.3616 64.5548 24.4004 64.5953 24.4542L64.7476 24.6556L63.1746 25.3026L63.022 25.1006C62.992 25.0609 62.979 25.0163 62.9837 24.9716C62.9839 24.9704 62.9841 24.9692 62.9842 24.968C62.986 24.9537 62.9894 24.9395 62.9949 24.9254C63.0178 24.8659 63.0705 24.8167 63.1433 24.7868L64.1691 24.3647ZM60.9841 25.0371C60.8479 24.7859 60.9601 24.4957 61.257 24.3313C61.6845 24.0946 62.345 24.1699 63.0547 24.5286L62.9738 24.5619C62.8455 24.6145 62.7469 24.6954 62.6894 24.7934C62.4592 24.7399 62.2525 24.7106 61.9563 24.6866C61.8606 24.6789 61.7746 24.7299 61.7641 24.8005C61.7536 24.8712 61.8227 24.9347 61.9184 24.9424C62.2442 24.9688 62.4358 25.0015 62.6395 25.0519C62.6501 25.1123 62.6762 25.1712 62.7175 25.2259L62.87 25.4279L62.6797 25.5062C61.8146 25.576 61.1819 25.4016 60.9841 25.0371ZM61.7166 27.0934C61.6371 27.1259 61.5326 27.1042 61.4886 27.0459L61.135 26.5775C61.0902 26.518 61.1191 26.4427 61.1994 26.4097L62.8118 25.7465C62.8169 25.7446 62.8219 25.7426 62.8267 25.7404L63.0398 25.6527L63.5565 26.3366L63.1178 26.517C63.1169 26.5174 63.116 26.5178 63.115 26.5182L61.7166 27.0934ZM63.3741 28.9455V26.7062L64.7491 26.1406H65.5529V27.2802C65.5529 27.3512 65.631 27.4088 65.7273 27.4088C65.8235 27.4088 65.9016 27.3512 65.9016 27.2802V26.1406H67.2176V29.1451H65.9016V27.8898C65.9016 27.8187 65.8235 27.7611 65.7273 27.7611C65.631 27.7611 65.5529 27.8187 65.5529 27.8898V29.1451H63.6447C63.4955 29.1451 63.3741 29.0556 63.3741 28.9455ZM69.7451 28.9455C69.7451 29.0556 69.6238 29.1451 69.4746 29.1451H67.5663V26.1406H69.6706C69.711 26.1406 69.7451 26.1657 69.7451 26.1955V28.9455Z" fill="white" fill-opacity="0.25"/>
<path d="M69.0338 23.0019C69.0362 23.0178 69.2574 24.5911 68.511 25.1883C68.4457 25.2406 68.4502 25.322 68.521 25.3702C68.5545 25.393 68.5969 25.4042 68.6391 25.4042C68.6861 25.4042 68.7329 25.3903 68.7673 25.3628C69.6199 24.6806 69.3907 23.0436 69.3805 22.9742C69.3701 22.9035 69.2842 22.8526 69.1884 22.8601C69.0927 22.8678 69.0235 22.9313 69.0338 23.0019Z" fill="white" fill-opacity="0.25"/>
<path d="M70.6273 22.8101C70.3324 23.1435 70.2387 23.441 70.2348 23.4535C70.2135 23.5227 70.2722 23.5914 70.366 23.6073C70.379 23.6094 70.3921 23.6105 70.405 23.6105C70.4843 23.6105 70.5561 23.5702 70.5747 23.5107C70.5756 23.508 70.6619 23.2388 70.926 22.9432C71.2736 22.5543 71.7513 22.3039 72.346 22.1992C72.4396 22.1827 72.4974 22.1133 72.4751 22.0441C72.4527 21.975 72.3587 21.9324 72.265 21.9489C71.5864 22.0684 71.0201 22.3662 70.6273 22.8101Z" fill="white" fill-opacity="0.25"/>
<path d="M67.0489 22.103C67.0495 22.1061 67.0503 22.1136 67.0488 22.1287L67.0077 22.5031C67.0019 22.5428 66.9903 22.6316 67.0886 22.6865C67.1886 22.7423 67.306 22.7073 67.3579 22.6919L67.8238 22.5486C67.833 22.5464 67.8558 22.5463 67.8642 22.5482L68.3338 22.6924C68.3633 22.7012 68.4163 22.717 68.4752 22.717C68.5161 22.717 68.5599 22.7094 68.6008 22.6866C68.6988 22.6318 68.6873 22.5429 68.6815 22.5031L68.6412 22.1293C68.6396 22.1142 68.6402 22.1065 68.6407 22.1031L68.9792 21.8021C69.0183 21.7693 69.0955 21.703 69.0591 21.617C69.0222 21.5297 68.9021 21.5077 68.8508 21.4983L68.3362 21.4041L68.0656 21.0706C68.0407 21.0396 67.9746 20.9573 67.8454 20.957C67.8452 20.957 67.845 20.957 67.8448 20.957C67.716 20.957 67.6493 21.0391 67.6242 21.07C67.6241 21.07 67.6241 21.0701 67.6241 21.0701L67.3556 21.401L67.3531 21.4041L66.8382 21.4983C66.787 21.5078 66.6671 21.5299 66.6303 21.6171C66.5941 21.7031 66.6739 21.7718 66.7101 21.8022L67.0489 22.103ZM67.4536 21.6508C67.5699 21.6296 67.6118 21.5871 67.6478 21.5417L67.8446 21.2991L68.0431 21.5438C68.079 21.5882 68.1207 21.6299 68.2354 21.6508L68.6176 21.7207L68.3714 21.9397C68.2905 22.0102 68.2873 22.0885 68.2936 22.1492L68.3217 22.41L67.999 22.3109C67.9073 22.2823 67.7835 22.2822 67.691 22.3106L67.3677 22.4101L67.3963 22.1488C67.402 22.0938 67.4002 22.0123 67.3194 21.9405L67.0717 21.7207L67.4536 21.6508Z" fill="white" fill-opacity="0.25"/>
<path d="M72.3889 24.7633C72.4257 24.7328 72.5056 24.6644 72.4695 24.5783C72.4328 24.4908 72.3123 24.4687 72.2608 24.4592L71.7469 24.3651L71.4758 24.0309C71.4506 24 71.3839 23.918 71.2551 23.918C71.2549 23.918 71.2547 23.918 71.2545 23.918C71.1258 23.9182 71.0597 24 71.0346 24.0312L70.7655 24.3619L70.763 24.3651L70.2491 24.4592C70.1976 24.4686 70.0771 24.4907 70.0404 24.5783C70.0043 24.6643 70.0842 24.7328 70.121 24.7633L70.4592 25.0641C70.4597 25.0675 70.4603 25.075 70.4588 25.0896L70.4177 25.4639C70.4122 25.5035 70.4011 25.5931 70.4996 25.6478C70.5993 25.7031 70.7162 25.6682 70.7679 25.6528L71.2338 25.5095C71.2433 25.5072 71.2666 25.5072 71.2748 25.5091L71.7438 25.6533C71.7733 25.6621 71.8262 25.6779 71.8852 25.6779C71.9259 25.6779 71.9696 25.6704 72.0104 25.6477C72.1089 25.5931 72.0977 25.5035 72.0922 25.4639L72.0512 25.0902C72.0497 25.0751 72.0502 25.0675 72.0508 25.0641L72.3889 24.7633ZM71.7815 24.9006C71.7005 24.9712 71.6973 25.0494 71.7036 25.1104L71.7322 25.371L71.4089 25.2715C71.3168 25.2432 71.1931 25.2433 71.101 25.2715L70.7777 25.371L70.8064 25.1097C70.8126 25.0494 70.8094 24.9712 70.7295 24.9015L70.4823 24.6817L70.8648 24.6116C70.9801 24.5904 71.0219 24.548 71.0578 24.5027L71.2552 24.26L71.4451 24.4939L71.4521 24.5027C71.488 24.548 71.5298 24.5904 71.6454 24.6117L72.0276 24.6817L71.7815 24.9006Z" fill="white" fill-opacity="0.25"/>
<path d="M70.6182 22.06C71.0991 22.06 71.4904 21.7716 71.4904 21.417C71.4904 21.0621 71.0991 20.7734 70.6182 20.7734C70.1373 20.7734 69.7461 21.0621 69.7461 21.417C69.7461 21.7716 70.1373 22.06 70.6182 22.06ZM70.6182 21.0308C70.9069 21.0308 71.1417 21.204 71.1417 21.417C71.1417 21.6297 70.9069 21.8027 70.6182 21.8027C70.3296 21.8027 70.0948 21.6297 70.0948 21.417C70.0948 21.204 70.3296 21.0308 70.6182 21.0308Z" fill="white" fill-opacity="0.25"/>
<g clip-path="url(#clip2_631_1692)">
<path d="M30.6987 3.43375L32 3L30.6987 2.56625C30.1015 2.36725 29.633 1.8985 29.4338 1.30125L29 0L28.5662 1.30125C28.3672 1.8985 27.8985 2.367 27.3012 2.56625L26 3L27.3012 3.43375C27.8985 3.63275 28.367 4.1015 28.5662 4.69875L29 6L29.4338 4.69875C29.6328 4.1015 30.1015 3.63275 30.6987 3.43375Z" fill="white" fill-opacity="0.25"/>
<path d="M29 -0.75C28.862 -0.75 28.75 -0.86175 28.75 -1V-3.75C28.75 -3.88825 28.862 -4 29 -4C29.138 -4 29.25 -3.88825 29.25 -3.75V-1C29.25 -0.86175 29.138 -0.75 29 -0.75ZM29.25 -4.75C29.25 -4.888 29.138 -5 29 -5C28.862 -5 28.75 -4.888 28.75 -4.75C28.75 -4.612 28.862 -4.5 29 -4.5C29.138 -4.5 29.25 -4.612 29.25 -4.75ZM29.25 9.75V7C29.25 6.86175 29.138 6.75 29 6.75C28.862 6.75 28.75 6.86175 28.75 7V9.75C28.75 9.88825 28.862 10 29 10C29.138 10 29.25 9.88825 29.25 9.75ZM29 10.5C28.862 10.5 28.75 10.612 28.75 10.75C28.75 10.888 28.862 11 29 11C29.138 11 29.25 10.888 29.25 10.75C29.25 10.612 29.138 10.5 29 10.5ZM36 3C36 2.86175 35.888 2.75 35.75 2.75H33C32.862 2.75 32.75 2.86175 32.75 3C32.75 3.13825 32.862 3.25 33 3.25H35.75C35.888 3.25 36 3.13825 36 3ZM36.75 3.25C36.888 3.25 37 3.138 37 3C37 2.862 36.888 2.75 36.75 2.75C36.612 2.75 36.5 2.862 36.5 3C36.5 3.138 36.612 3.25 36.75 3.25ZM25.25 3C25.25 2.86175 25.138 2.75 25 2.75H22.25C22.112 2.75 22 2.86175 22 3C22 3.13825 22.112 3.25 22.25 3.25H25C25.138 3.25 25.25 3.13825 25.25 3ZM21.5 3C21.5 2.862 21.388 2.75 21.25 2.75C21.112 2.75 21 2.862 21 3C21 3.138 21.112 3.25 21.25 3.25C21.388 3.25 21.5 3.138 21.5 3ZM33.9497 7.94975C34.0475 7.852 34.0475 7.694 33.9497 7.59625L32.0052 5.65175C31.9075 5.554 31.7495 5.554 31.6517 5.65175C31.554 5.7495 31.554 5.9075 31.6517 6.00525L33.5962 7.94975C33.645 7.9985 33.709 8.023 33.773 8.023C33.837 8.023 33.901 7.9985 33.9497 7.94975ZM34.3033 8.65675C34.401 8.7545 34.5592 8.7545 34.6567 8.65675C34.7545 8.559 34.7545 8.40075 34.6567 8.30325C34.559 8.2055 34.4008 8.2055 34.3033 8.30325C34.2058 8.401 34.2058 8.55925 34.3033 8.65675ZM26.3485 0.3485C26.4462 0.25075 26.4462 0.0927501 26.3485 -0.00500011L24.404 -1.9495C24.3063 -2.04725 24.1482 -2.04725 24.0505 -1.9495C23.9527 -1.85175 23.9527 -1.69375 24.0505 -1.596L25.995 0.3485C26.0437 0.39725 26.1077 0.42175 26.1718 0.42175C26.2358 0.42175 26.2995 0.39725 26.3485 0.3485ZM23.6967 -2.30325C23.7945 -2.401 23.7945 -2.55925 23.6967 -2.65675C23.599 -2.7545 23.4408 -2.7545 23.3433 -2.65675C23.2455 -2.559 23.2455 -2.40075 23.3433 -2.30325C23.4408 -2.20575 23.599 -2.20575 23.6967 -2.30325ZM32.0052 0.3485L33.9497 -1.596C34.0475 -1.69375 34.0475 -1.85175 33.9497 -1.9495C33.852 -2.04725 33.694 -2.04725 33.5962 -1.9495L31.6517 -0.00500011C31.554 0.0927501 31.554 0.25075 31.6517 0.3485C31.7005 0.39725 31.7645 0.42175 31.8285 0.42175C31.8925 0.42175 31.9563 0.39725 32.0052 0.3485ZM34.6567 -2.30325C34.7545 -2.401 34.7545 -2.55925 34.6567 -2.65675C34.559 -2.7545 34.4008 -2.7545 34.3033 -2.65675C34.2055 -2.559 34.2055 -2.40075 34.3033 -2.30325C34.401 -2.20575 34.5592 -2.20575 34.6567 -2.30325ZM24.4037 7.94975L26.3482 6.00525C26.446 5.9075 26.446 5.7495 26.3482 5.65175C26.2505 5.554 26.0925 5.554 25.9948 5.65175L24.0503 7.59625C23.9525 7.694 23.9525 7.852 24.0503 7.94975C24.099 7.9985 24.163 8.023 24.227 8.023C24.291 8.023 24.355 7.9985 24.4037 7.94975ZM23.6967 8.30325C23.599 8.2055 23.4408 8.2055 23.3433 8.30325C23.2455 8.401 23.2455 8.55925 23.3433 8.65675C23.441 8.7545 23.5992 8.7545 23.6967 8.65675C23.7943 8.55925 23.7943 8.401 23.6967 8.30325Z" fill="white" fill-opacity="0.25"/>
</g>
<defs>
<clipPath id="clip0_631_1692">
<rect width="16" height="16" fill="white" transform="translate(0 21)"/>
</clipPath>
<clipPath id="clip1_631_1692">
<rect width="16" height="16" fill="white" transform="translate(48 5)"/>
</clipPath>
<clipPath id="clip2_631_1692">
<rect width="16" height="16" fill="white" transform="translate(21 -5)"/>
</clipPath>
</defs>
</svg>
