<svg width="124" height="34" viewBox="0 0 124 34" fill="none" xmlns="http://www.w3.org/2000/svg">
<path d="M9.17627 3.4223V13.7381H9.28157C10.0601 9.9021 12.0796 7.51777 16.5925 7.51777H17.371C22.8128 7.51777 26.0283 11.3538 26.0283 18.4052V22.5533C26.0283 29.7063 23.125 33.6476 17.6831 33.6476H16.8482C12.5459 33.6476 10.3158 31.0038 9.27781 27.6341H9.17627V30.3306C9.17627 32.0944 7.87881 33.546 6.11877 33.546H3.0575C1.2937 33.5423 0 32.0906 0 30.3268V3.4223C0 1.45166 1.34635 0 3.26435 0H5.85551C7.7735 0 9.17627 1.45166 9.17627 3.4223ZM93.6732 7.61931H77.9645C76.0465 7.61931 74.749 9.01832 74.749 10.7295V13.1664C74.749 14.8776 75.9412 16.2766 78.1713 16.2766H81.5936C83.3047 16.2766 84.6022 16.0698 85.5349 15.7576L85.6402 15.8629L76.6181 23.6928C75.1138 24.9903 74.6475 26.2313 74.6475 27.7357V30.2253C74.6475 32.038 75.9449 33.5423 77.8629 33.5423H93.6732C95.5912 33.5423 96.8886 32.1433 96.8886 30.4321V27.841C96.8886 26.1298 95.6965 24.7308 93.4663 24.7308H89.5777C87.7124 24.7308 86.3623 24.9903 85.3769 25.3513L85.2716 25.246L94.8616 17.4688C96.4185 16.2239 96.8849 14.9302 96.8849 13.4259V10.9363C96.8886 9.12362 95.5912 7.61931 93.6732 7.61931ZM110.939 24.9865C107.829 24.9865 106.531 23.6891 106.531 20.5789C106.531 17.4688 107.829 16.1713 110.939 16.1713C114.049 16.1713 115.346 17.4688 115.346 20.5789C115.346 23.6891 114.049 24.9865 110.939 24.9865ZM97.874 18.9731V22.1885C97.874 29.1873 102.33 33.6438 109.848 33.6438H112.026C119.543 33.6438 124 29.1873 124 22.1885V18.9731C124 11.9743 119.543 7.51777 112.026 7.51777H109.848C102.33 7.51777 97.874 11.9743 97.874 18.9731ZM17.3672 20.5789C17.3672 17.4688 16.0698 16.1713 12.9596 16.1713C9.84945 16.1713 8.65728 17.4688 8.65728 20.5789C8.65728 23.6891 9.84945 24.8812 12.9596 24.8812C16.0698 24.8812 17.3672 23.6928 17.3672 20.5789ZM55.8812 11.0416V30.3268C55.8812 32.0906 57.1787 33.5423 58.9387 33.5423H61.9962C63.76 33.5423 65.0537 32.0906 65.0537 30.3268V20.011C65.0537 17.213 66.1933 16.2804 68.8897 16.2804H70.6535C72.2105 16.2804 73.35 14.9829 73.35 13.4823V10.218C73.35 8.819 72.5189 7.62683 70.7062 7.62683H70.1345C67.1259 7.62683 66.0917 9.33798 65.5727 11.8276L65.159 13.7456H65.0537V11.0491C65.0537 9.07849 63.6021 7.62683 61.7367 7.62683H59.1456C57.2313 7.61931 55.8812 9.07097 55.8812 11.0416ZM40.9021 24.9865C37.7919 24.9865 36.4945 23.6891 36.4945 20.5789C36.4945 17.4688 37.7919 16.1713 40.9021 16.1713C44.0123 16.1713 45.3097 17.4688 45.3097 20.5789C45.3097 23.6891 44.0123 24.9865 40.9021 24.9865ZM27.8372 18.9731V22.1885C27.8372 29.1873 32.2937 33.6438 39.8115 33.6438H41.989C49.5067 33.6438 53.9632 29.1873 53.9632 22.1885V18.9731C53.9632 11.9743 49.5067 7.51777 41.989 7.51777H39.8115C32.2975 7.51777 27.8372 11.9743 27.8372 18.9731Z" fill="#0048FF"/>
</svg>
