<svg width="80" height="80" viewBox="0 0 80 80" fill="none" xmlns="http://www.w3.org/2000/svg">
<path d="M55.2311 63.8091H23.6105C19.8448 63.8091 16.7812 60.7457 16.7812 56.9799V29.2832C16.7812 28.938 17.0612 28.6582 17.4062 28.6582H62.5869C62.932 28.6582 63.2119 28.938 63.2119 29.2832V55.8282C63.212 60.2288 59.6319 63.8091 55.2311 63.8091ZM18.0315 29.9082V56.9799C18.0315 60.0562 20.5342 62.5591 23.6106 62.5591H55.2311C58.9425 62.5591 61.9621 59.5396 61.9621 55.8282V29.9082H18.0315Z" fill="#7939CC"/>
<path d="M46.4688 63.809C46.1235 63.809 45.8438 63.5291 45.8438 63.184C45.8438 62.8388 46.1235 62.559 46.4688 62.559C50.3958 62.559 50.4408 59.1629 50.4408 59.0182C50.4408 54.6174 54.0212 51.0373 58.4219 51.0373C58.4289 51.0373 59.3566 51.0249 60.2501 50.5413C61.3863 49.9263 61.9627 48.8276 61.9627 47.2754C61.9627 46.9302 62.2425 46.6504 62.5877 46.6504C62.9328 46.6504 63.2127 46.9302 63.2127 47.2754V47.2784C63.2108 56.2391 55.5437 63.809 46.4688 63.809ZM61.393 51.3026C60.4116 52.0334 59.2378 52.2873 58.422 52.2873C54.7106 52.2873 51.6911 55.3068 51.6911 59.0182C51.6911 59.0457 51.6712 60.6245 50.6741 61.962C55.8043 60.4791 59.932 56.3787 61.393 51.3026Z" fill="#7939CC"/>
<path d="M62.5852 36.1836H56.7266C56.3814 36.1836 56.1016 35.9038 56.1016 35.5586C56.1016 35.2134 56.3814 34.9336 56.7266 34.9336H62.5852C62.9303 34.9336 63.2102 35.2134 63.2102 35.5586C63.2102 35.9038 62.9303 36.1836 62.5852 36.1836Z" fill="#7939CC"/>
<path d="M51.1687 18.6289H28.8281C28.483 18.6289 28.2031 18.3491 28.2031 18.0039C28.2031 17.6587 28.483 17.3789 28.8281 17.3789H51.1687C51.5139 17.3789 51.7937 17.6587 51.7937 18.0039C51.7937 18.3491 51.5139 18.6289 51.1687 18.6289Z" fill="#7939CC"/>
<path d="M62.5876 29.9086H17.4062C17.0612 29.9086 16.7812 29.6288 16.7812 29.2836V24.2086C16.7812 20.4427 19.8451 17.3789 23.611 17.3789H25.0485C25.3937 17.3789 25.6735 17.6587 25.6735 18.0039C25.6735 18.3491 25.3937 18.6289 25.0485 18.6289H23.611C20.5345 18.6289 18.0312 21.132 18.0312 24.2086V28.6586H61.9626V24.2086C61.9626 21.132 59.4595 18.6289 56.3829 18.6289H54.9454C54.6003 18.6289 54.3204 18.3491 54.3204 18.0039C54.3204 17.6587 54.6003 17.3789 54.9454 17.3789H56.3829C60.1489 17.3789 63.2126 20.4427 63.2126 24.2086V29.2836C63.2126 29.6288 62.9328 29.9086 62.5876 29.9086Z" fill="#7939CC"/>
<path d="M26.9355 22.592C25.5495 22.592 24.4219 21.4643 24.4219 20.0784V15.3437C24.4219 13.9577 25.5495 12.8301 26.9355 12.8301C28.3214 12.8301 29.4491 13.9577 29.4491 15.3437V20.0784C29.4491 21.4645 28.3216 22.592 26.9355 22.592ZM26.9355 14.0801C26.2388 14.0801 25.6719 14.647 25.6719 15.3437V20.0784C25.6719 20.7751 26.2388 21.342 26.9355 21.342C27.6322 21.342 28.1991 20.7751 28.1991 20.0784V15.3437C28.1991 14.647 27.6322 14.0801 26.9355 14.0801Z" fill="#7939CC"/>
<path d="M53.0527 22.592C51.6667 22.592 50.5391 21.4643 50.5391 20.0784V15.3437C50.5391 13.9577 51.6667 12.8301 53.0527 12.8301C54.4386 12.8301 55.5662 13.9577 55.5662 15.3437V20.0784C55.5662 21.4645 54.4386 22.592 53.0527 22.592ZM53.0527 14.0801C52.3559 14.0801 51.7891 14.647 51.7891 15.3437V20.0784C51.7891 20.7751 52.3559 21.342 53.0527 21.342C53.7494 21.342 54.3162 20.7751 54.3162 20.0784V15.3437C54.3162 14.647 53.7494 14.0801 53.0527 14.0801Z" fill="#7939CC"/>
<path d="M48.7781 27.2031H30.8281C30.483 27.2031 30.2031 26.9233 30.2031 26.5781C30.2031 26.233 30.483 25.9531 30.8281 25.9531H48.778C49.1231 25.9531 49.403 26.233 49.403 26.5781C49.403 26.9233 49.1233 27.2031 48.7781 27.2031Z" fill="#7939CC"/>
<path d="M37.4695 20.6445H32.5C32.2842 20.6445 32.1094 20.4697 32.1094 20.2539C32.1094 20.0381 32.2842 19.8633 32.5 19.8633H37.4695C37.6853 19.8633 37.8602 20.0381 37.8602 20.2539C37.8602 20.4697 37.6853 20.6445 37.4695 20.6445Z" fill="#7939CC"/>
<path d="M40.8119 20.6445H39.9063C39.6905 20.6445 39.5156 20.4697 39.5156 20.2539C39.5156 20.0381 39.6905 19.8633 39.9063 19.8633H40.8119C41.0277 19.8633 41.2025 20.0381 41.2025 20.2539C41.2025 20.4697 41.0277 20.6445 40.8119 20.6445Z" fill="#7939CC"/>
<path d="M26.3594 18.7693C26.1436 18.7693 25.9688 18.5945 25.9688 18.3787V16.2051C25.9688 15.9893 26.1436 15.8145 26.3594 15.8145C26.5752 15.8145 26.75 15.9893 26.75 16.2051V18.3787C26.75 18.5945 26.5752 18.7693 26.3594 18.7693Z" fill="#7939CC"/>
<path d="M52.5391 18.7696C52.3233 18.7696 52.1484 18.5948 52.1484 18.379V17.627C52.1484 17.4112 52.3233 17.2363 52.5391 17.2363C52.7548 17.2363 52.9297 17.4112 52.9297 17.627V18.379C52.9297 18.5948 52.7548 18.7696 52.5391 18.7696Z" fill="#7939CC"/>
<path d="M20.5889 14.0801H17.4062C17.0612 14.0801 16.7812 13.8002 16.7812 13.4551C16.7812 13.1099 17.0612 12.8301 17.4062 12.8301H20.5889C20.9341 12.8301 21.2139 13.1099 21.2139 13.4551C21.2139 13.8002 20.9341 14.0801 20.5889 14.0801Z" fill="#7939CC"/>
<path d="M62.589 67.1641H59.4062C59.0612 67.1641 58.7812 66.8842 58.7812 66.5391C58.7812 66.1939 59.0612 65.9141 59.4062 65.9141H62.589C62.9342 65.9141 63.214 66.1939 63.214 66.5391C63.214 66.8842 62.9342 67.1641 62.589 67.1641Z" fill="#7939CC"/>
<path d="M57.3253 67.1702H57.3225L56.8255 67.168C56.4803 67.1664 56.2017 66.8855 56.2031 66.5403C56.2045 66.1961 56.4842 65.918 56.8281 65.918H56.8309L57.328 65.9202C57.6731 65.9217 57.9517 66.2027 57.9503 66.5478C57.9488 66.892 57.6692 67.1702 57.3253 67.1702Z" fill="#7939CC"/>
<path d="M36.2657 56.0469C35.1615 56.0469 34.6093 55.8698 34.6093 55.5156C34.6093 55.3906 34.6718 55.2188 34.7968 55L41.6718 39.7969H34.4218C34.1302 39.7969 33.9166 39.6875 33.7812 39.4688C33.6562 39.25 33.5938 38.8958 33.5938 38.4062V37.9531C33.5938 37.4635 33.6562 37.1094 33.7812 36.8906C33.9166 36.6719 34.1302 36.5625 34.4218 36.5625H45.4375C45.5313 36.5625 45.6407 36.7083 45.7657 37C45.9011 37.2917 46.0156 37.6354 46.1093 38.0312C46.2135 38.4271 46.2657 38.7656 46.2657 39.0469C46.2657 39.1719 46.2448 39.2969 46.2032 39.4219L38.9062 55.5C38.8021 55.7083 38.6145 55.8542 38.3438 55.9375C38.0834 56.0104 37.7291 56.0469 37.2812 56.0469H36.2657Z" fill="#7939CC"/>
</svg>
