<svg width="780" height="532" viewBox="0 0 780 532" fill="none" xmlns="http://www.w3.org/2000/svg">
<rect width="780" height="532" rx="32" fill="url(#paint0_linear_1158_9124)" fill-opacity="0.6"/>
<g clip-path="url(#clip0_1158_9124)">
<path d="M123.945 389.794L275.492 465.284L504.019 351.215L352.472 275.725L123.945 389.794Z" fill="#10A81B"/>
<path opacity="0.5" d="M123.945 389.794L275.492 465.284L504.019 351.215L352.472 275.725L123.945 389.794Z" fill="white"/>
<path d="M123.945 389.796V397.532L275.492 473.008V465.287L123.945 389.796Z" fill="#10A81B"/>
<path opacity="0.3" d="M123.945 389.796V397.532L275.492 473.008V465.287L123.945 389.796Z" fill="white"/>
<path d="M275.492 465.283L504.019 351.214V358.95L275.492 473.004V465.283Z" fill="#10A81B"/>
<path opacity="0.7" d="M275.492 465.283L504.019 351.214V358.95L275.492 473.004V465.283Z" fill="white"/>
<path d="M131.688 378.2L275.493 449.808L488.519 343.475L344.731 271.867L131.688 378.2Z" fill="#10A81B"/>
<path opacity="0.5" d="M131.688 378.2L275.493 449.808L488.519 343.475L344.731 271.867L131.688 378.2Z" fill="white"/>
<path d="M131.688 378.201V385.923L275.493 457.545V449.809L131.688 378.201Z" fill="#10A81B"/>
<path opacity="0.3" d="M131.688 378.201V385.923L275.493 457.545V449.809L131.688 378.201Z" fill="white"/>
<path d="M275.492 449.809L488.519 343.476V351.212L275.492 457.545V449.809Z" fill="#10A81B"/>
<path opacity="0.7" d="M275.492 449.809L488.519 343.476V351.212L275.492 457.545V449.809Z" fill="white"/>
<path d="M139.445 227.251V374.335L236.751 422.75V275.666L139.445 227.251Z" fill="#10A81B"/>
<path opacity="0.3" d="M139.445 227.251V374.335L236.751 422.75V275.666L139.445 227.251Z" fill="white"/>
<path d="M434.294 177.069V324.139L236.75 422.751V275.666L434.294 177.069Z" fill="#10A81B"/>
<path opacity="0.1" d="M434.294 177.069V324.139L236.75 422.751V275.666L434.294 177.069Z" fill="white"/>
<path d="M313.734 384.316V316.46C313.734 300.437 323.487 282.575 335.535 276.563C347.566 270.551 357.335 278.678 357.335 294.7V362.557L313.734 384.316Z" fill="#10A81B"/>
<path d="M251.578 368.67L270.362 359.297V333.09L251.578 342.463V368.67ZM251.578 401.28L270.362 391.907V365.7L251.578 375.073V401.28ZM251.578 336.046L270.362 326.673V300.466L251.578 309.839V336.046ZM276.395 356.269L295.179 346.896V320.69L276.395 330.063V356.269ZM276.395 297.438V323.645L295.179 314.272V288.065L276.395 297.438ZM276.395 388.879L295.179 379.506V353.299L276.395 362.672V388.879Z" fill="#10A81B"/>
<path d="M376.148 306.492L394.933 297.119V270.912L376.148 280.285V306.492ZM376.148 273.882L394.933 264.509V238.302L376.148 247.675V273.882ZM376.148 339.116L394.933 329.743V303.536L376.148 312.909V339.116ZM400.965 235.289V261.496L419.749 252.123V225.916L400.965 235.289ZM400.965 326.73L419.749 317.357V291.15L400.965 300.523V326.73ZM400.965 294.12L419.749 284.747V258.54L400.965 267.913V294.12Z" fill="#10A81B"/>
<g opacity="0.1">
<path d="M313.734 384.316V316.46C313.734 300.437 323.487 282.575 335.535 276.563C347.566 270.551 357.335 278.678 357.335 294.7V362.557L313.734 384.316Z" fill="black"/>
<path d="M251.578 368.67L270.362 359.297V333.09L251.578 342.463V368.67ZM251.578 401.28L270.362 391.907V365.7L251.578 375.073V401.28ZM251.578 336.046L270.362 326.673V300.466L251.578 309.839V336.046ZM276.395 356.269L295.179 346.896V320.69L276.395 330.063V356.269ZM276.395 297.438V323.645L295.179 314.272V288.065L276.395 297.438ZM276.395 388.879L295.179 379.506V353.299L276.395 362.672V388.879Z" fill="black"/>
<path d="M376.148 306.492L394.933 297.119V270.912L376.148 280.285V306.492ZM376.148 273.882L394.933 264.509V238.302L376.148 247.675V273.882ZM376.148 339.116L394.933 329.743V303.536L376.148 312.909V339.116ZM400.965 235.289V261.496L419.749 252.123V225.916L400.965 235.289ZM400.965 326.73L419.749 317.357V291.15L400.965 300.523V326.73ZM400.965 294.12L419.749 284.747V258.54L400.965 267.913V294.12Z" fill="black"/>
</g>
<path d="M275.491 442.074L252.25 430.47V426.53L275.491 414.926L298.733 426.53V430.47L275.491 442.074Z" fill="#10A81B"/>
<path opacity="0.7" d="M275.491 438.133L252.25 426.529V430.47L275.491 442.074V438.133Z" fill="white"/>
<path d="M275.491 438.134L252.25 426.53L275.491 414.926L298.733 426.53L275.491 438.134Z" fill="#10A81B"/>
<path opacity="0.9" d="M275.491 438.134L252.25 426.53L275.491 414.926L298.733 426.53L275.491 438.134Z" fill="white"/>
<path opacity="0.8" d="M275.484 442.074V438.133L298.726 426.529V430.47L275.484 442.074Z" fill="white"/>
<path d="M275.494 436.134L256.609 426.703V423.24L275.494 413.81L294.379 423.24V426.703L275.494 436.134Z" fill="#10A81B"/>
<path opacity="0.7" d="M256.609 423.241L275.494 432.658V436.134L256.609 426.704V423.241Z" fill="white"/>
<path d="M275.494 432.657L256.609 423.24L275.494 413.81L294.379 423.24L275.494 432.657Z" fill="#10A81B"/>
<path opacity="0.9" d="M275.494 432.657L256.609 423.24L275.494 413.81L294.379 423.24L275.494 432.657Z" fill="white"/>
<path opacity="0.8" d="M275.5 436.134V432.658L294.385 423.241V426.704L275.5 436.134Z" fill="white"/>
<path d="M283.698 417.299C279.157 415.04 271.801 415.04 267.26 417.299C264.981 418.429 263.858 419.922 263.875 421.399C263.875 421.703 263.875 422.92 263.875 423.225C263.875 424.702 264.998 426.194 267.26 427.324C271.801 429.584 279.157 429.584 283.698 427.324C285.96 426.194 287.1 424.702 287.083 423.225C287.083 422.92 287.083 421.674 287.083 421.37C287.083 419.893 285.944 418.429 283.698 417.299Z" fill="#10A81B"/>
<path opacity="0.7" d="M283.698 417.299C279.157 415.04 271.801 415.04 267.26 417.299C264.981 418.429 263.858 419.922 263.875 421.399C263.875 421.703 263.875 422.92 263.875 423.225C263.875 424.702 264.998 426.194 267.26 427.324C271.801 429.584 279.157 429.584 283.698 427.324C285.96 426.194 287.1 424.702 287.083 423.225C287.083 422.92 287.083 421.674 287.083 421.37C287.083 419.893 285.944 418.429 283.698 417.299Z" fill="white"/>
<path d="M267.265 425.499C262.724 423.239 262.724 419.559 267.265 417.299C271.806 415.04 279.162 415.04 283.703 417.299C288.244 419.559 288.244 423.239 283.703 425.499C279.162 427.759 271.806 427.759 267.265 425.499Z" fill="#10A81B"/>
<path opacity="0.9" d="M267.265 425.499C262.724 423.239 262.724 419.559 267.265 417.299C271.806 415.04 279.162 415.04 283.703 417.299C288.244 419.559 288.244 423.239 283.703 425.499C279.162 427.759 271.806 427.759 267.265 425.499Z" fill="white"/>
<path d="M285.201 296.814H265.797V420.821C265.797 422.067 266.735 423.299 268.629 424.255C272.432 426.152 278.582 426.152 282.369 424.255C284.263 423.313 285.201 422.067 285.201 420.821C285.201 420.662 285.201 312.373 285.201 296.814Z" fill="#10A81B"/>
<path opacity="0.8" d="M285.201 296.814H265.797V420.821C265.797 422.067 266.735 423.299 268.629 424.255C272.432 426.152 278.582 426.152 282.369 424.255C284.263 423.313 285.201 422.067 285.201 420.821C285.201 420.662 285.201 312.373 285.201 296.814Z" fill="white"/>
<g opacity="0.3">
<path d="M271.594 297.757V424.053C271.795 424.096 271.979 424.14 272.18 424.183V297.757H271.594Z" fill="#10A81B"/>
<path d="M269.867 297.757V423.517C270.052 423.589 270.253 423.662 270.454 423.734V297.757H269.867Z" fill="#10A81B"/>
<path d="M266.898 297.757V421.344C267.049 421.59 267.25 421.836 267.485 422.068V297.757H266.898Z" fill="#10A81B"/>
<path d="M268.289 297.757V422.691C268.473 422.807 268.674 422.937 268.876 423.039V297.757H268.289Z" fill="#10A81B"/>
<path d="M283.508 297.757V422.068C283.742 421.836 283.943 421.59 284.094 421.344V297.757H283.508Z" fill="#10A81B"/>
<path d="M277.023 297.757V424.429C277.225 424.415 277.409 424.386 277.61 424.371V297.757H277.023Z" fill="#10A81B"/>
<path d="M273.383 297.757V424.371C273.584 424.4 273.768 424.415 273.969 424.429V297.757H273.383Z" fill="#10A81B"/>
<path d="M280.539 297.757V423.734C280.74 423.662 280.941 423.589 281.126 423.517V297.757H280.539Z" fill="#10A81B"/>
<path d="M282.109 297.757V423.053C282.327 422.937 282.512 422.821 282.696 422.705V297.757H282.109Z" fill="#10A81B"/>
<path d="M275.195 297.757V424.502C275.396 424.502 275.581 424.502 275.782 424.502V297.757H275.195Z" fill="#10A81B"/>
<path d="M278.812 297.757V424.183C279.014 424.14 279.198 424.096 279.399 424.053V297.757H278.812Z" fill="#10A81B"/>
</g>
<path d="M280.102 285.515C279.332 285.124 278.276 285.182 277.12 285.762L262.927 292.846C260.581 294.019 258.688 296.888 258.688 299.249C258.688 300.437 259.157 301.277 259.927 301.668L270.87 307.13L278.108 300.495L291.045 290.991L280.102 285.53V285.515Z" fill="#10A81B"/>
<path opacity="0.5" d="M280.102 285.515C279.332 285.124 278.276 285.182 277.12 285.762L262.927 292.846C260.581 294.019 258.688 296.888 258.688 299.249C258.688 300.437 259.157 301.277 259.927 301.668L270.87 307.13L278.108 300.495L291.045 290.991L280.102 285.53V285.515Z" fill="white"/>
<path d="M288.057 291.221L273.864 298.305C271.518 299.478 269.625 302.347 269.625 304.708C269.625 307.07 271.518 308.055 273.864 306.881C276.21 305.708 278.104 302.839 278.104 300.478L283.818 297.624C283.818 300 285.711 300.971 288.057 299.797C290.403 298.624 292.297 295.755 292.297 293.394C292.297 291.033 290.403 290.048 288.057 291.221Z" fill="#10A81B"/>
<path opacity="0.6" d="M288.057 291.221L273.864 298.305C271.518 299.478 269.625 302.347 269.625 304.708C269.625 307.07 271.518 308.055 273.864 306.881C276.21 305.708 278.104 302.839 278.104 300.478L283.818 297.624C283.818 300 285.711 300.971 288.057 299.797C290.403 298.624 292.297 295.755 292.297 293.394C292.297 291.033 290.403 290.048 288.057 291.221Z" fill="white"/>
<path opacity="0.3" d="M289.769 293.208C289.233 292.933 288.529 292.99 287.809 293.353L273.717 300.292C272.309 300.987 271.203 302.653 271.203 304.073C271.203 304.812 271.505 305.377 272.058 305.652C272.292 305.768 272.544 305.826 272.829 305.826C273.197 305.826 273.616 305.724 274.035 305.507C275.443 304.812 276.548 303.146 276.548 301.726C276.548 300.987 276.247 300.422 275.694 300.147C275.61 300.104 275.526 300.089 275.459 300.06L286.167 294.787C285.631 295.511 285.295 296.351 285.295 297.134C285.295 297.916 285.597 298.438 286.15 298.713C286.385 298.829 286.636 298.887 286.921 298.887C287.289 298.887 287.708 298.785 288.127 298.568C289.535 297.873 290.641 296.207 290.641 294.787C290.641 294.048 290.339 293.483 289.786 293.208H289.769ZM274.906 300.524C275.074 300.524 275.225 300.553 275.359 300.625C275.711 300.799 275.895 301.19 275.895 301.726C275.895 302.943 274.906 304.435 273.7 305.029C273.18 305.29 272.694 305.333 272.359 305.174C272.007 305 271.823 304.609 271.823 304.073C271.823 302.856 272.812 301.364 274.018 300.77C274.337 300.611 274.638 300.524 274.89 300.524H274.906ZM287.792 298.09C287.273 298.351 286.787 298.394 286.452 298.235C286.1 298.061 285.915 297.67 285.915 297.134C285.915 295.917 286.904 294.425 288.111 293.831C288.429 293.671 288.731 293.599 288.999 293.599C289.166 293.599 289.317 293.628 289.451 293.7C289.803 293.874 289.987 294.265 289.987 294.801C289.987 296.018 288.999 297.51 287.792 298.104V298.09Z" fill="#10A81B"/>
<path d="M275.494 301.014L256.609 291.584V288.107L275.494 278.676L294.379 288.107V291.584L275.494 301.014Z" fill="#10A81B"/>
<path opacity="0.7" d="M256.609 288.107L275.494 297.538V301.015L256.609 291.584V288.107Z" fill="white"/>
<path d="M275.494 297.538L256.609 288.107L275.494 278.676L294.379 288.107L275.494 297.538Z" fill="#10A81B"/>
<path opacity="0.9" d="M275.494 297.538L256.609 288.107L275.494 278.676L294.379 288.107L275.494 297.538Z" fill="white"/>
<path opacity="0.8" d="M275.5 301.015V297.538L294.385 288.107V291.584L275.5 301.015Z" fill="white"/>
<path d="M275.491 299.089L252.25 287.485V283.53L275.491 271.94L298.733 283.53V287.485L275.491 299.089Z" fill="#10A81B"/>
<path opacity="0.7" d="M275.491 295.134L252.25 283.53V287.485L275.491 299.089V295.134Z" fill="white"/>
<path d="M275.491 295.134L252.25 283.53L275.491 271.94L298.733 283.53L275.491 295.134Z" fill="#10A81B"/>
<path opacity="0.9" d="M275.491 295.134L252.25 283.53L275.491 271.94L298.733 283.53L275.491 295.134Z" fill="white"/>
<path opacity="0.8" d="M275.484 299.089V295.134L298.726 283.53V287.485L275.484 299.089Z" fill="white"/>
<path opacity="0.3" d="M256.609 289.656L275.494 299.087L294.379 289.656V290.294L275.494 299.725L256.609 290.294V289.656Z" fill="#10A81B"/>
<path d="M333.585 413.073L310.344 401.469V397.529L333.585 385.925L356.827 397.529V401.469L333.585 413.073Z" fill="#10A81B"/>
<path opacity="0.7" d="M333.585 409.132L310.344 397.528V401.469L333.585 413.073V409.132Z" fill="white"/>
<path d="M333.585 409.133L310.344 397.529L333.585 385.925L356.827 397.529L333.585 409.133Z" fill="#10A81B"/>
<path opacity="0.9" d="M333.585 409.133L310.344 397.529L333.585 385.925L356.827 397.529L333.585 409.133Z" fill="white"/>
<path opacity="0.8" d="M333.578 413.073V409.132L356.82 397.528V401.469L333.578 413.073Z" fill="white"/>
<path d="M333.588 407.133L314.703 397.716V394.239L333.588 384.809L352.473 394.239V397.716L333.588 407.133Z" fill="#10A81B"/>
<path opacity="0.7" d="M314.703 394.24L333.588 403.657V407.133L314.703 397.717V394.24Z" fill="white"/>
<path d="M333.588 403.656L314.703 394.239L333.588 384.809L352.473 394.239L333.588 403.656Z" fill="#10A81B"/>
<path opacity="0.9" d="M333.588 403.656L314.703 394.239L333.588 384.809L352.473 394.239L333.588 403.656Z" fill="white"/>
<path opacity="0.8" d="M333.594 407.133V403.657L352.478 394.24V397.717L333.594 407.133Z" fill="white"/>
<path d="M341.792 388.298C337.251 386.039 329.895 386.039 325.354 388.298C323.075 389.428 321.952 390.921 321.969 392.398C321.969 392.702 321.969 393.919 321.969 394.224C321.969 395.701 323.092 397.193 325.354 398.323C329.895 400.583 337.251 400.583 341.792 398.323C344.054 397.193 345.194 395.701 345.177 394.224C345.177 393.919 345.177 392.673 345.177 392.369C345.177 390.892 344.037 389.428 341.792 388.298Z" fill="#10A81B"/>
<path opacity="0.7" d="M341.792 388.298C337.251 386.039 329.895 386.039 325.354 388.298C323.075 389.428 321.952 390.921 321.969 392.398C321.969 392.702 321.969 393.919 321.969 394.224C321.969 395.701 323.092 397.193 325.354 398.323C329.895 400.583 337.251 400.583 341.792 398.323C344.054 397.193 345.194 395.701 345.177 394.224C345.177 393.919 345.177 392.673 345.177 392.369C345.177 390.892 344.037 389.428 341.792 388.298Z" fill="white"/>
<path d="M325.375 396.512C320.833 394.252 320.833 390.572 325.375 388.312C329.916 386.052 337.272 386.052 341.813 388.312C346.354 390.572 346.354 394.252 341.813 396.512C337.272 398.772 329.916 398.772 325.375 396.512Z" fill="#10A81B"/>
<path opacity="0.9" d="M325.375 396.512C320.833 394.252 320.833 390.572 325.375 388.312C329.916 386.052 337.272 386.052 341.813 388.312C346.354 390.572 346.354 394.252 341.813 396.512C337.272 398.772 329.916 398.772 325.375 396.512Z" fill="white"/>
<path d="M343.295 267.814H323.891V391.821C323.891 393.067 324.829 394.299 326.722 395.255C330.526 397.152 336.676 397.152 340.463 395.255C342.356 394.313 343.295 393.067 343.295 391.821C343.295 391.662 343.295 283.373 343.295 267.814Z" fill="#10A81B"/>
<path opacity="0.8" d="M343.295 267.814H323.891V391.821C323.891 393.067 324.829 394.299 326.722 395.255C330.526 397.152 336.676 397.152 340.463 395.255C342.356 394.313 343.295 393.067 343.295 391.821C343.295 391.662 343.295 283.373 343.295 267.814Z" fill="white"/>
<g opacity="0.3">
<path d="M329.688 268.757V395.053C329.889 395.096 330.073 395.14 330.274 395.183V268.757H329.688Z" fill="#10A81B"/>
<path d="M327.961 268.757V394.517C328.145 394.589 328.346 394.661 328.547 394.734V268.757H327.961Z" fill="#10A81B"/>
<path d="M324.992 268.757V392.344C325.143 392.59 325.344 392.836 325.579 393.068V268.757H324.992Z" fill="#10A81B"/>
<path d="M326.383 268.757V393.691C326.567 393.807 326.768 393.937 326.969 394.039V268.757H326.383Z" fill="#10A81B"/>
<path d="M341.602 268.757V393.068C341.836 392.836 342.037 392.59 342.188 392.344V268.757H341.602Z" fill="#10A81B"/>
<path d="M335.117 268.757V395.429C335.318 395.415 335.503 395.386 335.704 395.371V268.757H335.117Z" fill="#10A81B"/>
<path d="M331.477 268.757V395.371C331.678 395.4 331.862 395.415 332.063 395.429V268.757H331.477Z" fill="#10A81B"/>
<path d="M338.633 268.757V394.734C338.834 394.661 339.035 394.589 339.219 394.517V268.757H338.633Z" fill="#10A81B"/>
<path d="M340.203 268.757V394.053C340.421 393.937 340.605 393.821 340.79 393.705V268.757H340.203Z" fill="#10A81B"/>
<path d="M333.305 268.757V395.502C333.506 395.502 333.69 395.502 333.891 395.502V268.757H333.305Z" fill="#10A81B"/>
<path d="M336.906 268.757V395.183C337.107 395.14 337.292 395.096 337.493 395.053V268.757H336.906Z" fill="#10A81B"/>
</g>
<path d="M338.196 256.514C337.425 256.123 336.37 256.181 335.214 256.761L321.021 263.845C318.675 265.018 316.781 267.887 316.781 270.248C316.781 271.436 317.25 272.276 318.021 272.667L328.963 278.129L336.202 271.494L349.138 261.99L338.196 256.529V256.514Z" fill="#10A81B"/>
<path opacity="0.5" d="M338.196 256.514C337.425 256.123 336.37 256.181 335.214 256.761L321.021 263.845C318.675 265.018 316.781 267.887 316.781 270.248C316.781 271.436 317.25 272.276 318.021 272.667L328.963 278.129L336.202 271.494L349.138 261.99L338.196 256.529V256.514Z" fill="white"/>
<path d="M346.151 262.22L331.958 269.304C329.612 270.478 327.719 273.346 327.719 275.707C327.719 278.069 329.612 279.054 331.958 277.88C334.304 276.707 336.198 273.838 336.198 271.477L341.912 268.623C341.912 270.999 343.805 271.97 346.151 270.796C348.497 269.623 350.39 266.754 350.39 264.393C350.39 262.032 348.497 261.047 346.151 262.22Z" fill="#10A81B"/>
<path opacity="0.6" d="M346.151 262.22L331.958 269.304C329.612 270.478 327.719 273.346 327.719 275.707C327.719 278.069 329.612 279.054 331.958 277.88C334.304 276.707 336.198 273.838 336.198 271.477L341.912 268.623C341.912 270.999 343.805 271.97 346.151 270.796C348.497 269.623 350.39 266.754 350.39 264.393C350.39 262.032 348.497 261.047 346.151 262.22Z" fill="white"/>
<path opacity="0.3" d="M347.863 264.22C347.327 263.945 346.623 264.003 345.903 264.365L331.81 271.305C330.403 272 329.297 273.666 329.297 275.086C329.297 275.824 329.598 276.389 330.151 276.665C330.386 276.781 330.637 276.838 330.922 276.838C331.291 276.838 331.71 276.737 332.129 276.52C333.536 275.824 334.642 274.158 334.642 272.739C334.642 272 334.341 271.435 333.788 271.16C333.704 271.116 333.62 271.102 333.553 271.073L344.261 265.8C343.724 266.524 343.389 267.364 343.389 268.146C343.389 268.929 343.691 269.45 344.244 269.725C344.478 269.841 344.73 269.899 345.015 269.899C345.383 269.899 345.802 269.798 346.221 269.581C347.629 268.885 348.735 267.219 348.735 265.8C348.735 265.061 348.433 264.496 347.88 264.22H347.863ZM333 271.536C333.168 271.536 333.318 271.565 333.453 271.638C333.804 271.812 333.989 272.203 333.989 272.739C333.989 273.956 333 275.448 331.794 276.042C331.274 276.302 330.788 276.346 330.453 276.187C330.101 276.013 329.917 275.622 329.917 275.086C329.917 273.869 330.906 272.377 332.112 271.783C332.43 271.623 332.732 271.536 332.983 271.536H333ZM345.886 269.103C345.366 269.363 344.881 269.407 344.545 269.247C344.193 269.074 344.009 268.682 344.009 268.146C344.009 266.93 344.998 265.437 346.204 264.843C346.523 264.684 346.824 264.612 347.092 264.612C347.26 264.612 347.411 264.641 347.545 264.713C347.897 264.887 348.081 265.278 348.081 265.814C348.081 267.031 347.092 268.523 345.886 269.117V269.103Z" fill="#10A81B"/>
<path d="M333.588 272.013L314.703 262.582V259.105L333.588 249.688L352.473 259.105V262.582L333.588 272.013Z" fill="#10A81B"/>
<path opacity="0.7" d="M314.703 259.106L333.588 268.537V272.014L314.703 262.583V259.106Z" fill="white"/>
<path d="M333.588 268.536L314.703 259.105L333.588 249.688L352.473 259.105L333.588 268.536Z" fill="#10A81B"/>
<path opacity="0.9" d="M333.588 268.536L314.703 259.105L333.588 249.688L352.473 259.105L333.588 268.536Z" fill="white"/>
<path opacity="0.8" d="M333.594 272.014V268.537L352.478 259.106V262.583L333.594 272.014Z" fill="white"/>
<path d="M333.585 270.088L310.344 258.484V254.543L333.585 242.939L356.827 254.543V258.484L333.585 270.088Z" fill="#10A81B"/>
<path opacity="0.7" d="M333.585 266.132L310.344 254.543V258.483L333.585 270.087V266.132Z" fill="white"/>
<path d="M333.585 266.133L310.344 254.543L333.585 242.939L356.827 254.543L333.585 266.133Z" fill="#10A81B"/>
<path opacity="0.9" d="M333.585 266.133L310.344 254.543L333.585 242.939L356.827 254.543L333.585 266.133Z" fill="white"/>
<path opacity="0.8" d="M333.578 270.087V266.132L356.82 254.543V258.483L333.578 270.087Z" fill="white"/>
<path opacity="0.3" d="M314.703 260.655L333.588 270.086L352.473 260.655V261.293L333.588 270.724L314.703 261.293V260.655Z" fill="#10A81B"/>
<path d="M391.687 384.067L368.445 372.478V368.523L391.687 356.934L414.928 368.523V372.478L391.687 384.067Z" fill="#10A81B"/>
<path opacity="0.7" d="M391.687 380.127L368.445 368.523V372.478L391.687 384.068V380.127Z" fill="white"/>
<path d="M391.687 380.127L368.445 368.523L391.687 356.934L414.928 368.523L391.687 380.127Z" fill="#10A81B"/>
<path opacity="0.9" d="M391.687 380.127L368.445 368.523L391.687 356.934L414.928 368.523L391.687 380.127Z" fill="white"/>
<path opacity="0.8" d="M391.68 384.068V380.127L414.921 368.523V372.478L391.68 384.068Z" fill="white"/>
<path d="M391.689 378.128L372.805 368.711V365.235L391.689 355.804L410.574 365.235V368.711L391.689 378.128Z" fill="#10A81B"/>
<path opacity="0.7" d="M372.805 365.235L391.689 374.652V378.129L372.805 368.712V365.235Z" fill="white"/>
<path d="M391.689 374.651L372.805 365.235L391.689 355.804L410.574 365.235L391.689 374.651Z" fill="#10A81B"/>
<path opacity="0.9" d="M391.689 374.651L372.805 365.235L391.689 355.804L410.574 365.235L391.689 374.651Z" fill="white"/>
<path opacity="0.8" d="M391.695 378.129V374.652L410.58 365.235V368.712L391.695 378.129Z" fill="white"/>
<path d="M399.909 359.311C395.368 357.051 388.012 357.051 383.471 359.311C381.192 360.441 380.069 361.933 380.086 363.411C380.086 363.715 380.086 364.932 380.086 365.236C380.086 366.714 381.209 368.206 383.471 369.336C388.012 371.596 395.368 371.596 399.909 369.336C402.171 368.206 403.311 366.714 403.294 365.236C403.294 364.932 403.294 363.686 403.294 363.382C403.294 361.904 402.155 360.441 399.909 359.311Z" fill="#10A81B"/>
<path opacity="0.7" d="M399.909 359.311C395.368 357.051 388.012 357.051 383.471 359.311C381.192 360.441 380.069 361.933 380.086 363.411C380.086 363.715 380.086 364.932 380.086 365.236C380.086 366.714 381.209 368.206 383.471 369.336C388.012 371.596 395.368 371.596 399.909 369.336C402.171 368.206 403.311 366.714 403.294 365.236C403.294 364.932 403.294 363.686 403.294 363.382C403.294 361.904 402.155 360.441 399.909 359.311Z" fill="white"/>
<path d="M383.476 367.511C378.935 365.251 378.935 361.571 383.476 359.311C388.017 357.051 395.373 357.051 399.914 359.311C404.455 361.571 404.455 365.251 399.914 367.511C395.373 369.771 388.017 369.771 383.476 367.511Z" fill="#10A81B"/>
<path opacity="0.9" d="M383.476 367.511C378.935 365.251 378.935 361.571 383.476 359.311C388.017 357.051 395.373 357.051 399.914 359.311C404.455 361.571 404.455 365.251 399.914 367.511C395.373 369.771 388.017 369.771 383.476 367.511Z" fill="white"/>
<path d="M401.404 238.81H382V362.816C382 364.062 382.938 365.294 384.832 366.25C388.636 368.148 394.785 368.148 398.572 366.25C400.466 365.308 401.404 364.062 401.404 362.816C401.404 362.657 401.404 254.368 401.404 238.81Z" fill="#10A81B"/>
<path opacity="0.8" d="M401.404 238.81H382V362.816C382 364.062 382.938 365.294 384.832 366.25C388.636 368.148 394.785 368.148 398.572 366.25C400.466 365.308 401.404 364.062 401.404 362.816C401.404 362.657 401.404 254.368 401.404 238.81Z" fill="white"/>
<g opacity="0.3">
<path d="M387.773 239.752V366.048C387.975 366.091 388.159 366.135 388.36 366.178V239.752H387.773Z" fill="#10A81B"/>
<path d="M386.07 239.752V365.512C386.255 365.584 386.456 365.657 386.657 365.729V239.752H386.07Z" fill="#10A81B"/>
<path d="M383.102 239.752V363.339C383.252 363.585 383.453 363.831 383.688 364.063V239.752H383.102Z" fill="#10A81B"/>
<path d="M384.469 239.752V364.686C384.653 364.802 384.854 364.918 385.055 365.034V239.752H384.469Z" fill="#10A81B"/>
<path d="M399.695 239.752V364.063C399.93 363.831 400.131 363.585 400.282 363.339V239.752H399.695Z" fill="#10A81B"/>
<path d="M393.203 239.752V366.424C393.404 366.41 393.589 366.381 393.79 366.366V239.752H393.203Z" fill="#10A81B"/>
<path d="M389.57 239.752V366.366C389.771 366.395 389.956 366.41 390.157 366.424V239.752H389.57Z" fill="#10A81B"/>
<path d="M396.719 239.752V365.729C396.92 365.657 397.121 365.584 397.305 365.512V239.752H396.719Z" fill="#10A81B"/>
<path d="M398.305 239.752V365.048C398.523 364.932 398.707 364.816 398.891 364.7V239.752H398.305Z" fill="#10A81B"/>
<path d="M391.398 239.752V366.497C391.6 366.497 391.784 366.497 391.985 366.497V239.752H391.398Z" fill="#10A81B"/>
<path d="M395.016 239.752V366.178C395.217 366.135 395.401 366.091 395.602 366.048V239.752H395.016Z" fill="#10A81B"/>
</g>
<path d="M396.298 227.51C395.527 227.118 394.471 227.176 393.315 227.756L379.122 234.84C376.776 236.013 374.883 238.882 374.883 241.243C374.883 242.431 375.352 243.271 376.123 243.662L387.065 249.124L394.304 242.489L407.24 232.986L396.298 227.524V227.51Z" fill="#10A81B"/>
<path opacity="0.5" d="M396.298 227.51C395.527 227.118 394.471 227.176 393.315 227.756L379.122 234.84C376.776 236.013 374.883 238.882 374.883 241.243C374.883 242.431 375.352 243.271 376.123 243.662L387.065 249.124L394.304 242.489L407.24 232.986L396.298 227.524V227.51Z" fill="white"/>
<path d="M404.276 233.215L390.083 240.299C387.737 241.473 385.844 244.341 385.844 246.702C385.844 249.064 387.737 250.049 390.083 248.875C392.429 247.702 394.323 244.834 394.323 242.472L400.037 239.618C400.037 241.994 401.93 242.965 404.276 241.791C406.622 240.618 408.515 237.75 408.515 235.388C408.515 233.027 406.622 232.042 404.276 233.215Z" fill="#10A81B"/>
<path opacity="0.6" d="M404.276 233.215L390.083 240.299C387.737 241.473 385.844 244.341 385.844 246.702C385.844 249.064 387.737 250.049 390.083 248.875C392.429 247.702 394.323 244.834 394.323 242.472L400.037 239.618C400.037 241.994 401.93 242.965 404.276 241.791C406.622 240.618 408.515 237.75 408.515 235.388C408.515 233.027 406.622 232.042 404.276 233.215Z" fill="white"/>
<path opacity="0.3" d="M405.965 235.216C405.429 234.94 404.725 234.998 404.004 235.36L389.912 242.3C388.504 242.995 387.398 244.661 387.398 246.081C387.398 246.82 387.7 247.384 388.253 247.66C388.488 247.776 388.739 247.834 389.024 247.834C389.392 247.834 389.811 247.732 390.23 247.515C391.638 246.82 392.744 245.154 392.744 243.734C392.744 242.995 392.442 242.43 391.889 242.155C391.805 242.111 391.722 242.097 391.655 242.068L402.362 236.795C401.843 237.519 401.491 238.359 401.491 239.142C401.491 239.924 401.792 240.445 402.345 240.721C402.58 240.836 402.831 240.894 403.116 240.894C403.485 240.894 403.904 240.793 404.323 240.576C405.73 239.88 406.836 238.214 406.836 236.795C406.836 236.056 406.534 235.491 405.982 235.216H405.965ZM391.102 242.531C391.269 242.531 391.42 242.56 391.554 242.633C391.906 242.807 392.09 243.198 392.09 243.734C392.09 244.951 391.102 246.443 389.895 247.037C389.376 247.298 388.89 247.341 388.555 247.182C388.203 247.008 388.018 246.617 388.018 246.081C388.018 244.864 389.007 243.372 390.214 242.778C390.532 242.618 390.834 242.531 391.085 242.531H391.102ZM403.987 240.098C403.468 240.358 402.982 240.402 402.647 240.243C402.295 240.069 402.111 239.678 402.111 239.142C402.111 237.925 403.099 236.432 404.306 235.839C404.624 235.679 404.926 235.607 405.194 235.607C405.362 235.607 405.512 235.636 405.646 235.708C405.998 235.882 406.183 236.273 406.183 236.809C406.183 238.026 405.194 239.518 403.987 240.112V240.098Z" fill="#10A81B"/>
<path d="M391.689 243.008L372.805 233.577V230.1L391.689 220.684L410.574 230.1V233.577L391.689 243.008Z" fill="#10A81B"/>
<path opacity="0.7" d="M372.805 230.102L391.689 239.532V243.009L372.805 233.578V230.102Z" fill="white"/>
<path d="M391.689 239.531L372.805 230.1L391.689 220.684L410.574 230.1L391.689 239.531Z" fill="#10A81B"/>
<path opacity="0.9" d="M391.689 239.531L372.805 230.1L391.689 220.684L410.574 230.1L391.689 239.531Z" fill="white"/>
<path opacity="0.8" d="M391.695 243.009V239.532L410.58 230.102V233.578L391.695 243.009Z" fill="white"/>
<path d="M391.687 241.083L368.445 229.479V225.538L391.687 213.935L414.928 225.538V229.479L391.687 241.083Z" fill="#10A81B"/>
<path opacity="0.7" d="M391.687 237.142L368.445 225.538V229.478L391.687 241.082V237.142Z" fill="white"/>
<path d="M391.687 237.142L368.445 225.538L391.687 213.935L414.928 225.538L391.687 237.142Z" fill="#10A81B"/>
<path opacity="0.9" d="M391.687 237.142L368.445 225.538L391.687 213.935L414.928 225.538L391.687 237.142Z" fill="white"/>
<path opacity="0.8" d="M391.68 241.082V237.142L414.921 225.538V229.478L391.68 241.082Z" fill="white"/>
<path opacity="0.3" d="M372.805 231.65L391.689 241.081L410.574 231.65V232.302L391.689 241.719L372.805 232.302V231.65Z" fill="#10A81B"/>
<path d="M449.788 355.081L426.547 343.477V339.522L449.788 327.933L473.03 339.522V343.477L449.788 355.081Z" fill="#10A81B"/>
<path opacity="0.7" d="M449.788 351.126L426.547 339.522V343.477L449.788 355.081V351.126Z" fill="white"/>
<path d="M449.788 351.126L426.547 339.522L449.788 327.933L473.03 339.522L449.788 351.126Z" fill="#10A81B"/>
<path opacity="0.9" d="M449.788 351.126L426.547 339.522L449.788 327.933L473.03 339.522L449.788 351.126Z" fill="white"/>
<path opacity="0.8" d="M449.781 355.081V351.126L473.023 339.522V343.477L449.781 355.081Z" fill="white"/>
<path d="M449.791 349.141L430.906 339.71V336.234L449.791 326.803L468.659 336.234V339.71L449.791 349.141Z" fill="#10A81B"/>
<path opacity="0.7" d="M430.906 336.234L449.791 345.665V349.142L430.906 339.711V336.234Z" fill="white"/>
<path d="M449.791 345.665L430.906 336.234L449.791 326.803L468.659 336.234L449.791 345.665Z" fill="#10A81B"/>
<path opacity="0.9" d="M449.791 345.665L430.906 336.234L449.791 326.803L468.659 336.234L449.791 345.665Z" fill="white"/>
<path opacity="0.8" d="M449.797 349.142V345.665L468.665 336.234V339.711L449.797 349.142Z" fill="white"/>
<path d="M457.995 330.31C453.454 328.05 446.098 328.05 441.557 330.31C439.278 331.44 438.155 332.932 438.172 334.41C438.172 334.714 438.172 335.931 438.172 336.235C438.172 337.713 439.295 339.205 441.557 340.335C446.098 342.595 453.454 342.595 457.995 340.335C460.257 339.205 461.397 337.713 461.38 336.235C461.38 335.931 461.38 334.685 461.38 334.381C461.38 332.903 460.241 331.44 457.995 330.31Z" fill="#10A81B"/>
<path opacity="0.7" d="M457.995 330.31C453.454 328.05 446.098 328.05 441.557 330.31C439.278 331.44 438.155 332.932 438.172 334.41C438.172 334.714 438.172 335.931 438.172 336.235C438.172 337.713 439.295 339.205 441.557 340.335C446.098 342.595 453.454 342.595 457.995 340.335C460.257 339.205 461.397 337.713 461.38 336.235C461.38 335.931 461.38 334.685 461.38 334.381C461.38 332.903 460.241 331.44 457.995 330.31Z" fill="white"/>
<path d="M441.562 338.51C437.021 336.25 437.021 332.57 441.562 330.31C446.103 328.05 453.459 328.05 458 330.31C462.541 332.57 462.541 336.25 458 338.51C453.459 340.77 446.103 340.77 441.562 338.51Z" fill="#10A81B"/>
<path opacity="0.9" d="M441.562 338.51C437.021 336.25 437.021 332.57 441.562 330.31C446.103 328.05 453.459 328.05 458 330.31C462.541 332.57 462.541 336.25 458 338.51C453.459 340.77 446.103 340.77 441.562 338.51Z" fill="white"/>
<path d="M459.498 209.821H440.094V333.828C440.094 335.074 441.032 336.305 442.926 337.262C446.729 339.159 452.879 339.159 456.666 337.262C458.56 336.32 459.498 335.074 459.498 333.828C459.498 333.669 459.498 225.38 459.498 209.821Z" fill="#10A81B"/>
<path opacity="0.8" d="M459.498 209.821H440.094V333.828C440.094 335.074 441.032 336.305 442.926 337.262C446.729 339.159 452.879 339.159 456.666 337.262C458.56 336.32 459.498 335.074 459.498 333.828C459.498 333.669 459.498 225.38 459.498 209.821Z" fill="white"/>
<g opacity="0.3">
<path d="M445.867 210.764V337.059C446.068 337.103 446.253 337.146 446.454 337.19V210.764H445.867Z" fill="#10A81B"/>
<path d="M444.164 210.764V336.523C444.348 336.596 444.549 336.668 444.751 336.741V210.764H444.164Z" fill="#10A81B"/>
<path d="M441.195 210.764V334.35C441.346 334.597 441.547 334.843 441.782 335.075V210.764H441.195Z" fill="#10A81B"/>
<path d="M442.586 210.764V335.698C442.77 335.814 442.971 335.93 443.172 336.045V210.764H442.586Z" fill="#10A81B"/>
<path d="M457.789 210.764V335.075C458.024 334.843 458.225 334.597 458.376 334.35V210.764H457.789Z" fill="#10A81B"/>
<path d="M451.32 210.764V337.436C451.521 337.422 451.706 337.393 451.907 337.378V210.764H451.32Z" fill="#10A81B"/>
<path d="M447.68 210.764V337.378C447.881 337.407 448.065 337.422 448.266 337.436V210.764H447.68Z" fill="#10A81B"/>
<path d="M454.812 210.764V336.741C455.014 336.668 455.215 336.596 455.399 336.523V210.764H454.812Z" fill="#10A81B"/>
<path d="M456.406 210.764V336.06C456.624 335.944 456.808 335.828 456.993 335.712V210.764H456.406Z" fill="#10A81B"/>
<path d="M449.492 210.764V337.509C449.693 337.509 449.878 337.509 450.079 337.509V210.764H449.492Z" fill="#10A81B"/>
<path d="M453.109 210.764V337.19C453.31 337.146 453.495 337.103 453.696 337.059V210.764H453.109Z" fill="#10A81B"/>
</g>
<path d="M454.376 198.509C453.605 198.117 452.549 198.175 451.393 198.755L437.2 205.839C434.854 207.012 432.961 209.881 432.961 212.242C432.961 213.43 433.43 214.27 434.201 214.661L445.143 220.123L452.382 213.488L465.318 203.985L454.376 198.523V198.509Z" fill="#10A81B"/>
<path opacity="0.5" d="M454.376 198.509C453.605 198.117 452.549 198.175 451.393 198.755L437.2 205.839C434.854 207.012 432.961 209.881 432.961 212.242C432.961 213.43 433.43 214.27 434.201 214.661L445.143 220.123L452.382 213.488L465.318 203.985L454.376 198.523V198.509Z" fill="white"/>
<path d="M462.354 204.214L448.161 211.298C445.815 212.472 443.922 215.34 443.922 217.701C443.922 220.063 445.815 221.048 448.161 219.874C450.507 218.701 452.401 215.833 452.401 213.471L458.115 210.617C458.115 212.993 460.008 213.964 462.354 212.79C464.7 211.617 466.594 208.749 466.594 206.387C466.594 204.026 464.7 203.041 462.354 204.214Z" fill="#10A81B"/>
<path opacity="0.6" d="M462.354 204.214L448.161 211.298C445.815 212.472 443.922 215.34 443.922 217.701C443.922 220.063 445.815 221.048 448.161 219.874C450.507 218.701 452.401 215.833 452.401 213.471L458.115 210.617C458.115 212.993 460.008 213.964 462.354 212.79C464.7 211.617 466.594 208.749 466.594 206.387C466.594 204.026 464.7 203.041 462.354 204.214Z" fill="white"/>
<path opacity="0.3" d="M464.066 206.215C463.53 205.939 462.826 205.997 462.106 206.359L448.013 213.299C446.606 213.994 445.5 215.66 445.5 217.08C445.5 217.819 445.802 218.384 446.355 218.659C446.589 218.775 446.841 218.833 447.125 218.833C447.494 218.833 447.913 218.731 448.332 218.514C449.739 217.819 450.845 216.153 450.845 214.733C450.845 213.994 450.544 213.429 449.991 213.154C449.907 213.11 449.823 213.096 449.756 213.067L460.464 207.794C459.944 208.518 459.592 209.358 459.592 210.141C459.592 210.923 459.894 211.444 460.447 211.72C460.682 211.835 460.933 211.893 461.218 211.893C461.586 211.893 462.005 211.792 462.424 211.575C463.832 210.879 464.938 209.213 464.938 207.794C464.938 207.055 464.636 206.49 464.083 206.215H464.066ZM449.203 213.53C449.371 213.53 449.522 213.559 449.656 213.632C450.008 213.806 450.192 214.197 450.192 214.733C450.192 215.95 449.203 217.442 447.997 218.036C447.477 218.297 446.991 218.34 446.656 218.181C446.304 218.007 446.12 217.616 446.12 217.08C446.12 215.863 447.109 214.371 448.315 213.777C448.633 213.617 448.935 213.53 449.186 213.53H449.203ZM462.089 211.097C461.57 211.357 461.1 211.401 460.749 211.242C460.397 211.068 460.212 210.677 460.212 210.141C460.212 208.924 461.201 207.432 462.407 206.838C462.726 206.678 463.027 206.606 463.296 206.606C463.463 206.606 463.614 206.635 463.748 206.707C464.1 206.881 464.284 207.272 464.284 207.808C464.284 209.025 463.296 210.517 462.089 211.111V211.097Z" fill="#10A81B"/>
<path d="M449.791 214.007L430.906 204.576V201.099L449.791 191.683L468.659 201.099V204.576L449.791 214.007Z" fill="#10A81B"/>
<path opacity="0.7" d="M430.906 201.101L449.791 210.531V214.008L430.906 204.577V201.101Z" fill="white"/>
<path d="M449.791 210.53L430.906 201.099L449.791 191.683L468.659 201.099L449.791 210.53Z" fill="#10A81B"/>
<path opacity="0.9" d="M449.791 210.53L430.906 201.099L449.791 191.683L468.659 201.099L449.791 210.53Z" fill="white"/>
<path opacity="0.8" d="M449.797 214.008V210.531L468.665 201.101V204.577L449.797 214.008Z" fill="white"/>
<path d="M449.788 212.082L426.547 200.478V196.538L449.788 184.934L473.03 196.538V200.478L449.788 212.082Z" fill="#10A81B"/>
<path opacity="0.7" d="M449.788 208.141L426.547 196.537V200.478L449.788 212.081V208.141Z" fill="white"/>
<path d="M449.788 208.141L426.547 196.538L449.788 184.934L473.03 196.538L449.788 208.141Z" fill="#10A81B"/>
<path opacity="0.9" d="M449.788 208.141L426.547 196.538L449.788 184.934L473.03 196.538L449.788 208.141Z" fill="white"/>
<path opacity="0.8" d="M449.781 212.081V208.141L473.023 196.537V200.478L449.781 212.081Z" fill="white"/>
<path opacity="0.3" d="M430.906 202.649L449.791 212.08L468.659 202.649V203.301L449.791 212.718L430.906 203.301V202.649Z" fill="#10A81B"/>
<path d="M352.472 120.917L488.519 188.802L275.492 295.135L139.445 227.25L246.202 126.712L352.472 120.917Z" fill="#10A81B"/>
<path opacity="0.9" d="M352.472 120.917L488.519 188.802L275.492 295.135L139.445 227.25L246.202 126.712L352.472 120.917Z" fill="white"/>
<path d="M382.241 194.61L488.511 188.801L275.484 295.134L382.241 194.61Z" fill="#10A81B"/>
<path opacity="0.8" d="M382.241 194.61L488.511 188.801L275.484 295.134L382.241 194.61Z" fill="white"/>
<path opacity="0.8" d="M384.468 198.611L468.536 194.033L300.031 278.143L384.468 198.611Z" fill="white"/>
<path opacity="0.2" d="M246.202 126.71L382.249 194.61L275.492 295.133L139.445 227.248L246.202 126.71Z" fill="#10A81B"/>
</g>
<g clip-path="url(#clip1_1158_9124)">
<path d="M627.049 357.639L613.367 366.399L628.12 351.115L641.802 342.355L627.049 357.639Z" fill="url(#paint1_linear_1158_9124)"/>
<path opacity="0.3" d="M641.802 342.355L627.049 357.639L613.367 366.399L628.12 351.115L641.802 342.355Z" fill="black"/>
<path d="M603.358 302.972L589.676 311.732L566.609 336.44L580.291 327.666L603.358 302.972Z" fill="url(#paint2_linear_1158_9124)"/>
<path opacity="0.3" d="M603.358 302.972L589.676 311.732L566.609 336.44L580.291 327.666L603.358 302.972Z" fill="black"/>
<path d="M656.05 375.626L642.368 384.4L628.125 351.115L641.807 342.355L656.05 375.626Z" fill="url(#paint3_linear_1158_9124)"/>
<path d="M625.434 353.904L613.371 366.4L589.68 311.732L603.362 302.972L625.434 353.904Z" fill="url(#paint4_linear_1158_9124)"/>
<path d="M578.552 323.645L566.604 336.439L530.633 252.958L544.315 244.184L578.552 323.645Z" fill="url(#paint5_linear_1158_9124)"/>
<path d="M549.127 241.481L526.086 256.242L527.693 225.844L549.127 241.481Z" fill="url(#paint6_linear_1158_9124)"/>
</g>
<g clip-path="url(#clip2_1158_9124)">
<path d="M444.82 75.6636C445.247 75.4572 445.816 75.4936 446.4 75.785L454.198 79.9372C455.265 80.5078 456.574 80.1922 457.3 79.3301C457.769 78.7717 458.267 78.2496 458.794 77.7761C459.662 76.9991 460.117 75.6878 459.647 74.7044L458.893 73.0654L455.549 71.2806C454.952 70.965 454.368 70.965 453.941 71.1835L444.82 75.6636ZM480.593 120.67C488.832 125.927 496.701 125.32 499.718 119.76C496.701 119.59 493.257 118.412 489.743 116.178C480.181 110.083 473.72 98.4401 475.314 90.16C475.542 88.9944 475.898 87.9624 476.339 87.1004C471.145 86.7969 467.189 89.4436 466.179 94.6643C464.585 102.944 471.031 114.588 480.579 120.683L480.593 120.67ZM456.417 63.8503C456.588 63.7775 456.787 63.7046 457.001 63.6682L462.835 62.5148C464.059 62.272 465.553 62.8305 466.15 63.7532L471.743 72.3855C472.013 72.7983 472.468 73.1989 472.995 73.5389C473.649 73.9517 474.403 74.2795 475.086 74.4252C476.253 74.6558 477.463 74.9715 478.701 75.3722C479.868 75.7485 481.091 75.3115 481.447 74.3038L483.098 69.5445C482.756 69.4109 482.457 69.2288 482.158 69.0345H482.144C481.618 68.6825 481.177 68.3061 480.906 67.8933L475.3 59.261C474.702 58.3383 473.208 57.7798 471.984 58.0226L466.165 59.176C465.937 59.2125 465.738 59.2974 465.553 59.3824L456.432 63.8625L456.417 63.8503ZM492.062 138.882C492.404 138.712 492.66 138.433 492.802 138.02L493.058 137.316C492.674 137.146 492.29 137 491.92 136.939C490.739 136.709 489.529 136.393 488.306 135.992C487.125 135.592 485.901 136.053 485.559 137.061L483.667 142.512C483.567 142.84 483.368 143.083 483.126 143.253L492.062 138.87V138.882ZM484.065 67.9904C484.549 67.7476 485.189 67.784 485.801 68.1725L494.624 73.7938C495.278 74.2066 495.819 74.923 496.103 75.6757C496.274 76.0763 496.36 76.5013 496.331 76.8655L495.904 83.7738C495.847 84.83 496.473 86.3112 497.313 87.1004C498.75 88.5088 500.145 89.99 501.425 91.5197C501.866 92.0418 502.592 92.4789 503.375 92.7338C503.915 92.916 504.485 93.0131 504.997 92.9888L510.617 92.6974C511.414 92.6489 512.282 92.9402 512.951 93.3773C513.35 93.6444 513.663 93.9722 513.862 94.3243L519.283 104.11C519.81 105.057 519.283 106.186 518.145 106.611L513.62 108.262C512.467 108.687 511.799 109.853 512.097 110.885C512.567 112.451 512.908 114.029 513.136 115.559C513.307 116.603 514.132 118.024 515.071 118.728L515.171 118.789L522.897 124.555C523.467 124.98 523.908 125.66 524.135 126.377C524.278 126.838 524.335 127.312 524.249 127.724L522.897 134.754C522.812 135.191 522.584 135.507 522.271 135.689L531.378 131.209C531.706 131.015 531.947 130.699 532.033 130.25L533.399 123.22C533.541 122.492 533.285 121.581 532.787 120.877C532.702 120.731 532.602 120.585 532.474 120.464C532.46 120.44 532.445 120.428 532.431 120.403C532.317 120.282 532.204 120.16 532.061 120.063L524.32 114.296L524.221 114.236C523.282 113.531 522.442 112.111 522.3 111.067C522.058 109.537 521.702 107.959 521.261 106.393C521.133 105.943 521.19 105.482 521.375 105.045L527.579 101.997C528.532 101.488 528.917 100.492 528.433 99.63L523.011 89.8443C522.812 89.4922 522.485 89.1644 522.101 88.8973C521.859 88.7394 521.574 88.5938 521.29 88.4845C521.133 88.4238 520.977 88.3752 520.834 88.3388C520.82 88.3267 520.806 88.3267 520.792 88.3267C520.649 88.2902 520.521 88.2659 520.379 88.2538C520.222 88.2295 520.066 88.2174 519.924 88.2174H519.781L514.175 88.5088C514.004 88.5209 513.833 88.5088 513.677 88.4845C513.549 88.4845 513.435 88.4602 513.307 88.4359C513.051 88.3995 512.795 88.3388 512.538 88.2538C511.756 87.9988 511.03 87.5618 510.589 87.0397C509.294 85.5099 507.928 84.0287 506.477 82.6204C505.651 81.8312 505.011 80.35 505.068 79.2937L505.495 72.3733C505.523 72.0212 505.409 71.6084 505.253 71.2078H505.267C505.239 71.1228 505.182 71.0135 505.153 70.9286C504.954 70.5158 504.684 70.1151 504.371 69.7873C504.3 69.7144 504.228 69.6416 504.143 69.5688C504.029 69.4716 503.93 69.3745 503.802 69.3017L494.965 63.6804C494.609 63.4375 494.239 63.3404 493.884 63.3525C493.656 63.3525 493.442 63.4132 493.243 63.4982L484.094 68.0026L484.065 67.9904ZM511.414 145.487C511.77 146.276 511.457 147.065 510.66 147.478L519.824 142.961H519.81C520.578 142.549 520.92 141.759 520.564 140.97L517.248 133.783L512.795 131.415C511.727 130.857 510.418 131.16 509.693 132.034C509.237 132.593 508.739 133.115 508.213 133.588C507.345 134.365 506.889 135.677 507.33 136.66L511.4 145.487H511.414Z" fill="#E6E6E6"/>
<path opacity="0.1" d="M444.82 75.6636C445.247 75.4572 445.816 75.4936 446.4 75.785L454.198 79.9372C455.265 80.5078 456.574 80.1922 457.3 79.3301C457.769 78.7717 458.267 78.2496 458.794 77.7761C459.662 76.9991 460.117 75.6878 459.647 74.7044L458.893 73.0654L455.549 71.2806C454.952 70.965 454.368 70.965 453.941 71.1835L444.82 75.6636ZM480.593 120.67C488.832 125.927 496.701 125.32 499.718 119.76C496.701 119.59 493.257 118.412 489.743 116.178C480.181 110.083 473.72 98.4401 475.314 90.16C475.542 88.9944 475.898 87.9624 476.339 87.1004C471.145 86.7969 467.189 89.4436 466.179 94.6643C464.585 102.944 471.031 114.588 480.579 120.683L480.593 120.67ZM456.417 63.8503C456.588 63.7775 456.787 63.7046 457.001 63.6682L462.835 62.5148C464.059 62.272 465.553 62.8305 466.15 63.7532L471.743 72.3855C472.013 72.7983 472.468 73.1989 472.995 73.5389C473.649 73.9517 474.403 74.2795 475.086 74.4252C476.253 74.6558 477.463 74.9715 478.701 75.3722C479.868 75.7485 481.091 75.3115 481.447 74.3038L483.098 69.5445C482.756 69.4109 482.457 69.2288 482.158 69.0345H482.144C481.618 68.6825 481.177 68.3061 480.906 67.8933L475.3 59.261C474.702 58.3383 473.208 57.7798 471.984 58.0226L466.165 59.176C465.937 59.2125 465.738 59.2974 465.553 59.3824L456.432 63.8625L456.417 63.8503ZM492.062 138.882C492.404 138.712 492.66 138.433 492.802 138.02L493.058 137.316C492.674 137.146 492.29 137 491.92 136.939C490.739 136.709 489.529 136.393 488.306 135.992C487.125 135.592 485.901 136.053 485.559 137.061L483.667 142.512C483.567 142.84 483.368 143.083 483.126 143.253L492.062 138.87V138.882ZM484.065 67.9904C484.549 67.7476 485.189 67.784 485.801 68.1725L494.624 73.7938C495.278 74.2066 495.819 74.923 496.103 75.6757C496.274 76.0763 496.36 76.5013 496.331 76.8655L495.904 83.7738C495.847 84.83 496.473 86.3112 497.313 87.1004C498.75 88.5088 500.145 89.99 501.425 91.5197C501.866 92.0418 502.592 92.4789 503.375 92.7338C503.915 92.916 504.485 93.0131 504.997 92.9888L510.617 92.6974C511.414 92.6489 512.282 92.9402 512.951 93.3773C513.35 93.6444 513.663 93.9722 513.862 94.3243L519.283 104.11C519.81 105.057 519.283 106.186 518.145 106.611L513.62 108.262C512.467 108.687 511.799 109.853 512.097 110.885C512.567 112.451 512.908 114.029 513.136 115.559C513.307 116.603 514.132 118.024 515.071 118.728L515.171 118.789L522.897 124.555C523.467 124.98 523.908 125.66 524.135 126.377C524.278 126.838 524.335 127.312 524.249 127.724L522.897 134.754C522.812 135.191 522.584 135.507 522.271 135.689L531.378 131.209C531.706 131.015 531.947 130.699 532.033 130.25L533.399 123.22C533.541 122.492 533.285 121.581 532.787 120.877C532.702 120.731 532.602 120.585 532.474 120.464C532.46 120.44 532.445 120.428 532.431 120.403C532.317 120.282 532.204 120.16 532.061 120.063L524.32 114.296L524.221 114.236C523.282 113.531 522.442 112.111 522.3 111.067C522.058 109.537 521.702 107.959 521.261 106.393C521.133 105.943 521.19 105.482 521.375 105.045L527.579 101.997C528.532 101.488 528.917 100.492 528.433 99.63L523.011 89.8443C522.812 89.4922 522.485 89.1644 522.101 88.8973C521.859 88.7394 521.574 88.5938 521.29 88.4845C521.133 88.4238 520.977 88.3752 520.834 88.3388C520.82 88.3267 520.806 88.3267 520.792 88.3267C520.649 88.2902 520.521 88.2659 520.379 88.2538C520.222 88.2295 520.066 88.2174 519.924 88.2174H519.781L514.175 88.5088C514.004 88.5209 513.833 88.5088 513.677 88.4845C513.549 88.4845 513.435 88.4602 513.307 88.4359C513.051 88.3995 512.795 88.3388 512.538 88.2538C511.756 87.9988 511.03 87.5618 510.589 87.0397C509.294 85.5099 507.928 84.0287 506.477 82.6204C505.651 81.8312 505.011 80.35 505.068 79.2937L505.495 72.3733C505.523 72.0212 505.409 71.6084 505.253 71.2078H505.267C505.239 71.1228 505.182 71.0135 505.153 70.9286C504.954 70.5158 504.684 70.1151 504.371 69.7873C504.3 69.7144 504.228 69.6416 504.143 69.5688C504.029 69.4716 503.93 69.3745 503.802 69.3017L494.965 63.6804C494.609 63.4375 494.239 63.3404 493.884 63.3525C493.656 63.3525 493.442 63.4132 493.243 63.4982L484.094 68.0026L484.065 67.9904ZM511.414 145.487C511.77 146.276 511.457 147.065 510.66 147.478L519.824 142.961H519.81C520.578 142.549 520.92 141.759 520.564 140.97L517.248 133.783L512.795 131.415C511.727 130.857 510.418 131.16 509.693 132.034C509.237 132.593 508.739 133.115 508.213 133.588C507.345 134.365 506.889 135.677 507.33 136.66L511.4 145.487H511.414Z" fill="black"/>
<path d="M515.172 118.765L522.898 124.532C523.468 124.957 523.909 125.636 524.136 126.353L533.258 121.861C533.144 121.509 532.987 121.169 532.788 120.853C532.703 120.707 532.603 120.562 532.475 120.44C532.461 120.416 532.446 120.404 532.432 120.379C532.318 120.258 532.205 120.137 532.062 120.039L524.321 114.272L515.186 118.777L515.172 118.765Z" fill="#E0E0E0"/>
<path d="M503.359 92.7185C503.9 92.9006 504.469 92.9977 504.982 92.9734L510.602 92.6821C511.399 92.6335 512.267 92.9249 512.936 93.362L522.071 88.8576C521.829 88.6998 521.545 88.5541 521.26 88.4448C521.104 88.3841 520.947 88.3356 520.805 88.2991C520.79 88.287 520.776 88.287 520.762 88.287C520.62 88.2506 520.492 88.2263 520.349 88.2142C520.193 88.1899 520.036 88.1777 519.894 88.1777H519.752L514.145 88.4691C513.975 88.4813 513.804 88.4691 513.647 88.4448C513.519 88.4448 513.405 88.4206 513.277 88.3963C513.035 88.3477 512.779 88.2749 512.537 88.202H512.509L503.374 92.7185H503.359Z" fill="#E0E0E0"/>
<path d="M444.82 75.6508C445.247 75.4444 445.816 75.4808 446.4 75.7843L454.198 79.9366C455.265 80.4951 456.574 80.1915 457.3 79.3174C457.769 78.7589 458.253 78.2368 458.794 77.7633C459.662 76.9984 460.117 75.6751 459.647 74.6917L458.893 73.0648L455.549 71.28C454.952 70.9644 454.368 70.9522 453.941 71.1708L444.82 75.6508Z" fill="#E0E0E0"/>
<path d="M456.414 63.8488C456.585 63.7759 456.784 63.7031 456.997 63.6667L462.832 62.5133C464.055 62.2705 465.549 62.8289 466.147 63.7517L471.739 72.3839C472.01 72.7967 472.465 73.1974 472.991 73.5373L482.127 69.0209C481.6 68.6688 481.159 68.2924 480.889 67.8796L475.282 59.2473C474.685 58.3246 473.191 57.7661 471.967 58.009L466.147 59.1624C465.919 59.1988 465.72 59.2838 465.535 59.3688L456.414 63.8488Z" fill="#E0E0E0"/>
<path d="M484.07 67.9884C484.554 67.7455 485.194 67.782 485.806 68.1705L494.629 73.7918C495.283 74.2046 495.824 74.9209 496.108 75.6736L505.244 71.1814C505.215 71.0965 505.158 70.9872 505.13 70.9022C504.931 70.4894 504.66 70.0888 504.347 69.7609C504.276 69.6881 504.205 69.6153 504.12 69.5424C504.006 69.4453 503.906 69.3482 503.778 69.2753L494.942 63.654C494.586 63.4112 494.216 63.3141 493.86 63.3262C493.633 63.3262 493.419 63.3869 493.22 63.4719L484.07 67.9762V67.9884Z" fill="#E0E0E0"/>
<path d="M444.095 86.8192L451.921 92.6591C452.86 93.3632 453.7 94.7837 453.856 95.8279C454.084 97.3698 454.439 98.936 454.895 100.514C455.194 101.534 454.539 102.7 453.372 103.125L448.847 104.776C447.68 105.201 447.182 106.318 447.709 107.277L453.13 117.063C453.657 118.022 455.108 118.738 456.375 118.677L461.995 118.386C463.262 118.325 464.841 118.981 465.567 119.843C466.862 121.373 468.242 122.854 469.693 124.262C470.519 125.063 471.159 126.545 471.102 127.589L470.675 134.497C470.604 135.553 471.373 136.925 472.383 137.557L481.205 143.178C482.215 143.821 483.311 143.518 483.667 142.51L485.559 137.059C485.915 136.051 487.125 135.602 488.306 135.99C489.529 136.391 490.739 136.707 491.906 136.937C493.144 137.18 494.652 138.042 495.25 138.977L500.856 147.597C501.454 148.52 502.948 149.078 504.186 148.836L510.006 147.694C511.244 147.452 511.87 146.456 511.414 145.473L507.345 136.646C506.889 135.663 507.345 134.351 508.213 133.574C508.739 133.101 509.237 132.579 509.707 132.02C510.418 131.146 511.742 130.843 512.809 131.413L520.607 135.565C521.674 136.136 522.698 135.748 522.897 134.716L524.249 127.686C524.449 126.642 523.851 125.233 522.912 124.529L515.086 118.689C514.146 117.985 513.307 116.565 513.15 115.521C512.923 113.979 512.567 112.413 512.112 110.834C511.813 109.814 512.467 108.649 513.634 108.224L518.145 106.573C519.312 106.148 519.81 105.031 519.283 104.072L513.862 94.286C513.335 93.3268 511.884 92.6105 510.617 92.6712L504.997 92.9626C503.73 93.0233 502.151 92.3677 501.425 91.5057C500.13 89.9759 498.75 88.4947 497.299 87.0863C496.473 86.285 495.833 84.8038 495.89 83.7597L496.317 76.8514C496.388 75.7952 495.62 74.4232 494.609 73.7919L485.787 68.1706C484.777 67.5271 483.681 67.8306 483.325 68.8383L481.433 74.2897C481.077 75.2974 479.868 75.7466 478.686 75.3581C477.463 74.9574 476.253 74.6418 475.086 74.4111C473.848 74.1683 472.34 73.3062 471.743 72.3714L466.136 63.7512C465.538 62.8285 464.044 62.27 462.806 62.5129L456.987 63.6541C455.749 63.8969 455.122 64.8925 455.578 65.8759L459.647 74.7025C460.103 75.6859 459.647 76.9971 458.779 77.7741C458.253 78.2476 457.755 78.7697 457.285 79.3282C456.574 80.2024 455.251 80.5059 454.183 79.9474L446.386 75.7952C445.318 75.2245 444.294 75.613 444.095 76.645L442.757 83.6747C442.558 84.7188 443.155 86.1272 444.095 86.8314V86.8192ZM466.193 94.6502C467.787 86.37 476.837 84.5974 486.399 90.6801C495.961 96.7749 502.407 108.418 500.813 116.698C499.22 124.978 490.17 126.751 480.607 120.668C471.045 114.574 464.599 102.93 466.193 94.6502Z" fill="url(#paint7_linear_1158_9124)"/>
<path d="M454.311 116.7C454.311 116.7 454.268 116.639 454.254 116.603L448.833 106.817C448.719 106.623 448.719 106.404 448.804 106.21C448.904 106.004 449.089 105.834 449.345 105.736L453.87 104.085C455.563 103.466 456.545 101.779 456.104 100.249C455.663 98.6947 455.321 97.1649 455.094 95.6837C454.98 94.931 454.595 94.0325 454.041 93.2312C453.656 92.6727 453.201 92.1992 452.746 91.8593L444.905 86.0316C444.749 85.9102 444.578 85.7402 444.436 85.5338C444.066 84.9996 443.866 84.3197 443.966 83.8462L445.318 76.8166C445.346 76.6587 445.403 76.5859 445.403 76.5859C445.432 76.5859 445.546 76.5859 445.731 76.683L453.528 80.8352C455.122 81.6851 457.171 81.2966 458.295 79.9368C458.708 79.4269 459.177 78.9534 459.661 78.5163C460.913 77.3993 461.383 75.6389 460.785 74.3276L456.716 65.5011C456.63 65.319 456.63 65.149 456.716 65.0155C456.815 64.8576 457 64.7484 457.256 64.6998L463.076 63.5585C463.759 63.425 464.67 63.7528 465.04 64.2749L470.646 72.895L470.703 72.98C471.472 74.0848 473.193 75.129 474.787 75.4446C475.925 75.6753 477.078 75.9788 478.231 76.3552C479.156 76.6587 480.123 76.6223 480.963 76.2702C481.76 75.9303 482.343 75.3354 482.599 74.5947L484.492 69.1434C484.549 68.9856 484.634 68.9006 484.662 68.8885C484.705 68.8763 484.847 68.8885 485.018 69.0099L493.84 74.6312C494.082 74.789 494.338 75.0318 494.538 75.3354C494.879 75.821 495.064 76.3795 495.05 76.7923L494.623 83.7005C494.566 84.7082 494.979 85.983 495.704 87.0272C495.904 87.3064 496.117 87.5614 496.345 87.7799C497.754 89.1397 499.105 90.5966 500.386 92.1143C501.368 93.2798 503.374 94.0932 505.039 94.0083L510.66 93.7169C511.371 93.6805 512.282 94.1054 512.666 94.6396C512.68 94.6639 512.709 94.7003 512.723 94.7367L518.144 104.522C518.258 104.717 518.258 104.935 518.173 105.129C518.073 105.336 517.888 105.506 517.632 105.603L513.121 107.254C511.428 107.873 510.446 109.561 510.887 111.091C511.328 112.645 511.67 114.175 511.898 115.656C512.011 116.408 512.396 117.307 512.951 118.108C513.335 118.667 513.79 119.14 514.245 119.48L522.072 125.32C522.228 125.441 522.399 125.611 522.541 125.818C522.911 126.352 523.11 127.032 523.011 127.505L521.659 134.535C521.631 134.693 521.574 134.766 521.574 134.766C521.545 134.766 521.431 134.766 521.246 134.669L513.449 130.516C511.855 129.666 509.806 130.055 508.682 131.415C508.269 131.925 507.8 132.41 507.316 132.847C506.064 133.964 505.594 135.725 506.192 137.036L510.261 145.863C510.347 146.045 510.347 146.215 510.261 146.348C510.162 146.506 509.977 146.615 509.735 146.664L503.915 147.805C503.232 147.939 502.321 147.611 501.951 147.089L496.345 138.469L496.288 138.384C495.519 137.279 493.798 136.247 492.204 135.919C491.08 135.688 489.913 135.385 488.76 135.009C487.836 134.705 486.868 134.741 486.028 135.094C485.232 135.433 484.648 136.028 484.392 136.769L482.5 142.22C482.443 142.378 482.357 142.463 482.329 142.475C482.286 142.487 482.144 142.475 481.973 142.354L473.151 136.733C472.909 136.575 472.653 136.32 472.453 136.028C472.112 135.543 471.927 134.984 471.941 134.571L472.368 127.663C472.425 126.655 472.012 125.381 471.287 124.337C471.087 124.057 470.874 123.79 470.646 123.584C469.238 122.224 467.886 120.767 466.605 119.249C465.623 118.084 463.617 117.27 461.952 117.355L456.331 117.647C455.62 117.683 454.709 117.258 454.325 116.724M497.071 99.4717C494.381 95.6109 490.952 92.2842 487.153 89.8682C481.603 86.3351 475.911 85.1817 471.529 86.6872C468.057 87.877 465.723 90.6573 464.983 94.506C464.001 99.6174 465.808 105.967 469.963 111.941C472.653 115.801 476.082 119.128 479.881 121.544C485.431 125.077 491.123 126.231 495.505 124.725C498.977 123.535 501.311 120.755 502.051 116.906C503.033 111.795 501.226 105.445 497.071 99.4839M453.244 117.246C453.841 118.108 455.193 118.74 456.388 118.679L462.009 118.387C463.275 118.327 464.855 118.982 465.581 119.844C466.876 121.374 468.256 122.855 469.707 124.264C469.878 124.434 470.049 124.64 470.205 124.859C470.774 125.672 471.159 126.765 471.116 127.59L470.689 134.499C470.646 135.142 470.917 135.907 471.372 136.55C471.657 136.963 472.012 137.315 472.397 137.558L481.219 143.179C482.229 143.823 483.325 143.519 483.681 142.512L485.573 137.06C485.929 136.053 487.138 135.603 488.319 135.992C489.543 136.393 490.753 136.708 491.919 136.939C493.129 137.182 494.595 138.007 495.221 138.918C495.221 138.942 495.249 138.954 495.263 138.979L500.87 147.599C500.87 147.599 500.898 147.635 500.898 147.647C501.524 148.546 502.976 149.068 504.185 148.837L510.005 147.696C511.243 147.453 511.869 146.458 511.414 145.474L507.344 136.648C506.889 135.664 507.344 134.353 508.212 133.576C508.739 133.102 509.237 132.58 509.706 132.022C510.418 131.148 511.741 130.844 512.808 131.415L520.606 135.567C521.673 136.138 522.698 135.749 522.897 134.717L524.249 127.687C524.391 126.947 524.121 126.012 523.623 125.284C523.424 124.992 523.182 124.737 522.911 124.531L515.085 118.691C514.715 118.412 514.345 118.011 514.046 117.574C513.591 116.918 513.249 116.154 513.15 115.522C512.922 113.98 512.566 112.414 512.111 110.836C511.812 109.816 512.467 108.65 513.634 108.225L518.144 106.574C519.311 106.149 519.809 105.032 519.283 104.073L513.861 94.2875C513.861 94.2875 513.79 94.1661 513.747 94.1054C513.15 93.2434 511.798 92.612 510.603 92.6727L504.982 92.9641C503.716 93.0248 502.136 92.3692 501.41 91.5072C500.116 89.9774 498.735 88.4962 497.284 87.0879C497.113 86.9179 496.942 86.7115 496.786 86.493C496.217 85.6795 495.833 84.5868 495.875 83.7612L496.302 76.853C496.345 76.2095 496.074 75.4446 495.619 74.8011C495.335 74.3883 494.979 74.0363 494.595 73.7934L485.772 68.1721C484.762 67.5287 483.666 67.8322 483.311 68.8399L481.418 74.2912C481.062 75.2989 479.853 75.7481 478.672 75.3596C477.448 74.959 476.239 74.6433 475.072 74.4126C473.862 74.1698 472.397 73.3442 471.77 72.4336C471.756 72.4094 471.742 72.3972 471.728 72.3729L466.121 63.7528C466.121 63.7528 466.093 63.7164 466.093 63.7042C465.467 62.8058 464.015 62.2837 462.806 62.5144L456.986 63.6557C455.748 63.8985 455.122 64.8941 455.577 65.8775L459.647 74.704C460.102 75.6874 459.647 76.9987 458.779 77.7757C458.252 78.2492 457.754 78.7713 457.285 79.3298C456.573 80.2039 455.25 80.5074 454.183 79.9489L446.385 75.7967C445.318 75.2261 444.293 75.6146 444.094 76.6466L442.757 83.6762C442.614 84.4168 442.885 85.3517 443.383 86.0802C443.582 86.3715 443.824 86.6265 444.094 86.8329L451.92 92.6727C452.305 92.952 452.66 93.3526 452.959 93.7897C453.414 94.4453 453.756 95.2102 453.856 95.8416C454.083 97.3835 454.439 98.9497 454.894 100.528C455.193 101.548 454.539 102.713 453.372 103.138L448.847 104.789C447.68 105.214 447.182 106.331 447.708 107.291L453.13 117.076C453.13 117.076 453.201 117.198 453.244 117.258V117.246ZM495.989 99.9938C499.803 105.482 501.78 111.71 500.813 116.712C499.219 124.992 490.169 126.765 480.607 120.682C476.822 118.266 473.521 114.988 471.016 111.382C467.203 105.894 465.225 99.666 466.193 94.6639C467.786 86.3837 476.836 84.6111 486.398 90.6938C490.183 93.1098 493.485 96.3879 495.989 99.9938Z" fill="#EBEBEB"/>
</g>
<g clip-path="url(#clip3_1158_9124)">
<path d="M549.922 135.373C550.277 135.173 550.752 135.201 551.24 135.488L557.774 139.423C558.663 139.967 559.759 139.667 560.366 138.851C560.751 138.321 561.181 137.835 561.611 137.377C562.337 136.647 562.722 135.402 562.337 134.457L561.7 132.897L558.9 131.208C558.396 130.908 557.907 130.908 557.551 131.122L549.922 135.373ZM579.892 178.08C586.796 183.061 593.388 182.503 595.922 177.207C593.388 177.05 590.514 175.933 587.551 173.801C579.537 168.019 574.129 156.97 575.463 149.113C575.655 147.996 575.951 147.037 576.322 146.207C571.966 145.921 568.663 148.426 567.803 153.378C566.47 161.235 571.863 172.284 579.877 178.066L579.892 178.08ZM559.64 124.181C559.774 124.109 559.951 124.052 560.129 124.009L565.018 122.922C566.04 122.693 567.285 123.222 567.803 124.095L572.5 132.282C572.722 132.682 573.107 133.054 573.551 133.384C574.1 133.77 574.722 134.085 575.3 134.214C576.277 134.428 577.3 134.729 578.322 135.101C579.3 135.459 580.322 135.044 580.618 134.085L581.996 129.577C581.714 129.448 581.448 129.276 581.211 129.09C580.766 128.761 580.396 128.403 580.174 128.002L575.448 119.816C574.944 118.943 573.7 118.413 572.663 118.642L567.789 119.73C567.596 119.773 567.433 119.844 567.285 119.93L559.64 124.181ZM589.507 195.355C589.788 195.197 589.996 194.925 590.129 194.539L590.337 193.866C590.011 193.695 589.685 193.566 589.388 193.508C588.396 193.294 587.388 192.993 586.366 192.621C585.374 192.249 584.351 192.678 584.07 193.637L582.485 198.818C582.396 199.133 582.233 199.362 582.026 199.52L589.522 195.355H589.507ZM582.811 128.088C583.226 127.859 583.759 127.902 584.263 128.26L591.655 133.584C592.203 133.97 592.663 134.657 592.9 135.373C593.048 135.759 593.107 136.16 593.092 136.504L592.737 143.059C592.692 144.06 593.211 145.463 593.922 146.222C595.137 147.553 596.292 148.969 597.374 150.415C597.744 150.902 598.351 151.317 599.003 151.56C599.448 151.732 599.937 151.832 600.366 151.803L605.077 151.531C605.744 151.488 606.485 151.76 607.033 152.175C607.374 152.419 607.625 152.734 607.803 153.077L612.337 162.351C612.781 163.253 612.337 164.312 611.374 164.727L607.581 166.287C606.618 166.702 606.055 167.804 606.307 168.777C606.692 170.266 606.988 171.754 607.181 173.214C607.314 174.202 608.011 175.561 608.811 176.22L608.885 176.277L615.359 181.744C615.833 182.145 616.203 182.789 616.396 183.461C616.514 183.891 616.559 184.349 616.485 184.735L615.344 191.405C615.27 191.82 615.077 192.12 614.811 192.292L622.44 188.041C622.722 187.855 622.914 187.555 622.988 187.125L624.144 180.456C624.262 179.769 624.055 178.896 623.625 178.238C623.566 178.094 623.462 177.966 623.359 177.837C623.359 177.808 623.329 177.794 623.314 177.78C623.225 177.665 623.122 177.551 623.003 177.45L616.514 171.983L616.44 171.926C615.655 171.253 614.959 169.908 614.825 168.92C614.633 167.461 614.322 165.972 613.951 164.484C613.848 164.069 613.892 163.611 614.055 163.21L619.255 160.319C620.055 159.847 620.381 158.902 619.966 158.072L615.433 148.798C615.255 148.469 614.988 148.154 614.663 147.896C614.455 147.739 614.218 147.61 613.981 147.51C613.848 147.452 613.729 147.409 613.596 147.366C613.596 147.366 613.566 147.366 613.551 147.366C613.433 147.338 613.314 147.309 613.211 147.295C613.077 147.266 612.959 147.266 612.825 147.266H612.707L608.011 147.538C607.863 147.538 607.729 147.538 607.581 147.524C607.477 147.524 607.374 147.495 607.27 147.481C607.048 147.452 606.84 147.395 606.633 147.309C605.981 147.066 605.374 146.651 605.003 146.164C603.922 144.719 602.781 143.302 601.551 141.971C600.87 141.212 600.322 139.81 600.366 138.808L600.722 132.239C600.737 131.895 600.648 131.523 600.514 131.137C600.485 131.051 600.455 130.951 600.425 130.879C600.248 130.478 600.025 130.106 599.774 129.806C599.714 129.734 599.655 129.663 599.581 129.605C599.492 129.505 599.403 129.434 599.3 129.362L591.907 124.038C591.611 123.809 591.3 123.723 591.003 123.723C590.811 123.723 590.633 123.78 590.47 123.866L582.796 128.131L582.811 128.088ZM605.729 201.623C606.04 202.368 605.759 203.112 605.092 203.513L612.766 199.233C613.418 198.847 613.7 198.088 613.403 197.344L610.633 190.532L606.9 188.285C606.011 187.755 604.914 188.041 604.307 188.871C603.922 189.401 603.507 189.888 603.063 190.346C602.337 191.075 601.951 192.321 602.322 193.265L605.729 201.638V201.623Z" fill="#E6E6E6"/>
<path opacity="0.1" d="M549.922 135.373C550.277 135.173 550.752 135.201 551.24 135.488L557.774 139.423C558.663 139.967 559.759 139.667 560.366 138.851C560.751 138.321 561.181 137.835 561.611 137.377C562.337 136.647 562.722 135.402 562.337 134.457L561.7 132.897L558.9 131.208C558.396 130.908 557.907 130.908 557.551 131.122L549.922 135.373ZM579.892 178.08C586.796 183.061 593.388 182.503 595.922 177.207C593.388 177.05 590.514 175.933 587.551 173.801C579.537 168.019 574.129 156.97 575.463 149.113C575.655 147.996 575.951 147.037 576.322 146.207C571.966 145.921 568.663 148.426 567.803 153.378C566.47 161.235 571.863 172.284 579.877 178.066L579.892 178.08ZM559.64 124.181C559.774 124.109 559.951 124.052 560.129 124.009L565.018 122.922C566.04 122.693 567.285 123.222 567.803 124.095L572.5 132.282C572.722 132.682 573.107 133.054 573.551 133.384C574.1 133.77 574.722 134.085 575.3 134.214C576.277 134.428 577.3 134.729 578.322 135.101C579.3 135.459 580.322 135.044 580.618 134.085L581.996 129.577C581.714 129.448 581.448 129.276 581.211 129.09C580.766 128.761 580.396 128.403 580.174 128.002L575.448 119.816C574.944 118.943 573.7 118.413 572.663 118.642L567.789 119.73C567.596 119.773 567.433 119.844 567.285 119.93L559.64 124.181ZM589.507 195.355C589.788 195.197 589.996 194.925 590.129 194.539L590.337 193.866C590.011 193.695 589.685 193.566 589.388 193.508C588.396 193.294 587.388 192.993 586.366 192.621C585.374 192.249 584.351 192.678 584.07 193.637L582.485 198.818C582.396 199.133 582.233 199.362 582.026 199.52L589.522 195.355H589.507ZM582.811 128.088C583.226 127.859 583.759 127.902 584.263 128.26L591.655 133.584C592.203 133.97 592.663 134.657 592.9 135.373C593.048 135.759 593.107 136.16 593.092 136.504L592.737 143.059C592.692 144.06 593.211 145.463 593.922 146.222C595.137 147.553 596.292 148.969 597.374 150.415C597.744 150.902 598.351 151.317 599.003 151.56C599.448 151.732 599.937 151.832 600.366 151.803L605.077 151.531C605.744 151.488 606.485 151.76 607.033 152.175C607.374 152.419 607.625 152.734 607.803 153.077L612.337 162.351C612.781 163.253 612.337 164.312 611.374 164.727L607.581 166.287C606.618 166.702 606.055 167.804 606.307 168.777C606.692 170.266 606.988 171.754 607.181 173.214C607.314 174.202 608.011 175.561 608.811 176.22L608.885 176.277L615.359 181.744C615.833 182.145 616.203 182.789 616.396 183.461C616.514 183.891 616.559 184.349 616.485 184.735L615.344 191.405C615.27 191.82 615.077 192.12 614.811 192.292L622.44 188.041C622.722 187.855 622.914 187.555 622.988 187.125L624.144 180.456C624.262 179.769 624.055 178.896 623.625 178.238C623.566 178.094 623.462 177.966 623.359 177.837C623.359 177.808 623.329 177.794 623.314 177.78C623.225 177.665 623.122 177.551 623.003 177.45L616.514 171.983L616.44 171.926C615.655 171.253 614.959 169.908 614.825 168.92C614.633 167.461 614.322 165.972 613.951 164.484C613.848 164.069 613.892 163.611 614.055 163.21L619.255 160.319C620.055 159.847 620.381 158.902 619.966 158.072L615.433 148.798C615.255 148.469 614.988 148.154 614.663 147.896C614.455 147.739 614.218 147.61 613.981 147.51C613.848 147.452 613.729 147.409 613.596 147.366C613.596 147.366 613.566 147.366 613.551 147.366C613.433 147.338 613.314 147.309 613.211 147.295C613.077 147.266 612.959 147.266 612.825 147.266H612.707L608.011 147.538C607.863 147.538 607.729 147.538 607.581 147.524C607.477 147.524 607.374 147.495 607.27 147.481C607.048 147.452 606.84 147.395 606.633 147.309C605.981 147.066 605.374 146.651 605.003 146.164C603.922 144.719 602.781 143.302 601.551 141.971C600.87 141.212 600.322 139.81 600.366 138.808L600.722 132.239C600.737 131.895 600.648 131.523 600.514 131.137C600.485 131.051 600.455 130.951 600.425 130.879C600.248 130.478 600.025 130.106 599.774 129.806C599.714 129.734 599.655 129.663 599.581 129.605C599.492 129.505 599.403 129.434 599.3 129.362L591.907 124.038C591.611 123.809 591.3 123.723 591.003 123.723C590.811 123.723 590.633 123.78 590.47 123.866L582.796 128.131L582.811 128.088ZM605.729 201.623C606.04 202.368 605.759 203.112 605.092 203.513L612.766 199.233C613.418 198.847 613.7 198.088 613.403 197.344L610.633 190.532L606.9 188.285C606.011 187.755 604.914 188.041 604.307 188.871C603.922 189.401 603.507 189.888 603.063 190.346C602.337 191.075 601.951 192.321 602.322 193.265L605.729 201.638V201.623Z" fill="black"/>
<path d="M608.866 176.28L615.34 181.747C615.815 182.148 616.185 182.792 616.377 183.465L624.022 179.2C623.933 178.856 623.8 178.541 623.622 178.241C623.563 178.098 623.459 177.969 623.355 177.84C623.355 177.811 623.326 177.797 623.311 177.783C623.222 177.668 623.118 177.554 623 177.454L616.511 171.986L608.852 176.251L608.866 176.28Z" fill="#E0E0E0"/>
<path d="M598.976 151.56C599.42 151.731 599.909 151.832 600.339 151.803L605.05 151.531C605.716 151.488 606.457 151.76 607.005 152.175L614.665 147.91C614.457 147.753 614.22 147.624 613.983 147.524C613.85 147.466 613.731 147.423 613.598 147.38C613.598 147.38 613.568 147.38 613.554 147.38C613.435 147.352 613.316 147.323 613.213 147.309C613.079 147.28 612.961 147.28 612.828 147.28H612.709L608.013 147.552C607.865 147.552 607.731 147.552 607.583 147.538C607.479 147.538 607.376 147.509 607.272 147.495C607.065 147.452 606.857 147.38 606.65 147.309H606.62L598.961 151.588L598.976 151.56Z" fill="#E0E0E0"/>
<path d="M549.922 135.373C550.277 135.172 550.752 135.201 551.24 135.502L557.774 139.437C558.663 139.967 559.759 139.681 560.366 138.851C560.751 138.321 561.166 137.834 561.611 137.376C562.337 136.647 562.722 135.401 562.337 134.457L561.7 132.911L558.9 131.222C558.396 130.922 557.907 130.907 557.551 131.122L549.922 135.373Z" fill="#E0E0E0"/>
<path d="M559.641 124.181C559.774 124.109 559.952 124.052 560.13 124.009L565.018 122.922C566.041 122.693 567.285 123.222 567.804 124.095L572.5 132.282C572.722 132.682 573.107 133.054 573.552 133.384L581.211 129.104C580.767 128.775 580.396 128.417 580.174 128.017L575.448 119.816C574.944 118.943 573.7 118.413 572.663 118.642L567.789 119.73C567.596 119.773 567.433 119.844 567.285 119.93L559.641 124.181Z" fill="#E0E0E0"/>
<path d="M582.812 128.088C583.227 127.859 583.761 127.902 584.264 128.26L591.657 133.584C592.205 133.97 592.664 134.657 592.901 135.373L600.561 131.108C600.531 131.022 600.501 130.922 600.472 130.85C600.294 130.45 600.072 130.078 599.82 129.777C599.761 129.705 599.701 129.634 599.627 129.577C599.538 129.476 599.45 129.405 599.346 129.333L591.953 124.009C591.657 123.78 591.346 123.694 591.05 123.694C590.857 123.694 590.679 123.752 590.516 123.837L582.842 128.102L582.812 128.088Z" fill="#E0E0E0"/>
<path d="M549.313 145.963L555.876 151.502C556.661 152.174 557.372 153.52 557.505 154.507C557.698 155.967 557.994 157.455 558.379 158.944C558.631 159.917 558.083 161.019 557.105 161.42L553.313 162.994C552.335 163.395 551.905 164.454 552.35 165.37L556.898 174.644C557.342 175.546 558.557 176.233 559.624 176.176L564.335 175.904C565.402 175.846 566.72 176.476 567.328 177.292C568.409 178.752 569.565 180.154 570.779 181.485C571.476 182.244 572.009 183.646 571.965 184.648L571.609 191.203C571.55 192.205 572.187 193.507 573.031 194.109L580.424 199.433C581.268 200.034 582.187 199.762 582.483 198.789L584.068 193.608C584.365 192.649 585.372 192.219 586.365 192.592C587.387 192.964 588.394 193.264 589.387 193.493C590.424 193.722 591.683 194.552 592.187 195.425L596.883 203.612C597.387 204.485 598.631 205.014 599.668 204.785L604.542 203.698C605.579 203.469 606.113 202.524 605.728 201.594L602.32 193.221C601.935 192.291 602.32 191.046 603.046 190.302C603.49 189.858 603.905 189.357 604.29 188.827C604.883 187.997 605.994 187.711 606.883 188.241L613.416 192.176C614.305 192.72 615.165 192.348 615.342 191.361L616.483 184.691C616.646 183.704 616.142 182.358 615.357 181.7L608.794 176.161C608.009 175.489 607.298 174.143 607.165 173.156C606.972 171.696 606.676 170.207 606.29 168.719C606.039 167.746 606.602 166.644 607.565 166.243L611.357 164.669C612.335 164.268 612.765 163.209 612.32 162.293L607.772 153.019C607.328 152.117 606.113 151.43 605.046 151.487L600.335 151.759C599.268 151.817 597.95 151.187 597.342 150.371C596.261 148.911 595.105 147.509 593.89 146.178C593.194 145.419 592.661 144.016 592.705 143.015L593.061 136.46C593.12 135.458 592.483 134.155 591.639 133.554L584.246 128.23C583.402 127.629 582.483 127.901 582.187 128.874L580.602 134.055C580.305 135.014 579.298 135.444 578.305 135.071C577.283 134.699 576.276 134.399 575.283 134.17C574.246 133.941 572.987 133.111 572.483 132.238L567.787 124.051C567.283 123.178 566.039 122.649 565.002 122.878L560.128 123.965C559.091 124.194 558.557 125.139 558.942 126.069L562.35 134.442C562.735 135.372 562.35 136.617 561.624 137.361C561.179 137.805 560.765 138.306 560.379 138.836C559.787 139.666 558.676 139.952 557.787 139.422L551.254 135.486C550.365 134.943 549.505 135.315 549.328 136.302L548.187 142.972C548.024 143.959 548.528 145.305 549.313 145.963ZM567.831 153.391C569.165 145.534 576.75 143.845 584.765 149.627C592.779 155.409 598.187 166.458 596.839 174.315C595.505 182.172 587.92 183.861 579.905 178.079C571.891 172.297 566.483 161.248 567.831 153.391Z" fill="url(#paint8_linear_1158_9124)"/>
<path d="M558.41 174.001V173.958L553.847 164.684C553.847 164.655 553.818 164.626 553.847 164.583C553.847 164.555 553.892 164.512 553.966 164.483L557.758 162.909C559.477 162.193 560.44 160.333 559.995 158.572C559.625 157.127 559.343 155.696 559.166 154.307C559.062 153.506 558.706 152.576 558.203 151.745C557.847 151.159 557.432 150.658 556.988 150.3L550.425 144.761C550.425 144.761 550.277 144.618 550.158 144.432C549.892 144.003 549.803 143.487 549.847 143.23L550.884 137.147L556.914 140.782C558.543 141.756 560.618 141.326 561.758 139.766C562.099 139.308 562.455 138.879 562.84 138.478C564.069 137.233 564.514 135.344 563.906 133.87L560.514 125.54L565.373 124.467C565.684 124.395 566.173 124.596 566.336 124.853L571.032 133.04L571.077 133.111C571.817 134.328 573.388 135.401 574.899 135.745C575.817 135.959 576.766 136.231 577.714 136.589C578.647 136.933 579.655 136.89 580.499 136.489C581.329 136.088 581.921 135.401 582.188 134.528L583.64 129.819L590.647 134.872C590.647 134.872 590.884 135.058 591.077 135.358C591.329 135.759 591.432 136.174 591.417 136.403L591.062 142.958C591.003 144.031 591.388 145.362 592.054 146.45C592.247 146.751 592.44 147.023 592.662 147.266C593.832 148.54 594.958 149.914 596.01 151.33C596.958 152.619 598.84 153.477 600.454 153.377L605.166 153.105C605.521 153.091 606.069 153.363 606.292 153.721L610.84 162.995C610.84 162.995 610.869 163.052 610.84 163.095C610.84 163.124 610.795 163.166 610.721 163.195L606.929 164.769C605.24 165.471 604.247 167.374 604.692 169.106C605.062 170.551 605.343 171.983 605.521 173.371C605.625 174.172 605.98 175.103 606.484 175.933C606.84 176.52 607.254 177.021 607.699 177.378L614.262 182.917C614.262 182.917 614.41 183.06 614.529 183.246C614.795 183.676 614.884 184.191 614.84 184.448L613.803 190.531L607.773 186.896C606.143 185.923 604.069 186.352 602.929 187.912C602.588 188.37 602.232 188.799 601.847 189.2C600.617 190.445 600.173 192.334 600.78 193.809L604.173 202.138L599.314 203.212C599.003 203.283 598.514 203.083 598.351 202.825L593.654 194.639L593.61 194.567C592.869 193.351 591.299 192.277 589.788 191.934C588.869 191.719 587.921 191.447 586.973 191.089C586.04 190.746 585.032 190.789 584.188 191.189C583.358 191.59 582.766 192.277 582.499 193.15L581.047 197.859L574.04 192.807C574.04 192.807 573.803 192.621 573.61 192.32C573.358 191.919 573.255 191.504 573.269 191.275L573.625 184.72C573.684 183.647 573.299 182.316 572.632 181.228C572.44 180.928 572.247 180.656 572.025 180.412C570.855 179.139 569.729 177.765 568.677 176.348C567.729 175.06 565.847 174.201 564.232 174.301L559.521 174.573C559.151 174.587 558.618 174.301 558.425 174.001M594.232 157.642C591.936 153.907 589.003 150.686 585.758 148.354C580.929 144.876 575.936 143.745 572.055 145.262C568.929 146.479 566.84 149.284 566.188 153.148C565.343 158.129 566.884 164.311 570.44 170.094C572.736 173.829 575.669 177.035 578.914 179.382C583.743 182.86 588.736 183.99 592.617 182.473C595.743 181.257 597.832 178.452 598.484 174.587C599.329 169.607 597.788 163.424 594.232 157.642ZM556.988 174.831C557.492 175.647 558.618 176.248 559.625 176.19L564.336 175.919C565.403 175.861 566.721 176.491 567.329 177.307C568.41 178.767 569.566 180.169 570.78 181.5C570.929 181.658 571.077 181.858 571.195 182.073C571.669 182.846 571.995 183.876 571.951 184.663L571.595 191.218C571.566 191.833 571.788 192.549 572.158 193.165C572.395 193.551 572.692 193.894 573.017 194.123L580.41 199.447C581.255 200.049 582.173 199.777 582.469 198.803L584.055 193.622C584.351 192.664 585.358 192.234 586.351 192.606C587.373 192.978 588.38 193.279 589.373 193.508C590.38 193.737 591.61 194.524 592.143 195.383C592.143 195.397 592.173 195.426 592.173 195.44L596.869 203.627C596.869 203.627 596.884 203.655 596.899 203.67C597.417 204.514 598.647 205.015 599.654 204.8L604.529 203.712C605.566 203.483 606.099 202.539 605.714 201.609L602.306 193.236C601.921 192.306 602.306 191.061 603.032 190.316C603.477 189.873 603.892 189.372 604.277 188.842C604.869 188.012 605.98 187.726 606.869 188.255L613.403 192.191C614.291 192.735 615.151 192.363 615.329 191.376L616.469 184.706C616.588 184.005 616.366 183.117 615.936 182.43C615.773 182.159 615.566 181.901 615.343 181.715L608.78 176.176C608.469 175.904 608.158 175.532 607.906 175.117C607.521 174.487 607.24 173.772 607.151 173.171C606.958 171.711 606.662 170.222 606.277 168.734C606.025 167.761 606.588 166.659 607.551 166.258L611.343 164.684C612.321 164.283 612.751 163.224 612.306 162.308L607.758 153.034C607.758 153.034 607.699 152.919 607.669 152.862C607.166 152.046 606.04 151.445 605.032 151.502L600.321 151.774C599.254 151.831 597.936 151.202 597.329 150.386C596.247 148.926 595.092 147.523 593.877 146.192C593.729 146.035 593.58 145.835 593.462 145.62C592.988 144.847 592.662 143.817 592.706 143.029L593.062 136.475C593.092 135.859 592.869 135.144 592.499 134.528C592.262 134.142 591.966 133.798 591.64 133.569L584.247 128.245C583.403 127.644 582.484 127.916 582.188 128.889L580.603 134.07C580.306 135.029 579.299 135.458 578.306 135.086C577.284 134.714 576.277 134.414 575.284 134.185C574.277 133.956 573.047 133.168 572.514 132.31C572.514 132.295 572.484 132.267 572.484 132.252L567.788 124.066C567.788 124.066 567.773 124.037 567.758 124.023C567.24 123.179 566.01 122.678 565.003 122.892L560.129 123.98C559.092 124.209 558.558 125.154 558.943 126.084L562.351 134.457C562.736 135.387 562.351 136.632 561.625 137.376C561.18 137.82 560.766 138.321 560.38 138.85C559.788 139.68 558.677 139.967 557.788 139.437L551.255 135.501C550.366 134.957 549.506 135.33 549.329 136.317L548.188 142.972C548.069 143.673 548.292 144.561 548.721 145.248C548.884 145.52 549.092 145.777 549.314 145.963L555.877 151.502C556.188 151.774 556.499 152.146 556.751 152.561C557.136 153.191 557.418 153.907 557.506 154.508C557.699 155.968 557.995 157.456 558.38 158.944C558.632 159.918 558.084 161.02 557.106 161.42L553.314 162.995C552.336 163.395 551.906 164.455 552.351 165.371L556.899 174.645C556.899 174.645 556.958 174.759 556.988 174.816V174.831ZM592.795 158.472C595.995 163.682 597.64 169.593 596.84 174.33C595.506 182.187 587.921 183.876 579.906 178.094C576.736 175.804 573.966 172.684 571.877 169.263C568.677 164.054 567.032 158.143 567.832 153.406C569.166 145.548 576.751 143.86 584.766 149.642C587.936 151.932 590.706 155.052 592.81 158.472H592.795Z" fill="#EBEBEB"/>
</g>
<defs>
<linearGradient id="paint0_linear_1158_9124" x1="0" y1="0" x2="788.394" y2="519.255" gradientUnits="userSpaceOnUse">
<stop offset="0.0165692" stop-color="#186602"/>
<stop offset="0.483452" stop-color="#36CB72"/>
<stop offset="1" stop-color="#10A81B"/>
</linearGradient>
<linearGradient id="paint1_linear_1158_9124" x1="627.585" y1="342.355" x2="627.585" y2="366.399" gradientUnits="userSpaceOnUse">
<stop stop-color="#10A81B"/>
<stop offset="1" stop-color="#7939CC" stop-opacity="0"/>
</linearGradient>
<linearGradient id="paint2_linear_1158_9124" x1="584.984" y1="302.972" x2="584.984" y2="336.44" gradientUnits="userSpaceOnUse">
<stop stop-color="#10A81B"/>
<stop offset="1" stop-color="#7939CC" stop-opacity="0"/>
</linearGradient>
<linearGradient id="paint3_linear_1158_9124" x1="642.088" y1="342.355" x2="642.088" y2="384.4" gradientUnits="userSpaceOnUse">
<stop stop-color="#10A81B"/>
<stop offset="1" stop-color="#7939CC" stop-opacity="0"/>
</linearGradient>
<linearGradient id="paint4_linear_1158_9124" x1="607.557" y1="302.972" x2="607.557" y2="366.4" gradientUnits="userSpaceOnUse">
<stop stop-color="#10A81B"/>
<stop offset="1" stop-color="#7939CC" stop-opacity="0"/>
</linearGradient>
<linearGradient id="paint5_linear_1158_9124" x1="554.592" y1="244.184" x2="554.592" y2="336.439" gradientUnits="userSpaceOnUse">
<stop stop-color="#10A81B"/>
<stop offset="1" stop-color="#7939CC" stop-opacity="0"/>
</linearGradient>
<linearGradient id="paint6_linear_1158_9124" x1="537.607" y1="225.844" x2="537.607" y2="256.242" gradientUnits="userSpaceOnUse">
<stop stop-color="#10A81B"/>
<stop offset="1" stop-color="#7939CC" stop-opacity="0"/>
</linearGradient>
<linearGradient id="paint7_linear_1158_9124" x1="483.503" y1="62.4561" x2="483.503" y2="148.892" gradientUnits="userSpaceOnUse">
<stop stop-color="#10A81B"/>
<stop offset="1" stop-color="#7939CC" stop-opacity="0"/>
</linearGradient>
<linearGradient id="paint8_linear_1158_9124" x1="582.335" y1="122.824" x2="582.335" y2="204.839" gradientUnits="userSpaceOnUse">
<stop stop-color="#10A81B"/>
<stop offset="1" stop-color="#7939CC" stop-opacity="0"/>
</linearGradient>
<clipPath id="clip0_1158_9124">
<rect width="380.073" height="352.087" fill="white" transform="translate(123.945 120.917)"/>
</clipPath>
<clipPath id="clip1_1158_9124">
<rect width="129.961" height="158.556" fill="white" transform="translate(526.086 225.844)"/>
</clipPath>
<clipPath id="clip2_1158_9124">
<rect width="90.7272" height="90.9363" fill="white" transform="translate(442.719 57.9609)"/>
</clipPath>
<clipPath id="clip3_1158_9124">
<rect width="76.0147" height="86.2729" fill="white" transform="translate(548.156 118.585)"/>
</clipPath>
</defs>
</svg>
