<?xml version="1.0" encoding="utf-8"?>
<!-- Generator: Adobe Illustrator 16.0.0, SVG Export Plug-In . SVG Version: 6.00 Build 0)  -->
<!DOCTYPE svg PUBLIC "-//W3C//DTD SVG 1.1//EN" "http://www.w3.org/Graphics/SVG/1.1/DTD/svg11.dtd">
<svg version="1.1" id="Layer_1" xmlns="http://www.w3.org/2000/svg" xmlns:xlink="http://www.w3.org/1999/xlink" x="0px" y="0px"
	 width="362px" height="362px" viewBox="0 0 362 362" enable-background="new 0 0 362 362" xml:space="preserve">
<g id="Layer_2">
	<g>
		<g>
			<g>
				<path fill="#FFFFFF" d="M73.639,201.093H52.03l-1.253-15.118c-3.796-1.113-7.407-2.709-10.787-4.756l-11.165,9.449
					L13.55,175.389l9.799-11.579c-1.893-3.47-3.315-7.144-4.26-10.989l-14.578-1.212l0.003-21.612l15.123-1.262
					c1.115-3.792,2.707-7.4,4.747-10.774l-9.444-11.168l15.28-15.275l11.578,9.803c3.463-1.894,7.141-3.315,10.984-4.26L54,82.481
					h21.604l1.268,15.125c3.78,1.116,7.399,2.706,10.775,4.75l11.167-9.444l15.27,15.273l-9.797,11.582
					c1.894,3.469,3.316,7.147,4.258,10.99l14.578,1.214v21.614l-15.12,1.258c-1.12,3.79-2.71,7.408-4.761,10.778l9.447,11.167
					l-15.275,15.272l-11.579-9.804c-3.466,1.894-7.146,3.317-10.99,4.269L73.639,201.093z"/>
				<g>
					<g>
						<path fill="#35434C" d="M49.012,188.645l-0.108-0.278c-0.035-0.105-0.059-0.085-0.086-0.132l-0.139-0.157
							c-0.08-0.095-0.136-0.173-0.176-0.251c0-0.055-0.079-0.049-0.133-0.061c-0.056-0.01-0.108-0.021-0.157-0.037
							c-0.099-0.029-0.188-0.07-0.282-0.123c-0.676-0.242-1.469-0.654-2.172-1.021c-0.724-0.375-1.449-0.729-2.145-1.136
							c-0.396-0.219-0.776-0.428-1.145-0.631c-0.187-0.096-0.371-0.189-0.552-0.283l-0.412-0.197
							c-0.385-0.171-0.802-0.24-1.078,0.023c-0.152,0.047-0.176,0.234-0.241,0.291c-0.032,0.031-0.071,0.049-0.119,0.058
							c-0.024,0.005-0.05,0.007-0.08,0.007l-0.022,0.001l-0.077,0.046c-0.052,0.027-0.102,0.055-0.149,0.081
							c-1.633,0.854-3.161,1.878-4.647,2.984c-0.743,0.554-1.476,1.129-2.206,1.714c-0.991,0.813-1.988,1.631-2.988,2.451
							l-1.169,0.963c-7.674-7.87-9.629-9.797-17.442-17.474l4.592-5.568l3.583-4.412l0.894-1.105l0.258-0.33l0.174-0.23
							c0.415-0.277-0.018-0.66-0.167-0.987l-0.265-0.49c-0.121-0.216-0.231-0.438-0.328-0.666l-0.613-1.353
							c-0.431-0.895-0.779-1.822-1.123-2.753l-0.432-1.156c-0.108-0.302-0.137-0.414-0.207-0.628l-0.178-0.564l-0.087-0.28
							c-0.007-0.063-0.04-0.066-0.075-0.062l-0.098-0.004l-0.382-0.019l-0.747-0.052l-2.353-0.184
							c-3.815-0.328-7.633-0.655-11.451-0.982c0.037-5.724,0.074-11.45,0.111-17.171c0.001-0.627,0.05-1.276,0.074-1.912
							c0.012-0.318,0.018-0.633,0.009-0.94c-0.009-0.338-0.032-0.512-0.08-1.076c-0.15-1.508-0.28-3.141-0.392-4.865
							c2.527-0.37,5.06-0.74,7.598-1.111c1.778-0.252,3.565-0.458,5.358-0.633l2.259-0.208c0.024-0.004,0.056,0.014,0.072-0.045
							l0.016-0.032l0.009-0.017l0.066-0.192c0.146-0.461,0.326-0.911,0.517-1.357c0.384-0.889,0.711-1.804,1.145-2.671l1.146-2.345
							l0.377-0.66c0.098-0.154,0.024-0.1,0.025-0.136l-0.045-0.05l-1.529-1.794l-8.416-9.829l9.251-9.366l4.491-4.422l5.693-5.692
							l8.969,7.58c0.321,0.272,0.665,0.521,0.972,0.804l1.953,1.813l0.226,0.21l0.004,0.022l0.016,0.05
							c0.016,0.027,0.027,0.091,0.063,0.099c0.037,0,0.081-0.005,0.129-0.013c0.027-0.005,0.045-0.006,0.082-0.017l0.642-0.3
							l2.63-1.057c0.878-0.347,1.786-0.614,2.675-0.93l0.669-0.23l0.244-0.068l0.467-0.136l0.229-0.07
							c0.033-0.013,0.085-0.023,0.103-0.037l-0.001-0.047l-0.011-0.181l-0.005-0.042c0-0.039-0.009,0.037,0.001-0.122l0.035-0.668
							l0.062-1.339c0.059-1.433,0.296-2.869,0.568-4.309l0.415-2.164l0.099-0.542l0.024-0.136l0.031-0.225l0.063-0.472l0.23-1.861
							l0.285-2.538l7.493,0.183l5.4,0.085l5.402,0.014l7.268-0.034l1.344,14.579l0.056,0.53l0.047,0.364
							c-0.017,0.078,0.07,0.079,0.13,0.099l0.187,0.055l0.365,0.116l0.652,0.22c0.254,0.079,0.496,0.195,0.744,0.291l1.48,0.605
							c0.999,0.375,1.934,0.897,2.898,1.348l0.704,0.345l0.343,0.198l0.69,0.399l0.173,0.101c0.055,0.026,0.127,0.096,0.15,0.041
							l0.205-0.167l0.485-0.396l10.808-9.049l6.777,6.8l11.282,11.134l-7.677,9.259c-0.535,0.647-1.053,1.313-1.6,1.95l-0.555,0.636
							c-0.042,0.073-0.169,0.132-0.141,0.216l0.125,0.261l0.474,0.974l0.739,1.756c0.519,1.16,0.893,2.375,1.308,3.573l0.153,0.451
							c0.064,0.18,0.051,0.177,0.081,0.275l0.117,0.447c0.088,0.276,0.136,0.651,0.258,0.852l0.604,0.065l1.575,0.145l3.615,0.325
							l9.158,0.789l-0.001,1.991l0.052,23.537l-10.331,0.908l-4.179,0.376l-0.944,0.094c-0.051,0.01-0.116,0.001-0.154,0.028
							l-0.051,0.167l-0.101,0.332l-0.123,0.391c-0.088,0.257-0.156,0.521-0.262,0.771l-0.595,1.517
							c-0.372,1.022-0.846,2.001-1.308,2.985c-0.563,1.229-0.671,1.369-0.919,1.851l-0.167,0.317
							c-0.045,0.101,0.074,0.122,0.103,0.185l0.292,0.313l4.042,4.646l5.594,6.49l-3.56,3.602l-1.441,1.427l-1.37,1.305
							c-0.917,0.865-1.836,1.729-2.729,2.619l-7.313,7.401c-0.729,0.741-1.463,1.49-2.2,2.24c-1.182-0.974-2.388-1.966-3.562-2.972
							c-0.704-0.602-0.849-0.74-1.197-1.067c-0.307-0.293-0.602-0.592-0.881-0.897c-1.133-1.246-2.341-2.401-3.583-3.521
							l-2.779-2.454l-0.691,0.31l-0.544,0.252c-0.238,0.119-0.484,0.219-0.732,0.313l-1.483,0.583
							c-0.978,0.413-2.004,0.695-3.012,1.02l-0.758,0.236c-0.247,0.075-0.334,0.078-0.512,0.121l-0.963,0.206l-0.499,0.106
							c-0.043,0.107-0.049,0.24-0.077,0.365l-0.139,0.795c-0.54,4.061-1.143,8.131-1.84,12.224
							c-0.016-1.228-0.032-2.451-0.047-3.683c-0.001-1.254,0.002-2.51,0.059-3.767l0.207-4.751l0.114-2.521
							c-0.016-0.068,0.033-0.084,0.087-0.096l0.145-0.047l0.291-0.096L75.744,186l1.19-0.384c0.842-0.244,1.505-0.565,2.255-0.847
							l1.094-0.436l1.065-0.503c0.702-0.353,1.432-0.638,2.106-1.039l2.478-1.354l6.318,4.979l2.979,2.353l1.185,0.922l0.931,0.711
							l0.975-1.067l0.625-0.671l0.833-0.873l1.672-1.741l3.365-3.466l5.764-5.882l-3.743-4.311l-2.901-3.319l-1.938-2.225
							l-0.557-0.642l-0.279-0.322c-0.08-0.053-0.019-0.109,0.008-0.165l0.091-0.167l0.733-1.343l0.738-1.352l0.364-0.67l0.219-0.482
							l0.879-1.922c0.271-0.65,0.508-1.315,0.766-1.97c0.122-0.33,0.265-0.652,0.37-0.989l0.415-1.3l0.806-2.493
							c0.838-0.122,1.739-0.168,2.61-0.255l3.613-0.317c2.199-0.186,4.399-0.356,6.599-0.497l1.872-0.105
							c0.007-0.402,0.006-0.817-0.005-1.224l-0.026-1.346l-0.047-1.431c-0.078-1.908-0.217-3.813-0.454-5.722
							c-0.27-2.169,0.029-4.565,0.132-6.852c0.013-0.357,0.039-0.361,0.071-0.468l0.11-0.318c0.078-0.231,0.157-0.512,0.185-0.762
							c-0.125-0.028-0.275-0.038-0.435-0.014l-0.626,0.092l-0.136,0.019l-0.066,0.009h-0.17l-0.725-0.011
							c-0.966-0.021-1.931-0.063-2.895-0.122c-0.964-0.059-1.926-0.134-2.888-0.219l-3.053-0.295l-2.43-0.236l-0.603-0.059
							l-0.301-0.03c-0.023-0.004-0.054-0.001-0.071-0.011l-0.017-0.066l-0.035-0.133l-0.278-1.061l-0.551-2.104l-0.269-1.002
							l-0.216-0.655c-0.547-1.757-1.243-3.47-2.098-5.097l-1.657-3.157c-0.147-0.144,0.067-0.248,0.135-0.368l0.291-0.352
							l0.585-0.704l1.18-1.41c0.996-1.192,1.895-2.241,2.867-3.351c0.958-1.093,1.927-2.177,2.906-3.251l0.736-0.804l0.175-0.19
							l0.074-0.07l0.154-0.145l0.679-0.639l-0.659-0.868l-0.1-0.125l-0.233-0.252l-0.488-0.506l-1.009-0.989
							c-0.693-0.643-1.388-1.287-2.077-1.926c-1.457-1.351-2.957-2.66-4.438-3.987c-0.74-0.663-1.475-1.331-2.198-2.01l-1.003-0.96
							c-0.104-0.097-0.203-0.196-0.301-0.305l-0.283-0.311l-0.602,0.468L96.299,98l-3.988,3.342l-2.33,1.97l-1.67,1.416
							c-0.139,0.11-0.278,0.255-0.418,0.336l-0.425-0.238l-0.852-0.476l-1.706-0.95l-0.855-0.475l-0.568-0.269
							c-0.75-0.342-1.485-0.715-2.245-1.032l-2.303-0.893l-3.605-1.153l-0.53-0.169l-0.133-0.042
							c-0.047-0.012-0.021-0.083-0.034-0.121l-0.026-0.277l-0.104-1.109l-0.211-2.224l-0.272-2.586l-0.567-5.17l-0.146-1.292
							c-0.045-0.378-0.113-1.036-0.121-0.955c-0.041-0.155-0.081-0.288-0.12-0.395l-0.287,0.059l-0.178,0.043l-1.136,0.038
							l-2.492,0.062l-4.988,0.076l-7.174,0.027l-0.124,1.373l-0.353,4.176l-0.292,3.288l-0.234,2.542l-0.144,1.57l-0.072,0.782
							l-0.009,0.098c-0.018,0.018-0.053,0.018-0.079,0.028l-0.167,0.045l-0.335,0.09l-2.669,0.716l-1.327,0.355
							c-0.267,0.067-0.313,0.094-0.455,0.138l-0.367,0.121c-0.975,0.332-1.973,0.61-2.917,1.029l-1.433,0.583
							c-0.242,0.09-0.467,0.217-0.7,0.327l-1.2,0.598l-1.354,0.678l-0.676,0.339l-0.338,0.17l-0.168,0.084l-0.146-0.124
							l-2.337-1.975l-1.541-1.284l-1.274-1.038c-0.853-0.688-1.711-1.365-2.577-2.031l-2.701-2.114l-0.32-0.255l-0.022-0.003
							l-0.036-0.002c-0.021,0-0.036,0.001-0.047,0.004l-0.031,0.077l-1.684,1.699l-3.833,3.806l-5.624,5.54l0.05,0.05l0.026,0.021
							l0.007,0.005l0.146,0.17l0.303,0.351l2.442,2.788c1.078,1.213,2.128,2.453,3.163,3.708l1.509,1.814l0.771,0.93l0.383,0.464
							c0.096,0.154,0.362,0.31,0.175,0.462l-2.122,3.643c-0.43,0.718-0.509,0.914-0.702,1.277l-0.526,1.011
							c-0.372,0.665-0.663,1.368-0.966,2.065l-0.455,1.048c-0.082,0.173-0.137,0.354-0.202,0.534l-0.259,0.752l-0.733,2.17
							l-0.363,1.083c-0.001,0.254-0.268,0.178-0.445,0.211l-0.577,0.047l-13.399,1.126l0.089,15.989l0.012,0.117l0.156-0.008
							l0.035-0.003l0.017-0.002c0.014,0-0.023-0.004,0.098,0.005l1.033,0.072l4.131,0.288l4.198,0.307l4.076,0.329l0.255,0.021
							c0.043,0.048,0.046,0.136,0.072,0.202l0.12,0.428l0.239,0.855l0.477,1.712c0.551,2.09,0.772,2.531,1.101,3.554
							c0.278,0.934,0.706,1.81,1.052,2.719c0.094,0.224,0.174,0.455,0.279,0.674l0.37,0.763l1.323,2.69l0.329,0.669
							c0.023,0.055,0.063,0.112,0.074,0.166l-0.125,0.144l-0.249,0.288l-0.992,1.149l-1.685,1.947l-4.111,4.727l-2.028,2.383
							l-0.117,0.143l-0.049,0.066l-0.084,0.127l0.069,0.052l0.109,0.08l0.048,0.037c0.016,0.014-0.001-0.005,0.04,0.035l0.233,0.229
							l1.852,1.837l3.659,3.713l3.616,3.75l0.9,0.939c0.26,0.275,0.729,0.759,0.646,0.69l0.258,0.349l0.217-0.129l0.12-0.076
							c0.061-0.041,0.007,0.013,0.297-0.225l2.561-2.068l2.554-2.076l3.014-2.492l1.194-1l0.596-0.5l0.149-0.125
							c0.049-0.033,0.1,0.04,0.15,0.055l0.301,0.171l2.403,1.364l1.187,0.669l0.758,0.366l1.515,0.73
							c1.031,0.438,2.07,0.864,3.124,1.248l2.6,0.85l0.733,0.238l0.367,0.121l0.183,0.06l0.092,0.03l0.009,0.096l0.133,1.55
							l1.11,12.784l0.703,0.008c4.403,0.021,8.806,0.266,13.198,0.482c2.837,0.139,4.508,1.145,5.285,2.691
							c0.383,0.768-0.269,1.516-1.726,1.588c-3.548,0.174-7.208,0.594-10.648,0.28c-1.516-0.14-3.038-0.155-4.561-0.137
							l-2.833,0.042c-1.336,0.009-2.672,0.019-4.005,0.027c-0.142-1.721-0.264-3.468-0.335-5.16
							c-0.021-1.082,0.02-1.992,0.123-2.998c0.105-0.99-0.431-2.348-0.765-3.465c-0.401-1.345-0.378-2.418,0.248-3.318
							L49.012,188.645z"/>
					</g>
				</g>
			</g>
		</g>
		<g>
			<path fill="#649DD0" d="M63.819,114.748c15.504,0,28.066,12.563,28.066,28.06c0,15.504-12.562,28.066-28.066,28.066
				c-15.497,0-28.061-12.563-28.061-28.066C35.759,127.311,48.322,114.748,63.819,114.748z"/>
			<g>
				<path fill="#639DD1" d="M86.488,122.586c0.308,0.297,0.646,0.572,0.95,0.877c0.288,0.318,0.563,0.649,0.795,1.011
					c0.251,0.395,0.541,0.746,0.847,1.1c0.589,0.765,1.051,1.625,1.526,2.465c0.492,1.026,0.722,2.17,1.348,3.108
					c0.312,0.539,0.485,1.132,0.637,1.724l0.226,0.886c0.058,0.3,0.119,0.598,0.21,0.889c0.232,0.808,0.502,1.615,0.631,2.448
					l0.373,2.503c0.081,1.514,0.294,3.035,0.139,4.553c-0.036,1.594-0.429,3.145-0.669,4.708c-0.237,0.987-0.237,2.054-0.583,3.021
					c-0.495,1.024-0.82,2.102-1.266,3.135l-0.717,1.529l-0.38,0.753l-0.472,0.702c-0.423,0.594-0.792,1.219-1.172,1.838
					l-1.261,1.782c-0.628,0.893-1.381,1.689-2.103,2.509c-0.284,0.323-0.696,0.519-1.074,0.734
					c-0.494,0.266-0.872,0.646-1.239,1.049c-0.364,0.404-0.772,0.765-1.218,1.074c-0.739,0.499-1.481,0.984-2.279,1.381
					c-0.787,0.412-1.533,0.886-2.346,1.239c-0.559,0.271-1.15,0.47-1.727,0.691c-0.584,0.206-1.179,0.372-1.722,0.699
					c-0.62,0.367-1.344,0.562-2.088,0.48c-1.031-0.102-1.869,0.516-2.854,0.52c-1.03,0.026-2.006,0.557-3.068,0.329
					c-0.733-0.134-1.47,0.174-2.213,0.172c-0.969-0.069-1.934-0.172-2.894-0.266c-0.952-0.182-1.898-0.363-2.855-0.492
					c-0.94-0.201-1.831-0.564-2.723-0.889c-0.463-0.192-1.027-0.11-1.528-0.239c-0.586-0.173-1.167-0.378-1.708-0.664
					c-0.199-0.105-0.333-0.376-0.556-0.392c-0.975-0.083-1.686-0.75-2.637-0.936c-0.541-0.084-0.923-0.473-1.149-1.043
					c-0.151-0.351-0.415-0.605-0.671-0.837c-0.66-0.594-1.501-0.962-2.043-1.703c-0.412-0.565-0.723-1.256-1.795-1.072
					c-0.235-0.514-0.941-0.569-1.098-1.175c-0.086-0.367-0.347-0.623-0.592-0.873c-0.536-0.508-1.028-1.061-1.488-1.64
					c-0.798-0.982-1.227-2.197-1.983-3.2c-0.589-0.919-0.979-1.942-1.938-2.712c-0.122-0.11-0.215-0.293-0.14-0.459
					c0.447-0.981-0.295-1.523-0.547-2.256c-0.153-0.629-0.406-1.231-0.645-1.843c-0.119-0.304-0.181-0.652-0.492-0.874
					c-0.441-0.349,0.11-0.809-0.068-1.155c-0.166-0.326-0.554-0.612-0.64-0.959c-0.057-0.233,0.243-0.52,0.416-0.833
					c-0.482-0.242-0.654-0.594-0.326-1.024c0.195-0.251,0.223-0.485-0.082-0.746c-0.225-0.193-0.225-0.498-0.208-0.752
					c0.017-0.63,0.171-1.256,0.289-1.875c0.122-0.62,0.238-1.233,0.317-1.848c0.353-1.542,0.594-3.083,1.022-4.592
					c0.125-0.479,0.207-0.973,0.353-1.447l0.447-1.424c0.158-0.472,0.273-0.964,0.469-1.423l0.587-1.381
					c0.143-0.33,0.358-0.624,0.54-0.933c0.18-0.274,0.415-0.518,0.565-0.806l0.864-1.658c0.314-0.538,0.664-1.055,1.004-1.581
					c0.182-0.275,0.417-0.51,0.619-0.768c0.587-0.671,1.332-1.178,1.587-2.152c0.048-0.168,0.154-0.315,0.305-0.389
					c0.985-0.457,1.611-1.267,2.336-2.005c0.733-0.662,1.463-1.351,2.254-1.962c0.819-0.567,1.63-1.167,2.495-1.676
					c0.724-0.392,1.469-0.75,2.218-1.094c0.762-0.314,1.555-0.552,2.327-0.836c0.096-0.034,0.203-0.037,0.287-0.096
					c0.669-0.489,1.456-0.658,2.226-0.849l1.168-0.234c0.396-0.042,0.79-0.087,1.181-0.154l1.688-0.302
					c0.565-0.082,1.137-0.104,1.707-0.145c0.301-0.017,0.609,0.069,0.907,0.148c0.226,0.059,0.445,0.178,0.657,0.27
					c0.289,1.542-0.388,2.714-0.262,4.181c-0.722,0.544-1.369,0.8-2.098,0.66c-0.992-0.124-2.006-0.166-3.034-0.192
					c-0.171,0.01-0.32,0.146-0.48,0.211c-0.242,0.099-0.469,0.27-0.729,0.264c-0.658-0.015-1.246,0.221-1.8,0.544
					c-0.508,0.267-0.941,0.688-1.606,0.584c-0.305-0.052-0.468,0.344-0.728,0.454c-0.877,0.406-1.802,0.729-2.625,1.25
					c-0.194,0.111-0.342,0.3-0.496,0.469c-0.137,0.15-0.215,0.383-0.383,0.477c-0.488,0.283-0.938,0.626-1.416,0.931
					c-0.474,0.312-0.958,0.614-1.38,0.995c-0.131,0.108-0.212,0.274-0.325,0.404l-0.856,1c-0.256,0.358-0.51,0.716-0.778,1.058
					c-0.222,0.284-0.588,0.446-0.826,0.721c-0.21,0.26-0.202,0.696-0.456,0.906c-0.488,0.438-0.864,0.971-1.118,1.569
					c-0.258,0.599-0.495,1.196-0.891,1.708c-0.369,0.511-0.654,1.073-0.957,1.627c-0.317,0.549-0.533,1.143-0.709,1.749
					c-0.146,0.482-0.252,0.975-0.351,1.464c-0.061,0.503-0.138,0.995-0.304,1.469c-0.404,0.986-0.527,2.047-0.702,3.09
					c-0.129,1.556-0.098,3.119,0.041,4.665l0.032,0.937l0.103,0.931c0.078,0.62,0.094,1.254,0.243,1.863
					c0.185,0.726,0.313,1.469,0.487,2.202c0.25,0.709,0.542,1.409,0.962,2.042c0.065,0.092,0.128,0.186,0.171,0.287l0.869,2.346
					c0.073,0.149,0.063,0.373,0.245,0.433c0.663,0.217,0.676,0.806,0.941,1.262c0.407,0.663,0.958,1.229,1.437,1.835
					c0.507,0.622,1.124,1.15,1.688,1.713c0.441,0.455,1.022,0.76,1.506,1.157c0.217,0.167,0.435,0.337,0.585,0.577
					c0.477,0.66,1.072,1.209,1.679,1.744c0.638,0.492,1.342,0.891,2.018,1.332c0.526,0.316,1.204,0.326,1.743,0.595
					c0.307,0.139,0.6,0.312,0.913,0.439l0.941,0.376c0.628,0.25,1.245,0.545,1.909,0.689c0.855,0.212,1.712,0.414,2.588,0.51
					c0.791,0.106,1.563,0.385,2.369,0.424l1.874,0.208l1.891,0.022c0.636,0.031,1.263-0.04,1.89-0.124
					c0.624-0.097,1.265-0.119,1.871-0.308l1.334-0.372c0.447-0.119,0.884-0.269,1.294-0.493c0.15-0.076,0.323-0.094,0.489-0.126
					c0.631-0.139,1.319-0.165,1.915-0.43c0.782-0.331,1.6-0.617,2.317-1.084c0.268-0.161,0.491-0.396,0.737-0.588
					c0.179-0.14,0.347-0.296,0.554-0.391c0.814-0.403,1.615-0.853,2.402-1.335c0.442-0.32,0.851-0.683,1.27-1.036
					c0.417-0.355,0.836-0.708,1.195-1.124c0.237-0.251,0.389-0.581,0.641-0.815c0.256-0.238,0.248-0.597-0.241-1.251
					c0.7,0.277,1.188,0.384,1.393,0.025c0.243-0.429,0.507-0.839,0.782-1.241c0.277-0.4,0.491-0.842,0.745-1.256
					c0.675-1.051,1.178-2.193,1.719-3.315c0.236-0.576,0.42-1.173,0.62-1.761c0.093-0.296,0.199-0.588,0.272-0.89l0.165-0.918
					c0.084-0.508,0.269-0.984,0.459-1.463c0.146-0.488,0.282-0.983,0.332-1.495l0.128-1.217l0.038-1.224l0.059-1.222
					c0.015-0.407-0.033-0.814-0.047-1.221c-0.052-0.656-0.031-1.319-0.128-1.969l-0.263-1.958c-0.556-3.442-1.75-6.842-3.71-9.793
					c-0.777-1.042-1.482-2.134-2.299-3.16c-0.19-0.259-0.472-0.435-0.698-0.659c-0.177-0.19-0.361-0.373-0.555-0.546l-1.081-1.002
					c-0.583-0.568-1.323-0.937-1.941-1.459c-2.245-1.696-4.744-3.07-7.412-4.077c-1.307-0.406-2.582-1.026-3.958-1.298
					c-0.508-0.113-1.016-0.253-1.534-0.321l-1.561-0.175c-0.208-0.026-0.425-0.058-0.615-0.209c-0.146-0.118-0.256-0.43-0.426-0.72
					c0.584-1.387,1.448-1.935,2.294-1.798c0.821,0.099,1.639,0.119,2.451,0.264l1.217,0.232c0.403,0.088,0.797,0.221,1.195,0.329
					c0.787,0.249,1.603,0.399,2.366,0.717c0.583,0.219,1.209,0.325,1.811,0.512c0.547,0.144,1.032,0.437,1.551,0.648
					c0.59,0.259,1.217,0.456,1.81,0.722c0.579,0.292,1.147,0.609,1.657,1.008c0.593,0.432,1.167,0.875,1.762,1.293
					c0.584,0.43,1.233,0.784,1.757,1.293c0.857,0.783,1.754,1.528,2.492,2.429c0.131,0.148,0.203,0.35,0.301,0.525L86.488,122.586z"
					/>
			</g>
		</g>
		<g>
			<g>
				<path fill="#FFFFFF" d="M63.819,125.333c9.65,0,17.471,7.831,17.471,17.474c0,9.646-7.821,17.471-17.471,17.471
					c-9.65,0-17.468-7.825-17.468-17.471C46.351,133.164,54.169,125.333,63.819,125.333z"/>
				<g>
					<path fill="#639DD1" d="M63.819,126.36c0.09-0.39,0.132-0.688,0.202-0.805c0.167-0.278,0.353-0.532,0.547-0.684
						c0.333-0.265,0.683-0.475,1.039-0.618c0.355-0.133,0.713-0.162,1.069-0.132l1.029,0.08l1.027,0.145
						c0.696,0.073,1.369,0.256,2.027,0.487c0.705,0.211,1.363,0.56,1.976,0.972c0.506,0.367,0.995,0.748,1.521,1.068
						c0.515,0.336,1.001,0.716,1.508,1.068c0.589,0.463,1.131,0.989,1.626,1.549c0.914,1.137,1.854,2.248,2.548,3.524
						c0.446,0.716,0.904,1.448,1.084,2.287c0.123,0.811,0.54,1.507,0.606,2.315c0.027,0.513,0.313,0.963,0.463,1.454
						c0.137,0.689,0.297,1.384,0.32,2.088c-0.015,0.706-0.001,1.415-0.222,2.104c-0.14,0.477-0.203,0.951-0.245,1.428
						c-0.083,0.473-0.138,0.949-0.207,1.424c-0.08,0.62-0.579,1.119-0.157,1.873c0.023,0.045,0.002,0.086-0.034,0.116
						c-0.959,0.674-0.855,1.682-1.347,2.499c-0.415,0.812-0.776,1.656-1.216,2.474c-0.293,0.442-0.59,0.885-0.923,1.299
						c-0.352,0.398-0.771,0.74-1.231,1.027c-0.888,0.48-1.563,1.127-2.19,1.913c-0.264,0.339-0.598,0.6-0.956,0.816
						c-0.419,0.271-0.834,0.55-1.261,0.811c-0.438,0.242-0.868,0.501-1.284,0.811c-0.796,0.499-1.753,0.64-2.66,0.805
						c-0.313,0.069-0.622,0.154-0.932,0.238c-0.315,0.059-0.632,0.107-0.951,0.14c-0.698,0.096-1.405,0.049-2.102-0.003
						c-0.159-0.009-0.319-0.097-0.476-0.089c-0.631,0.008-1.262-0.044-1.894-0.063c-0.629-0.059-1.253-0.172-1.878-0.269
						c-0.577-0.142-1.113-0.425-1.681-0.568c-0.866-0.305-1.783-0.504-2.607-0.937c-0.581-0.25-1.08-0.648-1.585-1.019
						c-0.096-0.068-0.178-0.156-0.282-0.21c-0.392-0.185-0.74-0.44-1.114-0.66c-0.372-0.225-0.735-0.466-1.045-0.771
						c-0.417-0.393-0.721-0.9-1.039-1.373c-0.209-0.283-0.426-0.558-0.646-0.827c-0.212-0.277-0.399-0.573-0.602-0.855
						c-0.361-0.48-0.645-1.01-0.929-1.535c-0.313-0.51-0.55-1.057-0.841-1.58c-0.245-0.413-0.493-0.831-0.745-1.256
						c-0.261-0.421-0.541-0.845-0.727-1.307c-0.041-0.089,0.008-0.204,0.011-0.304c0.004-0.143,0.086-0.307-0.007-0.419
						c-0.345-0.392-0.436-0.855-0.5-1.317c-0.058-0.464-0.097-0.928-0.137-1.392c-0.056-0.433-0.146-0.867-0.187-1.306
						c-0.012-0.558,0.001-1.118,0.007-1.679c0.013-0.561,0.117-1.115,0.181-1.674c0.2-1.252,0.595-2.461,1.027-3.652
						c0.144-0.429,0.328-0.843,0.481-1.274c0.15-0.434,0.34-0.85,0.591-1.231c0.557-0.948,1.354-1.724,2.06-2.537
						c1.022-1.187,2.163-2.279,3.442-3.201c0.498-0.344,1.031-0.636,1.552-0.943c0.54-0.273,1.104-0.5,1.659-0.731
						c0.573-0.194,1.118-0.441,1.654-0.752c0.548-0.27,1.103-0.556,1.67-0.859c0.616-0.279,1.303-0.247,1.952-0.384
						c0.596-0.084,1.198-0.169,1.796-0.253c0.036-0.004,0.074,0.085,0.163,0.198c-0.078,0.159-0.127,0.349-0.182,0.366
						c-0.523,0.168-1.032,0.341-1.539,0.45c-0.659,0.184-1.306,0.394-1.94,0.596c-0.62,0.271-1.245,0.49-1.83,0.798l-0.102,0.06
						c-1.109,0.493-2.18,1.059-3.13,1.788c-1.266,0.898-2.337,2.037-3.21,3.263c-0.869,1.267-1.631,2.519-2.45,3.766
						c-0.244,0.436-0.572,0.846-0.668,1.35c-0.115,0.99-0.447,1.858-0.692,2.78c-0.162,0.449-0.223,0.922-0.303,1.39
						c-0.091,0.467-0.097,0.945-0.025,1.422c0.17,1.568,0.117,3.138,0.608,4.629c0.113,0.322,0.256,0.633,0.392,0.942
						c0.171,0.298,0.335,0.593,0.459,0.903c0.887,2.164,2.058,4.249,3.716,5.988c0.654,0.71,1.471,1.235,2.251,1.788
						c0.513,0.323,0.926,0.844,1.517,1.047c0.767,0.345,1.524,0.729,2.352,0.913c0.281,0.032,0.516,0.232,0.777,0.356
						c0.081,0.039,0.157,0.106,0.247,0.105c1.095-0.031,2.095,0.252,3.164,0.445c0.724,0.188,1.456-0.021,2.183-0.013
						c0.583-0.061,1.18-0.069,1.765-0.166c1.525-0.348,2.989-0.915,4.364-1.648c0.52-0.314,1.074-0.581,1.575-0.929l1.01-0.803
						l0.939-0.879c0.463-0.393,0.911-0.811,1.329-1.257c0.423-0.578,0.817-1.182,1.13-1.822c0.064-0.128,0.108-0.268,0.199-0.379
						c0.534-0.606,0.48-1.497,1.079-2.077c0.021-1.631,0.819-2.941,0.967-4.497c0.036-0.487,0.231-0.968,0.325-1.467
						c0.107-0.623,0.095-1.255,0.101-1.888c-0.131-1.818-0.576-3.614-1.289-5.306c-1.078-2.522-2.766-4.825-4.969-6.539
						c-2.057-1.638-4.515-2.862-7.15-3.281c-0.376-0.055-0.765-0.028-1.147,0.023c-0.385,0.068-0.767,0.198-1.137,0.27
						C64.294,126.432,64.088,126.628,63.819,126.36z"/>
				</g>
			</g>
			<g>
				<path fill="#35434C" d="M63.819,163.46c-11.384,0-20.65-9.261-20.65-20.651c0-11.386,9.266-20.652,20.65-20.652
					c11.393,0,20.657,9.267,20.657,20.652C84.476,154.197,75.212,163.46,63.819,163.46z M63.819,128.518
					c-7.879,0-14.297,6.41-14.297,14.29c0,7.889,6.415,14.305,14.297,14.305c7.88,0,14.298-6.411,14.298-14.305
					C78.117,134.928,71.699,128.518,63.819,128.518z"/>
				<g>
					<g>
						<path fill="#639DD1" d="M63.819,127.492c-0.083,0.399-0.113,0.701-0.169,0.824c-0.135,0.293-0.269,0.563-0.405,0.732
							c-0.474,0.577-0.897,0.953-1.366,1.085c-0.226,0.056-0.451,0.113-0.669,0.19l-0.639,0.284
							c-0.428,0.168-0.824,0.405-1.242,0.571c-0.453,0.151-0.842,0.432-1.336,0.517c-0.41,0.091-0.768,0.297-1.129,0.494
							c-0.353,0.211-0.656,0.496-0.982,0.743c-0.375,0.33-0.751,0.655-1.152,0.964c-0.746,0.639-1.387,1.404-1.912,2.24
							c-0.345,0.473-0.465,1.054-0.903,1.488c-0.386,0.439-0.465,1.009-0.769,1.498c-0.186,0.321-0.122,0.713-0.182,1.063
							c-0.024,0.5-0.11,0.983-0.179,1.473c-0.039,0.491-0.203,0.979-0.324,1.488c-0.096,0.353-0.124,0.713-0.114,1.07
							c0.042,0.354,0.114,0.704,0.171,1.055c0.062,0.444-0.076,0.979,0.582,1.253c0.039,0.016,0.038,0.05,0.018,0.085
							c-0.438,0.85,0.158,1.419,0.428,2.045c0.222,0.658,0.748,1.153,1.139,1.7c0.259,0.296,0.513,0.589,0.731,0.912
							c0.234,0.311,0.458,0.629,0.61,1.032c0.317,0.703,0.877,1.251,1.648,1.444c0.324,0.085,0.549,0.304,0.833,0.44
							c0.329,0.173,0.641,0.372,0.977,0.524c0.345,0.136,0.698,0.254,1.065,0.322c0.688,0.064,1.215,0.559,1.875,0.733
							c0.224,0.069,0.452,0.122,0.679,0.177c0.231,0.034,0.463,0.063,0.691,0.116c0.499,0.135,1.004,0.25,1.522,0.345
							c0.118,0.023,0.235,0.125,0.354,0.131c0.48,0.006,0.96-0.049,1.439-0.071l1.424-0.208c0.437-0.097,0.905-0.088,1.346-0.2
							c0.669-0.246,1.313-0.55,1.934-0.886c0.438-0.195,0.889-0.371,1.325-0.589c0.082-0.04,0.177-0.06,0.251-0.114
							c0.276-0.188,0.499-0.451,0.749-0.67c0.247-0.223,0.491-0.444,0.729-0.675c0.317-0.294,0.802-0.42,1.131-0.725
							c0.431-0.353,0.819-0.754,1.154-1.198c0.318-0.361,0.599-0.752,0.862-1.157c0.286-0.392,0.491-0.832,0.668-1.28
							c0.155-0.355,0.208-0.752,0.244-1.145c0.042-0.391,0.072-0.776,0.069-1.164c0.001-0.075,0.093-0.127,0.138-0.192
							c0.065-0.091,0.209-0.168,0.173-0.281c-0.107-0.39-0.106-0.74-0.043-1.086c0.058-0.344,0.185-0.685,0.15-1.041
							c-0.017-0.331-0.069-0.66-0.071-0.985l-0.127-1.235c-0.042-0.41-0.152-0.81-0.214-1.214c-0.183-0.904-0.424-1.799-0.795-2.646
							c-0.123-0.305-0.33-0.572-0.5-0.852c-0.167-0.282-0.354-0.548-0.528-0.823c-0.374-0.68-0.71-1.412-1.214-2.025
							c-0.732-0.888-1.667-1.573-2.591-2.231l-1.108-0.708l-1.151-0.649c-0.395-0.2-0.837-0.287-1.276-0.341
							c-0.449-0.021-0.908,0.029-1.346,0.066c-0.47,0.075-0.895-0.1-1.345-0.139c-0.41,0.011-0.818,0.072-1.219,0.096
							c-0.024,0.001-0.048-0.091-0.108-0.211c0.053-0.153,0.09-0.337,0.13-0.351c0.375-0.122,0.764-0.25,1.157-0.313
							c0.511-0.048,1.031-0.062,1.559-0.074c0.517,0.044,1.056,0.05,1.583,0.133l0.094,0.011c0.959,0.219,1.905,0.541,2.828,0.944
							c1.23,0.489,2.342,1.226,3.49,1.989c1.154,0.796,2.058,1.919,2.683,3.17c0.187,0.438,0.279,0.913,0.604,1.28
							c0.576,0.736,0.874,1.623,1.032,2.522c0.113,0.444,0.128,0.904,0.204,1.352c0.084,0.448,0.144,0.896,0.243,1.349
							c0.388,1.526,0,3.068-0.229,4.579c-0.056,0.333-0.081,0.678-0.115,1.023c-0.061,0.337-0.129,0.677-0.239,1.003
							c-0.792,2.297-2.342,4.273-4.181,5.772c-0.727,0.615-1.438,1.255-2.252,1.756c-0.534,0.296-1.125,0.469-1.654,0.746
							c-0.706,0.439-1.527,0.588-2.263,0.976c-0.254,0.107-0.559,0.045-0.835,0.06c-0.087,0.004-0.181-0.02-0.256,0.023
							c-0.93,0.514-2.006,0.523-3.022,0.384c-0.706-0.029-1.379-0.057-2.069-0.086c-0.552-0.088-1.089-0.258-1.634-0.349
							c-1.429-0.318-2.829-0.779-4.138-1.453c-0.497-0.287-0.97-0.615-1.447-0.929l-0.994-0.696
							c-0.322-0.244-0.624-0.516-0.925-0.787c-0.435-0.379-0.708-0.91-1.107-1.315c-0.417-0.52-0.92-0.985-1.314-1.538
							c-0.08-0.11-0.181-0.208-0.234-0.334c-0.315-0.669-0.951-1.201-1.021-1.993c-1.104-1.173-1.083-2.809-1.292-4.261
							c-0.066-0.478,0.118-0.971,0.151-1.442c0.047-0.593,0.184-1.177,0.225-1.76c0.236-1.678,0.712-3.315,1.453-4.822
							c1.121-2.246,2.778-4.2,4.807-5.613c1.908-1.355,4.112-2.244,6.392-2.635c0.326-0.052,0.639-0.187,0.958-0.345
							c0.32-0.145,0.65-0.281,0.988-0.398C63.37,127.467,63.565,127.25,63.819,127.492z"/>
					</g>
					<g>
						<path fill="#639DD1" d="M63.819,162.434c-0.107,0.389-0.156,0.687-0.239,0.803c-0.198,0.277-0.416,0.528-0.642,0.679
							c-0.391,0.262-0.797,0.469-1.212,0.609c-0.413,0.128-0.829,0.145-1.244,0.107l-1.199-0.107l-1.194-0.188
							c-0.808-0.098-1.588-0.324-2.354-0.595c-0.821-0.248-1.583-0.661-2.306-1.123c-0.596-0.414-1.17-0.853-1.785-1.225
							c-0.601-0.392-1.167-0.837-1.756-1.25c-0.685-0.543-1.319-1.153-1.904-1.801c-1.079-1.314-2.177-2.612-2.994-4.1
							c-0.526-0.834-1.042-1.697-1.284-2.663c-0.118-0.458-0.233-0.913-0.394-1.349c-0.141-0.443-0.331-0.871-0.352-1.348
							c-0.049-0.597-0.358-1.131-0.528-1.706c-0.153-0.808-0.339-1.621-0.37-2.445c0.012-0.826-0.02-1.654,0.212-2.464
							c0.145-0.56,0.211-1.118,0.259-1.678c0.097-0.555,0.165-1.115,0.246-1.672c0.096-0.727,0.631-1.328,0.232-2.186
							c-0.021-0.051,0.001-0.1,0.039-0.136c0.477-0.431,0.762-0.902,0.935-1.421c0.163-0.522,0.324-1.051,0.593-1.53
							c0.479-0.958,0.93-1.936,1.455-2.889c0.348-0.516,0.701-1.032,1.089-1.52c0.411-0.468,0.895-0.877,1.416-1.232
							c0.476-0.33,0.972-0.624,1.381-1.014c0.405-0.396,0.818-0.781,1.193-1.234c0.322-0.382,0.712-0.69,1.134-0.942
							c0.494-0.315,0.981-0.643,1.484-0.945c0.516-0.28,1.024-0.577,1.519-0.925c0.944-0.555,2.05-0.761,3.113-0.959
							c0.367-0.083,0.73-0.183,1.093-0.28c0.37-0.067,0.742-0.124,1.116-0.166c0.411-0.037,0.819-0.092,1.231-0.084l1.233,0.053
							c0.187,0.008,0.374,0.094,0.559,0.084c0.742-0.008,1.484,0.054,2.228,0.077c0.739,0.073,1.474,0.205,2.208,0.319
							c0.677,0.167,1.315,0.478,1.983,0.646c1.02,0.362,2.092,0.613,3.061,1.123c0.683,0.295,1.275,0.752,1.875,1.181
							c0.113,0.079,0.214,0.178,0.335,0.243c0.458,0.224,0.863,0.53,1.3,0.793c0.434,0.27,0.857,0.558,1.222,0.916
							c0.491,0.462,0.873,1.033,1.256,1.582c0.251,0.33,0.51,0.65,0.772,0.966c0.252,0.325,0.475,0.672,0.716,1.004
							c0.429,0.564,0.77,1.186,1.109,1.804c0.374,0.6,0.654,1.245,0.993,1.865c0.293,0.489,0.561,0.99,0.845,1.496
							c0.292,0.502,0.604,1.007,0.808,1.554c0.045,0.105,0,0.236,0.002,0.354c0.001,0.167-0.074,0.354,0.025,0.489
							c0.369,0.47,0.469,1.015,0.546,1.557c0.07,0.545,0.125,1.089,0.166,1.635c0.059,0.509,0.154,1.021,0.199,1.536
							c0.009,0.655-0.011,1.312-0.021,1.971c-0.02,0.658-0.145,1.308-0.222,1.963c-0.24,1.468-0.7,2.886-1.214,4.281
							c-0.171,0.502-0.395,0.984-0.581,1.486c-0.1,0.248-0.196,0.499-0.306,0.742c-0.126,0.235-0.258,0.467-0.399,0.694
							c-0.651,1.11-1.561,2.035-2.389,2.991l-0.925,1.024c-0.309,0.34-0.661,0.638-0.989,0.961
							c-0.644,0.663-1.402,1.194-2.133,1.756c-0.583,0.403-1.208,0.747-1.818,1.108c-0.631,0.324-1.292,0.592-1.94,0.87
							c-0.669,0.234-1.314,0.514-1.946,0.862c-0.648,0.299-1.304,0.609-1.972,0.939c-0.724,0.3-1.523,0.282-2.282,0.438
							c-0.697,0.089-1.399,0.179-2.098,0.269c-0.042,0.005-0.087-0.084-0.19-0.196c0.091-0.16,0.148-0.35,0.213-0.368
							c0.613-0.172,1.212-0.35,1.808-0.463c0.776-0.198,1.54-0.428,2.29-0.649c0.733-0.303,1.475-0.544,2.171-0.892l0.121-0.067
							c1.316-0.564,2.588-1.219,3.726-2.062c1.515-1.037,2.806-2.362,3.882-3.788c1.072-1.473,2.003-2.961,2.967-4.458
							c0.288-0.522,0.657-1.021,0.797-1.612c0.101-0.579,0.221-1.139,0.401-1.675c0.182-0.536,0.29-1.094,0.466-1.634
							c0.189-0.538,0.259-1.104,0.354-1.664c0.04-0.281,0.088-0.561,0.099-0.845c-0.003-0.285-0.018-0.57-0.045-0.854
							c-0.148-1.877-0.128-3.757-0.693-5.548c-0.13-0.387-0.29-0.764-0.443-1.138c-0.195-0.361-0.382-0.72-0.529-1.093
							c-1.057-2.609-2.502-5.1-4.511-7.164c-0.792-0.843-1.762-1.484-2.701-2.144c-0.618-0.384-1.131-0.976-1.834-1.228
							c-0.914-0.424-1.829-0.863-2.812-1.104c-0.334-0.048-0.623-0.26-0.938-0.399c-0.098-0.044-0.19-0.116-0.297-0.119
							c-0.643-0.052-1.279-0.064-1.898-0.192c-0.619-0.147-1.248-0.215-1.883-0.338c-0.865-0.201-1.738,0.027-2.607,0.022
							c-0.696,0.074-1.407,0.103-2.104,0.217c-1.821,0.416-3.571,1.085-5.213,1.961c-0.622,0.375-1.278,0.701-1.877,1.115
							l-1.209,0.954c-0.386,0.337-0.742,0.708-1.126,1.046c-0.554,0.469-1.073,0.983-1.574,1.515c-0.277,0.326-0.493,0.7-0.73,1.055
							c-0.233,0.358-0.464,0.715-0.646,1.103c-0.079,0.152-0.138,0.315-0.243,0.45c-0.62,0.733-0.625,1.767-1.292,2.483
							c-0.134,1.912-1.014,3.516-1.197,5.371c-0.048,0.583-0.243,1.162-0.344,1.757c-0.113,0.744-0.085,1.498-0.088,2.252
							c0.167,2.168,0.706,4.306,1.564,6.317c1.299,2.998,3.323,5.727,5.949,7.753c2.454,1.938,5.376,3.376,8.503,3.878
							c0.446,0.066,0.905,0.05,1.357,0.01c0.455-0.06,0.909-0.189,1.35-0.256C63.252,162.357,63.498,162.164,63.819,162.434z"/>
					</g>
				</g>
			</g>
		</g>
		<g>
			<path fill="#649DD0" d="M237.68,104.955V90.669l-9.638-0.801c-0.623-2.542-1.563-4.972-2.813-7.266l6.478-7.655l-10.097-10.095
				l-7.381,6.243c-2.23-1.351-4.623-2.401-7.121-3.14l-0.838-9.998H191.99l-0.805,9.638c-2.541,0.625-4.972,1.563-7.261,2.816
				l-7.653-6.481l-10.101,10.097l6.243,7.382c-1.349,2.23-2.401,4.614-3.139,7.122l-9.996,0.835l-0.001,14.283l9.635,0.802
				c0.624,2.542,1.565,4.969,2.816,7.264l-6.478,7.653l10.098,10.099l7.377-6.247c2.233,1.354,4.623,2.407,7.131,3.145l0.83,9.993
				h14.281l0.799-9.626c2.539-0.627,4.974-1.57,7.264-2.822l7.654,6.48l10.096-10.095l-6.243-7.38
				c1.354-2.229,2.405-4.621,3.146-7.125L237.68,104.955z M198.48,117.447c-11.207,0-20.295-9.083-20.295-20.289
				c0-11.207,9.088-20.292,20.295-20.292c11.205,0,20.289,9.085,20.289,20.292C218.77,108.364,209.688,117.447,198.48,117.447z"/>
		</g>
		<g>
			<path fill="#FFFFFF" d="M121.112,149.026c0-1.5,3.375-2.727,7.5-2.727H140.2c4.125,0,7.5,1.227,7.5,2.727s-3.375,2.727-7.5,2.727
				h-11.588C124.487,151.753,121.112,150.526,121.112,149.026z"/>
		</g>
		<g>
			<path fill="#FFFFFF" d="M121.112,158.572c0-1.5,3.375-2.727,7.5-2.727h18.756c4.125,0,7.5,1.227,7.5,2.727
				s-3.375,2.728-7.5,2.728h-18.756C124.487,161.3,121.112,160.073,121.112,158.572z"/>
		</g>
		<g>
			<path fill="#649DD0" d="M269.184,238.865c0,5.386-4.406,9.792-9.793,9.792H124.023c-5.386,0-9.792-4.406-9.792-9.792v-76.359
				c0-5.386,4.407-9.792,9.792-9.792h135.368c5.387,0,9.793,4.407,9.793,9.792V238.865L269.184,238.865z"/>
			<path fill="none" stroke="#7DC57A" stroke-width="0.375" stroke-miterlimit="10" d="M269.184,238.865
				c0,5.386-4.406,9.792-9.793,9.792H124.023c-5.386,0-9.792-4.406-9.792-9.792v-76.359c0-5.386,4.407-9.792,9.792-9.792h135.368
				c5.387,0,9.793,4.407,9.793,9.792V238.865L269.184,238.865z"/>
		</g>
		<g>
			<path fill="#FFFFFF" d="M123.637,162.595c0-1.5,3.211-2.727,7.135-2.727h9.794c3.924,0,7.135,1.227,7.135,2.727
				s-3.211,2.727-7.135,2.727h-9.794C126.848,165.322,123.637,164.095,123.637,162.595z"/>
		</g>
		<g>
			<path fill="#FFFFFF" d="M123.637,226.925c0-1.5,7.314-2.727,16.254-2.727h92.378c8.939,0,16.254,1.227,16.254,2.727
				s-7.313,2.728-16.254,2.728h-92.378C130.951,229.65,123.637,228.425,123.637,226.925z"/>
		</g>
		<g>
			<path fill="#FFFFFF" d="M123.637,172.141c0-1.5,6.546-2.728,14.548-2.728h97.913c8.002,0,14.549,1.228,14.549,2.728
				s-6.547,2.728-14.549,2.728h-97.913C130.183,174.869,123.637,173.641,123.637,172.141z"/>
		</g>
		<g>
			<path fill="#FFFFFF" d="M123.637,181.688c0-1.5,3.13-2.729,6.956-2.729h1.634c3.826,0,6.957,1.228,6.957,2.729
				c0,1.5-3.13,2.729-6.957,2.729h-1.634C126.767,184.415,123.637,183.188,123.637,181.688z"/>
		</g>
		<g>
			<path fill="#FFFFFF" d="M179.462,181.688c0-1.5,6.599-2.729,14.662-2.729h39.737c8.064,0,14.662,1.228,14.662,2.729
				c0,1.5-6.598,2.729-14.662,2.729h-39.737C186.061,184.415,179.462,183.188,179.462,181.688z"/>
		</g>
		<g>
			<g>
				<path fill="#F3F3F3" d="M276.516,258.592c4.752,0,8.642-3.889,8.642-8.642v-96.558c0-4.753-3.89-8.642-8.642-8.642h-167.71
					c-4.753,0-8.642,3.889-8.642,8.642v96.558c0,4.753,3.889,8.642,8.642,8.642h59.56c4.753,0,8.642,3.889,8.642,8.643v6.908
					c0,4.752-3.889,8.642-8.642,8.642h-9.77c-4.753,0-8.642,2.882-8.642,6.403c0,3.521,3.889,6.402,8.642,6.402h65.897
					c4.753,0,8.642-2.882,8.642-6.402c0-3.521-3.889-6.403-8.642-6.403h-6.115c-4.753,0-8.643-3.89-8.643-8.642v-6.908
					c0-4.754,3.89-8.643,8.643-8.643H276.516z M120.189,254.323c-4.753,0-8.642-3.89-8.642-8.642V157.66
					c0-4.753,3.889-8.642,8.642-8.642h147.788c4.754,0,8.643,3.889,8.643,8.642v88.021c0,4.752-3.889,8.642-8.643,8.642H120.189z"/>
			</g>
			<g>
				<path fill="none" d="M276.516,258.592c4.752,0,8.642-3.889,8.642-8.642v-96.558c0-4.753-3.89-8.642-8.642-8.642h-167.71
					c-4.753,0-8.642,3.889-8.642,8.642v96.558c0,4.753,3.889,8.642,8.642,8.642h59.56c4.753,0,8.642,3.889,8.642,8.643v6.908
					c0,4.752-3.889,8.642-8.642,8.642h-9.77c-4.753,0-8.642,2.882-8.642,6.403c0,3.521,3.889,6.402,8.642,6.402h65.897
					c4.753,0,8.642-2.882,8.642-6.402c0-3.521-3.889-6.403-8.642-6.403h-6.115c-4.753,0-8.643-3.89-8.643-8.642v-6.908
					c0-4.754,3.89-8.643,8.643-8.643H276.516z M120.189,254.323c-4.753,0-8.642-3.89-8.642-8.642V157.66
					c0-4.753,3.889-8.642,8.642-8.642h147.788c4.754,0,8.643,3.889,8.643,8.642v88.021c0,4.752-3.889,8.642-8.643,8.642H120.189z"/>
				<g>
					<path fill="#35434C" d="M120.189,253.871c4.564-0.581,5.932-0.91,7.284-0.906c45.932,0.128,91.864-0.262,137.798-0.475
						l2.152-0.01l0.538-0.004l0.427-0.024c0.282,0.001,0.559-0.066,0.836-0.104c1.107-0.203,2.143-0.726,3.021-1.428
						c0.859-0.729,1.556-1.656,1.979-2.693c0.086-0.267,0.207-0.521,0.26-0.797l0.104-0.404l0.053-0.354
						c0.057-0.178,0.053-0.638,0.074-0.969v-0.979l-0.045-17.226l0.016-34.453l0.213-34.455c0-0.346,0.015-0.747,0.004-1.047
						c-0.02-0.287-0.006-0.578-0.063-0.861c-0.053-0.575-0.234-1.127-0.428-1.669c-0.436-1.07-1.141-2.04-2.032-2.793
						c-0.897-0.731-1.991-1.288-3.112-1.498c-1.056-0.219-2.608-0.138-4.027-0.183l-17.229-0.274
						c-28.854-0.527-57.441-0.51-86.735,0.539c-9.252,0.004-18.076,0.008-26.648,0.011c-4.286-0.001-8.509-0.003-12.691-0.004
						l-1.567-0.001c-0.487,0.017-0.849,0.016-1.271,0.096c-0.812,0.13-1.598,0.408-2.312,0.817c-1.436,0.81-2.56,2.164-3.086,3.711
						c-0.13,0.372-0.25,0.815-0.29,1.142c-0.076,0.231-0.092,1.019-0.101,1.313l-0.01,3.084l-0.023,6.163
						c-0.022,4.109-0.045,8.221-0.068,12.359c-0.08,8.277-0.161,16.656-0.244,25.318c-1.27-2.297-2.031-2.476-2.29-4.4
						c-0.522-3.828-1.149-8.771-1.085-12.992c0.136-8.891,0.228-17.716,0.286-26.491l0.024-3.373l0.046-0.82
						c0.038-0.328,0.096-0.693,0.152-1.036c0.139-0.654,0.321-1.269,0.568-1.876c0.986-2.413,2.904-4.399,5.264-5.47
						c1.177-0.538,2.459-0.848,3.748-0.907l0.484-0.021h0.413l0.817,0.002l1.634,0.003c2.178,0.002,4.353,0.005,6.526,0.007
						c17.386-0.049,34.64-0.098,51.893-0.147c17.253-0.075,34.506-0.145,51.89-0.119c8.691,0.041,17.415,0.082,26.188,0.123
						c2.193,0.02,4.391,0.041,6.59,0.061l1.65,0.018l0.206,0.002l0.29,0.015l0.412,0.025c0.24,0.002,0.639,0.071,0.979,0.124
						c1.349,0.239,2.55,0.717,3.664,1.416c2.211,1.387,3.851,3.638,4.465,6.17c0.332,1.25,0.313,2.652,0.283,3.676l-0.057,3.33
						c-0.087,4.832,0.088,15.208,0.188,19.979c0.25,12.213-0.536,22.982-1.152,33.935c-0.309,5.476-0.574,10.995-0.646,16.765
						c-0.035,2.883-0.022,5.83,0.057,8.862c0.025,1.517,0.128,3.056,0.142,4.618c-0.02,1.564-0.491,3.172-1.372,4.593
						c-0.8,1.295-1.957,2.401-3.354,3.14c-0.691,0.383-1.445,0.656-2.227,0.838c-0.768,0.188-1.627,0.232-2.34,0.262
						c-2.97,0.129-5.955,0.22-8.951,0.281c-5.996,0.123-12.037,0.131-18.098,0.087c-12.122-0.089-24.318-0.38-36.368-0.354
						C176.888,255.188,149.653,255.064,120.189,253.871z"/>
					<path fill="#35434C" d="M120.188,254.355c-0.369,0.179-0.678,0.365-0.968,0.521c-0.308,0.138-0.602,0.26-0.881,0.356
						c-0.537,0.164-0.993,0.252-1.425,0.097c-2.613-0.862-4.878-2.836-6.083-5.396c-0.606-1.274-0.945-2.688-0.979-4.104
						c-0.015-1.192-0.03-2.384-0.045-3.569c-0.037-4.711-0.004-9.336,0.239-13.646c0.498-8.896,1.934-7.551,2.137,2.759
						c0.089,4.459-0.013,9.017-0.169,13.663c-0.059,1.164-0.008,2.242,0.334,3.337c0.326,1.078,0.882,2.103,1.629,2.985
						C115.459,253.129,117.757,254.301,120.188,254.355z"/>
				</g>
				<g>
					<path fill="#35434C" d="M276.516,259.045c-6.336,0.58-8.235,0.909-10.113,0.905l-47.829-0.011
						c-1.738-0.006-3.386,0.519-4.705,1.595c-1.313,1.053-2.259,2.557-2.604,4.196l-0.092,0.563
						c-0.041,0.163-0.031,0.475-0.051,0.704l-0.01,0.187l-0.004,0.094c-0.004,0.047,0.002-0.07,0,0.022v0.374l0.002,0.747
						l0.008,2.989c0.008,0.979-0.008,2.035,0.02,2.947c0.019,0.836,0.19,1.666,0.51,2.438c0.625,1.546,1.795,2.876,3.261,3.678
						c0.719,0.396,1.565,0.67,2.319,0.786c0.276,0.075,0.969,0.089,1.301,0.099l1.494-0.004l2.988-0.01l1.496-0.004
						c0.561,0.014,1.12,0.033,1.678,0.11c2.219,0.297,4.439,1.146,6.188,2.807c0.861,0.829,1.593,1.89,1.973,3.13
						c0.1,0.314,0.163,0.704,0.225,1.051l0.027,0.373l0.012,0.186l0.011,0.197l-0.007,0.121c-0.022,0.65-0.119,1.309-0.34,1.914
						c-0.865,2.479-2.918,4.069-5.004,4.941c-1.074,0.443-2.146,0.714-3.324,0.852c-0.666,0.084-0.998,0.074-1.635,0.096
						l-1.494,0.005l-5.979,0.022l-23.914,0.097l-23.916,0.095l-5.979,0.023l-2.989,0.011l-1.503,0.004
						c-0.575-0.011-1.149-0.039-1.722-0.118c-2.278-0.313-4.562-1.189-6.372-2.93c-0.893-0.867-1.653-1.983-2.044-3.297
						c-0.095-0.342-0.177-0.782-0.222-1.111l-0.027-0.373l-0.013-0.186c0,0.084-0.009-0.217-0.005-0.236l0.007-0.129
						c0.027-0.688,0.137-1.381,0.374-2.016c0.447-1.285,1.244-2.363,2.161-3.201c0.922-0.84,1.972-1.461,3.065-1.911
						c1.112-0.451,2.199-0.724,3.428-0.86c0.708-0.085,0.981-0.068,1.657-0.089l1.495-0.005l5.979-0.018
						c0.957-0.01,2.112,0.017,2.787-0.047c0.772-0.086,1.523-0.314,2.219-0.658c1.39-0.685,2.558-1.861,3.181-3.282
						c0.154-0.354,0.299-0.716,0.382-1.093c0.052-0.189,0.101-0.377,0.114-0.531c0.018-0.188,0.071-0.266,0.074-0.557l0.031-0.647
						l-0.001-0.747l-0.003-1.495l-0.005-2.989l-0.002-1.494c-0.021-0.438-0.02-0.789-0.098-1.18
						c-0.242-1.519-1.032-2.955-2.212-3.964c-0.584-0.508-1.252-0.915-1.968-1.198c-0.355-0.146-0.732-0.24-1.1-0.332
						c-0.163-0.021-0.324-0.047-0.485-0.078c-0.182-0.027-0.479-0.028-0.713-0.045l-5.879-0.004H150.66l-23.917-0.027l-11.959-0.032
						l-5.98-0.021c-2.43-0.017-4.843-0.902-6.695-2.455c-1.854-1.561-3.139-3.742-3.586-6.154c-0.049-0.321-0.1-0.661-0.133-0.969
						l-0.034-0.746l-0.007-0.279l0.001-0.188l0.002-0.373l0.004-0.748l0.016-2.989l0.076-11.96
						c0.111-15.945,0.266-31.893,0.475-47.838c0.132-10.017,0.229-20.008,0.286-29.999c0.034-1.25-0.066-2.458,0.149-3.888
						c0.222-1.368,0.748-2.683,1.521-3.828c1.574-2.287,4.077-3.851,6.917-4.157c0.334-0.033,0.63-0.036,0.947-0.055l0.983-0.001
						h1.874l3.749-0.001l7.502-0.017c20.014-0.069,40.104-0.335,60.44-0.859c25.689,0.004,49.001,0.008,71.9,0.012
						c5.725,0.014,11.424,0.027,17.129,0.041l4.295,0.018c1.709,0.031,3.42,0.478,4.91,1.315c2.988,1.678,5.07,4.843,5.267,8.352
						l0.024,0.538l0.004,0.219v0.135l-0.002,0.27l-0.006,1.079l-0.011,2.16c-0.008,1.441-0.017,2.885-0.024,4.333
						c-0.019,2.895-0.036,5.802-0.055,8.726c-0.048,5.849-0.095,11.765-0.143,17.776c-1.27-3.189-2.031-3.438-2.29-6.11
						c-0.522-5.314-1.149-12.177-1.085-18.039c0.031-3.086,0.063-6.166,0.094-9.241l0.012-1.153
						c-0.021-0.156-0.011-0.804-0.066-0.969c-0.038-0.48-0.241-1.141-0.441-1.684c-0.479-1.107-1.227-2.123-2.21-2.848
						c-0.962-0.756-2.138-1.196-3.341-1.356c-0.324-0.016-0.563-0.047-0.959-0.049l-1.146-0.007l-2.293-0.015
						c-3.055-0.017-6.104-0.034-9.149-0.05c-12.185-0.03-24.3-0.059-36.368-0.088c-24.139,0.049-48.094,0.098-72.048,0.147
						c-11.977,0.032-23.954,0.065-35.954,0.097l-9.004,0.015l-1.126,0.001h-0.282h-0.07c-0.107,0.002,0.067-0.003,0.023,0
						l-0.141,0.007l-0.562,0.029c-0.353,0.035-0.517,0.076-0.811,0.128c-0.283,0.08-0.574,0.134-0.846,0.252
						c-1.114,0.39-2.105,1.108-2.878,2.005c-0.758,0.908-1.296,2.004-1.499,3.165c-0.19,1.025-0.09,2.697-0.117,4.173
						c-0.001,3.012-0.003,6.026-0.005,9.042c-0.026,24.135-0.148,48.451-0.459,73.13c-0.006,1.678-0.013,3.836-0.021,6.232
						c0.005,1.198,0.01,2.457,0.016,3.745c-0.002,1.353-0.001,2.485,0.33,3.486c0.635,2.12,2.337,3.821,4.167,4.55
						c0.917,0.367,1.851,0.527,2.708,0.514c1.037-0.014,1.983-0.025,2.808-0.035c16.955-0.252,31.909,0.534,47.112,1.15
						c1.901,0.073,3.805,0.146,5.718,0.221c0.956,0.033,1.915,0.067,2.875,0.102c0.959,0.029,1.936,0.049,2.881,0.277
						c1.884,0.463,3.586,1.566,4.791,3.08c1.198,1.523,1.857,3.45,1.848,5.403c-0.005,2.002-0.01,4.024-0.016,6.075
						c0.027,1.037-0.013,2.033-0.278,3.01c-0.254,0.979-0.687,1.921-1.278,2.768c-1.176,1.694-3.005,2.998-5.124,3.51
						c-1.061,0.271-2.176,0.24-3.273,0.303c-1.103,0.053-2.215,0.105-3.338,0.158l-3.062,0.15c-1.027,0.056-2.053,0.059-3.019,0.207
						c-1.891,0.284-3.774,1.094-5.062,2.41c-0.642,0.654-1.119,1.432-1.336,2.254c-0.093,0.401-0.144,0.856-0.108,1.223
						c0.02,0.266,0.046,0.529,0.104,0.674c0.03,0.17,0.104,0.365,0.184,0.564c0.629,1.58,2.241,2.746,3.975,3.352
						c0.877,0.307,1.808,0.482,2.747,0.535l0.707,0.019l0.782-0.008l1.566-0.015c2.088-0.012,4.18-0.022,6.274-0.034
						c4.189,0.006,8.39,0.013,12.597,0.02c8.415,0.073,16.855,0.146,25.284,0.22c4.214,0.035,8.426,0.068,12.628,0.104
						c2.102,0.009,4.201,0.02,6.299,0.027h0.393l0.362-0.01c0.257-0.014,0.54-0.01,0.759-0.045c0.459-0.041,0.94-0.127,1.414-0.233
						c0.94-0.226,1.848-0.591,2.649-1.095c0.892-0.567,1.67-1.308,2.157-2.184c0.234-0.441,0.41-0.906,0.486-1.387
						c0.037-0.223,0.049-0.521,0.051-0.688c-0.019-0.293-0.033-0.607-0.096-0.787c-0.172-0.906-0.765-1.822-1.514-2.522
						c-0.753-0.722-1.715-1.247-2.725-1.618c-1.016-0.367-2.103-0.563-3.193-0.593c-1.133-0.023-2.342-0.009-3.512-0.015
						c-1.195-0.017-2.315,0.03-3.576-0.039c-1.303-0.095-2.58-0.467-3.715-1.07c-2.293-1.201-4.029-3.395-4.691-5.898
						c-0.357-1.25-0.334-2.6-0.32-3.738l0.019-3.569c0.03-1.191-0.065-2.354,0.174-3.688c0.237-1.293,0.741-2.502,1.472-3.574
						c1.463-2.138,3.838-3.627,6.41-3.969c1.323-0.162,2.49-0.062,3.703-0.072c1.206,0.013,2.415,0.024,3.625,0.039
						c2.421,0.028,4.85,0.059,7.284,0.088c4.872,0.076,9.776,0.152,14.718,0.229C256.254,258.514,266.288,258.746,276.516,259.045z"
						/>
					<path fill="#35434C" d="M276.514,258.561c0.479-0.227,0.922-0.43,1.219-0.679c0.306-0.217,0.549-0.454,0.767-0.657
						c0.427-0.41,0.724-0.718,1.112-0.918c2.399-1.181,4-3.783,3.896-6.516c-0.029-3.29-0.061-6.59-0.091-9.859
						c-0.037-6.539-0.004-12.961,0.237-18.947c0.498-12.353,1.936-10.484,2.139,3.828c0.089,6.192-0.014,12.52-0.169,18.972
						c-0.042,1.612-0.083,3.233-0.125,4.862c-0.024,0.807-0.019,1.638-0.153,2.481c-0.111,0.839-0.404,1.644-0.75,2.406
						C283.164,256.604,279.875,258.659,276.514,258.561z"/>
				</g>
			</g>
		</g>
		<g>
			<g>
				<g>
					<path fill="#35434C" d="M143.293,181.688c0-1.1,1.103-2,2.45-2h8.42c1.348,0,2.45,0.899,2.45,2c0,1.099-1.103,1.998-2.45,1.998
						h-8.42C144.396,183.686,143.293,182.785,143.293,181.688z"/>
				</g>
			</g>
		</g>
		<g>
			<g>
				<g>
					<path fill="#35434C" d="M159.279,181.688c0-1.1,1.077-2,2.393-2h7.923c1.316,0,2.393,0.899,2.393,2
						c0,1.099-1.077,1.998-2.393,1.998h-7.923C160.356,183.686,159.279,182.785,159.279,181.688z"/>
				</g>
			</g>
		</g>
		<g>
			<g>
				<g>
					<path fill="#35434C" d="M123.637,201.693c0-1.1,1.695-1.998,3.767-1.998h117.351c2.071,0,3.767,0.898,3.767,1.998
						c0,1.099-1.694,1.998-3.767,1.998H127.403C125.332,203.691,123.637,202.792,123.637,201.693z"/>
				</g>
			</g>
		</g>
		<g>
			<g>
				<g>
					<line fill="none" x1="123.637" y1="192.695" x2="248.521" y2="192.695"/>
				</g>
				<g>
					<path fill="#7DC57A" d="M123.637,192.695c0-1.1,1.695-1.998,3.767-1.998h117.351c2.071,0,3.767,0.898,3.767,1.998
						c0,1.099-1.694,1.998-3.767,1.998H127.403C125.332,194.693,123.637,193.794,123.637,192.695z"/>
				</g>
			</g>
		</g>
		<g>
			<g>
				<g>
					<path fill="#35434C" d="M123.637,209.087c0-1.099,1.513-1.998,3.361-1.998h118.161c1.849,0,3.36,0.899,3.36,1.998
						s-1.513,1.998-3.36,1.998H126.998C125.149,211.085,123.637,210.186,123.637,209.087z"/>
				</g>
			</g>
		</g>
		<g>
			<g>
				<g>
					<path fill="#35434C" d="M123.637,216.479c0-1.101,1.513-2,3.361-2h61.697c1.85,0,3.361,0.899,3.361,2s-1.513,2-3.361,2h-61.697
						C125.149,218.479,123.637,217.578,123.637,216.479z"/>
				</g>
			</g>
		</g>
		<g>
			<g>
				<g>
					<g>
						<g>
							<g>
								
									<rect x="331.324" y="59.73" transform="matrix(0.8728 0.4881 -0.4881 0.8728 73.575 -154.525)" fill="#35434C" width="3.794" height="8.3"/>
								<g>
									<path fill="#35434C" d="M330.86,65.939l-0.199,0.317c0.062,0.048,1.869,1.016,1.853,0.94l0.096-0.247l0.037-0.11
										c0.011-0.023,0.005-0.021,0.024-0.064l0.085-0.173l0.672-1.383l1.363-2.757l0.242-0.482l0.12-0.241
										c0.02-0.044,0.002-0.022,0.005-0.035c-0.01-0.018-0.024-0.022-0.037-0.021l-0.012,0.003
										c-0.003,0.001,0.005-0.001,0.011-0.015l0.005-0.012l-0.12-0.085l-0.25-0.188c-0.318-0.251-0.578-0.507-0.771-0.76
										c-0.388-0.504-0.511-0.996-0.322-1.41c0.054-0.117,0.374-0.173,0.607-0.096c0.426,0.139,0.844,0.28,1.249,0.388
										c0.204,0.054,0.404,0.101,0.602,0.135c0.074,0.004,0.233,0.052,0.403,0.104c0.165,0.046,0.332,0.093,0.502,0.141
										c0.349,0.091,1.096,0.449,1.688,0.78c-0.106,0.193-0.217,0.377-0.316,0.533c-2.793,4.29-2.482,4.216-5.14,8.627
										l-0.836-0.513l-1.189-0.74l-0.683-0.448l-2.036-1.265l0.735-1.185l0.354-0.562l0.248-0.368
										c0.326-0.478,0.657-0.947,0.996-1.402c0.68-0.911,1.391-1.767,2.16-2.522c0.327-0.321,0.654-0.666,0.982-0.945
										c0.139-0.117,0.346-0.186,0.396-0.104c0.044,0.066-0.057,0.416-0.16,0.59L330.86,65.939z"/>
								</g>
							</g>
						</g>
						<g>
							<g>
								
									<rect x="314.238" y="56.765" transform="matrix(-0.1599 0.9871 -0.9871 -0.1599 427.2188 -246.2422)" fill="#35434C" width="8.298" height="3.797"/>
								<g>
									<path fill="#35434C" d="M317.451,57.888c-0.151,0.785-0.281,1.569-0.396,2.354l-0.146,1.086
										c-0.01,0.14-0.014,0.267-0.014,0.376l0.32,0.004l0.07-0.001c0.015-0.002,0.037-0.002,0.138,0.009l0.474,0.05l0.473,0.049
										c0.103,0.012,0.118,0.01,0.129,0.007l0.048-0.006c0.063-0.009,0.11-0.02,0.146-0.031c-0.01-0.088-0.02-0.156-0.03-0.206
										l-0.005-0.018l0.016-0.142l0.034-0.292l0.069-0.584c0.104-0.858,0.188-1.719,0.315-2.575
										c0.292-1.945,1.061-3.152,1.968-3.082c0.129,0.01,0.29,0.292,0.299,0.539c0.028,0.894,0.044,1.764,0.281,2.482
										c0.081,0.245,0.036,0.864-0.067,1.213c-0.2,0.667-0.361,1.348-0.502,2.036l-0.102,0.517l-0.131,0.741l-0.316,1.907
										c-0.991-0.163-1.982-0.325-2.971-0.487l-1.24-0.221l-1.636-0.309l0.196-0.961l0.326-1.532l0.225-0.957l0.448-1.917
										c0.152-0.637,0.311-1.27,0.48-1.893l0.286-1.047c0.107-0.394,0.213-0.751,0.317-1.063c0.506,0.147,0.958,0.293,1.337,0.438
										c0.369,0.143,0.695,0.29,1.033,0.449c0.413,0.197,0.849,0.387,1.224,0.6c0.157,0.09,0.292,0.261,0.233,0.337
										c-0.048,0.063-0.41,0.089-0.609,0.051l-1.568-0.302c-0.35-0.065-0.312-0.067-0.399-0.09l-0.226-0.063l-0.067,0.229
										l-0.036,0.132l-0.086,0.435L317.451,57.888z"/>
								</g>
							</g>
						</g>
						<g>
							<g>
								
									<rect x="298.55" y="56.924" transform="matrix(0.1873 0.9823 -0.9823 0.1873 303.7902 -249.5385)" fill="#35434C" width="8.301" height="3.796"/>
								<g>
									<path fill="#35434C" d="M301.546,58.424c0.126,0.79,0.272,1.571,0.435,2.347l0.234,1.071
										c0.039,0.134,0.078,0.255,0.116,0.358l0.304-0.105l0.064-0.025c0.015-0.007,0.033-0.015,0.133-0.039l0.461-0.115
										l0.461-0.116c0.102-0.023,0.112-0.031,0.122-0.037l0.043-0.022c0.056-0.029,0.097-0.056,0.127-0.08
										c-0.038-0.08-0.069-0.14-0.099-0.183l-0.012-0.015l-0.033-0.14l-0.067-0.286l-0.135-0.573
										c-0.195-0.843-0.412-1.68-0.583-2.528c-0.391-1.927-0.083-3.324,0.794-3.569c0.125-0.035,0.373,0.175,0.465,0.404
										c0.333,0.831,0.646,1.643,1.113,2.236c0.159,0.202,0.329,0.8,0.351,1.163c0.041,0.696,0.122,1.392,0.227,2.086l0.082,0.521
										l0.131,0.741l0.354,1.902c-0.986,0.186-1.975,0.372-2.957,0.557l-1.24,0.216l-1.642,0.269l-0.146-0.969l-0.217-1.552
										l-0.117-0.976l-0.234-1.956c-0.074-0.651-0.143-1.3-0.195-1.943l-0.089-1.082c-0.032-0.406-0.057-0.779-0.065-1.107
										c0.525-0.035,1-0.052,1.406-0.046c0.396,0.008,0.752,0.034,1.123,0.068c0.457,0.044,0.932,0.073,1.354,0.145
										c0.18,0.03,0.364,0.145,0.335,0.236c-0.021,0.076-0.354,0.224-0.555,0.257l-1.578,0.253
										c-0.35,0.059-0.313,0.043-0.405,0.052l-0.233,0.018l0.017,0.239l0.011,0.137l0.068,0.438L301.546,58.424z"/>
								</g>
							</g>
						</g>
						<g>
							<g>
								
									<rect x="283.836" y="62.475" transform="matrix(0.5118 0.8591 -0.8591 0.5118 195.8814 -215.9784)" fill="#35434C" width="8.299" height="3.792"/>
								<g>
									<path fill="#35434C" d="M286.766,64.382c0.389,0.699,0.793,1.383,1.211,2.057l0.586,0.925
										c0.082,0.113,0.16,0.213,0.23,0.297l0.249-0.203l0.053-0.046c0.011-0.012,0.025-0.025,0.11-0.081l0.395-0.266l0.394-0.266
										c0.087-0.057,0.095-0.067,0.102-0.076l0.033-0.036c0.042-0.046,0.071-0.085,0.092-0.118
										c-0.063-0.063-0.114-0.107-0.155-0.138l-0.015-0.011l-0.08-0.12l-0.161-0.246l-0.322-0.493
										c-0.473-0.725-0.963-1.438-1.414-2.176c-1.024-1.677-1.213-3.095-0.473-3.625c0.104-0.075,0.41,0.038,0.574,0.221
										c0.598,0.666,1.168,1.323,1.811,1.72c0.221,0.135,0.584,0.639,0.729,0.973c0.275,0.64,0.59,1.266,0.926,1.883l0.254,0.461
										l0.377,0.652l0.983,1.667c-0.864,0.512-1.728,1.024-2.588,1.534l-1.093,0.628l-1.448,0.813l-0.468-0.86l-0.734-1.385
										l-0.441-0.877l-0.891-1.757c-0.293-0.586-0.578-1.173-0.848-1.76l-0.453-0.986c-0.171-0.37-0.319-0.712-0.439-1.018
										c0.48-0.212,0.92-0.391,1.303-0.523c0.375-0.127,0.719-0.226,1.078-0.32c0.443-0.115,0.899-0.25,1.322-0.327
										c0.18-0.033,0.393,0.012,0.396,0.108c0.004,0.079-0.258,0.332-0.436,0.431l-1.395,0.776
										c-0.309,0.174-0.278,0.147-0.362,0.187l-0.213,0.097l0.097,0.219l0.058,0.125l0.214,0.388L286.766,64.382z"/>
								</g>
							</g>
						</g>
						<g>
							<g>
								
									<rect x="271.917" y="72.691" transform="matrix(0.7749 0.6321 -0.6321 0.7749 109.2895 -157.7077)" fill="#35434C" width="8.301" height="3.796"/>
								<g>
									<path fill="#35434C" d="M274.926,75.032c0.604,0.523,1.219,1.028,1.842,1.519l0.867,0.669
										c0.116,0.078,0.225,0.146,0.319,0.2l0.164-0.276l0.034-0.061c0.006-0.014,0.017-0.034,0.076-0.116l0.279-0.384l0.279-0.384
										c0.063-0.083,0.066-0.096,0.068-0.107l0.021-0.045c0.022-0.058,0.038-0.104,0.046-0.142
										c-0.081-0.037-0.145-0.062-0.193-0.077l-0.019-0.005l-0.115-0.085l-0.235-0.175l-0.471-0.353
										c-0.693-0.52-1.396-1.022-2.072-1.562c-1.539-1.226-2.2-2.493-1.687-3.245c0.072-0.106,0.397-0.105,0.615,0.011
										c0.789,0.421,1.55,0.844,2.29,0.997c0.253,0.052,0.767,0.401,1.017,0.666c0.479,0.507,0.988,0.988,1.515,1.453l0.396,0.346
										l0.577,0.484l1.494,1.229c-0.638,0.777-1.274,1.554-1.909,2.328l-0.813,0.962l-1.086,1.26l-0.73-0.649l-1.165-1.049
										l-0.718-0.673l-1.437-1.347c-0.476-0.451-0.944-0.905-1.397-1.364l-0.764-0.772c-0.287-0.29-0.546-0.56-0.763-0.806
										c0.38-0.364,0.731-0.682,1.047-0.938c0.31-0.248,0.599-0.458,0.905-0.669c0.377-0.26,0.76-0.542,1.131-0.76
										c0.157-0.092,0.373-0.124,0.409-0.034c0.03,0.073-0.128,0.4-0.261,0.554l-1.047,1.207c-0.229,0.269-0.213,0.234-0.276,0.3
										l-0.168,0.164l0.166,0.173l0.096,0.098l0.334,0.292L274.926,75.032z"/>
								</g>
							</g>
						</g>
						<g>
							<g>
								
									<rect x="266.485" y="84.138" transform="matrix(-0.3296 0.9441 -0.9441 -0.3296 440.2018 -135.9933)" fill="#35434C" width="3.795" height="8.299"/>
								<g>
									<path fill="#35434C" d="M265.927,86.306l-0.347-0.141c-0.036,0.068-0.678,2.018-0.604,1.988l0.26,0.051l0.113,0.019
										c0.025,0.005,0.022,0,0.068,0.012l0.186,0.053l1.479,0.422l2.951,0.863l0.517,0.155l0.259,0.077
										c0.047,0.012,0.021-0.001,0.035-0.001c0.016-0.012,0.018-0.028,0.014-0.04l-0.004-0.011
										c-0.002-0.003,0.002,0.004,0.017,0.008l0.013,0.002l0.063-0.133c0.05-0.095,0.097-0.188,0.143-0.279
										c0.191-0.358,0.398-0.657,0.614-0.892c0.431-0.468,0.894-0.675,1.333-0.562c0.125,0.032,0.234,0.338,0.199,0.582
										c-0.063,0.443-0.129,0.879-0.166,1.298c-0.018,0.209-0.028,0.415-0.027,0.614c0.009,0.075-0.011,0.239-0.032,0.415
										c-0.017,0.17-0.034,0.343-0.051,0.518c-0.03,0.359-0.252,1.158-0.478,1.801c-0.207-0.073-0.407-0.148-0.578-0.22
										c-4.709-2.007-4.584-1.713-9.389-3.563l0.359-0.913l0.521-1.3l0.322-0.75l0.893-2.225l1.293,0.518l0.615,0.251l0.405,0.181
										c0.526,0.238,1.048,0.482,1.554,0.737c1.017,0.51,1.981,1.063,2.859,1.69c0.373,0.266,0.77,0.529,1.102,0.803
										c0.141,0.116,0.244,0.308,0.172,0.373c-0.059,0.054-0.42,0.016-0.608-0.056L265.927,86.306z"/>
								</g>
							</g>
						</g>
						<g>
							<g>
								
									<rect x="263.894" y="99.629" transform="matrix(0.0139 0.9999 -0.9999 0.0139 365.8701 -163.4287)" fill="#35434C" width="3.796" height="8.301"/>
								<g>
									<path fill="#35434C" d="M262.82,102.759l-0.373-0.014c-0.012,0.077,0.055,2.128,0.111,2.076l0.262-0.042l0.113-0.021
										c0.025-0.004,0.021-0.007,0.068-0.012l0.191-0.013l1.535-0.109l3.068-0.198l0.538-0.031l0.269-0.016
										c0.047-0.005,0.021-0.009,0.031-0.013c0.012-0.017,0.008-0.033,0-0.042l-0.009-0.009c-0.003-0.002,0.004,0.003,0.019,0.001
										l0.014-0.002l0.015-0.147c0.013-0.105,0.024-0.209,0.037-0.311c0.06-0.402,0.149-0.754,0.271-1.048
										c0.244-0.587,0.607-0.94,1.062-0.984c0.128-0.013,0.336,0.237,0.388,0.478c0.092,0.438,0.18,0.871,0.288,1.277
										c0.056,0.203,0.114,0.399,0.185,0.587c0.033,0.067,0.07,0.228,0.111,0.401c0.043,0.166,0.086,0.333,0.129,0.504
										c0.096,0.348,0.159,1.175,0.17,1.856c-0.221,0.003-0.434,0-0.617-0.009c-5.115-0.275-4.896-0.042-10.043-0.138l0.025-0.98
										l0.045-1.4l0.047-0.815l0.078-2.396l1.393,0.044l0.662,0.025l0.443,0.031c0.576,0.043,1.148,0.096,1.713,0.162
										c1.127,0.132,2.225,0.32,3.265,0.61c0.44,0.123,0.903,0.234,1.309,0.378c0.171,0.061,0.334,0.206,0.289,0.292
										c-0.036,0.071-0.389,0.159-0.592,0.156L262.82,102.759z"/>
								</g>
							</g>
						</g>
						<g>
							<g>
								
									<rect x="329.928" y="140.333" transform="matrix(0.5118 0.8591 -0.8591 0.5118 285.2911 -217.5716)" fill="#35434C" width="8.3" height="3.796"/>
								<g>
									<path fill="#35434C" d="M332.847,142.251c0.39,0.699,0.794,1.384,1.212,2.058l0.588,0.926
										c0.081,0.113,0.16,0.213,0.23,0.297l0.249-0.203l0.053-0.046c0.012-0.012,0.026-0.026,0.111-0.082l0.394-0.266l0.395-0.266
										c0.087-0.057,0.097-0.068,0.103-0.077l0.033-0.036c0.042-0.046,0.072-0.085,0.092-0.118
										c-0.063-0.062-0.113-0.107-0.154-0.138l-0.016-0.011l-0.079-0.12l-0.162-0.245l-0.321-0.493
										c-0.473-0.725-0.961-1.438-1.412-2.176c-1.026-1.678-1.215-3.096-0.474-3.626c0.104-0.075,0.409,0.038,0.573,0.221
										c0.599,0.666,1.168,1.323,1.813,1.721c0.22,0.135,0.583,0.639,0.727,0.974c0.276,0.64,0.59,1.266,0.925,1.883l0.256,0.461
										l0.376,0.652l0.982,1.666c-0.864,0.513-1.729,1.025-2.588,1.535l-1.093,0.627l-1.45,0.814l-0.469-0.864l-0.734-1.383
										l-0.442-0.877l-0.891-1.757c-0.293-0.586-0.578-1.173-0.848-1.76l-0.453-0.986c-0.171-0.37-0.32-0.713-0.44-1.018
										c0.481-0.212,0.922-0.391,1.307-0.523c0.374-0.127,0.719-0.226,1.08-0.319c0.442-0.115,0.898-0.25,1.322-0.327
										c0.18-0.032,0.393,0.012,0.396,0.108c0.005,0.079-0.257,0.332-0.436,0.431l-1.396,0.777
										c-0.309,0.174-0.28,0.147-0.363,0.187l-0.214,0.097l0.096,0.219l0.059,0.125l0.214,0.388L332.847,142.251z"/>
								</g>
							</g>
						</g>
						<g>
							<g>
								
									<rect x="341.85" y="130.117" transform="matrix(0.7747 0.6323 -0.6323 0.7747 161.4356 -189.0462)" fill="#35434C" width="8.301" height="3.795"/>
								<g>
									<path fill="#35434C" d="M344.868,132.44c0.604,0.524,1.219,1.028,1.842,1.52l0.868,0.669
										c0.115,0.078,0.224,0.146,0.319,0.2l0.163-0.276l0.033-0.061c0.007-0.015,0.018-0.033,0.077-0.115l0.279-0.384l0.278-0.384
										c0.063-0.083,0.066-0.096,0.069-0.107l0.02-0.045c0.022-0.058,0.038-0.104,0.046-0.142
										c-0.08-0.037-0.145-0.062-0.193-0.077l-0.018-0.005l-0.116-0.085l-0.235-0.175l-0.472-0.353
										c-0.691-0.521-1.396-1.023-2.071-1.563c-1.538-1.226-2.199-2.494-1.685-3.246c0.073-0.106,0.397-0.105,0.615,0.012
										c0.788,0.421,1.55,0.844,2.29,0.998c0.253,0.052,0.767,0.401,1.017,0.666c0.479,0.507,0.987,0.988,1.513,1.454l0.397,0.347
										l0.576,0.484l1.493,1.229c-0.637,0.777-1.272,1.554-1.906,2.327l-0.813,0.963l-1.085,1.26l-0.733-0.65l-1.164-1.049
										l-0.717-0.673l-1.438-1.347c-0.477-0.451-0.944-0.905-1.398-1.365l-0.763-0.772c-0.287-0.29-0.545-0.56-0.762-0.806
										c0.38-0.364,0.731-0.682,1.047-0.938c0.309-0.248,0.599-0.458,0.905-0.669c0.377-0.26,0.76-0.542,1.131-0.76
										c0.156-0.092,0.373-0.124,0.409-0.034c0.03,0.073-0.129,0.4-0.262,0.554l-1.046,1.207c-0.229,0.269-0.213,0.234-0.277,0.3
										l-0.168,0.164l0.165,0.173l0.098,0.098l0.334,0.292L344.868,132.44z"/>
								</g>
							</g>
						</g>
						<g>
							<g>
								
									<rect x="351.803" y="114.146" transform="matrix(-0.3292 0.9443 -0.9443 -0.3292 581.8441 -176.7429)" fill="#35434C" width="3.794" height="8.301"/>
								<g>
									<path fill="#35434C" d="M351.242,116.327l-0.348-0.141c-0.036,0.069-0.677,2.018-0.604,1.988l0.26,0.05l0.115,0.019
										c0.024,0.005,0.021,0,0.067,0.013l0.185,0.053l1.479,0.423l2.95,0.864l0.518,0.155l0.259,0.077
										c0.046,0.012,0.021-0.001,0.035-0.001c0.016-0.012,0.017-0.028,0.014-0.04l-0.005-0.011
										c-0.003-0.003,0.002,0.004,0.017,0.008l0.014,0.002l0.063-0.132c0.048-0.094,0.096-0.188,0.143-0.279
										c0.191-0.357,0.397-0.657,0.612-0.892c0.432-0.468,0.894-0.675,1.333-0.562c0.125,0.032,0.235,0.338,0.2,0.582
										c-0.063,0.443-0.129,0.879-0.165,1.299c-0.019,0.209-0.029,0.415-0.027,0.614c0.009,0.074-0.013,0.24-0.032,0.416
										c-0.019,0.17-0.034,0.342-0.053,0.518c-0.028,0.359-0.252,1.157-0.476,1.799c-0.209-0.073-0.408-0.148-0.579-0.22
										c-4.71-2.007-4.584-1.713-9.389-3.565l0.358-0.912l0.522-1.301l0.323-0.75l0.893-2.224l1.294,0.518l0.614,0.251
										l0.406,0.181c0.525,0.238,1.046,0.482,1.553,0.738c1.016,0.51,1.98,1.063,2.859,1.69c0.372,0.266,0.769,0.529,1.101,0.804
										c0.14,0.116,0.243,0.308,0.171,0.373c-0.058,0.054-0.419,0.016-0.607-0.056L351.242,116.327z"/>
								</g>
							</g>
						</g>
						<g>
							<g>
								
									<rect x="354.381" y="98.678" transform="matrix(0.0131 0.9999 -0.9999 0.0131 454.4223 -254.7712)" fill="#35434C" width="3.796" height="8.297"/>
								<g>
									<path fill="#35434C" d="M353.3,101.798l-0.374-0.014c-0.011,0.076,0.056,2.128,0.112,2.076l0.261-0.042l0.115-0.021
										c0.023-0.004,0.02-0.007,0.066-0.012l0.192-0.013l1.533-0.108l3.067-0.197l0.538-0.031l0.27-0.016
										c0.046-0.005,0.02-0.009,0.031-0.013c0.012-0.017,0.007-0.033,0-0.042l-0.01-0.009c-0.003-0.002,0.005,0.003,0.02,0.001
										l0.013-0.002l0.016-0.148c0.013-0.105,0.024-0.208,0.036-0.311c0.06-0.401,0.151-0.754,0.273-1.047
										c0.243-0.587,0.606-0.939,1.061-0.983c0.129-0.012,0.337,0.237,0.387,0.479c0.093,0.438,0.18,0.87,0.288,1.276
										c0.055,0.203,0.114,0.4,0.184,0.587c0.034,0.067,0.071,0.226,0.111,0.4c0.043,0.166,0.086,0.333,0.129,0.504
										c0.096,0.348,0.159,1.176,0.168,1.857c-0.22,0.003-0.433,0-0.616-0.009c-5.114-0.277-4.893-0.044-10.04-0.141l0.026-0.982
										l0.045-1.399l0.047-0.815l0.078-2.396l1.393,0.044l0.663,0.025l0.443,0.031c0.576,0.044,1.146,0.096,1.712,0.162
										c1.128,0.133,2.225,0.321,3.264,0.611c0.441,0.123,0.903,0.234,1.31,0.379c0.171,0.061,0.334,0.206,0.289,0.292
										c-0.036,0.071-0.39,0.159-0.593,0.156L353.3,101.798z"/>
								</g>
							</g>
						</g>
						<g>
							<g>
								
									<rect x="351.467" y="83.213" transform="matrix(0.3544 0.9351 -0.9351 0.3544 309.816 -274.0257)" fill="#35434C" width="3.794" height="8.301"/>
								<g>
									<path fill="#35434C" d="M350.212,87.423l-0.355,0.115c0.016,0.076,0.777,1.979,0.813,1.911l0.232-0.128l0.1-0.06
										c0.022-0.012,0.017-0.014,0.062-0.034l0.176-0.078l1.403-0.626l2.816-1.234l0.496-0.213l0.247-0.107
										c0.044-0.021,0.016-0.015,0.025-0.024c0.005-0.02-0.005-0.033-0.016-0.039l-0.011-0.005
										c-0.003-0.001,0.005,0.002,0.019-0.005l0.012-0.006l-0.036-0.142c-0.024-0.104-0.048-0.205-0.071-0.305
										c-0.082-0.397-0.116-0.76-0.102-1.078c0.027-0.635,0.248-1.091,0.659-1.287c0.116-0.056,0.397,0.108,0.526,0.317
										c0.236,0.38,0.466,0.757,0.708,1.101c0.12,0.172,0.244,0.337,0.373,0.489c0.055,0.051,0.146,0.191,0.242,0.339
										c0.097,0.142,0.193,0.285,0.294,0.43c0.208,0.294,0.55,1.048,0.791,1.684c-0.207,0.079-0.409,0.149-0.586,0.204
										c-4.897,1.488-4.612,1.632-9.483,3.301l-0.311-0.931l-0.437-1.331l-0.233-0.781l-0.746-2.277l1.323-0.435l0.633-0.203
										l0.428-0.122c0.557-0.156,1.111-0.302,1.665-0.433c1.104-0.261,2.201-0.459,3.275-0.542
										c0.457-0.036,0.931-0.088,1.36-0.091c0.182-0.001,0.384,0.08,0.371,0.175c-0.01,0.079-0.313,0.282-0.503,0.349
										L350.212,87.423z"/>
								</g>
							</g>
						</g>
						<g>
							<g>
								
									<rect x="343.448" y="69.704" transform="matrix(0.6534 0.757 -0.757 0.6534 175.6176 -235.8401)" fill="#35434C" width="3.796" height="8.302"/>
								<g>
									<path fill="#35434C" d="M342.425,74.973l-0.295,0.229c0.041,0.066,1.409,1.595,1.419,1.519l0.174-0.2l0.074-0.09
										c0.018-0.019,0.01-0.018,0.045-0.053l0.14-0.133l1.104-1.07l2.225-2.125l0.394-0.37l0.196-0.186
										c0.03-0.033,0.009-0.019,0.015-0.03c-0.002-0.02-0.016-0.029-0.027-0.032l-0.012-0.001c-0.004,0,0.005,0,0.015-0.011
										l0.01-0.01l-0.084-0.122l-0.171-0.262c-0.215-0.345-0.37-0.674-0.466-0.978c-0.19-0.606-0.14-1.11,0.18-1.436
										c0.09-0.092,0.41-0.035,0.604,0.118c0.354,0.276,0.697,0.551,1.042,0.792c0.173,0.12,0.345,0.232,0.52,0.332
										c0.067,0.029,0.2,0.128,0.344,0.235c0.139,0.1,0.279,0.2,0.423,0.303c0.297,0.206,0.878,0.798,1.323,1.313
										c-0.167,0.144-0.332,0.279-0.479,0.391c-4.096,3.077-3.776,3.114-7.783,6.351l-0.608-0.766l-0.866-1.104l-0.488-0.655
										l-1.479-1.886L341,74.177l0.524-0.407l0.358-0.261c0.469-0.337,0.94-0.665,1.415-0.977
										c0.949-0.624,1.911-1.185,2.895-1.631c0.417-0.19,0.843-0.402,1.246-0.552c0.17-0.063,0.388-0.057,0.407,0.038
										c0.02,0.077-0.194,0.372-0.353,0.5L342.425,74.973z"/>
								</g>
							</g>
						</g>
					</g>
				</g>
				<g>
					<path fill="#7DC57A" d="M338.597,116.722c8.646-15.464,4.078-34.469-10.246-42.477c-14.323-8.009-32.85-1.911-41.493,13.551
						c-6.358,11.375-5.528,24.68,1.129,34.154l-9.101,16.281l20.7,11.574l9.036-16.165
						C320.147,134.41,332.182,128.198,338.597,116.722z"/>
					<g>
						<g>
							<path fill="#FFFFFF" d="M327.131,106.276c-2.404,1.142-4.113,2.011-6.076,2.872c-3.636,1.594-7.404,3.187-11.142,4.773
								c-5.207,2.196-10.412,4.39-15.631,6.591c2.674-2.523,5.352-5.05,8.032-7.579l3.088-2.939l1.547-1.471l0.725-0.72
								l-0.744-0.376l-1.438-0.764l-3.16-1.688l-3.165-1.693l-5.128-2.793c2.521-1.049,5.064-2.107,7.609-3.166
								c4.168-1.745,8.346-3.494,12.534-5.249c2.518-1.036,5.037-2.073,7.563-3.112c4.226-1.711,8.458-3.425,12.698-5.142
								c-4.642,4.236-9.297,8.485-13.971,12.75c-0.819,0.731-1.624,1.448-2.412,2.151l-0.592,0.52
								c-0.279,0.249-0.164,0.134-0.215,0.172l-0.144,0.075c0.012,0.021,0.03,0.046,0.059,0.078l0.049,0.051
								c0.022,0.017-0.012,0.002,0.061,0.046l0.254,0.155c0.673,0.416,1.338,0.827,1.994,1.232c1.298,0.828,2.563,1.635,3.808,2.428
								c5.468,3.56,5.343,4.441-0.358,1.803c-1.14-0.527-2.405-1.139-3.713-1.795c-0.65-0.333-1.313-0.673-1.979-1.013l-0.991-0.521
								c-0.521-0.285-1.042-0.568-1.559-0.85c-0.668-0.368-1.337-0.735-2.012-1.106c2.484-2.316,4.975-4.635,7.468-6.958
								l0.229-0.217l0.038-0.042l0.067-0.076l0.104-0.123c0.057-0.069,0.088-0.114,0.096-0.138c-0.169,0.083-0.286,0.146-0.36,0.19
								c-0.037,0.022-0.063,0.04-0.08,0.053l-2.023,0.833c-3.496,1.433-6.938,2.795-10.388,4.122
								c-1.727,0.655-3.452,1.309-5.185,1.966c-0.866,0.323-1.735,0.646-2.606,0.97l-0.164,0.061
								c-0.051,0.019-0.03,0.009-0.049,0.015l-0.06,0.013l-0.134,0.032l-0.323,0.084l-0.143,0.04l0.279,0.215l0.181,0.129
								l0.101,0.07l0.369,0.219c1.021,0.604,2.049,1.21,3.077,1.818c1.032,0.604,2.067,1.208,3.105,1.815
								c1.384,0.795,2.771,1.592,4.162,2.391c-3.453,3.113-6.941,6.257-10.443,9.414c1.798-0.738,3.601-1.478,5.399-2.218
								c3.796-1.573,7.588-3.144,11.366-4.71C320.391,108.467,323.59,107.273,327.131,106.276z"/>
						</g>
					</g>
				</g>
				<g>
					<g>
						<path fill="#35434C" d="M298.326,139.24c-0.501-0.177-1-0.352-1.498-0.527c-0.49-0.194-0.963-0.427-1.446-0.632
							c-0.485-0.201-0.962-0.421-1.415-0.684c-0.459-0.251-0.929-0.486-1.382-0.747c-1.792-1.079-3.478-2.332-5-3.777
							c-0.726-0.69-1.424-1.405-2.069-2.174c-1.455-1.766-1.824-3.39-1.166-3.843c0.09-0.063,0.383,0.078,0.56,0.279
							c0.646,0.724,1.302,1.409,1.998,1.783c0.229,0.134,0.684,0.619,0.913,0.934c1.724,2.537,4.35,4.408,6.841,6.058
							c0.735,0.547,1.582,0.91,2.394,1.36c0.848,0.36,1.701,0.736,2.572,1.027c1.749,0.563,3.518,1.013,5.229,1.36
							c0.496,0.1,1.022,0.189,1.493,0.308c0.198,0.05,0.396,0.173,0.349,0.249c-0.036,0.063-0.442,0.147-0.68,0.148l-1.959,0.006
							c-0.65-0.049-1.299-0.146-1.945-0.22c-0.651-0.05-1.283-0.215-1.914-0.374C299.568,139.61,298.927,139.494,298.326,139.24z"/>
					</g>
				</g>
				<g>
					<g>
						<path fill="#35434C" d="M296.011,143.38c-0.501-0.176-1-0.352-1.497-0.527c-0.49-0.194-0.963-0.427-1.445-0.633
							c-0.487-0.201-0.963-0.421-1.416-0.684c-0.459-0.251-0.928-0.486-1.381-0.747c-1.793-1.078-3.479-2.331-5-3.777
							c-0.725-0.69-1.424-1.405-2.068-2.174c-1.456-1.766-1.824-3.39-1.167-3.843c0.091-0.063,0.384,0.078,0.56,0.279
							c0.646,0.724,1.303,1.409,1.998,1.783c0.229,0.134,0.684,0.619,0.913,0.934c1.724,2.538,4.351,4.409,6.841,6.059
							c0.734,0.546,1.582,0.91,2.394,1.36c0.846,0.36,1.7,0.736,2.571,1.027c1.75,0.563,3.518,1.013,5.229,1.36
							c0.496,0.1,1.021,0.189,1.493,0.308c0.198,0.05,0.396,0.173,0.348,0.249c-0.036,0.063-0.442,0.147-0.68,0.148l-1.959,0.006
							c-0.65-0.049-1.298-0.147-1.945-0.22c-0.651-0.05-1.282-0.215-1.914-0.374C297.253,143.751,296.611,143.634,296.011,143.38z"
							/>
					</g>
				</g>
				<g>
					<g>
						<path fill="#35434C" d="M293.695,147.521c-0.5-0.176-1-0.352-1.497-0.528c-0.49-0.193-0.962-0.427-1.446-0.632
							c-0.486-0.201-0.962-0.421-1.415-0.684c-0.458-0.251-0.928-0.486-1.382-0.747c-1.791-1.079-3.477-2.332-4.999-3.777
							c-0.726-0.69-1.424-1.405-2.069-2.174c-1.455-1.766-1.822-3.39-1.166-3.843c0.092-0.063,0.385,0.078,0.561,0.279
							c0.646,0.725,1.302,1.409,1.998,1.783c0.229,0.134,0.684,0.619,0.912,0.934c1.724,2.538,4.35,4.409,6.841,6.059
							c0.735,0.547,1.582,0.91,2.394,1.36c0.846,0.36,1.7,0.736,2.571,1.027c1.75,0.563,3.519,1.013,5.229,1.359
							c0.496,0.1,1.021,0.189,1.492,0.308c0.198,0.05,0.396,0.173,0.348,0.249c-0.035,0.063-0.441,0.147-0.678,0.148l-1.961,0.006
							c-0.649-0.049-1.298-0.147-1.945-0.22c-0.65-0.05-1.282-0.215-1.914-0.375C294.938,147.892,294.297,147.775,293.695,147.521z"
							/>
					</g>
				</g>
			</g>
			<g>
				<g>
					<path fill="#35434C" d="M289.656,149.772c-1.235-0.389-2.379-0.959-3.491-1.576c-1.089-0.656-2.114-1.418-3.04-2.297
						c-0.439-0.419-0.866-0.854-1.258-1.322c-0.887-1.074-1.109-2.061-0.71-2.337c0.056-0.039,0.233,0.047,0.341,0.169
						c0.393,0.441,0.791,0.857,1.215,1.084c0.139,0.082,0.415,0.376,0.555,0.568c1.049,1.543,2.646,2.681,4.16,3.685
						c1.846,1.27,4.135,1.835,6.199,2.279c0.303,0.061,0.622,0.115,0.908,0.188c0.119,0.03,0.24,0.105,0.212,0.151
						c-0.022,0.038-0.271,0.089-0.413,0.09C292.743,150.549,291.152,150.249,289.656,149.772z"/>
				</g>
			</g>
		</g>
	</g>
</g>
</svg>
