<svg width="137" height="108" viewBox="0 0 137 108" fill="none" xmlns="http://www.w3.org/2000/svg">
<g clip-path="url(#clip0_2652_20987)">
<path d="M59.5285 85.6505L63.2322 85.4872C63.296 88.7289 61.6188 91.8974 58.8244 93.2855L35.8286 104.708C32.2244 106.498 28.1132 104.659 26.663 100.606L22.0238 87.6325L16.8325 90.2112C16.2495 90.5027 15.5195 89.9837 14.7397 88.9672L11.4267 90.6138C9.24947 91.7022 3.82384 76.5341 6.00418 75.4518L9.31796 73.804C9.24682 72.4463 9.44227 71.4694 10.0253 71.1779L20.3402 66.0549L27.1463 85.0851L25.4665 85.921L30.1046 98.8925C30.7916 100.81 32.736 101.682 34.4437 100.834L57.4395 89.4121C58.784 88.7442 59.583 87.2084 59.5273 85.6474L59.5285 85.6505Z" fill="#7939CC" fill-opacity="0.2"/>
<path d="M67.7887 5.79183C66.7621 6.3017 66.083 7.6342 65.7321 9.64001C71.0706 13.644 78.8115 27.487 85.1173 45.1195C91.4435 62.8097 94.4395 79.0478 93.1139 86.3164C93.1655 86.3291 93.222 86.3383 93.2744 86.3509C94.6766 87.3639 95.9151 87.6911 96.9014 87.2005C101.654 84.8399 98.9919 64.6981 90.9536 42.2198C82.9154 19.7426 72.5409 3.43228 67.7887 5.79183Z" fill="#7939CC" fill-opacity="0.2"/>
<path d="M39.4988 69.141L38.1277 65.868L31.9416 66.6189C31.9416 66.6189 36.3035 63.7197 35.7731 61.0725C35.2429 58.4262 34.3402 54.6969 30.8983 56.5657C27.4563 58.4324 23.0569 63.2509 23.0569 63.2509L27.5803 76.1308L31.7167 73.211L30.7892 70.3L36.9515 70.6628L39.4987 69.14L39.4988 69.141ZM28.9518 64.6369L27.9911 62.0305C30.4284 59.7356 31.2346 60.2387 31.452 61.7852C31.6692 63.3296 28.9518 64.6369 28.9518 64.6369Z" fill="#7939CC" fill-opacity="0.2"/>
<path d="M40.4929 45.8184L42.4381 52.6714L39.1052 55.3113L39.6306 56.7484L42.9733 54.502L44.3212 59.2776L41.2049 61.1546L41.7564 62.7075L44.8742 60.8389L46.081 64.7281L40.0917 68.5066L33.8451 52.7207L40.4929 45.8184Z" fill="#7939CC" fill-opacity="0.2"/>
<path d="M41.3069 45.0994L47.0859 64.0103L51.0668 61.2967L49.5035 55.7896L53.3298 52.5531L51.4535 45.9442L47.5678 49.7478L46.8728 47.3002L50.9875 43.1375L48.9532 35.9125L41.3069 45.0994Z" fill="#7939CC" fill-opacity="0.2"/>
<path d="M50.1225 34.6481L56.7213 58.0349L65.0643 53.1109L63.0447 45.5786L58.3493 48.8581L57.8583 46.74L62.4961 43.6173L61.0949 37.9321L56.5679 41.8067L55.9237 39.4462L60.5039 35.3206L57.871 24.6525L50.1225 34.6481Z" fill="#7939CC" fill-opacity="0.2"/>
<path d="M75.9177 34.0587C73.8939 31.7398 71.0769 32.2848 71.0769 32.2848C71.0769 32.2848 74.0356 29.8586 72.3821 25.2007C70.7288 20.5439 67.2476 13.0206 64.8531 14.8539C62.6987 16.5027 59.0179 23.6224 59.0179 23.6224L66.3934 52.6843L71.4342 50.2021L67.9504 37.6997C67.9504 37.6997 71.0341 36.1124 72.5393 40.5465C74.0227 44.9166 75.1075 48.0145 75.1075 48.0145L80.6585 45.6145C80.6585 45.6145 78.2978 36.7881 75.917 34.0598L75.9177 34.0587ZM65.8625 30.6268L64.235 25.007C64.235 25.007 65.8732 22.0415 67.4809 26.6096C68.6975 30.0686 65.8633 30.6267 65.8633 30.6267L65.8625 30.6268Z" fill="#7939CC" fill-opacity="0.2"/>
<path d="M44.4839 80.0881L42.4793 79.6382C42.4793 79.6382 43.1269 78.0309 42.6109 76.6015L40.5226 77.4052C40.5226 77.4052 41.008 79.1187 40.6457 79.3931L37.7062 78.7589C37.7062 78.7589 40.8455 76.6005 39.6392 73.129C38.432 69.6565 32.9483 73.4635 32.9483 73.4635C31.9233 74.1294 27.7117 76.3902 28.0592 77.6135C28.4066 78.8368 29.4011 80.5976 31.7633 80.3676C31.7633 80.3676 29.8965 81.3655 30.1202 83.3154C30.3422 85.2665 32.3039 85.84 36.1937 84.8398C40.6659 83.6895 40.6799 82.4342 40.6799 82.4342L42.9562 83.8543L45.6273 83.6009L44.483 80.0881L44.4839 80.0881ZM38.0538 81.4606C37.9637 82.3109 34.4379 83.9538 34.2543 82.532C34.0707 81.1092 35.2297 80.5267 35.2297 80.5267C35.2297 80.5267 38.144 80.6125 38.0538 81.4606ZM36.1424 75.9674C36.2915 77.2676 34.6055 78.324 34.6055 78.324C32.7656 77.6756 31.2964 76.9583 34.2383 75.4794C34.2383 75.4794 35.9941 74.667 36.1424 75.9674Z" fill="#7939CC" fill-opacity="0.2"/>
<path d="M41.6294 68.8647L46.809 83.5632L56.6742 83.1634L54.6687 75.9285L49.1578 77.5058L48.6715 75.7922L53.9737 73.4808L52.7579 69.1971L47.1624 72.029L46.5813 70.7602L52.6645 66.9261L51.3998 62.5252L41.6294 68.8647Z" fill="#7939CC" fill-opacity="0.2"/>
<path d="M59.452 57.9198C59.452 57.9198 54.4986 59.9622 53.3833 61.4763L57.6729 83.0344L62.3328 82.7645L60.1892 74.7748L61.6825 74.2008L64.7075 82.6333L68.6482 82.883L59.452 57.9198ZM58.5447 69.9301L57.5453 63.7622L59.9385 69.3953L58.544 69.9313L58.5447 69.9301Z" fill="#7939CC" fill-opacity="0.2"/>
<path d="M74.5229 70.4612C73.0922 67.7533 69.5624 67.7545 69.5624 67.7545C69.5624 67.7545 73.1432 66.377 73.0601 64.9161C72.977 63.4552 72.4019 59.8753 71.1305 56.5643C69.8581 53.2524 69.3381 51.4162 61.5076 56.8729L70.3008 82.6612L74.1804 82.8458L70.3453 72.0687C70.3453 72.0687 72.2001 71.2205 74.7713 80.276L75.3948 83.1441L78.6914 83.515C78.6914 83.515 75.9536 73.1702 74.523 70.4623L74.5229 70.4612ZM67.2824 63.6096L66.1011 59.4484C66.6886 58.4094 68.5275 59.0579 68.8556 61.3754C69.1819 63.693 67.2824 63.6096 67.2824 63.6096Z" fill="#7939CC" fill-opacity="0.2"/>
<path d="M70.7517 52.9064L79.902 83.4532L83.8601 83.8503L79.3899 68.4077C79.3899 68.4077 84.5787 76.7711 86.1439 80.7826C87.2849 83.7058 87.3786 84.0604 87.3786 84.0604L90.5337 84.4887C90.5337 84.4887 90.3322 72.5199 81.3411 47.0668L76.7585 48.8002C76.7585 48.8002 80.6759 57.9997 83.1348 66.6022L73.8595 51.0312L70.7509 52.9065L70.7517 52.9064Z" fill="#7939CC" fill-opacity="0.2"/>
<path d="M65.3062 83.2092L65.3064 83.2115C65.2889 83.2106 65.2714 83.2098 65.2539 83.209L65.3063 83.2103L65.3062 83.2092Z" fill="#7939CC" fill-opacity="0.2"/>
<path d="M97.1316 12.2879C97.0301 12.3249 96.9397 12.3579 96.8361 12.3803C96.6057 12.4269 96.4695 12.5604 96.307 12.7439C96.0609 13.0225 95.8118 13.297 95.5636 13.5715C95.3171 13.8448 95.0678 14.1173 94.834 14.4076C94.6326 14.6581 94.3982 14.8995 94.3623 15.267C94.346 15.4278 94.4356 15.5745 94.567 15.6051C94.8341 15.6649 95.0494 15.5196 95.2815 15.3867C95.5842 15.214 95.873 15.0084 96.1613 14.8093C96.4548 14.6076 96.747 14.4027 97.0406 14.2031C97.2013 14.0921 97.382 14.0028 97.5012 13.8218C97.5996 13.6734 97.6687 13.4764 97.7582 13.316C98.0627 12.7743 97.6508 12.0994 97.1306 12.2869L97.1316 12.2879Z" fill="#7939CC" fill-opacity="0.5"/>
<path d="M100.931 37.212C101.556 36.9458 102.191 36.6999 102.836 36.5149C103.162 36.421 103.491 36.346 103.821 36.2795C104.151 36.2129 104.495 36.2025 104.821 36.1193C105.211 36.0181 105.512 35.6627 105.454 35.136C105.403 34.6673 105.021 34.2599 104.625 34.3351C103.915 34.466 103.198 34.8355 102.54 35.1608C101.849 35.5059 101.185 35.9178 100.554 36.3972C100.179 36.6821 100.538 37.3794 100.931 37.2131L100.931 37.212Z" fill="#7939CC" fill-opacity="0.5"/>
<path d="M112.226 58.8656C111.854 58.8676 111.483 58.9046 111.111 58.9289C110.741 58.9552 110.37 58.989 110.001 59.0205C109.598 59.0559 109.161 59.0601 108.784 59.2358C108.428 59.4033 108.393 60.0918 108.778 60.2789C109.45 60.6008 110.279 60.5673 110.986 60.6355C111.663 60.6987 113.087 61.12 113.219 59.941C113.299 59.2319 112.715 58.8666 112.225 58.8667L112.226 58.8656Z" fill="#7939CC" fill-opacity="0.5"/>
<path d="M104.85 52.883C104.682 52.5854 104.322 52.528 104.097 52.7283C103.871 52.9287 103.807 53.3581 103.994 53.6413L104.078 53.7693C104.168 53.9075 104.286 54.0061 104.43 54.0357C104.57 54.0646 104.713 54.023 104.824 53.9234C104.937 53.8249 105.011 53.6732 105.03 53.5037C105.05 53.3299 105.009 53.1675 104.926 53.0191C104.899 52.9735 104.876 52.9297 104.849 52.8841L104.85 52.883Z" fill="#7939CC" fill-opacity="0.5"/>
<path d="M89.9603 13.3382C89.8576 13.0746 89.7649 12.891 89.5771 12.7046C89.4735 12.6004 89.3703 12.5208 89.2511 12.47C89.0467 12.3572 88.8341 12.3131 88.6141 12.3387C88.303 12.3782 87.2605 11.5449 87.0668 11.8362C86.7324 12.3431 86.7274 13.096 87.0566 13.6332C87.266 13.9752 88.3223 15.2611 88.6744 15.316L88.7247 15.3246C88.9868 15.3657 89.1149 15.3456 89.3615 15.2519C89.5484 15.1631 89.7042 15.0248 89.8305 14.8358C89.8813 14.7339 89.932 14.6298 89.9835 14.5267C90.066 14.2914 90.0936 14.0447 90.0669 13.7854C90.0652 13.6272 90.0137 13.4784 89.9602 13.3361L89.9603 13.3382Z" fill="#7939CC" fill-opacity="0.5"/>
<path d="M100.141 30.3628C99.9629 30.2659 99.7777 30.228 99.5852 30.2482C99.3075 30.2817 99.0724 30.451 98.8954 30.7026C98.8947 30.7048 98.8921 30.705 98.8908 30.7094C98.6592 31.0378 98.6001 31.5666 98.7486 31.9731C98.7488 31.9752 98.7508 31.9782 98.7517 31.9792C98.8231 32.1901 98.9317 32.3661 99.0745 32.5127C99.2973 32.7324 99.5866 32.8403 99.8659 32.8055C100.331 32.748 100.708 32.3056 100.771 31.7413C100.834 31.1792 100.572 30.6057 100.141 30.3628Z" fill="#7939CC" fill-opacity="0.5"/>
<path d="M96.7236 27.8957C96.3648 27.8222 96.0239 28.1235 95.9753 28.558C95.9259 28.9936 96.1856 29.4185 96.5444 29.492C96.9042 29.5664 97.2442 29.2642 97.2927 28.8287C97.3413 28.3942 97.0833 27.9691 96.7236 27.8957Z" fill="#7939CC" fill-opacity="0.5"/>
<path d="M106.765 49.3049C106.8 48.9863 106.729 48.652 106.568 48.3879C106.406 48.1239 106.164 47.9409 105.899 47.8863C105.634 47.8316 105.363 47.9092 105.15 48.0968C104.939 48.2843 104.797 48.5735 104.762 48.8931C104.725 49.2139 104.797 49.547 104.958 49.8133C105.12 50.0783 105.361 50.2603 105.626 50.3139C105.891 50.3686 106.163 50.292 106.375 50.1044C106.587 49.9158 106.729 49.6256 106.766 49.3048L106.765 49.3049Z" fill="#7939CC" fill-opacity="0.5"/>
<path d="M109.76 71.4637C109.539 71.4182 109.312 71.4826 109.133 71.6398C108.956 71.7969 108.837 72.0405 108.807 72.3087C108.777 72.5779 108.836 72.8557 108.971 73.0773C109.107 73.2999 109.311 73.4521 109.53 73.4978C109.753 73.5432 109.98 73.4798 110.159 73.3216C110.336 73.1645 110.455 72.923 110.485 72.6537C110.515 72.3856 110.455 72.1056 110.32 71.884C110.185 71.6625 109.982 71.5102 109.76 71.4637Z" fill="#7939CC" fill-opacity="0.5"/>
<path d="M91.3679 17.2538C91.324 17.2181 91.2766 17.171 91.2319 17.146C91.1697 17.1107 91.1042 17.097 91.0369 17.1057C91.0042 17.1106 90.967 17.1243 90.9324 17.1367C90.9204 17.1398 90.9077 17.144 90.896 17.1503C90.7742 17.1933 90.6739 17.3185 90.6234 17.4555C90.5202 17.7457 90.6358 18.1018 90.8777 18.237C91.0777 18.349 91.3153 18.2837 91.4494 18.0824C91.5299 17.961 91.5656 17.8018 91.5474 17.645C91.533 17.5016 91.4671 17.337 91.3678 17.2527L91.3679 17.2538Z" fill="#7939CC" fill-opacity="0.5"/>
<path d="M107.148 74.8144C107.112 74.7568 107.067 74.7116 107.014 74.6809C106.966 74.6487 106.92 74.6185 106.873 74.5873C106.794 74.5322 106.685 74.5539 106.615 74.615C106.546 74.6759 106.497 74.7948 106.516 74.9037C106.527 74.9677 106.538 75.0284 106.548 75.0924C106.557 75.1629 106.58 75.229 106.614 75.2868C106.65 75.3444 106.695 75.3896 106.75 75.4201C106.859 75.4823 106.989 75.4673 107.085 75.3829C107.179 75.2976 107.229 75.1531 107.213 75.0088C107.205 74.9383 107.183 74.871 107.148 74.8133L107.148 74.8144Z" fill="#7939CC" fill-opacity="0.5"/>
<path d="M87.6204 8.89523C87.2946 7.95602 86.9588 7.02083 86.6053 6.09453L85.2896 3.60773L84.5706 4.7841C83.9715 5.76566 81.5143 10.427 81.2809 10.9862C81.6933 10.611 84.4411 7.5932 84.8532 7.08835C85.1172 7.99759 85.3896 8.90188 85.6812 9.79715L86.081 11.0215C86.081 11.0215 95.1166 4.42161 95.7105 3.65092C94.8905 4.01514 88.7508 8.008 87.6213 8.89622L87.6204 8.89523Z" fill="url(#paint0_linear_2652_20987)"/>
<path d="M86.3178 9.65666L85.0982 5.80153L81.3757 10.781C81.3333 10.8684 81.2985 10.9436 81.2811 10.9854C81.6934 10.6102 84.4412 7.5924 84.8533 7.08756C85.1174 7.99679 85.3897 8.90109 85.6814 9.79635L86.0811 11.0207C86.0811 11.0207 95.1167 4.42081 95.7107 3.65013L86.3187 9.65659L86.3178 9.65666Z" fill="#7939CC"/>
<path d="M107.898 23.6632C107.991 21.8977 108.066 20.1293 108.106 18.3564L108.169 15.5528L106.253 16.6739C104.656 17.6092 97.6886 22.4303 96.9505 23.0694C97.8536 22.8896 104.212 20.8863 105.199 20.5052C105.028 22.1646 104.871 23.8249 104.751 25.4896L104.59 27.7667C104.59 27.7667 122.786 24.0083 124.237 23.3901C122.69 23.1596 110.28 23.3847 107.897 23.6633L107.898 23.6632Z" fill="#7939CC" fill-opacity="0.5"/>
<path d="M105.86 25.8898L106.431 18.7579L97.2358 22.8457C97.1105 22.9411 97.0064 23.0209 96.9495 23.0702C97.8527 22.8904 104.212 20.8871 105.198 20.506C105.027 22.1654 104.87 23.8257 104.75 25.4904L104.589 27.7675C104.589 27.7675 122.785 24.0091 124.236 23.3909L105.859 25.8899L105.86 25.8898Z" fill="#7939CC" fill-opacity="0.2"/>
<path d="M116.249 71.9031C117.1 70.99 117.942 70.0639 118.765 69.1128L120.066 67.6067L118.434 66.9453C117.073 66.3945 110.8 64.403 110.078 64.2617C110.69 64.766 115.335 67.9069 116.087 68.356C115.238 69.1584 114.396 69.9697 113.575 70.8092L112.454 71.9581C112.454 71.9581 124.852 82.038 125.984 82.6662C125.178 81.5052 117.777 73.3404 116.25 71.903L116.249 71.9031Z" fill="#7939CC" fill-opacity="0.5"/>
<path d="M114.048 71.7722L117.6 68.2161L110.348 64.3307C110.231 64.2989 110.134 64.274 110.078 64.2637C110.69 64.7679 115.335 67.9089 116.087 68.358C115.238 69.1604 114.396 69.9717 113.575 70.8111L112.454 71.9601C112.454 71.9601 124.852 82.0399 125.984 82.6682L114.048 71.7722Z" fill="#7939CC" fill-opacity="0.2"/>
<path d="M116.09 45.4321C116.51 43.6502 116.912 41.8612 117.279 40.0571L117.857 37.2057L115.663 37.8321C113.834 38.3572 105.719 41.4003 104.836 41.8526C105.806 41.9139 112.774 41.5885 113.868 41.4674C113.386 43.1184 112.918 44.7757 112.489 46.4468L111.905 48.7322C111.905 48.7322 131.482 49.8201 133.101 49.5822C131.538 48.9269 118.614 45.7913 116.09 45.43L116.09 45.4321Z" fill="url(#paint1_linear_2652_20987)"/>
<path d="M113.57 47.156L115.469 40.0123L105.174 41.7017C105.027 41.7659 104.904 41.8186 104.837 41.8539C105.807 41.9152 112.775 41.5898 113.869 41.4687C113.387 43.1197 112.919 44.777 112.49 46.4481L111.906 48.7335C111.906 48.7335 131.483 49.8214 133.102 49.5835L113.569 47.1572L113.57 47.156Z" fill="#7939CC" fill-opacity="0.2"/>
</g>
<defs>
<linearGradient id="paint0_linear_2652_20987" x1="88.1698" y1="3.36999" x2="88.783" y2="10.7984" gradientUnits="userSpaceOnUse">
<stop stop-color="#7939CC" stop-opacity="0.5"/>
<stop offset="1" stop-color="#3D1D66"/>
</linearGradient>
<linearGradient id="paint1_linear_2652_20987" x1="118.263" y1="37.1721" x2="119.381" y2="50.7177" gradientUnits="userSpaceOnUse">
<stop stop-color="#7939CC" stop-opacity="0.5"/>
<stop offset="1" stop-color="#3D1D66"/>
</linearGradient>
<clipPath id="clip0_2652_20987">
<rect width="129.446" height="97.1577" fill="white" transform="translate(0 10.6484) rotate(-4.71884)"/>
</clipPath>
</defs>
</svg>
