<svg width="136" height="122" viewBox="0 0 136 122" fill="none" xmlns="http://www.w3.org/2000/svg">
<g filter="url(#filter0_b_517_1391)">
<circle cx="108" cy="117" r="90" fill="url(#paint0_radial_517_1391)"/>
</g>
<g clip-path="url(#clip0_517_1391)">
<path d="M47.2971 17.7994L42.6537 17.3154C42.3459 16.4174 41.9645 15.5417 41.5129 14.6979L44.4368 11.2302C44.8048 10.6857 44.7245 9.96926 44.2427 9.51072L38.4418 3.98918C37.9601 3.53064 37.2074 3.45422 36.6353 3.80449L32.9922 6.58755C32.1057 6.15768 31.1857 5.79467 30.2423 5.50171L29.7338 1.08193C29.5899 0.448262 29.0012 -0.00390625 28.3187 -0.00390625H20.1192C19.44 -0.00390625 18.8479 0.448262 18.7041 1.08193L18.1956 5.50171C17.2522 5.79467 16.3322 6.15768 15.4457 6.58755L11.8025 3.80449C11.2305 3.45422 10.4778 3.53064 9.99602 3.98918L4.19512 9.51072C3.71338 9.96926 3.63309 10.6857 4.00108 11.2302L6.92495 14.6979C6.47332 15.5417 6.09195 16.4174 5.78417 17.3154L1.14078 17.7994C0.475045 17.9363 0 18.4968 0 19.1464V26.951C0 27.5974 0.475045 28.1579 1.14078 28.298L5.78417 28.782C6.09195 29.68 6.47332 30.5556 6.92495 31.3995L4.00108 34.8671C3.63309 35.4117 3.71338 36.1281 4.19512 36.5867L9.99602 42.105C10.4778 42.5635 11.2305 42.64 11.8025 42.2897L15.4457 39.5066C16.3322 39.9365 17.2522 40.2995 18.1956 40.5925L18.7041 45.0123C18.8479 45.6459 19.4367 46.0981 20.1192 46.0981H28.3187C28.9978 46.0981 29.5899 45.6459 29.7338 45.0123L30.2423 40.5925C31.1857 40.2995 32.1057 39.9365 32.9922 39.5066L36.6353 42.2897C37.2074 42.64 37.9601 42.5635 38.4418 42.105L44.2427 36.5867C44.7245 36.1281 44.8048 35.4117 44.4368 34.8671L41.5129 31.3995C41.9645 30.5556 42.3459 29.68 42.6537 28.782L47.2971 28.298C47.9628 28.1611 48.4379 27.6006 48.4379 26.951V19.1464C48.4379 18.4999 47.9628 17.9395 47.2971 17.7994ZM24.1035 36.9942C16.011 36.9942 9.45072 30.7499 9.45072 23.0471C9.45072 15.3443 16.011 9.10314 24.1035 9.10314C32.196 9.10314 38.7563 15.3475 38.7563 23.0503C38.7563 30.7531 32.196 36.9974 24.1035 36.9974V36.9942Z" fill="white"/>
<g style="mix-blend-mode:multiply" opacity="0.6">
<path d="M82.1493 81.0146L79.2622 80.7153C79.0715 80.158 78.834 79.6103 78.553 79.0881L80.3729 76.9323C80.6003 76.5948 80.5502 76.149 80.2524 75.8624L76.6461 72.4298C76.3484 72.1464 75.88 72.0986 75.522 72.3151L73.2572 74.0474C72.7052 73.7799 72.1332 73.5538 71.5477 73.3723L71.2333 70.6243C71.1429 70.2294 70.7783 69.9492 70.3534 69.9492H65.2551C64.8302 69.9492 64.4655 70.2294 64.3752 70.6243L64.0608 73.3723C63.4753 73.5538 62.8999 73.7799 62.3513 74.0474L60.0864 72.3151C59.7318 72.0986 59.2635 72.1464 58.9624 72.4298L55.3561 75.8624C55.0583 76.1458 55.0081 76.5916 55.2356 76.9323L57.0555 79.0881C56.7745 79.6135 56.537 80.158 56.3463 80.7153L53.4592 81.0146C53.0444 81.1006 52.75 81.4477 52.75 81.8521V86.7049C52.75 87.1061 53.0444 87.4564 53.4592 87.5424L56.3463 87.8417C56.537 88.3989 56.7745 88.9466 57.0555 89.4689L55.2356 91.6246C55.0081 91.9621 55.0583 92.4079 55.3561 92.6945L58.9624 96.1272C59.2601 96.4106 59.7285 96.4583 60.0864 96.2418L62.3513 94.5096C62.9032 94.777 63.4753 95.0031 64.0608 95.1846L64.3752 97.9327C64.4655 98.3275 64.8302 98.6077 65.2551 98.6077H70.3534C70.7783 98.6077 71.1429 98.3275 71.2333 97.9327L71.5477 95.1846C72.1332 95.0031 72.7086 94.777 73.2572 94.5096L75.522 96.2418C75.8767 96.4583 76.345 96.4106 76.6461 96.1272L80.2524 92.6945C80.5502 92.4111 80.6003 91.9653 80.3729 91.6246L78.553 89.4689C78.834 88.9435 79.0715 88.3989 79.2622 87.8417L82.1493 87.5424C82.5641 87.4564 82.8585 87.1093 82.8585 86.7049V81.8521C82.8585 81.4477 82.5641 81.1006 82.1493 81.0146ZM67.7273 91.303C63.6526 91.303 60.3474 88.1569 60.3474 84.2785C60.3474 80.4 63.6526 77.254 67.7273 77.254C71.802 77.254 75.1072 80.4 75.1072 84.2785C75.1072 88.1569 71.802 91.303 67.7273 91.303Z" fill="white"/>
</g>
<g filter="url(#filter1_d_517_1391)">
<path d="M101.241 15.2344H23.5715C19.2648 15.2344 15.7734 18.5576 15.7734 22.6569V76.8757C15.7734 80.975 19.2648 84.2982 23.5715 84.2982H101.241C105.548 84.2982 109.039 80.975 109.039 76.8757V22.6569C109.039 18.5576 105.548 15.2344 101.241 15.2344Z" fill="white"/>
</g>
<path d="M80.5 26.7109L81.9318 28.0738L80.5 29.4367" stroke="#7939CC" stroke-linecap="round" stroke-linejoin="round"/>
<path d="M44.3068 26.7109L42.875 28.0738L44.3068 29.4367" stroke="#7939CC" stroke-linecap="round" stroke-linejoin="round"/>
<g style="mix-blend-mode:soft-light" opacity="0.9">
<path d="M94.2848 22.5427C94.2848 23.1605 93.7563 23.6636 93.1073 23.6636C92.4583 23.6636 91.9297 23.1605 91.9297 22.5427C91.9297 21.925 92.4583 21.4219 93.1073 21.4219C93.7563 21.4219 94.2848 21.925 94.2848 22.5427Z" fill="#7939CC"/>
</g>
<g style="mix-blend-mode:soft-light" opacity="0.9">
<path d="M98.9411 22.5427C98.9411 23.1605 98.4125 23.6636 97.7635 23.6636C97.1145 23.6636 96.5859 23.1605 96.5859 22.5427C96.5859 21.925 97.1145 21.4219 97.7635 21.4219C98.4125 21.4219 98.9411 21.925 98.9411 22.5427Z" fill="#7939CC"/>
</g>
<g style="mix-blend-mode:soft-light" opacity="0.9">
<path d="M103.59 22.5427C103.59 23.1605 103.061 23.6636 102.412 23.6636C101.763 23.6636 101.234 23.1605 101.234 22.5427C101.234 21.925 101.763 21.4219 102.412 21.4219C103.061 21.4219 103.59 21.925 103.59 22.5427Z" fill="#7939CC"/>
</g>
<g style="mix-blend-mode:soft-light" opacity="0.9">
<path d="M25.2923 22.544C25.2923 23.6171 24.379 24.4864 23.2516 24.4864C22.1242 24.4864 21.2109 23.6171 21.2109 22.544C21.2109 21.4709 22.1242 20.6016 23.2516 20.6016C24.379 20.6016 25.2923 21.4709 25.2923 22.544Z" fill="#7939CC"/>
</g>
<g filter="url(#filter2_d_517_1391)">
<path d="M109.994 76.0469H78.1488C75.4735 76.0469 73.3047 78.1112 73.3047 80.6577V106.457C73.3047 109.003 75.4735 111.068 78.1488 111.068H109.994C112.669 111.068 114.838 109.003 114.838 106.457V80.6577C114.838 78.1112 112.669 76.0469 109.994 76.0469Z" fill="white"/>
</g>
<path d="M84.5827 84.2931H80.3006C79.8088 84.2931 79.4141 83.9142 79.4141 83.4493C79.4141 82.9812 79.8122 82.6055 80.3006 82.6055H84.5827C85.0745 82.6055 85.4692 82.9844 85.4692 83.4493C85.4692 83.9174 85.0711 84.2931 84.5827 84.2931Z" fill="#E9EBF5"/>
<path d="M107.847 84.2931H90.6522C90.1604 84.2931 89.7656 83.9142 89.7656 83.4493C89.7656 82.9812 90.1637 82.6055 90.6522 82.6055H107.847C108.339 82.6055 108.734 82.9844 108.734 83.4493C108.734 83.9174 108.336 84.2931 107.847 84.2931Z" fill="#E9EBF5"/>
<path d="M84.5827 88.3361H80.3006C79.8088 88.3361 79.4141 87.9572 79.4141 87.4923C79.4141 87.0242 79.8122 86.6484 80.3006 86.6484H84.5827C85.0745 86.6484 85.4692 87.0274 85.4692 87.4923C85.4692 87.9604 85.0711 88.3361 84.5827 88.3361Z" fill="#FFBD00"/>
<path d="M107.847 88.3361H90.6522C90.1604 88.3361 89.7656 87.9572 89.7656 87.4923C89.7656 87.0242 90.1637 86.6484 90.6522 86.6484H107.847C108.339 86.6484 108.734 87.0274 108.734 87.4923C108.734 87.9604 108.336 88.3361 107.847 88.3361Z" fill="#FFBD00"/>
<path d="M84.5827 92.3791H80.3006C79.8088 92.3791 79.4141 92.0001 79.4141 91.5352C79.4141 91.0671 79.8122 90.6914 80.3006 90.6914H84.5827C85.0745 90.6914 85.4692 91.0703 85.4692 91.5352C85.4692 92.0033 85.0711 92.3791 84.5827 92.3791Z" fill="#80A7FF"/>
<path d="M107.847 92.3791H90.6522C90.1604 92.3791 89.7656 92.0001 89.7656 91.5352C89.7656 91.0671 90.1637 90.6914 90.6522 90.6914H107.847C108.339 90.6914 108.734 91.0703 108.734 91.5352C108.734 92.0033 108.336 92.3791 107.847 92.3791Z" fill="#80A7FF"/>
<path d="M84.5827 96.422H80.3006C79.8088 96.422 79.4141 96.0431 79.4141 95.5782C79.4141 95.1101 79.8122 94.7344 80.3006 94.7344H84.5827C85.0745 94.7344 85.4692 95.1133 85.4692 95.5782C85.4692 96.0463 85.0711 96.422 84.5827 96.422Z" fill="#E9EBF5"/>
<path d="M107.847 96.422H90.6522C90.1604 96.422 89.7656 96.0431 89.7656 95.5782C89.7656 95.1101 90.1637 94.7344 90.6522 94.7344H107.847C108.339 94.7344 108.734 95.1133 108.734 95.5782C108.734 96.0463 108.336 96.422 107.847 96.422Z" fill="#E9EBF5"/>
<path d="M84.5827 100.465H80.3006C79.8088 100.465 79.4141 100.086 79.4141 99.6212C79.4141 99.1531 79.8122 98.7773 80.3006 98.7773H84.5827C85.0745 98.7773 85.4692 99.1563 85.4692 99.6212C85.4692 100.089 85.0711 100.465 84.5827 100.465Z" fill="white"/>
<path d="M107.847 100.465H90.6522C90.1604 100.465 89.7656 100.086 89.7656 99.6212C89.7656 99.1531 90.1637 98.7773 90.6522 98.7773H107.847C108.339 98.7773 108.734 99.1563 108.734 99.6212C108.734 100.089 108.336 100.465 107.847 100.465Z" fill="white"/>
<path d="M84.5827 104.512H80.3006C79.8088 104.512 79.4141 104.133 79.4141 103.668C79.4141 103.2 79.8122 102.824 80.3006 102.824H84.5827C85.0745 102.824 85.4692 103.203 85.4692 103.668C85.4692 104.136 85.0711 104.512 84.5827 104.512Z" fill="#E9EBF5"/>
<path d="M107.847 104.508H90.6522C90.1604 104.508 89.7656 104.129 89.7656 103.664C89.7656 103.196 90.1637 102.82 90.6522 102.82H107.847C108.339 102.82 108.734 103.199 108.734 103.664C108.734 104.132 108.336 104.508 107.847 104.508Z" fill="#E9EBF5"/>
<g filter="url(#filter3_d_517_1391)">
<path d="M117.178 81.4349C127.438 81.4349 135.755 73.5183 135.755 63.7526C135.755 53.9869 127.438 46.0703 117.178 46.0703C106.919 46.0703 98.6016 53.9869 98.6016 63.7526C98.6016 73.5183 106.919 81.4349 117.178 81.4349Z" fill="url(#paint1_linear_517_1391)"/>
</g>
<path d="M128.385 74.4151C122.206 80.2965 112.157 80.2965 105.978 74.4151C99.799 68.5337 99.799 58.9682 105.978 53.0868C112.157 47.2054 122.206 47.2054 128.385 53.0868C134.564 58.9682 134.564 68.5337 128.385 74.4151Z" fill="url(#paint2_linear_517_1391)"/>
<g style="mix-blend-mode:soft-light" opacity="0.9">
<path d="M128.392 53.0907C122.213 47.2093 112.163 47.2093 105.984 53.0907L128.392 74.419C134.571 68.5377 134.571 58.9721 128.392 53.0907Z" fill="white"/>
</g>
<path d="M123.464 63.0156H117.967V55.6312C117.967 55.2364 117.633 54.918 117.218 54.918C116.803 54.918 116.469 55.2364 116.469 55.6312V63.7289C116.469 64.1237 116.803 64.4422 117.218 64.4422H123.464C123.879 64.4422 124.213 64.1237 124.213 63.7289C124.213 63.334 123.879 63.0156 123.464 63.0156Z" fill="url(#paint3_linear_517_1391)"/>
<path d="M117.191 50.3008C117.06 50.3008 116.953 50.4027 116.953 50.5269V51.756C116.953 51.8802 117.06 51.9821 117.191 51.9821C117.321 51.9821 117.428 51.8802 117.428 51.756V50.5269C117.428 50.4027 117.321 50.3008 117.191 50.3008Z" fill="url(#paint4_linear_517_1391)"/>
<path d="M117.191 75.5312C117.06 75.5312 116.953 75.6331 116.953 75.7573V76.9865C116.953 77.1107 117.06 77.2125 117.191 77.2125C117.321 77.2125 117.428 77.1107 117.428 76.9865V75.7573C117.428 75.6331 117.321 75.5312 117.191 75.5312Z" fill="url(#paint5_linear_517_1391)"/>
<path d="M104.576 63.5312H103.284C103.154 63.5312 103.047 63.6331 103.047 63.7573C103.047 63.8815 103.154 63.9834 103.284 63.9834H104.576C104.706 63.9834 104.813 63.8815 104.813 63.7573C104.813 63.6331 104.706 63.5312 104.576 63.5312Z" fill="url(#paint6_linear_517_1391)"/>
<path d="M131.084 63.5312H129.792C129.662 63.5312 129.555 63.6331 129.555 63.7573C129.555 63.8815 129.662 63.9834 129.792 63.9834H131.084C131.214 63.9834 131.321 63.8815 131.321 63.7573C131.321 63.6331 131.214 63.5312 131.084 63.5312Z" fill="url(#paint7_linear_517_1391)"/>
<path d="M107.522 54.2387C107.428 54.1496 107.281 54.1496 107.187 54.2387C107.094 54.3279 107.094 54.468 107.187 54.5572L108.101 55.4265C108.194 55.5156 108.342 55.5156 108.435 55.4265C108.529 55.3373 108.529 55.1972 108.435 55.1081L107.522 54.2387Z" fill="url(#paint8_linear_517_1391)"/>
<path d="M126.264 72.0825C126.17 71.9933 126.023 71.9933 125.93 72.0825C125.836 72.1717 125.836 72.3118 125.93 72.4009L126.843 73.2702C126.937 73.3594 127.084 73.3594 127.177 73.2702C127.271 73.1811 127.271 73.041 127.177 72.9518L126.264 72.0825Z" fill="url(#paint9_linear_517_1391)"/>
<path d="M108.101 72.0825L107.187 72.9518C107.094 73.041 107.094 73.1811 107.187 73.2702C107.281 73.3594 107.428 73.3594 107.522 73.2702L108.435 72.4009C108.529 72.3118 108.529 72.1717 108.435 72.0825C108.342 71.9933 108.194 71.9933 108.101 72.0825Z" fill="url(#paint10_linear_517_1391)"/>
<path d="M126.843 54.2387L125.93 55.1081C125.836 55.1972 125.836 55.3373 125.93 55.4265C126.023 55.5156 126.17 55.5156 126.264 55.4265L127.177 54.5572C127.271 54.468 127.271 54.3279 127.177 54.2387C127.084 54.1496 126.937 54.1496 126.843 54.2387Z" fill="url(#paint11_linear_517_1391)"/>
<path d="M117.191 50.3008C117.06 50.3008 116.953 50.4027 116.953 50.5269V51.756C116.953 51.8802 117.06 51.9821 117.191 51.9821C117.321 51.9821 117.428 51.8802 117.428 51.756V50.5269C117.428 50.4027 117.321 50.3008 117.191 50.3008Z" fill="url(#paint12_linear_517_1391)"/>
<path d="M117.191 75.5312C117.06 75.5312 116.953 75.6331 116.953 75.7573V76.9865C116.953 77.1107 117.06 77.2125 117.191 77.2125C117.321 77.2125 117.428 77.1107 117.428 76.9865V75.7573C117.428 75.6331 117.321 75.5312 117.191 75.5312Z" fill="url(#paint13_linear_517_1391)"/>
<path d="M104.576 63.5312H103.284C103.154 63.5312 103.047 63.6331 103.047 63.7573C103.047 63.8815 103.154 63.9834 103.284 63.9834H104.576C104.706 63.9834 104.813 63.8815 104.813 63.7573C104.813 63.6331 104.706 63.5312 104.576 63.5312Z" fill="url(#paint14_linear_517_1391)"/>
<path d="M131.084 63.5312H129.792C129.662 63.5312 129.555 63.6331 129.555 63.7573C129.555 63.8815 129.662 63.9834 129.792 63.9834H131.084C131.214 63.9834 131.321 63.8815 131.321 63.7573C131.321 63.6331 131.214 63.5312 131.084 63.5312Z" fill="url(#paint15_linear_517_1391)"/>
<path d="M107.522 54.2387C107.428 54.1496 107.281 54.1496 107.187 54.2387C107.094 54.3279 107.094 54.468 107.187 54.5572L108.101 55.4265C108.194 55.5156 108.342 55.5156 108.435 55.4265C108.529 55.3373 108.529 55.1972 108.435 55.1081L107.522 54.2387Z" fill="url(#paint16_linear_517_1391)"/>
<path d="M126.264 72.0825C126.17 71.9933 126.023 71.9933 125.93 72.0825C125.836 72.1717 125.836 72.3118 125.93 72.4009L126.843 73.2702C126.937 73.3594 127.084 73.3594 127.177 73.2702C127.271 73.1811 127.271 73.041 127.177 72.9518L126.264 72.0825Z" fill="url(#paint17_linear_517_1391)"/>
<path d="M108.101 72.0825L107.187 72.9518C107.094 73.041 107.094 73.1811 107.187 73.2702C107.281 73.3594 107.428 73.3594 107.522 73.2702L108.435 72.4009C108.529 72.3118 108.529 72.1717 108.435 72.0825C108.342 71.9933 108.194 71.9933 108.101 72.0825Z" fill="url(#paint18_linear_517_1391)"/>
<path d="M126.843 54.2387L125.93 55.1081C125.836 55.1972 125.836 55.3373 125.93 55.4265C126.023 55.5156 126.17 55.5156 126.264 55.4265L127.177 54.5572C127.271 54.468 127.271 54.3279 127.177 54.2387C127.084 54.1496 126.937 54.1496 126.843 54.2387Z" fill="url(#paint19_linear_517_1391)"/>
<path opacity="0.9" d="M33.8174 37.7422H24.5139C24.0834 37.7422 23.7344 38.0895 23.7344 38.518V45.3537C23.7344 45.7821 24.0834 46.1295 24.5139 46.1295H33.8174C34.2479 46.1295 34.5968 45.7821 34.5968 45.3537V38.518C34.5968 38.0895 34.2479 37.7422 33.8174 37.7422Z" fill="#7939CC" fill-opacity="0.2"/>
<path opacity="0.9" d="M33.8174 50.1719H24.5139C24.0834 50.1719 23.7344 50.5192 23.7344 50.9477V57.7833C23.7344 58.2118 24.0834 58.5591 24.5139 58.5591H33.8174C34.2479 58.5591 34.5968 58.2118 34.5968 57.7833V50.9477C34.5968 50.5192 34.2479 50.1719 33.8174 50.1719Z" fill="#7939CC" fill-opacity="0.2"/>
<path opacity="0.9" d="M33.8174 63.3359H24.5139C24.0834 63.3359 23.7344 63.6833 23.7344 64.1117V70.9474C23.7344 71.3759 24.0834 71.7232 24.5139 71.7232H33.8174C34.2479 71.7232 34.5968 71.3759 34.5968 70.9474V64.1117C34.5968 63.6833 34.2479 63.3359 33.8174 63.3359Z" fill="#7939CC" fill-opacity="0.2"/>
<path opacity="0.9" d="M49.458 63.3359H40.1545C39.724 63.3359 39.375 63.6833 39.375 64.1117V70.9474C39.375 71.3759 39.724 71.7232 40.1545 71.7232H49.458C49.8885 71.7232 50.2375 71.3759 50.2375 70.9474V64.1117C50.2375 63.6833 49.8885 63.3359 49.458 63.3359Z" fill="#7939CC" fill-opacity="0.2"/>
<path opacity="0.9" d="M65.0986 64.0664H55.7951C55.3646 64.0664 55.0156 64.4137 55.0156 64.8422V71.6779C55.0156 72.1063 55.3646 72.4537 55.7951 72.4537H65.0986C65.5291 72.4537 65.8781 72.1063 65.8781 71.6779V64.8422C65.8781 64.4137 65.5291 64.0664 65.0986 64.0664Z" fill="#7939CC" fill-opacity="0.2"/>
<path opacity="0.9" d="M80.7392 64.7969H71.4357C71.0052 64.7969 70.6562 65.1442 70.6562 65.5727V72.4083C70.6562 72.8368 71.0052 73.1841 71.4357 73.1841H80.7392C81.1697 73.1841 81.5187 72.8368 81.5187 72.4083V65.5727C81.5187 65.1442 81.1697 64.7969 80.7392 64.7969Z" fill="#7939CC" fill-opacity="0.2"/>
<path opacity="0.9" d="M96.3721 64.0664H87.0685C86.638 64.0664 86.2891 64.4137 86.2891 64.8422V71.6779C86.2891 72.1063 86.638 72.4537 87.0685 72.4537H96.3721C96.8025 72.4537 97.1515 72.1063 97.1515 71.6779V64.8422C97.1515 64.4137 96.8025 64.0664 96.3721 64.0664Z" fill="#7939CC" fill-opacity="0.2"/>
<path opacity="0.9" d="M49.458 50.1719H40.1545C39.724 50.1719 39.375 50.5192 39.375 50.9477V57.7833C39.375 58.2118 39.724 58.5591 40.1545 58.5591H49.458C49.8885 58.5591 50.2375 58.2118 50.2375 57.7833V50.9477C50.2375 50.5192 49.8885 50.1719 49.458 50.1719Z" fill="#7939CC" fill-opacity="0.2"/>
<path opacity="0.9" d="M65.0986 50.9062H55.7951C55.3646 50.9062 55.0156 51.2536 55.0156 51.682V58.5177C55.0156 58.9462 55.3646 59.2935 55.7951 59.2935H65.0986C65.5291 59.2935 65.8781 58.9462 65.8781 58.5177V51.682C65.8781 51.2536 65.5291 50.9062 65.0986 50.9062Z" fill="#7939CC" fill-opacity="0.2"/>
<path opacity="0.9" d="M80.7392 50.9062H71.4357C71.0052 50.9062 70.6562 51.2536 70.6562 51.682V58.5177C70.6562 58.9462 71.0052 59.2935 71.4357 59.2935H80.7392C81.1697 59.2935 81.5187 58.9462 81.5187 58.5177V51.682C81.5187 51.2536 81.1697 50.9062 80.7392 50.9062Z" fill="#7939CC" fill-opacity="0.2"/>
<path opacity="0.9" d="M96.3721 50.9062H87.0685C86.638 50.9062 86.2891 51.2536 86.2891 51.682V58.5177C86.2891 58.9462 86.638 59.2935 87.0685 59.2935H96.3721C96.8025 59.2935 97.1515 58.9462 97.1515 58.5177V51.682C97.1515 51.2536 96.8025 50.9062 96.3721 50.9062Z" fill="#7939CC" fill-opacity="0.2"/>
<path opacity="0.9" d="M49.458 37.7422H40.1545C39.724 37.7422 39.375 38.0895 39.375 38.518V45.3537C39.375 45.7821 39.724 46.1295 40.1545 46.1295H49.458C49.8885 46.1295 50.2375 45.7821 50.2375 45.3537V38.518C50.2375 38.0895 49.8885 37.7422 49.458 37.7422Z" fill="#7939CC" fill-opacity="0.2"/>
<path opacity="0.9" d="M65.0986 37.7422H55.7951C55.3646 37.7422 55.0156 38.0895 55.0156 38.518V45.3537C55.0156 45.7821 55.3646 46.1295 55.7951 46.1295H65.0986C65.5291 46.1295 65.8781 45.7821 65.8781 45.3537V38.518C65.8781 38.0895 65.5291 37.7422 65.0986 37.7422Z" fill="#7939CC" fill-opacity="0.2"/>
<path opacity="0.9" d="M80.7392 37.7422H71.4357C71.0052 37.7422 70.6562 38.0895 70.6562 38.518V45.3537C70.6562 45.7821 71.0052 46.1295 71.4357 46.1295H80.7392C81.1697 46.1295 81.5187 45.7821 81.5187 45.3537V38.518C81.5187 38.0895 81.1697 37.7422 80.7392 37.7422Z" fill="#7939CC" fill-opacity="0.2"/>
<path opacity="0.9" d="M96.3721 37.7422H87.0685C86.638 37.7422 86.2891 38.0895 86.2891 38.518V45.3537C86.2891 45.7821 86.638 46.1295 87.0685 46.1295H96.3721C96.8025 46.1295 97.1515 45.7821 97.1515 45.3537V38.518C97.1515 38.0895 96.8025 37.7422 96.3721 37.7422Z" fill="#7939CC" fill-opacity="0.2"/>
</g>
<defs>
<filter id="filter0_b_517_1391" x="-24" y="-15" width="264" height="264" filterUnits="userSpaceOnUse" color-interpolation-filters="sRGB">
<feFlood flood-opacity="0" result="BackgroundImageFix"/>
<feGaussianBlur in="BackgroundImageFix" stdDeviation="21"/>
<feComposite in2="SourceAlpha" operator="in" result="effect1_backgroundBlur_517_1391"/>
<feBlend mode="normal" in="SourceGraphic" in2="effect1_backgroundBlur_517_1391" result="shape"/>
</filter>
<filter id="filter1_d_517_1391" x="1.77344" y="6.23438" width="121.266" height="97.0645" filterUnits="userSpaceOnUse" color-interpolation-filters="sRGB">
<feFlood flood-opacity="0" result="BackgroundImageFix"/>
<feColorMatrix in="SourceAlpha" type="matrix" values="0 0 0 0 0 0 0 0 0 0 0 0 0 0 0 0 0 0 127 0" result="hardAlpha"/>
<feOffset dy="5"/>
<feGaussianBlur stdDeviation="7"/>
<feColorMatrix type="matrix" values="0 0 0 0 0.329412 0 0 0 0 0.423529 0 0 0 0 1 0 0 0 0.5 0"/>
<feBlend mode="normal" in2="BackgroundImageFix" result="effect1_dropShadow_517_1391"/>
<feBlend mode="normal" in="SourceGraphic" in2="effect1_dropShadow_517_1391" result="shape"/>
</filter>
<filter id="filter2_d_517_1391" x="63.3047" y="69.0469" width="61.5312" height="55.0215" filterUnits="userSpaceOnUse" color-interpolation-filters="sRGB">
<feFlood flood-opacity="0" result="BackgroundImageFix"/>
<feColorMatrix in="SourceAlpha" type="matrix" values="0 0 0 0 0 0 0 0 0 0 0 0 0 0 0 0 0 0 127 0" result="hardAlpha"/>
<feOffset dy="3"/>
<feGaussianBlur stdDeviation="5"/>
<feColorMatrix type="matrix" values="0 0 0 0 0.329412 0 0 0 0 0.423529 0 0 0 0 1 0 0 0 0.5 0"/>
<feBlend mode="normal" in2="BackgroundImageFix" result="effect1_dropShadow_517_1391"/>
<feBlend mode="normal" in="SourceGraphic" in2="effect1_dropShadow_517_1391" result="shape"/>
</filter>
<filter id="filter3_d_517_1391" x="88.6016" y="39.0703" width="57.1523" height="55.3652" filterUnits="userSpaceOnUse" color-interpolation-filters="sRGB">
<feFlood flood-opacity="0" result="BackgroundImageFix"/>
<feColorMatrix in="SourceAlpha" type="matrix" values="0 0 0 0 0 0 0 0 0 0 0 0 0 0 0 0 0 0 127 0" result="hardAlpha"/>
<feOffset dy="3"/>
<feGaussianBlur stdDeviation="5"/>
<feColorMatrix type="matrix" values="0 0 0 0 0.329412 0 0 0 0 0.423529 0 0 0 0 1 0 0 0 0.5 0"/>
<feBlend mode="normal" in2="BackgroundImageFix" result="effect1_dropShadow_517_1391"/>
<feBlend mode="normal" in="SourceGraphic" in2="effect1_dropShadow_517_1391" result="shape"/>
</filter>
<radialGradient id="paint0_radial_517_1391" cx="0" cy="0" r="1" gradientUnits="userSpaceOnUse" gradientTransform="translate(19.6191 32.3554) rotate(44.0741) scale(244.445 390.955)">
<stop stop-color="white" stop-opacity="0.4"/>
<stop offset="1" stop-color="white" stop-opacity="0"/>
</radialGradient>
<linearGradient id="paint1_linear_517_1391" x1="117.178" y1="81.4349" x2="117.178" y2="46.0735" gradientUnits="userSpaceOnUse">
<stop stop-color="#6C9CFF"/>
<stop offset="1" stop-color="#A4C4FF"/>
</linearGradient>
<linearGradient id="paint2_linear_517_1391" x1="105.979" y1="74.4148" x2="127.281" y2="52.0357" gradientUnits="userSpaceOnUse">
<stop stop-color="#AAC8FD"/>
<stop offset="0.86" stop-color="#D4E4FF"/>
</linearGradient>
<linearGradient id="paint3_linear_517_1391" x1="120.343" y1="64.4422" x2="120.343" y2="54.918" gradientUnits="userSpaceOnUse">
<stop stop-color="#1123A5"/>
<stop offset="0.37" stop-color="#2A3EC7"/>
<stop offset="1" stop-color="#546CFF"/>
</linearGradient>
<linearGradient id="paint4_linear_517_1391" x1="117.191" y1="51.9789" x2="117.191" y2="50.3008" gradientUnits="userSpaceOnUse">
<stop stop-color="#FF8F00"/>
<stop offset="1" stop-color="#FFBD00"/>
</linearGradient>
<linearGradient id="paint5_linear_517_1391" x1="4.79798" y1="77.2094" x2="5.10207" y2="75.5257" gradientUnits="userSpaceOnUse">
<stop stop-color="#FF8F00"/>
<stop offset="1" stop-color="#FFBD00"/>
</linearGradient>
<linearGradient id="paint6_linear_517_1391" x1="103.93" y1="63.9802" x2="103.93" y2="63.5312" gradientUnits="userSpaceOnUse">
<stop stop-color="#FF8F00"/>
<stop offset="1" stop-color="#FFBD00"/>
</linearGradient>
<linearGradient id="paint7_linear_517_1391" x1="130.438" y1="63.9802" x2="130.438" y2="63.5312" gradientUnits="userSpaceOnUse">
<stop stop-color="#FF8F00"/>
<stop offset="1" stop-color="#FFBD00"/>
</linearGradient>
<linearGradient id="paint8_linear_517_1391" x1="107.81" y1="55.4933" x2="107.81" y2="54.1751" gradientUnits="userSpaceOnUse">
<stop stop-color="#FF8F00"/>
<stop offset="1" stop-color="#FFBD00"/>
</linearGradient>
<linearGradient id="paint9_linear_517_1391" x1="126.555" y1="73.3339" x2="126.555" y2="72.0156" gradientUnits="userSpaceOnUse">
<stop stop-color="#FF8F00"/>
<stop offset="1" stop-color="#FFBD00"/>
</linearGradient>
<linearGradient id="paint10_linear_517_1391" x1="107.81" y1="73.3339" x2="107.81" y2="72.0156" gradientUnits="userSpaceOnUse">
<stop stop-color="#FF8F00"/>
<stop offset="1" stop-color="#FFBD00"/>
</linearGradient>
<linearGradient id="paint11_linear_517_1391" x1="126.555" y1="55.4933" x2="126.555" y2="54.1751" gradientUnits="userSpaceOnUse">
<stop stop-color="#FF8F00"/>
<stop offset="1" stop-color="#FFBD00"/>
</linearGradient>
<linearGradient id="paint12_linear_517_1391" x1="117.191" y1="77.2112" x2="117.191" y2="50.3008" gradientUnits="userSpaceOnUse">
<stop stop-color="#1123A5"/>
<stop offset="0.37" stop-color="#2A3EC7"/>
<stop offset="1" stop-color="#546CFF"/>
</linearGradient>
<linearGradient id="paint13_linear_517_1391" x1="117.191" y1="77.2094" x2="117.191" y2="50.299" gradientUnits="userSpaceOnUse">
<stop stop-color="#1123A5"/>
<stop offset="0.37" stop-color="#2A3EC7"/>
<stop offset="1" stop-color="#546CFF"/>
</linearGradient>
<linearGradient id="paint14_linear_517_1391" x1="117.184" y1="77.2109" x2="117.184" y2="50.3006" gradientUnits="userSpaceOnUse">
<stop stop-color="#1123A5"/>
<stop offset="0.37" stop-color="#2A3EC7"/>
<stop offset="1" stop-color="#546CFF"/>
</linearGradient>
<linearGradient id="paint15_linear_517_1391" x1="117.183" y1="77.2109" x2="117.183" y2="50.3006" gradientUnits="userSpaceOnUse">
<stop stop-color="#1123A5"/>
<stop offset="0.37" stop-color="#2A3EC7"/>
<stop offset="1" stop-color="#546CFF"/>
</linearGradient>
<linearGradient id="paint16_linear_517_1391" x1="117.183" y1="77.2101" x2="117.183" y2="50.2998" gradientUnits="userSpaceOnUse">
<stop stop-color="#1123A5"/>
<stop offset="0.37" stop-color="#2A3EC7"/>
<stop offset="1" stop-color="#546CFF"/>
</linearGradient>
<linearGradient id="paint17_linear_517_1391" x1="117.181" y1="77.2092" x2="117.181" y2="50.2988" gradientUnits="userSpaceOnUse">
<stop stop-color="#1123A5"/>
<stop offset="0.37" stop-color="#2A3EC7"/>
<stop offset="1" stop-color="#546CFF"/>
</linearGradient>
<linearGradient id="paint18_linear_517_1391" x1="117.183" y1="77.2092" x2="117.183" y2="50.2988" gradientUnits="userSpaceOnUse">
<stop stop-color="#1123A5"/>
<stop offset="0.37" stop-color="#2A3EC7"/>
<stop offset="1" stop-color="#546CFF"/>
</linearGradient>
<linearGradient id="paint19_linear_517_1391" x1="117.181" y1="77.2101" x2="117.181" y2="50.2998" gradientUnits="userSpaceOnUse">
<stop stop-color="#1123A5"/>
<stop offset="0.37" stop-color="#2A3EC7"/>
<stop offset="1" stop-color="#546CFF"/>
</linearGradient>
<clipPath id="clip0_517_1391">
<rect width="136" height="117" fill="white"/>
</clipPath>
</defs>
</svg>
