<svg width="848" height="258" viewBox="0 0 848 258" fill="none" xmlns="http://www.w3.org/2000/svg">
<g clip-path="url(#clip0_1239_3985)">
<path d="M49.5 257.999C76.8381 257.999 99 245.309 99 229.656C99 214.002 76.8381 201.312 49.5 201.312C22.1619 201.312 0 214.002 0 229.656C0 245.309 22.1619 257.999 49.5 257.999Z" fill="#F5F5F5"/>
<path d="M60.7996 255.16L84.8908 241.373C85.4195 241.071 85.4195 240.58 84.8908 240.278L34.1028 211.223C33.574 210.921 32.7196 210.921 32.1909 211.223L8.09967 225.009C7.57094 225.311 7.57094 225.802 8.09967 226.104L58.8877 255.16C59.4164 255.461 60.2708 255.461 60.7996 255.16Z" fill="#E0E0E0"/>
<path d="M10.2856 223.521L12.1743 222.442C12.1743 222.442 12.6374 218.433 12.3286 215.328C11.8972 210.965 9.05473 205.716 5.66238 206.948C2.27214 208.181 7.21685 212.624 8.31873 216.324C9.4185 220.024 10.2856 223.521 10.2856 223.521Z" fill="url(#paint0_linear_1239_3985)"/>
<path opacity="0.15" d="M10.2856 223.521L12.1743 222.442C12.1743 222.442 12.6374 218.433 12.3286 215.328C11.8972 210.965 9.05473 205.716 5.66238 206.948C2.27214 208.181 7.21685 212.624 8.31873 216.324C9.4185 220.024 10.2856 223.521 10.2856 223.521Z" fill="black"/>
<path d="M11.2804 223.068H11.2761C11.2127 223.066 11.164 223.014 11.1662 222.951C11.4982 213.256 6.62963 208.382 6.58098 208.334C6.53657 208.29 6.53445 208.218 6.58098 208.174C6.6254 208.13 6.6973 208.128 6.74172 208.174C6.79248 208.223 11.7308 213.17 11.3946 222.961C11.3925 223.022 11.3417 223.07 11.2804 223.07V223.068Z" fill="white"/>
<path d="M9.27649 224.296L10.6195 223.527C10.6195 223.527 10.8479 220.776 9.48799 217.434C8.30363 214.524 5.36387 212.111 3.88553 212.619C2.40719 213.126 2.44315 214.166 3.16434 215.254C3.88553 216.344 8.26979 218.942 9.27438 224.296H9.27649Z" fill="url(#paint1_linear_1239_3985)"/>
<path d="M9.98379 224.002C9.92034 224.002 9.86958 223.952 9.86958 223.889C9.89708 217.761 4.09159 213.618 4.03237 213.576C3.98161 213.54 3.96892 213.469 4.00487 213.419C4.04083 213.368 4.11274 213.356 4.16349 213.391C4.22271 213.433 10.1255 217.645 10.098 223.891C10.098 223.954 10.0472 224.004 9.98379 224.004V224.002Z" fill="white"/>
<path d="M84.747 235.724C84.7385 235.703 84.7259 235.685 84.711 235.666C84.7026 235.651 84.692 235.643 84.6814 235.628C84.673 235.613 84.6603 235.601 84.6455 235.586C84.6328 235.573 84.6201 235.561 84.6053 235.548C84.5651 235.513 84.5165 235.479 84.4594 235.446L35.2111 207.26C34.7606 207.002 34.0288 207.002 33.5783 207.26L9.43214 221.078C9.39619 221.099 9.36446 221.118 9.33485 221.139C9.32216 221.147 9.31159 221.156 9.30101 221.164C9.2418 221.212 9.19738 221.263 9.16354 221.317C9.15508 221.33 9.14662 221.342 9.14028 221.357C9.12759 221.378 9.11913 221.399 9.1149 221.42C9.11067 221.437 9.10644 221.453 9.10221 221.468C9.09587 221.495 9.09375 221.523 9.09375 221.55C9.09375 221.569 9.09587 221.588 9.09798 221.606C9.10221 221.627 9.10644 221.648 9.1149 221.669C9.12336 221.69 9.13182 221.711 9.14028 221.73C9.19315 221.833 9.28832 221.929 9.43002 222.011L58.6783 250.197C58.8179 250.276 58.9871 250.331 59.1648 250.36C59.2705 250.379 59.3847 250.385 59.4947 250.388C59.6047 250.388 59.7168 250.379 59.8225 250.362C59.8606 250.358 59.8965 250.35 59.9283 250.341C60.0319 250.318 60.1313 250.285 60.2222 250.243C60.254 250.228 60.2815 250.214 60.309 250.197L84.4551 236.379C84.7639 236.2 84.8612 235.949 84.7428 235.724H84.747ZM79.4428 234.724L77.8967 235.609L57.3248 247.375C57.2698 247.404 57.2169 247.434 57.1598 247.457C56.8193 247.595 56.4407 247.595 56.1002 247.457C56.0431 247.434 55.986 247.404 55.9332 247.375L16.8746 225.022L14.986 223.942C14.9119 223.9 14.8548 223.854 14.8083 223.804C14.6116 223.59 14.6729 223.319 14.986 223.139L37.0933 210.486C37.3746 210.327 37.6644 210.212 37.952 210.249C38.0218 210.258 38.0916 210.277 38.1614 210.306C38.1973 210.321 38.2354 210.338 38.2692 210.358L79.4428 233.924C79.7536 234.102 79.7536 234.548 79.4428 234.726V234.724Z" fill="white"/>
<path d="M9.34049 221.141C8.93443 221.426 8.6193 222 8.61719 222.48V223.55C8.61719 224.067 8.98096 224.694 9.43355 224.954L58.6776 253.138C58.849 253.236 59.0583 253.295 59.2762 253.318C59.3481 253.327 59.42 253.331 59.494 253.333H59.4961V250.391C59.384 250.391 59.2741 250.381 59.1662 250.364C58.9885 250.335 58.8193 250.278 58.6798 250.199L9.43567 222.011C9.02114 221.774 8.9873 221.398 9.34049 221.141Z" fill="#37474F"/>
<path d="M71.7077 241.463C70.9167 241.012 69.5843 241.012 68.7933 241.463C68.5902 241.58 68.4401 241.715 68.3576 241.859C68.0953 242.308 68.5754 242.648 68.7933 242.773C69.5843 243.224 70.9167 243.224 71.7077 242.773C71.9086 242.656 72.0587 242.522 72.1433 242.377C72.4056 241.928 71.9234 241.589 71.7077 241.463Z" fill="url(#paint2_linear_1239_3985)"/>
<path d="M23.4857 215.438C23.7057 215.312 23.7057 215.107 23.4857 214.981C23.2658 214.855 22.9084 214.855 22.6884 214.981C22.4684 215.107 22.4684 215.312 22.6884 215.438C22.9084 215.564 23.2658 215.564 23.4857 215.438Z" fill="#263238"/>
<path d="M22.2294 217.601C22.424 217.49 22.424 217.308 22.2294 217.197C22.0349 217.086 21.7176 217.086 21.5209 217.197C21.3264 217.308 21.3264 217.49 21.5209 217.601C21.7155 217.712 22.0327 217.712 22.2294 217.601Z" fill="#263238"/>
<path d="M23.4299 216.929L27.3933 214.661C27.6112 214.537 27.6217 214.342 27.4187 214.225C27.2157 214.107 26.8731 214.114 26.6573 214.239L22.6939 216.508C22.4761 216.631 22.4655 216.826 22.6707 216.944C22.8737 217.061 23.2163 217.055 23.4321 216.929H23.4299Z" fill="#263238"/>
<path d="M84.5704 235.516C84.9088 235.776 84.8728 236.145 84.4626 236.377L60.3164 250.198C60.0922 250.326 59.7961 250.391 59.5 250.391V253.332C59.7982 253.332 60.0901 253.267 60.3143 253.137L84.4604 239.321C84.9109 239.065 85.2768 238.436 85.2768 237.918L85.281 236.847C85.2789 236.373 84.9723 235.807 84.5704 235.518V235.516Z" fill="#263238"/>
<path d="M20.9495 229.431C21.1822 229.565 21.3725 229.875 21.3725 230.124C21.3725 230.246 21.3281 230.33 21.2562 230.368C21.2054 230.395 21.013 230.51 20.9601 230.538C20.884 230.579 20.7761 230.571 20.6555 230.504L15.1652 227.361C14.9325 227.227 14.7422 226.917 14.7422 226.667C14.7422 226.552 14.7824 226.47 14.8479 226.428C14.9008 226.395 15.0996 226.282 15.1525 226.252C15.2286 226.21 15.3365 226.219 15.457 226.286L20.9474 229.428L20.9495 229.431Z" fill="#263238"/>
<path d="M20.6555 229.598L15.1652 226.455C14.9325 226.321 14.7422 226.417 14.7422 226.667C14.7422 226.916 14.9304 227.229 15.1652 227.361L20.6555 230.504C20.8882 230.638 21.0785 230.541 21.0785 230.292C21.0785 230.042 20.8903 229.73 20.6555 229.598Z" fill="white"/>
<path d="M13.6025 225.223C13.8352 225.357 14.0255 225.668 14.0255 225.917C14.0255 226.039 13.9811 226.123 13.9092 226.16C13.8584 226.188 13.666 226.303 13.6131 226.33C13.537 226.372 13.4291 226.364 13.3085 226.297L10.7199 224.814C10.4872 224.68 10.2969 224.37 10.2969 224.12C10.2969 224.005 10.3371 223.923 10.4026 223.881C10.4555 223.848 10.6543 223.735 10.7072 223.705C10.7833 223.663 10.8912 223.672 11.0117 223.739L13.6004 225.221L13.6025 225.223Z" fill="#263238"/>
<path d="M13.3085 225.391L10.7199 223.908C10.4872 223.774 10.2969 223.871 10.2969 224.12C10.2969 224.37 10.4851 224.682 10.7199 224.814L13.3085 226.296C13.5412 226.43 13.7315 226.334 13.7315 226.084C13.7315 225.835 13.5433 225.523 13.3085 225.391Z" fill="white"/>
<path d="M79.4426 234.713L77.8966 235.597L57.3246 247.363C57.2696 247.392 57.2167 247.422 57.1596 247.445C56.8191 247.583 56.4406 247.583 56.1001 247.445C56.043 247.422 55.9859 247.392 55.933 247.363L16.8744 225.01L14.9858 223.93C14.9117 223.888 14.8546 223.842 14.8081 223.792C14.6114 223.578 14.6728 223.307 14.9858 223.127L37.0932 210.475C37.3744 210.315 37.6642 210.2 37.9518 210.238C38.0216 210.246 38.0914 210.265 38.1612 210.294C38.1972 210.309 38.2352 210.326 38.2691 210.347L79.4426 233.912C79.7535 234.09 79.7535 234.536 79.4426 234.715V234.713Z" fill="url(#paint3_linear_1239_3985)"/>
<path opacity="0.8" d="M79.4426 234.713L77.8966 235.597L57.3246 247.363C57.2696 247.392 57.2167 247.422 57.1596 247.445C56.8191 247.583 56.4406 247.583 56.1001 247.445C56.043 247.422 55.9859 247.392 55.933 247.363L16.8744 225.01L14.9858 223.93C14.9117 223.888 14.8546 223.842 14.8081 223.792C14.6114 223.578 14.6728 223.307 14.9858 223.127L37.0932 210.475C37.3744 210.315 37.6642 210.2 37.9518 210.238C38.0216 210.246 38.0914 210.265 38.1612 210.294C38.1972 210.309 38.2352 210.326 38.2691 210.347L79.4426 233.912C79.7535 234.09 79.7535 234.536 79.4426 234.715V234.713Z" fill="white"/>
<path d="M19.654 222.271C19.654 222.271 19.6328 222.266 19.6223 222.26L19.5144 222.197L19.2521 222.346C19.2373 222.354 19.2225 222.354 19.2077 222.346L19.1697 222.323C19.1697 222.323 19.1549 222.313 19.1506 222.31C19.1485 222.306 19.1443 222.302 19.1422 222.296L19.0322 221.914C19.0322 221.914 19.0301 221.902 19.0322 221.897C19.0322 221.893 19.0385 221.889 19.047 221.885L19.0829 221.864C19.0935 221.858 19.1041 221.855 19.1147 221.855C19.1252 221.855 19.1358 221.86 19.1485 221.866L19.5271 222.082L19.5842 222.048C19.5948 222.042 19.6053 222.04 19.6159 222.04C19.6265 222.04 19.6371 222.044 19.6498 222.05L19.6751 222.065C19.6857 222.071 19.692 222.078 19.6942 222.084C19.6942 222.09 19.6899 222.094 19.6794 222.101L19.6223 222.134L19.7301 222.197C19.7407 222.203 19.747 222.21 19.747 222.216C19.747 222.222 19.7428 222.229 19.7301 222.235L19.6857 222.26C19.6751 222.266 19.6646 222.268 19.654 222.268V222.271ZM19.4383 222.136L19.1675 221.981L19.2479 222.245L19.4383 222.136Z" fill="white"/>
<path d="M19.9003 222.056C19.7903 222.052 19.6825 222.019 19.5725 221.958C19.4646 221.897 19.4075 221.834 19.3991 221.771C19.3927 221.708 19.435 221.65 19.5281 221.597C19.5661 221.576 19.6042 221.557 19.6465 221.545C19.6867 221.532 19.7269 221.524 19.7649 221.52C19.7734 221.52 19.7797 221.52 19.784 221.522C19.7861 221.522 19.7903 221.526 19.7924 221.53L19.8157 221.572C19.8157 221.572 19.8178 221.58 19.8157 221.582C19.8157 221.582 19.8094 221.582 19.8009 221.587C19.7396 221.595 19.6825 221.612 19.6317 221.643C19.5683 221.679 19.5408 221.719 19.545 221.763C19.5513 221.807 19.5936 221.853 19.6782 221.899C19.7628 221.947 19.8411 221.972 19.9172 221.977C19.9934 221.981 20.061 221.964 20.1203 221.93C20.1414 221.918 20.1625 221.905 20.1774 221.891C20.1943 221.876 20.2048 221.863 20.2112 221.851L20.0357 221.75L19.9257 221.813C19.9151 221.819 19.9045 221.821 19.894 221.821C19.8834 221.821 19.8728 221.817 19.8601 221.811L19.8347 221.796C19.822 221.79 19.8157 221.784 19.8157 221.777C19.8157 221.771 19.8199 221.767 19.8305 221.761L20.0039 221.66C20.0166 221.654 20.0272 221.65 20.0399 221.652C20.0526 221.652 20.0653 221.656 20.078 221.664L20.3296 221.809C20.3296 221.809 20.3444 221.819 20.3487 221.824C20.3529 221.828 20.3529 221.832 20.3508 221.836C20.3381 221.886 20.2873 221.937 20.2006 221.985C20.1076 222.039 20.006 222.063 19.8961 222.058L19.9003 222.056Z" fill="white"/>
<path d="M22.069 220.774C22.1536 220.823 22.1536 220.9 22.069 220.948C21.9844 220.997 21.8491 220.997 21.7666 220.948C21.682 220.9 21.682 220.823 21.7666 220.774C21.8512 220.726 21.9865 220.726 22.069 220.774Z" fill="white"/>
<path d="M21.5177 220.631C21.3655 220.719 21.3168 220.843 21.376 220.954C21.3887 220.977 21.4268 220.989 21.467 220.987C21.5177 220.983 21.5516 220.954 21.5368 220.926C21.4945 220.849 21.5283 220.761 21.6362 220.698C21.744 220.637 21.8984 220.618 22.0338 220.641C22.0824 220.65 22.1353 220.631 22.1395 220.601C22.1438 220.578 22.1205 220.555 22.0803 220.549C21.8878 220.515 21.6679 220.543 21.5156 220.631H21.5177Z" fill="white"/>
<path d="M21.2729 220.493C21.0466 220.623 20.9641 220.805 21.0296 220.973C21.0381 220.998 21.0783 221.015 21.1227 221.013C21.1734 221.008 21.2052 220.981 21.1946 220.954C21.1417 220.818 21.2073 220.669 21.3934 220.562C21.5795 220.455 21.8397 220.417 22.0786 220.449C22.1273 220.455 22.1759 220.436 22.1802 220.409C22.1844 220.384 22.1548 220.361 22.1125 220.356C21.8206 220.319 21.4991 220.365 21.2729 220.497V220.493Z" fill="white"/>
<path d="M25.7448 218.345C25.7342 218.345 25.7257 218.341 25.7194 218.336C25.7131 218.332 25.7109 218.326 25.7109 218.32L25.7575 218.097C25.7575 218.097 25.7596 218.087 25.7617 218.081C25.7617 218.074 25.768 218.07 25.7744 218.066L25.8526 218.022C25.8526 218.022 25.8696 218.016 25.8801 218.016C25.8907 218.016 25.8992 218.018 25.9076 218.022L26.5569 218.393C26.5569 218.393 26.5675 218.401 26.5675 218.408C26.5675 218.414 26.5633 218.418 26.5569 218.422L26.4765 218.468C26.4765 218.468 26.4596 218.475 26.449 218.475C26.4385 218.475 26.43 218.475 26.4216 218.468L25.9267 218.185L25.8949 218.33C25.8949 218.33 25.8886 218.341 25.8801 218.345C25.8717 218.349 25.8632 218.349 25.8505 218.349L25.7448 218.343V218.345Z" fill="white"/>
<path d="M26.2526 218.056C26.2526 218.056 26.2336 218.052 26.2272 218.047C26.2209 218.043 26.2188 218.037 26.2188 218.031L26.2653 217.808C26.2653 217.808 26.2674 217.798 26.2695 217.792C26.2695 217.785 26.2759 217.781 26.2822 217.777L26.3605 217.733C26.3605 217.733 26.3774 217.727 26.3879 217.727C26.3985 217.727 26.407 217.729 26.4154 217.733L27.0647 218.104C27.0647 218.104 27.0753 218.112 27.0753 218.119C27.0753 218.125 27.0711 218.129 27.0647 218.133L26.9844 218.179C26.9844 218.179 26.9674 218.186 26.9569 218.186C26.9463 218.186 26.9378 218.186 26.9294 218.179L26.4345 217.896L26.4027 218.041C26.4027 218.041 26.3964 218.052 26.3879 218.056C26.3795 218.06 26.371 218.06 26.3583 218.06L26.2526 218.054V218.056Z" fill="white"/>
<path d="M26.8927 217.659C26.8927 217.659 26.9096 217.652 26.9202 217.652C26.9308 217.652 26.9392 217.654 26.9477 217.659L27.0471 217.715C27.0471 217.715 27.0577 217.726 27.0577 217.73C27.0577 217.736 27.0534 217.74 27.0471 217.745L26.954 217.797C26.954 217.797 26.9371 217.803 26.9265 217.803C26.916 217.803 26.9075 217.801 26.899 217.797L26.7996 217.74C26.7996 217.74 26.7891 217.732 26.7891 217.726C26.7891 217.719 26.7933 217.715 26.7996 217.711L26.8927 217.659ZM27.2438 217.86C27.2438 217.86 27.2607 217.854 27.2713 217.854C27.2818 217.854 27.2903 217.856 27.2988 217.86L27.3982 217.917C27.3982 217.917 27.4087 217.927 27.4087 217.931C27.4087 217.937 27.4045 217.942 27.3982 217.946L27.3051 217.998C27.3051 217.998 27.2882 218.005 27.2776 218.005C27.267 218.005 27.2586 218.002 27.2501 217.998L27.1507 217.942C27.1507 217.942 27.1401 217.933 27.1401 217.927C27.1401 217.921 27.1444 217.917 27.1507 217.912L27.2438 217.86Z" fill="white"/>
<path d="M27.9351 217.64C27.9351 217.64 27.9182 217.647 27.9076 217.647C27.8971 217.647 27.8886 217.645 27.8801 217.64L27.7596 217.571L27.4487 217.749C27.4487 217.749 27.4318 217.756 27.4212 217.756C27.4106 217.756 27.4022 217.754 27.3937 217.749L27.3218 217.71C27.3218 217.71 27.307 217.699 27.3028 217.693C27.3006 217.686 27.2985 217.678 27.2964 217.672L27.2203 217.276C27.216 217.259 27.2203 217.246 27.2372 217.238L27.3133 217.194C27.3133 217.194 27.3303 217.188 27.3408 217.188C27.3514 217.188 27.3599 217.19 27.3683 217.194L27.7702 217.424L27.8569 217.374C27.8569 217.374 27.8738 217.368 27.8844 217.368C27.8949 217.368 27.9034 217.37 27.9119 217.374L27.9838 217.414C27.9838 217.414 27.9943 217.422 27.9943 217.429C27.9943 217.435 27.9901 217.439 27.9838 217.443L27.8971 217.494L28.0176 217.563C28.0176 217.563 28.0282 217.571 28.0282 217.577C28.0282 217.584 28.024 217.588 28.0176 217.592L27.9372 217.638L27.9351 217.64ZM27.6348 217.5L27.4191 217.376L27.4614 217.596L27.6327 217.498L27.6348 217.5Z" fill="white"/>
<path d="M27.659 217.021C27.659 217.021 27.6484 217.013 27.6484 217.006C27.6484 217 27.6527 216.996 27.659 216.992L28.0355 216.776C28.0355 216.776 28.0524 216.77 28.063 216.77C28.0735 216.77 28.082 216.77 28.0905 216.776L28.1624 216.816C28.1624 216.816 28.1729 216.826 28.1729 216.83C28.1729 216.837 28.1687 216.841 28.1624 216.845L27.8811 217.006L27.9995 217.086C28.0101 217.071 28.0228 217.059 28.0397 217.048C28.0566 217.038 28.0693 217.029 28.082 217.023C28.1201 217.002 28.1603 216.985 28.2004 216.973C28.2427 216.96 28.285 216.952 28.3294 216.95C28.3717 216.95 28.4162 216.95 28.4563 216.96C28.4986 216.969 28.5388 216.983 28.5748 217.006C28.6171 217.032 28.6467 217.057 28.6636 217.082C28.6805 217.107 28.6869 217.132 28.6826 217.157C28.6784 217.183 28.6657 217.206 28.6425 217.231C28.6192 217.254 28.5896 217.277 28.5536 217.298C28.5071 217.325 28.4627 217.344 28.4183 217.357C28.3739 217.369 28.3316 217.378 28.2914 217.38C28.2512 217.38 28.2131 217.38 28.1793 217.371C28.1433 217.365 28.1137 217.352 28.0862 217.34C28.0778 217.336 28.0735 217.331 28.0735 217.325C28.0735 217.319 28.0778 217.315 28.0862 217.31L28.1687 217.264C28.1687 217.264 28.1835 217.258 28.192 217.258C28.2025 217.258 28.211 217.258 28.2216 217.262C28.2406 217.269 28.2597 217.273 28.2787 217.273C28.2977 217.273 28.3146 217.273 28.3316 217.269C28.3485 217.264 28.3654 217.26 28.3823 217.254C28.3992 217.248 28.414 217.239 28.4288 217.231C28.4669 217.21 28.4881 217.185 28.4902 217.159C28.4923 217.134 28.4754 217.111 28.4394 217.09C28.4098 217.074 28.3717 217.065 28.3294 217.067C28.285 217.067 28.2448 217.08 28.2068 217.103C28.1877 217.113 28.1729 217.124 28.1645 217.132C28.156 217.141 28.1497 217.149 28.1454 217.155C28.1412 217.162 28.1391 217.168 28.1349 217.172C28.1328 217.176 28.1264 217.183 28.1158 217.189L28.0228 217.241C28.0228 217.241 28.0059 217.248 27.9953 217.248C27.9847 217.248 27.9763 217.245 27.9678 217.241L27.6569 217.029L27.659 217.021Z" fill="white"/>
<path d="M16.85 223.97L16.6406 223.851L16.9198 223.691L17.1292 223.811L16.85 223.97Z" fill="white"/>
<path d="M17.2703 223.73L16.8516 223.491L17.1307 223.332L17.5495 223.571L17.2703 223.73Z" fill="white"/>
<path d="M17.6906 223.493L17.0625 223.132L17.3417 222.973L17.9698 223.333L17.6906 223.493Z" fill="white"/>
<path d="M18.1031 223.251L17.2656 222.773L17.5448 222.613L18.3823 223.091L18.1031 223.251Z" fill="white"/>
<path d="M37.0146 211.65C36.9469 211.644 36.8877 211.654 36.8496 211.675L35.8069 212.271C35.7393 212.309 35.7562 212.38 35.8471 212.432L36.2278 212.65C36.2786 212.68 36.3441 212.699 36.4118 212.703C36.4414 212.705 36.4689 212.705 36.4943 212.703C36.5281 212.699 36.5556 212.69 36.5768 212.68L37.6194 212.084C37.6871 212.046 37.6702 211.975 37.5792 211.923L37.1986 211.705C37.1478 211.675 37.0844 211.657 37.0146 211.652V211.65ZM36.4012 212.663C36.3759 212.663 36.3484 212.652 36.323 212.638L35.9423 212.42C35.8767 212.382 35.8619 212.325 35.9127 212.298L36.9553 211.703C36.968 211.696 36.9828 211.69 36.9976 211.69C37.0061 211.69 37.0146 211.69 37.023 211.69C37.0484 211.69 37.0759 211.701 37.1013 211.715L37.482 211.933C37.5475 211.971 37.5623 212.028 37.5116 212.055L36.4689 212.65C36.4499 212.661 36.4245 212.667 36.3991 212.665L36.4012 212.663Z" fill="white"/>
<path d="M36.1795 212.223L36.63 212.481L36.465 212.575C36.4502 212.583 36.4206 212.585 36.41 212.579L36.0759 212.388C36.0272 212.361 36.0166 212.319 36.0526 212.298L36.1795 212.225V212.223Z" fill="white"/>
<path d="M36.2578 212.184L36.4524 212.07L36.9029 212.328L36.7062 212.439L36.2578 212.184Z" fill="white"/>
<path d="M36.5312 212.027L36.7258 211.914L37.1784 212.172L36.9817 212.285L36.5312 212.027Z" fill="white"/>
<path d="M37.0232 211.777L37.3468 211.961C37.406 211.995 37.3933 212.045 37.3129 212.091L37.2474 212.129L36.7969 211.871L36.9534 211.783C36.9724 211.773 37.0105 211.771 37.0232 211.777Z" fill="white"/>
<path d="M37.2404 211.685C37.2679 211.668 37.3546 211.691 37.4328 211.735L37.5026 211.775C37.5809 211.819 37.6211 211.87 37.5936 211.889L37.5449 211.92L37.1875 211.715C37.1875 211.715 37.2108 211.702 37.2383 211.685H37.2404Z" fill="white"/>
<path d="M34.3594 213.391L35.1694 212.695L35.5945 213.297L35.0362 213.146L34.3594 213.391Z" fill="white"/>
<path opacity="0.1" d="M43.653 216.062L25.1875 226.631L43.653 237.229L62.1185 226.631L43.653 216.062Z" fill="black"/>
<path d="M50.8828 237.133V237.267C50.8828 237.483 51.0351 237.745 51.2233 237.852L58.5304 242.035C58.7186 242.142 59.0232 242.142 59.2114 242.035L71.3131 235.11C71.5013 235.003 71.6536 234.741 71.6536 234.525V234.391C71.6536 234.175 71.5013 233.913 71.3131 233.806L64.006 229.623C63.8177 229.516 63.5132 229.516 63.325 229.623L51.2233 236.548C51.0351 236.655 50.8828 236.917 50.8828 237.133Z" fill="url(#paint4_linear_1239_3985)"/>
<path d="M50.8828 237.133V237.267C50.8828 237.483 51.0351 237.745 51.2233 237.852L58.5304 242.035C58.7186 242.142 59.0232 242.142 59.2114 242.035L71.3131 235.11C71.5013 235.003 71.6536 234.741 71.6536 234.525V234.391C71.6536 234.175 71.5013 233.913 71.3131 233.806L64.006 229.623C63.8177 229.516 63.5132 229.516 63.325 229.623L51.2233 236.548C51.0351 236.655 50.8828 236.917 50.8828 237.133Z" fill="url(#paint5_linear_1239_3985)"/>
<path opacity="0.3" d="M71.315 233.806L64.0079 229.623C63.8197 229.516 63.5152 229.516 63.3269 229.623L58.875 232.173V242.116C58.9977 242.116 59.1224 242.089 59.2155 242.035L71.3171 235.11C71.5054 235.003 71.6577 234.741 71.6577 234.525V234.391C71.6577 234.175 71.5054 233.913 71.3171 233.806H71.315Z" fill="white"/>
<path opacity="0.15" d="M71.315 233.806L64.0079 229.623C63.8197 229.516 63.5152 229.516 63.3269 229.623L58.875 232.173V242.116C58.9977 242.116 59.1224 242.089 59.2155 242.035L71.3171 235.11C71.5054 235.003 71.6577 234.741 71.6577 234.525V234.391C71.6577 234.175 71.5054 233.913 71.3171 233.806H71.315Z" fill="black"/>
<path opacity="0.3" d="M58.8709 232.172L51.2233 236.549C51.0351 236.656 50.8828 236.918 50.8828 237.134V237.269C50.8828 237.484 51.0351 237.747 51.2233 237.853L58.5304 242.036C58.6235 242.091 58.7482 242.118 58.8709 242.118V232.174V232.172Z" fill="white"/>
<path opacity="0.2" d="M58.8709 232.172L51.2233 236.549C51.0351 236.656 50.8828 236.918 50.8828 237.134V237.269C50.8828 237.484 51.0351 237.747 51.2233 237.853L58.5304 242.036C58.6235 242.091 58.7482 242.118 58.8709 242.118V232.174V232.172Z" fill="black"/>
<path d="M57.3646 240.454L51.2271 236.942C51.0389 236.835 51.0389 236.659 51.2271 236.552L63.3288 229.627C63.517 229.52 63.8215 229.52 64.0098 229.627L71.3169 233.81C71.5051 233.917 71.5051 234.093 71.3169 234.2L69.3098 235.349L68.6076 235.751L59.2173 241.127C59.0291 241.233 58.7245 241.233 58.5363 241.127L57.942 240.785L57.3668 240.456L57.3646 240.454Z" fill="url(#paint6_linear_1239_3985)"/>
<path opacity="0.3" d="M57.3646 240.454L51.2271 236.942C51.0389 236.835 51.0389 236.659 51.2271 236.552L63.3288 229.627C63.517 229.52 63.8215 229.52 64.0098 229.627L71.3169 233.81C71.5051 233.917 71.5051 234.093 71.3169 234.2L69.3098 235.349L68.6076 235.751L59.2173 241.127C59.0291 241.233 58.7245 241.233 58.5363 241.127L57.942 240.785L57.3668 240.456L57.3646 240.454Z" fill="white"/>
<path opacity="0.15" d="M62.9348 234.619L71.3163 233.808L63.0088 234.273L64.0071 229.625C63.9056 229.566 63.7702 229.543 63.637 229.547L62.0698 235.831L51.087 236.728C51.0785 236.803 51.1229 236.881 51.2244 236.94L60.0945 236.43L58.8741 241.204L60.435 236.411L61.9492 236.323C62.1396 236.313 62.313 236.235 62.4484 236.116C62.5753 236.003 62.6662 235.854 62.7043 235.68L62.9327 234.619H62.9348Z" fill="black"/>
<path opacity="0.3" d="M53.7042 236.514L62.0667 235.83L62.367 234.641L62.532 233.981L63.6359 229.547C63.5217 229.551 63.4118 229.574 63.3251 229.624L57.2742 233.088L51.2234 236.551C51.1367 236.602 51.0923 236.665 51.0859 236.73L52.7631 236.593L53.7063 236.516L53.7042 236.514Z" fill="white"/>
<path d="M62.2836 228.633C63.047 228.195 64.2864 228.195 65.052 228.633C65.8176 229.071 65.8155 229.78 65.052 230.218C64.2885 230.656 63.0492 230.656 62.2836 230.218C61.5201 229.78 61.5201 229.071 62.2836 228.633Z" fill="#F28F8F"/>
<path d="M62.6982 229.687C62.6728 229.687 62.6538 229.679 62.6411 229.668C62.6284 229.658 62.6221 229.643 62.6263 229.63L62.7405 229.131C62.7447 229.119 62.7469 229.104 62.7532 229.087C62.7574 229.071 62.7722 229.056 62.7955 229.041L63.0747 228.882C63.0916 228.873 63.1127 228.867 63.136 228.867C63.1593 228.867 63.1804 228.871 63.1973 228.882L64.6799 229.731C64.6968 229.739 64.7053 229.752 64.7053 229.767C64.7053 229.781 64.6968 229.792 64.6799 229.802L64.3796 229.974C64.3627 229.985 64.3415 229.989 64.3183 229.989C64.295 229.989 64.2738 229.985 64.2569 229.974L63.2544 229.4L63.1889 229.674C63.1868 229.689 63.1741 229.7 63.155 229.708C63.136 229.716 63.1149 229.72 63.0895 229.718L62.7003 229.689L62.6982 229.687Z" fill="#FAFAFA"/>
<path d="M25.5547 220.093L43.6522 209.734L61.7496 220.093L43.6522 230.452L25.5547 220.093Z" fill="black"/>
<path d="M43.653 209.735V192.023L25.1875 202.59L40.6371 211.462L43.653 209.735Z" fill="#37474F"/>
<path d="M43.6562 192.023V209.735L46.6721 211.462L62.1217 202.59L43.6562 192.023Z" fill="#263238"/>
<path d="M25.1875 202.59V219.884L43.653 230.453V213.188L25.1875 202.59Z" fill="url(#paint7_linear_1239_3985)"/>
<g opacity="0.38">
<path d="M25.1875 202.59V219.884L43.653 230.453V213.188L25.1875 202.59Z" fill="black"/>
</g>
<path d="M43.6562 213.188V230.453L62.1217 219.884V202.59L43.6562 213.188Z" fill="url(#paint8_linear_1239_3985)"/>
<g opacity="0.23">
<path d="M43.6562 213.188V230.453L62.1217 219.884V202.59L43.6562 213.188Z" fill="black"/>
</g>
<path opacity="0.7" d="M43.6562 213.188L44.02 229.792L57.4308 222.567L43.6562 230.452V213.188Z" fill="white"/>
<path d="M48.615 225.917C48.56 225.917 48.5156 225.873 48.5156 225.819V223.63C48.5156 223.575 48.56 223.531 48.615 223.531C48.67 223.531 48.7144 223.575 48.7144 223.63V225.819C48.7144 225.873 48.67 225.917 48.615 225.917Z" fill="#F0F0F0"/>
<path d="M48.3235 224.388C48.3108 224.388 48.2982 224.386 48.2855 224.38C48.2347 224.359 48.2136 224.3 48.2347 224.252L48.5858 223.449L48.977 223.898C49.013 223.938 49.0088 224.001 48.9665 224.036C48.9263 224.07 48.8628 224.068 48.8269 224.026L48.6408 223.812L48.4145 224.33C48.3976 224.365 48.3616 224.388 48.3235 224.388Z" fill="#F0F0F0"/>
<path d="M49.5291 225.401C49.4741 225.401 49.4297 225.357 49.4297 225.303V223.114C49.4297 223.06 49.4741 223.016 49.5291 223.016C49.5841 223.016 49.6285 223.06 49.6285 223.114V225.303C49.6285 225.357 49.5841 225.401 49.5291 225.401Z" fill="#F0F0F0"/>
<path d="M49.2376 223.873C49.2249 223.873 49.2122 223.871 49.1995 223.864C49.1488 223.843 49.1276 223.785 49.1488 223.737L49.4998 222.934L49.8911 223.38C49.9271 223.42 49.9228 223.483 49.8805 223.519C49.8382 223.554 49.7769 223.55 49.7409 223.508L49.5548 223.294L49.3285 223.812C49.3116 223.848 49.2757 223.871 49.2376 223.871V223.873Z" fill="#F0F0F0"/>
<path d="M45.9841 227.404C45.946 227.404 45.908 227.395 45.8762 227.376C45.8022 227.335 45.7578 227.249 45.7578 227.142V226.873C45.7578 226.819 45.8022 226.775 45.8572 226.775C45.9122 226.775 45.9566 226.819 45.9566 226.873V227.142C45.9566 227.182 45.9672 227.202 45.9757 227.207C45.982 227.213 46.0053 227.209 46.0391 227.19C46.1258 227.14 46.2231 226.947 46.2231 226.748V225.626C46.2231 225.571 46.2675 225.527 46.3225 225.527C46.3775 225.527 46.4219 225.571 46.4219 225.626V226.748C46.4219 227.003 46.3013 227.265 46.1406 227.358C46.0877 227.387 46.0349 227.404 45.9862 227.404H45.9841Z" fill="#F0F0F0"/>
<path d="M44.9453 226.499V226.329C44.9453 225.533 45.51 224.562 46.2058 224.166C46.5611 223.962 46.9016 223.933 47.1618 224.082C47.4219 224.231 47.5657 224.537 47.5657 224.944V225L44.9453 226.499ZM46.7959 224.182C46.6478 224.182 46.4808 224.233 46.3052 224.333C45.7151 224.671 45.2266 225.459 45.1526 226.153L47.3669 224.885C47.3563 224.579 47.2485 224.354 47.0624 224.247C46.9841 224.203 46.8932 224.18 46.7959 224.18V224.182Z" fill="#F0F0F0"/>
<path d="M43.653 192.023L25.1875 202.59L43.653 213.188L62.1185 202.59L43.653 192.023Z" fill="url(#paint9_linear_1239_3985)"/>
<path opacity="0.1" d="M43.653 192.023L25.1875 202.59L43.653 213.188L62.1185 202.59L43.653 192.023Z" fill="black"/>
<path opacity="0.7" d="M25.1875 202.59L43.653 212.534L62.1185 202.59L43.653 213.188L25.1875 202.59Z" fill="white"/>
<path d="M32.8516 198.203L51.3318 208.78L54.1743 207.149L35.6961 196.574L32.8516 198.203Z" fill="white"/>
<path d="M54.1727 207.148V210.731L53.8301 210.536L53.4727 211.149L53.1152 210.941L52.7578 211.557L52.4004 211.35L52.043 211.962L51.6855 211.761L51.3281 212.371V208.78L54.1727 207.148Z" fill="url(#paint10_linear_1239_3985)"/>
<path d="M54.1727 207.148V210.731L53.8301 210.536L53.4727 211.149L53.1152 210.941L52.7578 211.557L52.4004 211.35L52.043 211.962L51.6855 211.761L51.3281 212.371V208.78L54.1727 207.148Z" fill="#37474F"/>
<path d="M30.5728 182.324L28.3099 183.62L26.0469 184.916L27.798 189.473C27.8382 189.578 27.9059 189.654 27.9863 189.702C28.2295 189.849 30.5961 191.193 30.6765 191.241C30.9197 191.388 31.2813 191.289 31.368 190.966L33.263 183.865L30.5728 182.326V182.324Z" fill="url(#paint11_linear_1239_3985)"/>
<g opacity="0.2">
<path d="M30.5728 182.324L28.3099 183.62L26.0469 184.916L27.798 189.473C27.8382 189.578 27.9059 189.654 27.9863 189.702C28.2295 189.849 30.5961 191.193 30.6765 191.241C30.9197 191.388 31.2813 191.289 31.368 190.966L33.263 183.865L30.5728 182.326V182.324Z" fill="black"/>
</g>
<path d="M28.7422 186.451L31.0052 185.155L33.2681 183.859L31.3732 190.96C31.259 191.392 30.6541 191.424 30.4934 191.006L28.7422 186.449V186.451Z" fill="url(#paint12_linear_1239_3985)"/>
<path d="M44.449 169.563C44.449 168.668 44.136 168.037 43.6284 167.737C43.1441 167.452 41.3971 166.462 40.9149 166.188C40.3968 165.892 39.684 165.936 38.8931 166.387L15.7578 179.627V190.916L18.448 192.453L41.5833 179.214C43.1673 178.308 44.4511 176.102 44.4511 174.291V169.563H44.449Z" fill="url(#paint13_linear_1239_3985)"/>
<g opacity="0.5">
<path d="M44.449 169.563C44.449 168.668 44.136 168.037 43.6284 167.737C43.1441 167.452 41.3971 166.462 40.9149 166.188C40.3968 165.892 39.684 165.936 38.8931 166.387L15.7578 179.627V190.916L18.448 192.453L41.5833 179.214C43.1673 178.308 44.4511 176.102 44.4511 174.291V169.563H44.449Z" fill="white"/>
</g>
<path d="M41.5806 179.213C43.1646 178.307 44.4484 176.102 44.4484 174.29V169.565C44.4484 167.751 43.1646 167.017 41.5806 167.923L18.4453 181.163V192.453L41.5806 179.213Z" fill="url(#paint14_linear_1239_3985)"/>
<path d="M19.847 177.858L19.8343 177.852L16.6746 176.043C16.6746 176.043 16.6746 176.043 16.6724 176.043L16.6534 176.034C15.1814 175.294 13.2188 175.494 11.1017 176.846C6.84647 179.563 3.59581 185.825 3.84115 190.836C3.96381 193.333 4.92188 195.073 6.38964 195.828L6.40233 195.834L9.56627 197.639L9.58107 197.648C11.0531 198.39 13.0221 198.172 15.1433 196.819C19.3986 194.102 22.6492 187.84 22.4018 182.829C22.2791 180.332 21.3105 178.617 19.8448 177.863L19.847 177.858Z" fill="#37474F"/>
<path d="M9.46061 197.577L6.40453 195.828H6.40242L6.38761 195.82C4.92197 195.063 3.96179 193.323 3.84124 190.83C3.73126 188.595 4.31921 186.113 5.37668 183.809L8.53216 185.637C7.47046 187.941 6.88674 190.423 6.99672 192.658C7.11727 195.103 8.04572 196.795 9.46061 197.577Z" fill="#263238"/>
<path d="M15.1465 196.816C19.4017 194.099 22.6523 187.836 22.4049 182.826C22.1596 177.815 18.5113 175.955 14.2561 178.67C10.0008 181.388 6.75017 187.65 6.99762 192.661C7.24295 197.671 10.8912 199.531 15.1465 196.816Z" fill="white"/>
<path d="M14.2027 187.28C13.9848 187.28 13.7776 187.227 13.5914 187.12C13.0923 186.835 12.8047 186.194 12.8047 185.362C12.8047 183.862 13.7353 182.108 14.8773 181.454C15.4187 181.143 15.9517 181.108 16.3768 181.351C16.8759 181.636 17.1636 182.278 17.1636 183.11C17.1636 184.611 16.233 186.364 15.0909 187.018C14.7864 187.192 14.4839 187.28 14.2027 187.28ZM15.7656 181.613C15.5583 181.613 15.3278 181.682 15.0909 181.818C14.0652 182.405 13.2298 183.995 13.2298 185.362C13.2298 186.039 13.4392 186.548 13.8029 186.758C14.0927 186.923 14.4734 186.886 14.8794 186.655C15.9052 186.068 16.7406 184.477 16.7406 183.112C16.7406 182.435 16.5312 181.925 16.1674 181.718C16.049 181.649 15.9136 181.615 15.7677 181.615L15.7656 181.613Z" fill="url(#paint15_linear_1239_3985)"/>
<path d="M11.1267 186.772C11.0526 186.772 10.9828 186.734 10.9427 186.667C10.8834 186.567 10.9194 186.439 11.0209 186.38L12.9159 185.294C13.0174 185.235 13.1464 185.271 13.2056 185.372C13.2649 185.472 13.2289 185.6 13.1274 185.659L11.2324 186.745C11.1986 186.764 11.1626 186.772 11.1267 186.772Z" fill="url(#paint16_linear_1239_3985)"/>
<path d="M12.2848 191.701C12.2552 191.701 12.2277 191.695 12.2003 191.684C12.1389 191.657 12.0945 191.604 12.0776 191.539L10.7008 185.707C10.6944 185.678 10.669 185.585 10.6119 185.575L10.079 185.476C9.96477 185.455 9.88863 185.344 9.90978 185.231C9.93093 185.118 10.0409 185.044 10.1572 185.063L10.6902 185.162C10.8996 185.202 11.054 185.365 11.1132 185.61L12.4244 191.168L17.2444 188.409C17.384 188.33 17.5214 188.107 17.5616 187.892L18.4858 182.919C18.5176 182.742 18.4774 182.646 18.4541 182.629C18.4499 182.627 18.4245 182.627 18.3822 182.652L17.0583 183.411C16.9567 183.47 16.8277 183.434 16.7685 183.334C16.7093 183.233 16.7452 183.105 16.8468 183.046L18.1707 182.287C18.3568 182.181 18.5493 182.181 18.6994 182.285C18.8856 182.415 18.9617 182.68 18.9025 182.994L17.9782 187.967C17.9148 188.307 17.7054 188.629 17.458 188.772L12.3906 191.672C12.3589 191.69 12.3208 191.699 12.2848 191.699V191.701Z" fill="url(#paint17_linear_1239_3985)"/>
<path d="M12.0198 193.452C11.9246 193.452 11.8336 193.428 11.7533 193.38C11.5481 193.263 11.4297 193.011 11.4297 192.693C11.4297 192.158 11.7533 191.552 12.1657 191.315L17.2458 188.407C17.3473 188.349 17.4763 188.384 17.5355 188.485C17.5947 188.585 17.5588 188.713 17.4572 188.772L12.3772 191.68C12.0917 191.843 11.8527 192.307 11.8527 192.693C11.8527 192.883 11.9098 192.986 11.9648 193.018C12.0261 193.053 12.117 193.011 12.1657 192.984L17.6032 189.873C17.7047 189.814 17.8337 189.85 17.8929 189.95C17.9521 190.051 17.9162 190.179 17.8147 190.238L12.3772 193.349C12.2566 193.418 12.1361 193.454 12.0198 193.454V193.452Z" fill="url(#paint18_linear_1239_3985)"/>
<path d="M12.7349 195.507C12.6397 195.507 12.5488 195.484 12.4663 195.436C12.2591 195.316 12.1406 195.065 12.1406 194.744C12.1406 194.205 12.4663 193.595 12.883 193.358C13.105 193.232 13.3271 193.22 13.5111 193.324C13.7184 193.444 13.8368 193.696 13.8368 194.016C13.8368 194.555 13.5111 195.165 13.0945 195.402C12.9739 195.471 12.8512 195.507 12.7349 195.507ZM13.2404 193.675C13.1875 193.675 13.1304 193.702 13.0945 193.723C12.8068 193.886 12.5636 194.356 12.5636 194.746C12.5636 194.941 12.6228 195.044 12.6778 195.075C12.7413 195.111 12.8322 195.071 12.883 195.042C13.1706 194.878 13.4138 194.408 13.4138 194.018C13.4138 193.826 13.3546 193.721 13.2996 193.689C13.2827 193.679 13.2615 193.675 13.2404 193.675Z" fill="url(#paint19_linear_1239_3985)"/>
<path d="M16.3052 193.464C16.2101 193.464 16.1191 193.441 16.0366 193.393C15.8294 193.273 15.7109 193.022 15.7109 192.701C15.7109 192.162 16.0366 191.552 16.4533 191.315C16.6753 191.189 16.8974 191.177 17.0814 191.282C17.2887 191.401 17.4071 191.653 17.4071 191.973C17.4071 192.512 17.0814 193.122 16.6648 193.359C16.5442 193.428 16.4216 193.464 16.3052 193.464ZM16.8107 191.632C16.7578 191.632 16.7007 191.659 16.6648 191.68C16.3771 191.843 16.1339 192.313 16.1339 192.703C16.1339 192.898 16.1931 193.001 16.2481 193.032C16.3116 193.068 16.4046 193.028 16.4533 192.999C16.7409 192.835 16.9841 192.365 16.9841 191.975C16.9841 191.783 16.9249 191.678 16.8699 191.646C16.853 191.636 16.8319 191.632 16.8107 191.632Z" fill="url(#paint20_linear_1239_3985)"/>
<path d="M14.2438 193.874C14.1698 193.874 14.1 193.836 14.0598 193.769C14.0006 193.668 14.0366 193.541 14.1381 193.482L15.1977 192.876C15.2992 192.817 15.4282 192.853 15.4874 192.954C15.5466 193.054 15.5107 193.182 15.4092 193.241L14.3496 193.847C14.3158 193.866 14.2798 193.874 14.2438 193.874Z" fill="url(#paint21_linear_1239_3985)"/>
<path d="M14.6727 185.627C14.6198 185.627 14.569 185.608 14.5289 185.573L13.8965 184.998C13.8098 184.921 13.8056 184.787 13.8838 184.703C13.9621 184.617 14.0974 184.613 14.182 184.69L14.6008 185.07L15.7344 182.606C15.783 182.501 15.9078 182.455 16.0157 182.504C16.1214 182.552 16.1679 182.675 16.1193 182.782L14.863 185.508C14.8355 185.569 14.7784 185.613 14.7129 185.625C14.6981 185.627 14.6854 185.629 14.6706 185.629L14.6727 185.627Z" fill="url(#paint22_linear_1239_3985)"/>
<path d="M27.7407 178.639C27.7471 178.478 27.7682 178.319 27.8084 178.155C27.8486 177.994 27.9036 177.841 27.9776 177.696C28.0495 177.551 28.1383 177.419 28.242 177.3C28.3456 177.18 28.4661 177.08 28.6036 177.002C28.7369 176.924 28.8574 176.887 28.9632 176.887C29.0689 176.887 29.1577 176.918 29.2296 176.979C29.3015 177.04 29.3586 177.128 29.3988 177.245C29.439 177.363 29.4602 177.497 29.4665 177.652C29.4707 177.769 29.4728 177.895 29.4728 178.027C29.4728 178.159 29.4729 178.285 29.4665 178.403C29.4602 178.564 29.439 178.723 29.3988 178.887C29.3586 179.048 29.3037 179.203 29.2296 179.348C29.1577 179.495 29.0689 179.627 28.9632 179.744C28.8574 179.864 28.739 179.962 28.6036 180.038C28.4661 180.115 28.3477 180.155 28.242 180.155C28.1383 180.155 28.0495 180.126 27.9776 180.063C27.9057 180 27.8486 179.912 27.8084 179.795C27.7682 179.677 27.7471 179.543 27.7407 179.388C27.7365 179.275 27.7344 179.153 27.7344 179.021C27.7344 178.889 27.7344 178.761 27.7407 178.637V178.639ZM28.9547 178.675C28.9547 178.623 28.9589 178.566 28.961 178.503C28.961 178.44 28.9632 178.377 28.9632 178.312C28.9632 178.247 28.9632 178.187 28.961 178.126C28.961 178.067 28.9568 178.013 28.9547 177.966C28.9505 177.899 28.942 177.839 28.9251 177.788C28.9103 177.738 28.887 177.7 28.8595 177.673C28.8299 177.646 28.7961 177.631 28.7538 177.631C28.7115 177.631 28.6607 177.646 28.6036 177.679C28.5465 177.713 28.4958 177.753 28.4535 177.803C28.4112 177.853 28.3752 177.908 28.3477 177.966C28.3202 178.027 28.2969 178.09 28.2821 178.157C28.2673 178.226 28.2568 178.296 28.2525 178.369C28.2483 178.419 28.2462 178.474 28.2462 178.535C28.2462 178.595 28.2462 178.658 28.2462 178.723C28.2462 178.788 28.2462 178.851 28.2462 178.912C28.2462 178.973 28.2483 179.029 28.2525 179.078C28.2589 179.214 28.2906 179.312 28.3477 179.373C28.4048 179.434 28.4894 179.432 28.6036 179.367C28.7178 179.302 28.8024 179.208 28.8574 179.082C28.9124 178.956 28.9441 178.822 28.9547 178.677V178.675Z" fill="#FAFAFA"/>
<path d="M30.6118 175.896C30.7323 175.826 30.8423 175.782 30.9375 175.768C31.0326 175.753 31.1151 175.766 31.1828 175.805C31.2505 175.845 31.3012 175.916 31.3372 176.019C31.3731 176.122 31.3901 176.254 31.3901 176.415C31.3901 176.627 31.3605 176.818 31.3034 176.99C31.2462 177.162 31.1659 177.315 31.0601 177.447L31.4028 178.254C31.4091 178.269 31.4112 178.281 31.4112 178.296C31.4112 178.321 31.4049 178.346 31.3943 178.372C31.3816 178.397 31.3689 178.413 31.352 178.424L30.9755 178.64C30.9396 178.661 30.9121 178.663 30.8973 178.646C30.8825 178.629 30.8698 178.613 30.8592 178.592L30.5526 177.864L30.2988 178.011V178.912C30.2988 178.944 30.2924 178.975 30.2776 179.005C30.2628 179.036 30.2459 179.057 30.2247 179.068L29.8631 179.275C29.8419 179.288 29.825 179.286 29.8102 179.271C29.7954 179.256 29.7891 179.233 29.7891 179.204V176.48C29.7891 176.449 29.7954 176.418 29.8102 176.388C29.825 176.357 29.8419 176.336 29.8631 176.323L30.6118 175.896ZM30.2988 177.353L30.6118 177.174C30.69 177.13 30.7535 177.072 30.8042 176.998C30.855 176.925 30.8804 176.828 30.8804 176.711C30.8804 176.594 30.855 176.527 30.8042 176.51C30.7535 176.493 30.69 176.51 30.6118 176.552L30.2988 176.73V177.355V177.353Z" fill="#FAFAFA"/>
<path d="M32.5146 174.809C32.6415 174.735 32.7578 174.698 32.8636 174.695C32.9693 174.693 33.0603 174.723 33.1364 174.781C33.2125 174.842 33.2718 174.932 33.3162 175.052C33.3585 175.171 33.3838 175.316 33.3902 175.484C33.3902 175.542 33.3923 175.595 33.3923 175.645V175.926C33.3923 175.974 33.3923 176.027 33.3902 176.083C33.3838 176.262 33.3606 176.433 33.3183 176.601C33.276 176.769 33.2168 176.926 33.1427 177.073C33.0687 177.22 32.9799 177.352 32.8763 177.467C32.7726 177.582 32.6584 177.679 32.5315 177.752L31.785 178.18C31.7638 178.192 31.7469 178.19 31.7321 178.176C31.7173 178.161 31.7109 178.14 31.7109 178.109V175.385C31.7109 175.354 31.7173 175.324 31.7321 175.293C31.7469 175.261 31.7638 175.241 31.785 175.23L32.5167 174.811L32.5146 174.809ZM32.8763 175.76C32.8657 175.444 32.7388 175.354 32.4998 175.49L32.2185 175.651V177.253L32.5146 177.083C32.7473 176.951 32.8678 176.721 32.8763 176.392C32.8763 176.331 32.8784 176.276 32.8784 176.224V175.922C32.8784 175.872 32.8784 175.817 32.8763 175.758V175.76Z" fill="#FAFAFA"/>
<path d="M35.0884 175.612C35.1096 175.6 35.1265 175.602 35.1413 175.617C35.1561 175.631 35.1624 175.654 35.1624 175.684V176.13C35.1624 176.162 35.1561 176.193 35.1413 176.222C35.1265 176.254 35.1096 176.275 35.0884 176.287L33.7793 177.036C33.7581 177.048 33.7412 177.046 33.7264 177.032C33.7116 177.017 33.7031 176.996 33.7031 176.965V174.241C33.7031 174.21 33.7095 174.178 33.7264 174.149C33.7412 174.118 33.7581 174.097 33.7793 174.086L35.0673 173.348C35.0863 173.336 35.1053 173.338 35.1201 173.352C35.1349 173.367 35.1413 173.388 35.1413 173.419V173.866C35.1413 173.897 35.1349 173.929 35.1201 173.958C35.1053 173.99 35.0884 174.011 35.0673 174.021L34.2171 174.507V174.962L35.008 174.51C35.0292 174.499 35.0461 174.499 35.0609 174.514C35.0757 174.528 35.0821 174.549 35.0821 174.581V175.027C35.0821 175.059 35.0736 175.09 35.0609 175.12C35.0461 175.151 35.0292 175.172 35.008 175.183L34.2171 175.635V176.107L35.0905 175.608L35.0884 175.612Z" fill="#FAFAFA"/>
<path d="M36.305 172.638C36.4255 172.569 36.5355 172.525 36.6307 172.51C36.7258 172.495 36.8083 172.508 36.876 172.548C36.9437 172.587 36.9944 172.659 37.0304 172.761C37.0663 172.864 37.0833 172.996 37.0833 173.158C37.0833 173.369 37.0537 173.56 36.9987 173.732C36.9416 173.904 36.8612 174.057 36.7554 174.189L37.0981 174.996C37.1044 175.011 37.1065 175.024 37.1065 175.038C37.1065 175.063 37.1002 175.089 37.0896 175.114C37.0769 175.139 37.0642 175.156 37.0473 175.166L36.6708 175.382C36.6349 175.403 36.6074 175.405 36.5926 175.388C36.5778 175.372 36.5651 175.355 36.5545 175.334L36.2479 174.606L35.9941 174.753V175.655C35.9941 175.686 35.9877 175.718 35.9729 175.747C35.9581 175.778 35.9412 175.799 35.9201 175.81L35.5584 176.017C35.5372 176.03 35.5203 176.028 35.5055 176.013C35.4907 175.998 35.4844 175.975 35.4844 175.946V173.223C35.4844 173.191 35.4907 173.16 35.5055 173.13C35.5203 173.099 35.5372 173.078 35.5584 173.065L36.3071 172.638H36.305ZM35.992 174.095L36.305 173.917C36.3832 173.873 36.4467 173.814 36.4974 173.74C36.5482 173.667 36.5736 173.571 36.5736 173.451C36.5736 173.332 36.5482 173.267 36.4974 173.25C36.4467 173.233 36.3832 173.25 36.305 173.292L35.992 173.47V174.095Z" fill="#FAFAFA"/>
<path d="M24.7817 184.732C24.7817 184.77 24.7774 184.82 24.7774 184.887C24.7774 184.952 24.7774 185.019 24.7774 185.089C24.7774 185.158 24.7774 185.225 24.7774 185.29C24.7774 185.355 24.7796 185.405 24.7817 185.441C24.7859 185.504 24.7944 185.56 24.807 185.613C24.8197 185.665 24.8409 185.705 24.8684 185.734C24.8959 185.764 24.9318 185.78 24.9741 185.783C25.0164 185.785 25.0693 185.768 25.1327 185.732C25.1962 185.697 25.247 185.655 25.2871 185.611C25.3273 185.565 25.3612 185.518 25.3865 185.472C25.4119 185.426 25.4331 185.378 25.4458 185.332C25.4606 185.284 25.4711 185.242 25.4775 185.204C25.4859 185.154 25.4965 185.116 25.5071 185.091C25.5177 185.066 25.5388 185.045 25.5705 185.026L25.9322 184.818C25.9491 184.808 25.9639 184.81 25.9745 184.82C25.9872 184.831 25.9935 184.85 25.9935 184.875C25.9935 185.019 25.9681 185.168 25.9237 185.319C25.8793 185.47 25.818 185.615 25.7418 185.753C25.6657 185.892 25.5727 186.015 25.469 186.131C25.3654 186.244 25.2512 186.336 25.1306 186.405C24.9974 186.481 24.879 186.518 24.7753 186.518C24.6717 186.518 24.5829 186.487 24.5088 186.424C24.4348 186.363 24.3777 186.273 24.3396 186.156C24.2995 186.038 24.2783 185.904 24.272 185.753C24.2677 185.64 24.2656 185.516 24.2656 185.384C24.2656 185.252 24.2656 185.124 24.272 185.003C24.2762 184.845 24.2973 184.686 24.3375 184.525C24.3777 184.363 24.4348 184.208 24.5067 184.063C24.5786 183.919 24.6675 183.785 24.7732 183.665C24.879 183.546 24.9974 183.447 25.1285 183.369C25.2491 183.3 25.3633 183.263 25.4669 183.258C25.5705 183.254 25.6615 183.275 25.7397 183.323C25.818 183.372 25.8772 183.447 25.9216 183.548C25.966 183.648 25.9893 183.77 25.9914 183.912C25.9914 183.938 25.9851 183.963 25.9724 183.988C25.9597 184.013 25.947 184.03 25.9301 184.04L25.5684 184.248C25.5367 184.267 25.5156 184.269 25.505 184.256C25.4944 184.244 25.4838 184.219 25.4754 184.179C25.469 184.149 25.4584 184.118 25.4436 184.086C25.4288 184.055 25.4098 184.03 25.3844 184.013C25.359 183.996 25.3252 183.988 25.285 183.988C25.2448 183.988 25.192 184.007 25.1306 184.042C25.0672 184.078 25.0164 184.122 24.972 184.172C24.9297 184.223 24.8959 184.279 24.8663 184.34C24.8388 184.401 24.8176 184.464 24.8049 184.531C24.7922 184.598 24.7838 184.663 24.7796 184.73L24.7817 184.732Z" fill="#FAFAFA"/>
<path d="M26.2173 183.893C26.2236 183.732 26.2448 183.573 26.285 183.409C26.3251 183.248 26.3801 183.095 26.4542 182.95C26.5261 182.805 26.6149 182.673 26.7185 182.554C26.8222 182.434 26.9427 182.334 27.0802 182.256C27.2155 182.178 27.334 182.141 27.4397 182.141C27.5455 182.141 27.6343 182.172 27.7062 182.233C27.7781 182.294 27.8352 182.382 27.8754 182.499C27.9156 182.617 27.9367 182.751 27.9431 182.906C27.9473 183.023 27.9494 183.149 27.9494 183.281C27.9494 183.413 27.9494 183.539 27.9431 183.656C27.9367 183.818 27.9156 183.977 27.8754 184.141C27.8352 184.302 27.7802 184.457 27.7062 184.602C27.6343 184.749 27.5455 184.881 27.4397 184.998C27.334 185.118 27.2155 185.216 27.0802 185.292C26.9427 185.369 26.8243 185.409 26.7185 185.409C26.6149 185.409 26.5261 185.38 26.4542 185.317C26.3822 185.254 26.3251 185.166 26.285 185.049C26.2448 184.931 26.2236 184.797 26.2173 184.642C26.2131 184.529 26.2109 184.407 26.2109 184.275C26.2109 184.143 26.2109 184.015 26.2173 183.891V183.893ZM27.4313 183.929C27.4313 183.877 27.4355 183.82 27.4376 183.757C27.4376 183.694 27.4397 183.631 27.4397 183.566C27.4397 183.501 27.4397 183.44 27.4376 183.38C27.4376 183.321 27.4334 183.266 27.4313 183.22C27.427 183.153 27.4186 183.092 27.4016 183.042C27.3868 182.992 27.3636 182.954 27.3361 182.927C27.3065 182.9 27.2726 182.885 27.2303 182.885C27.188 182.885 27.1373 182.9 27.0802 182.933C27.0231 182.967 26.9723 183.006 26.93 183.057C26.8877 183.107 26.8518 183.162 26.8243 183.22C26.7947 183.281 26.7735 183.344 26.7587 183.411C26.7439 183.48 26.7333 183.549 26.7291 183.623C26.7249 183.673 26.7228 183.728 26.7228 183.788C26.7228 183.849 26.7228 183.912 26.7228 183.977C26.7228 184.042 26.7228 184.105 26.7228 184.166C26.7228 184.227 26.727 184.283 26.7291 184.332C26.7354 184.468 26.7672 184.566 26.8243 184.627C26.8793 184.688 26.966 184.686 27.0802 184.621C27.1944 184.556 27.279 184.461 27.334 184.336C27.389 184.21 27.4207 184.076 27.4313 183.931V183.929Z" fill="#FAFAFA"/>
<path d="M29.5141 183.85C29.4824 183.867 29.457 183.869 29.4379 183.857C29.4189 183.842 29.4062 183.829 29.3999 183.819L28.7675 182.739V184.165C28.7675 184.196 28.7612 184.228 28.7464 184.257C28.7316 184.288 28.7146 184.309 28.6935 184.32L28.3318 184.527C28.3107 184.54 28.2938 184.538 28.279 184.523C28.2642 184.509 28.2578 184.486 28.2578 184.456V181.733C28.2578 181.701 28.2642 181.67 28.279 181.641C28.2938 181.609 28.3107 181.588 28.3318 181.576L28.6195 181.412C28.6512 181.393 28.6766 181.393 28.6956 181.406C28.7146 181.42 28.7273 181.433 28.7337 181.443L29.366 182.523V181.098C29.366 181.066 29.3724 181.035 29.3872 181.005C29.402 180.974 29.4189 180.953 29.4401 180.942L29.8017 180.735C29.8229 180.722 29.8398 180.724 29.8546 180.739C29.8694 180.754 29.8779 180.775 29.8779 180.806V183.529C29.8779 183.561 29.8715 183.59 29.8546 183.622C29.8398 183.653 29.8229 183.674 29.8017 183.685L29.5141 183.848V183.85Z" fill="#FAFAFA"/>
<path d="M31.6023 179.704C31.6234 179.691 31.6403 179.693 31.6551 179.708C31.6699 179.722 31.6763 179.743 31.6763 179.775V180.221C31.6763 180.253 31.6699 180.284 31.6551 180.314C31.6403 180.345 31.6234 180.366 31.6023 180.377L30.7753 180.85V181.429L31.5473 180.989C31.5663 180.976 31.5853 180.978 31.6001 180.993C31.615 181.008 31.6213 181.031 31.6213 181.06V181.507C31.6213 181.538 31.615 181.567 31.6001 181.599C31.5853 181.63 31.5684 181.651 31.5473 181.662L30.7753 182.102V183.014C30.7753 183.045 30.769 183.077 30.7542 183.106C30.7394 183.138 30.7224 183.159 30.7013 183.169L30.3396 183.377C30.3185 183.389 30.3016 183.387 30.2868 183.373C30.272 183.358 30.2656 183.337 30.2656 183.305V180.582C30.2656 180.551 30.272 180.521 30.2868 180.49C30.3016 180.458 30.3185 180.437 30.3396 180.427L31.6023 179.704Z" fill="#FAFAFA"/>
<path d="M32.0428 182.407C32.0216 182.42 32.0047 182.417 31.9899 182.403C31.9751 182.388 31.9688 182.367 31.9688 182.336V179.612C31.9688 179.581 31.9751 179.551 31.9899 179.52C32.0047 179.489 32.0216 179.468 32.0428 179.457L32.4044 179.25C32.4256 179.239 32.4425 179.239 32.4573 179.254C32.4721 179.268 32.4784 179.289 32.4784 179.321V182.044C32.4784 182.076 32.4721 182.107 32.4573 182.137C32.4425 182.168 32.4256 182.189 32.4044 182.199L32.0428 182.407Z" fill="#FAFAFA"/>
<path d="M33.6899 178.509C33.8104 178.44 33.9204 178.398 34.0156 178.381C34.1108 178.366 34.1932 178.379 34.2609 178.419C34.3286 178.458 34.3794 178.53 34.4153 178.633C34.4513 178.735 34.4682 178.867 34.4682 179.029C34.4682 179.241 34.4386 179.431 34.3815 179.603C34.3244 179.775 34.244 179.928 34.1383 180.06L34.4809 180.867C34.4872 180.882 34.4893 180.895 34.4893 180.909C34.4893 180.935 34.483 180.96 34.4724 180.985C34.4597 181.01 34.447 181.027 34.4301 181.037L34.0537 181.253C34.0177 181.274 33.9902 181.276 33.9754 181.259C33.9606 181.243 33.9479 181.226 33.9373 181.205L33.6307 180.477L33.3769 180.624V181.526C33.3769 181.557 33.3705 181.589 33.3557 181.618C33.3409 181.649 33.324 181.67 33.3029 181.681L32.9412 181.888C32.9201 181.901 32.9031 181.899 32.8883 181.884C32.8735 181.87 32.8672 181.846 32.8672 181.817V179.094C32.8672 179.062 32.8735 179.031 32.8883 179.001C32.9031 178.97 32.9201 178.949 32.9412 178.937L33.6899 178.509ZM33.3769 179.966L33.6899 179.788C33.7681 179.744 33.8316 179.685 33.8824 179.612C33.9331 179.538 33.9585 179.442 33.9585 179.322C33.9585 179.203 33.9331 179.138 33.8824 179.121C33.8316 179.104 33.7681 179.121 33.6899 179.163L33.3769 179.341V179.966Z" fill="#FAFAFA"/>
<path d="M35.597 179.628C35.5822 179.613 35.5695 179.596 35.5589 179.58L35.2988 179.032V180.429C35.2988 180.46 35.2924 180.489 35.2776 180.521C35.2628 180.552 35.2459 180.573 35.2247 180.584L34.8631 180.791C34.8419 180.804 34.825 180.802 34.8102 180.787C34.7954 180.772 34.7891 180.751 34.7891 180.72V177.997C34.7891 177.965 34.7954 177.936 34.8102 177.904C34.825 177.873 34.8419 177.852 34.8631 177.841L35.1846 177.657C35.2205 177.636 35.248 177.636 35.267 177.657C35.2861 177.678 35.2966 177.693 35.303 177.703L35.7514 178.615L36.1997 177.192C36.2061 177.175 36.2166 177.145 36.2357 177.104C36.2547 177.062 36.2822 177.03 36.3182 177.009L36.6396 176.825C36.6608 176.812 36.6777 176.814 36.6925 176.829C36.7073 176.844 36.7136 176.865 36.7136 176.896V179.619C36.7136 179.651 36.7073 179.682 36.6925 179.712C36.6777 179.743 36.6608 179.764 36.6396 179.774L36.278 179.982C36.2568 179.995 36.2399 179.993 36.2251 179.978C36.2103 179.963 36.2018 179.942 36.2018 179.911V178.514L35.9417 179.359C35.9332 179.387 35.9205 179.418 35.9036 179.45C35.8888 179.483 35.8656 179.506 35.8381 179.523L35.6604 179.624C35.6329 179.64 35.6118 179.64 35.5949 179.624L35.597 179.628Z" fill="#FAFAFA"/>
<path d="M38.4847 178.044C38.5059 178.032 38.5228 178.034 38.5376 178.048C38.5524 178.063 38.5588 178.086 38.5588 178.115V178.562C38.5588 178.593 38.5524 178.625 38.5376 178.654C38.5228 178.686 38.5059 178.707 38.4847 178.717L37.1756 179.466C37.1544 179.478 37.1375 179.476 37.1227 179.461C37.1079 179.447 37.1016 179.424 37.1016 179.394V176.671C37.1016 176.639 37.1079 176.608 37.1227 176.579C37.1375 176.547 37.1544 176.526 37.1756 176.514L38.4636 175.778C38.4826 175.765 38.5016 175.767 38.5165 175.782C38.5313 175.797 38.5397 175.818 38.5397 175.849V176.296C38.5397 176.327 38.5313 176.359 38.5165 176.388C38.5016 176.419 38.4847 176.44 38.4636 176.451L37.6134 176.937V177.392L38.4044 176.939C38.4255 176.927 38.4424 176.929 38.4572 176.943C38.472 176.958 38.4805 176.979 38.4805 177.011V177.457C38.4805 177.489 38.472 177.52 38.4572 177.549C38.4424 177.581 38.4255 177.602 38.4044 177.612L37.6134 178.065V178.537L38.4868 178.038L38.4847 178.044Z" fill="#FAFAFA"/>
<path d="M39.6865 175.082C39.8134 175.009 39.9297 174.971 40.0355 174.969C40.1412 174.967 40.2321 174.996 40.3083 175.055C40.3844 175.116 40.4436 175.206 40.488 175.325C40.5303 175.445 40.5557 175.589 40.5621 175.757C40.5621 175.816 40.5642 175.868 40.5642 175.919V176.2C40.5642 176.248 40.5642 176.3 40.5621 176.357C40.5557 176.535 40.5325 176.707 40.4902 176.875C40.4479 177.042 40.3886 177.2 40.3146 177.346C40.2406 177.493 40.1518 177.625 40.0481 177.74C39.9445 177.858 39.8303 177.952 39.7034 178.026L38.9568 178.453C38.9357 178.466 38.9188 178.464 38.904 178.449C38.8892 178.434 38.8828 178.411 38.8828 178.382V175.659C38.8828 175.627 38.8892 175.596 38.904 175.566C38.9188 175.535 38.9357 175.514 38.9568 175.501L39.6886 175.082H39.6865ZM40.0481 176.034C40.0376 175.717 39.9107 175.627 39.6717 175.763L39.3904 175.925V177.527L39.6865 177.357C39.9191 177.225 40.0397 176.994 40.0481 176.665C40.0481 176.604 40.0503 176.55 40.0503 176.497V176.195C40.0503 176.145 40.0503 176.09 40.0481 176.032V176.034Z" fill="#FAFAFA"/>
</g>
<path d="M791.078 210.041L814.493 213.281L837.684 210.065C837.724 210.06 837.724 210.014 837.684 210.009L814.228 206.758L791.078 210.041Z" fill="white"/>
<path d="M814.498 213.439C814.487 213.439 814.475 213.438 814.464 213.437L791.049 210.196C790.953 210.183 790.883 210.117 790.883 210.04C790.883 209.963 790.953 209.897 791.049 209.884L814.198 206.6C814.222 206.597 814.245 206.597 814.268 206.6L837.724 209.851C837.838 209.867 837.921 209.945 837.921 210.036C837.921 210.128 837.838 210.205 837.725 210.221L814.534 213.437C814.523 213.438 814.511 213.439 814.499 213.439H814.498ZM792.235 210.038L814.498 213.119L836.73 210.036L814.233 206.918L792.235 210.038Z" fill="#7939CC"/>
<path d="M814.484 240.738V213.252L790.977 210.027V237.438L814.484 240.738Z" fill="white"/>
<path d="M814.489 240.898C814.478 240.898 814.466 240.897 814.454 240.896L790.947 237.596C790.851 237.583 790.781 237.517 790.781 237.44V210.03C790.781 209.983 790.807 209.938 790.853 209.908C790.899 209.878 790.957 209.865 791.017 209.874L814.524 213.098C814.62 213.112 814.691 213.178 814.691 213.255V240.741C814.691 240.787 814.665 240.832 814.619 240.863C814.582 240.887 814.537 240.899 814.49 240.899L814.489 240.898ZM791.183 237.306L814.289 240.55V213.388L791.183 210.218V237.307V237.306Z" fill="#7939CC"/>
<path d="M814.484 240.738V213.252L837.787 210.023V237.454L814.484 240.738Z" fill="white"/>
<path d="M814.49 240.895C814.443 240.895 814.397 240.883 814.361 240.859C814.315 240.828 814.289 240.784 814.289 240.737V213.251C814.289 213.174 814.359 213.108 814.455 213.094L837.758 209.866C837.816 209.858 837.876 209.87 837.922 209.9C837.967 209.931 837.993 209.975 837.993 210.022V237.453C837.993 237.529 837.924 237.595 837.828 237.608L814.525 240.893C814.513 240.894 814.501 240.895 814.49 240.895V240.895ZM814.69 213.384V240.547L837.592 237.32V210.212L814.69 213.384Z" fill="#7939CC"/>
<path d="M789.625 188.635L807.273 191.076L824.724 188.657C824.76 188.652 824.76 188.611 824.724 188.606L807.073 186.16L789.625 188.635Z" fill="white"/>
<path d="M807.278 191.234C807.267 191.234 807.255 191.233 807.243 191.232L789.595 188.79C789.5 188.776 789.43 188.71 789.43 188.634C789.43 188.557 789.5 188.491 789.595 188.477L807.044 186.003C807.067 185.999 807.09 185.999 807.113 186.003L824.764 188.449C824.876 188.464 824.957 188.541 824.957 188.631C824.957 188.721 824.875 188.797 824.763 188.812L807.313 191.232C807.302 191.233 807.29 191.234 807.278 191.234ZM790.781 188.631L807.278 190.913L823.748 188.63L807.078 186.32L790.781 188.631ZM824.694 188.498C824.694 188.498 824.694 188.498 824.693 188.498H824.694Z" fill="#7939CC"/>
<path d="M807.256 211.771V191.055L789.539 188.625V209.284L807.256 211.771Z" fill="white"/>
<path d="M800.369 192.837V190.165L795.891 189.551V192.208L800.369 192.837Z" fill="#7939CC"/>
<path d="M807.261 211.932C807.25 211.932 807.238 211.931 807.226 211.93L789.509 209.443C789.414 209.429 789.344 209.363 789.344 209.287V188.627C789.344 188.581 789.37 188.536 789.415 188.506C789.461 188.476 789.52 188.463 789.579 188.471L807.296 190.902C807.392 190.915 807.463 190.981 807.463 191.059V211.774C807.463 211.821 807.437 211.866 807.391 211.896C807.354 211.921 807.309 211.933 807.262 211.933L807.261 211.932ZM789.745 209.153L807.061 211.583V191.19L789.745 188.815V209.153Z" fill="#7939CC"/>
<path d="M807.258 211.77V191.054L824.822 188.621V209.295L807.258 211.77Z" fill="white"/>
<path d="M807.263 211.928C807.217 211.928 807.171 211.915 807.134 211.891C807.088 211.861 807.062 211.817 807.062 211.769V191.053C807.062 190.976 807.132 190.91 807.228 190.897L824.792 188.463C824.85 188.455 824.91 188.468 824.956 188.498C825.002 188.529 825.028 188.573 825.028 188.619V209.294C825.028 209.37 824.958 209.436 824.862 209.45L807.298 211.925C807.286 211.926 807.275 211.927 807.263 211.927V211.928ZM807.464 191.187V211.58L824.626 209.162V188.809L807.464 191.187V191.187Z" fill="#7939CC"/>
<path d="M753.321 208.007L782.175 212L810.797 208.031C810.837 208.025 810.837 207.979 810.797 207.973L781.847 203.961L753.32 208.007L753.321 208.007Z" fill="white"/>
<path d="M782.18 212.16C782.168 212.16 782.157 212.16 782.145 212.158L753.291 208.166C753.195 208.152 753.125 208.086 753.125 208.01C753.125 207.932 753.195 207.866 753.291 207.853L781.817 203.807C781.84 203.804 781.864 203.804 781.887 203.807L810.836 207.82C810.95 207.835 811.032 207.913 811.032 208.005C811.032 208.096 810.95 208.174 810.836 208.19L782.214 212.159C782.202 212.16 782.191 212.161 782.179 212.161L782.18 212.16ZM754.478 208.007L782.18 211.84L809.845 208.003L781.853 204.124L754.477 208.006L754.478 208.007Z" fill="#7939CC"/>
<path d="M782.162 245.836V211.965L753.195 207.992V241.77L782.162 245.836Z" fill="white"/>
<path d="M770.839 214.149V210.385L764.531 209.52V213.263L770.839 214.149Z" fill="#7939CC"/>
<path d="M782.168 245.996C782.156 245.996 782.144 245.995 782.133 245.994L753.166 241.928C753.07 241.914 753 241.848 753 241.772V207.995C753 207.948 753.026 207.903 753.072 207.873C753.117 207.843 753.176 207.83 753.236 207.839L782.203 211.812C782.299 211.825 782.369 211.891 782.369 211.969V245.839C782.369 245.886 782.343 245.93 782.298 245.961C782.261 245.985 782.215 245.998 782.169 245.998L782.168 245.996ZM753.401 241.638L781.967 245.648V212.101L753.401 208.182V241.638Z" fill="#7939CC"/>
<path d="M782.164 245.841V211.97L810.88 207.992V241.794L782.164 245.841Z" fill="white"/>
<path d="M782.169 245.999C782.123 245.999 782.077 245.986 782.04 245.962C781.995 245.931 781.969 245.887 781.969 245.84V211.97C781.969 211.892 782.039 211.826 782.134 211.813L810.85 207.835C810.908 207.826 810.968 207.84 811.014 207.869C811.059 207.9 811.085 207.944 811.085 207.991V241.793C811.085 241.871 811.016 241.936 810.92 241.949L782.204 245.996C782.193 245.997 782.181 245.998 782.169 245.998V245.999ZM782.37 212.103V245.65L810.684 241.659V208.18L782.37 212.103Z" fill="#7939CC"/>
<path d="M774.942 232.928C774.932 232.928 774.923 232.928 774.913 232.927L760.133 231.226C760.034 231.214 759.961 231.148 759.961 231.068V218.409C759.961 218.363 759.986 218.319 760.03 218.289C760.074 218.259 760.132 218.245 760.189 218.252L774.97 219.905C775.068 219.916 775.143 219.983 775.143 220.062V232.769C775.143 232.815 775.118 232.859 775.074 232.889C775.037 232.914 774.99 232.928 774.942 232.928ZM760.362 230.931L774.741 232.586V220.2L760.362 218.591V230.93V230.931Z" fill="#7939CC"/>
<path d="M762.154 229.712C762.043 229.712 761.953 229.641 761.953 229.553V220.21C761.953 220.122 762.043 220.051 762.154 220.051C762.265 220.051 762.354 220.122 762.354 220.21V229.553C762.354 229.641 762.265 229.712 762.154 229.712Z" fill="#7939CC"/>
<path d="M763.966 229.97C763.855 229.97 763.766 229.899 763.766 229.811V220.467C763.766 220.379 763.855 220.309 763.966 220.309C764.077 220.309 764.167 220.379 764.167 220.467V229.811C764.167 229.899 764.077 229.97 763.966 229.97Z" fill="#7939CC"/>
<path d="M765.779 230.228C765.668 230.228 765.578 230.157 765.578 230.069V220.725C765.578 220.637 765.668 220.566 765.779 220.566C765.89 220.566 765.979 220.637 765.979 220.725V230.069C765.979 230.157 765.89 230.228 765.779 230.228Z" fill="#7939CC"/>
<path d="M767.583 230.489C767.472 230.489 767.383 230.418 767.383 230.33V220.987C767.383 220.899 767.472 220.828 767.583 220.828C767.695 220.828 767.784 220.899 767.784 220.987V230.33C767.784 230.418 767.695 230.489 767.583 230.489Z" fill="#7939CC"/>
<path d="M770.123 230.377C770.011 230.377 769.922 230.306 769.922 230.218V221.409C769.922 221.321 770.011 221.25 770.123 221.25C770.234 221.25 770.323 221.321 770.323 221.409V230.218C770.323 230.306 770.234 230.377 770.123 230.377Z" fill="#7939CC"/>
<path d="M773.021 231.263C772.91 231.263 772.82 231.192 772.82 231.104V221.76C772.82 221.672 772.91 221.602 773.021 221.602C773.132 221.602 773.222 221.672 773.222 221.76V231.104C773.222 231.192 773.132 231.263 773.021 231.263Z" fill="#7939CC"/>
<g clip-path="url(#clip1_1239_3985)">
<path d="M800.867 16.1252C800.805 16.1688 800.779 16.2492 800.806 16.3214L801.679 18.5691C801.712 18.6563 801.81 18.6985 801.899 18.6658C801.988 18.6318 802.03 18.5364 801.996 18.4492L801.123 16.2015C801.09 16.1143 800.992 16.0721 800.904 16.1048C800.89 16.1102 800.878 16.117 800.867 16.1239V16.1252Z" fill="url(#paint23_linear_1239_3985)"/>
<path d="M791.38 25.0214C791.355 25.0378 791.336 25.0623 791.322 25.0909C791.283 25.1754 791.322 25.2748 791.408 25.3116L793.635 26.291C793.721 26.3292 793.821 26.291 793.86 26.2066C793.899 26.1221 793.86 26.0227 793.774 25.9859L791.547 25.0064C791.49 24.9819 791.427 24.9901 791.38 25.0228V25.0214Z" fill="url(#paint24_linear_1239_3985)"/>
<path d="M803.653 16.3433C803.599 16.3801 803.57 16.4469 803.585 16.515L803.898 17.9672C803.918 18.0571 804.007 18.1156 804.1 18.0966C804.191 18.0775 804.25 17.9889 804.231 17.8977L803.918 16.4455C803.898 16.3556 803.809 16.297 803.716 16.3161C803.693 16.3216 803.672 16.3297 803.654 16.3433H803.653Z" fill="url(#paint25_linear_1239_3985)"/>
<path d="M806.155 16.0185C806.109 16.0512 806.08 16.1044 806.083 16.1643L806.162 17.6464C806.166 17.7391 806.246 17.8099 806.34 17.8045C806.432 17.799 806.505 17.7214 806.5 17.6287L806.421 16.1466C806.417 16.054 806.337 15.9831 806.243 15.9886C806.21 15.9899 806.18 16.0008 806.155 16.0185Z" fill="url(#paint26_linear_1239_3985)"/>
<path d="M808.68 16.0841C808.641 16.1114 808.613 16.1536 808.608 16.204L808.451 17.6807C808.441 17.772 808.509 17.8551 808.601 17.8646C808.693 17.8741 808.777 17.8074 808.787 17.7161L808.944 16.2394C808.954 16.1482 808.886 16.0651 808.794 16.0555C808.751 16.0514 808.711 16.0623 808.678 16.0855L808.68 16.0841Z" fill="url(#paint27_linear_1239_3985)"/>
<path d="M811.163 16.5382C811.131 16.56 811.108 16.5927 811.097 16.6322L810.708 18.0666C810.683 18.1566 810.737 18.2478 810.828 18.2723C810.919 18.2969 811.011 18.2424 811.035 18.1538L811.424 16.7194C811.448 16.6295 811.395 16.5382 811.304 16.5137C811.253 16.5001 811.202 16.511 811.162 16.5382H811.163Z" fill="url(#paint28_linear_1239_3985)"/>
<path d="M815.756 18.5606C815.739 18.5729 815.724 18.5879 815.712 18.6069L814.893 19.852C814.841 19.9297 814.864 20.0332 814.942 20.0836C815.021 20.134 815.124 20.1122 815.177 20.0346L815.996 18.7895C816.047 18.7118 816.025 18.6083 815.946 18.5579C815.887 18.5198 815.811 18.5238 815.756 18.562V18.5606Z" fill="url(#paint29_linear_1239_3985)"/>
<path d="M817.765 20.0778C817.755 20.0846 817.745 20.0928 817.737 20.1023L816.73 21.2057C816.668 21.2752 816.674 21.3801 816.743 21.4428C816.812 21.5041 816.921 21.4972 816.981 21.4305L817.988 20.3271C818.05 20.259 818.045 20.1527 817.976 20.09C817.916 20.0369 817.828 20.0328 817.765 20.0778Z" fill="url(#paint30_linear_1239_3985)"/>
<path d="M819.499 21.8897C819.499 21.8897 819.493 21.8938 819.489 21.8966L818.321 22.8311C818.247 22.8896 818.236 22.9945 818.296 23.0667C818.355 23.1376 818.464 23.1444 818.534 23.0912L819.703 22.1567C819.776 22.0982 819.787 21.9933 819.727 21.9211C819.671 21.853 819.57 21.8393 819.499 21.8897Z" fill="url(#paint31_linear_1239_3985)"/>
<path d="M819.624 24.6872C819.553 24.7363 819.531 24.8316 819.575 24.9079C819.622 24.9883 819.725 25.0155 819.806 24.9692L821.109 24.2268C821.198 24.1777 821.217 24.0783 821.171 23.9979C821.124 23.9175 821.02 23.8903 820.939 23.9366L819.637 24.679C819.637 24.679 819.627 24.6845 819.624 24.6872Z" fill="url(#paint32_linear_1239_3985)"/>
<path d="M821.261 28.8948C821.207 28.9315 821.178 28.9983 821.194 29.0664C821.213 29.1563 821.302 29.2149 821.395 29.1958L822.865 28.8866C822.958 28.8662 823.016 28.779 822.996 28.6877C822.977 28.5978 822.887 28.5392 822.795 28.5583L821.325 28.8675C821.301 28.873 821.28 28.8811 821.262 28.8948H821.261Z" fill="url(#paint33_linear_1239_3985)"/>
<path d="M821.561 31.1353C821.515 31.168 821.486 31.2211 821.489 31.281C821.493 31.3736 821.573 31.4445 821.667 31.439L823.168 31.3614C823.26 31.3559 823.333 31.2783 823.328 31.1857C823.324 31.093 823.244 31.0222 823.15 31.0276L821.649 31.1053C821.616 31.1066 821.586 31.1175 821.561 31.1353Z" fill="url(#paint34_linear_1239_3985)"/>
<path d="M821.503 33.3966C821.465 33.4239 821.437 33.4661 821.433 33.5165C821.423 33.6092 821.491 33.6909 821.583 33.7004L823.078 33.8557C823.172 33.8653 823.255 33.7985 823.265 33.7072C823.274 33.6146 823.207 33.5329 823.114 33.5233L821.619 33.368C821.576 33.3639 821.536 33.3748 821.503 33.398V33.3966Z" fill="url(#paint35_linear_1239_3985)"/>
<path d="M821.086 35.6202C821.054 35.642 821.03 35.6747 821.019 35.7142C820.994 35.8041 821.048 35.8954 821.139 35.9199L822.592 36.3041C822.683 36.3272 822.775 36.2741 822.799 36.1856C822.823 36.0957 822.77 36.0044 822.679 35.9799L821.226 35.5957C821.175 35.5821 821.124 35.593 821.084 35.6202H821.086Z" fill="url(#paint36_linear_1239_3985)"/>
<path d="M790.928 32.7173C790.883 32.75 790.854 32.8031 790.856 32.863C790.861 32.9557 790.941 33.0265 791.034 33.0211L792.535 32.9434C792.627 32.938 792.701 32.8603 792.695 32.7677C792.691 32.6751 792.611 32.6042 792.517 32.6097L791.016 32.6873C790.983 32.6887 790.953 32.6996 790.928 32.7173Z" fill="url(#paint37_linear_1239_3985)"/>
<path d="M790.988 30.2248C790.949 30.252 790.921 30.2942 790.917 30.3446C790.908 30.4373 790.975 30.519 791.068 30.5285L792.563 30.6838C792.655 30.6934 792.739 30.6266 792.749 30.5354C792.759 30.4441 792.691 30.361 792.599 30.3515L791.104 30.1962C791.061 30.1921 791.021 30.203 790.988 30.2261V30.2248Z" fill="url(#paint38_linear_1239_3985)"/>
<path d="M791.453 27.7726C791.421 27.7944 791.398 27.8271 791.387 27.8666C791.362 27.9565 791.415 28.0477 791.507 28.0723L792.959 28.4564C793.05 28.4796 793.142 28.4265 793.166 28.3379C793.191 28.248 793.137 28.1567 793.046 28.1322L791.593 27.7481C791.542 27.7344 791.491 27.7453 791.451 27.7726H791.453Z" fill="url(#paint39_linear_1239_3985)"/>
<path d="M793.503 23.2325C793.487 23.2448 793.47 23.2597 793.459 23.2788C793.408 23.3565 793.43 23.46 793.509 23.5104L794.769 24.3196C794.848 24.37 794.954 24.3482 795.004 24.2705C795.055 24.1929 795.033 24.0894 794.954 24.0389L793.693 23.2298C793.634 23.1916 793.558 23.1957 793.503 23.2339V23.2325Z" fill="url(#paint40_linear_1239_3985)"/>
<path d="M795.038 21.2536C795.028 21.2604 795.019 21.2685 795.01 21.2781C794.948 21.3476 794.954 21.4524 795.023 21.5151L796.14 22.5082C796.209 22.5695 796.318 22.5627 796.379 22.4959C796.441 22.4278 796.435 22.3216 796.366 22.2589L795.249 21.2658C795.19 21.2127 795.101 21.2086 795.038 21.2536Z" fill="url(#paint41_linear_1239_3985)"/>
<path d="M796.865 19.5382C796.865 19.5382 796.859 19.5423 796.855 19.545C796.782 19.6036 796.771 19.7085 796.83 19.7807L797.777 20.9345C797.836 21.0067 797.942 21.0149 798.015 20.959C798.088 20.9004 798.099 20.7955 798.04 20.7233L797.094 19.5695C797.037 19.5014 796.937 19.4878 796.865 19.5382Z" fill="url(#paint42_linear_1239_3985)"/>
<path d="M798.949 18.1245C798.877 18.1735 798.855 18.2689 798.899 18.3452L799.651 19.6311C799.698 19.7115 799.801 19.7387 799.883 19.6924C799.969 19.6434 799.992 19.5439 799.945 19.4636L799.193 18.1776C799.146 18.0972 799.043 18.07 798.961 18.1163C798.957 18.119 798.953 18.1218 798.949 18.1245Z" fill="url(#paint43_linear_1239_3985)"/>
<path d="M813.944 16.4667C813.919 16.4831 813.899 16.5076 813.886 16.5362L812.894 18.7362C812.855 18.8207 812.894 18.9202 812.979 18.9569C813.065 18.9951 813.166 18.9569 813.204 18.8725L814.196 16.6724C814.235 16.588 814.196 16.4885 814.11 16.4518C814.054 16.4272 813.99 16.4354 813.944 16.4681V16.4667Z" fill="url(#paint44_linear_1239_3985)"/>
<path d="M820.674 26.7037C820.612 26.7473 820.586 26.8277 820.613 26.8999C820.646 26.9871 820.744 27.0293 820.832 26.9966L823.11 26.1329C823.198 26.0989 823.241 26.0022 823.208 25.9163C823.174 25.8292 823.077 25.7869 822.988 25.8196L820.711 26.6833C820.697 26.6887 820.685 26.6956 820.674 26.7024V26.7037Z" fill="url(#paint45_linear_1239_3985)"/>
<path d="M823.209 69.5046C821.319 64.9699 823.509 59.7807 828.101 57.9144C832.692 56.0481 837.947 58.2113 839.836 62.7461C841.726 67.2809 839.536 72.47 834.944 74.3363C830.352 76.2026 825.098 74.0394 823.209 69.5046Z" fill="url(#paint46_linear_1239_3985)"/>
<path d="M838.031 66.1212C838.031 69.6726 835.117 72.551 831.521 72.551C827.925 72.551 825.011 69.6726 825.011 66.1212C825.011 62.5698 827.925 59.6914 831.521 59.6914C835.117 59.6914 838.031 62.5698 838.031 66.1212Z" fill="#BDBDBD"/>
<path d="M837.172 66.1214C837.172 69.2028 834.644 71.6998 831.524 71.6998C828.404 71.6998 825.875 69.2028 825.875 66.1214C825.875 63.04 828.404 60.543 831.524 60.543C834.644 60.543 837.172 63.04 837.172 66.1214Z" fill="white"/>
<path d="M773.816 69.8023C771.754 65.3415 773.743 60.0742 778.26 58.0375C782.777 56.0008 788.11 57.9659 790.172 62.4268C792.235 66.8877 790.245 72.155 785.728 74.1917C781.211 76.2284 775.878 74.2632 773.816 69.8023Z" fill="url(#paint47_linear_1239_3985)"/>
<path d="M788.5 66.1212C788.5 69.6726 785.586 72.551 781.99 72.551C778.394 72.551 775.479 69.6726 775.479 66.1212C775.479 62.5698 778.394 59.6914 781.99 59.6914C785.586 59.6914 788.5 62.5698 788.5 66.1212Z" fill="#BDBDBD"/>
<path d="M787.641 66.1214C787.641 69.2028 785.112 71.6998 781.992 71.6998C778.872 71.6998 776.344 69.2028 776.344 66.1214C776.344 63.04 778.872 60.543 781.992 60.543C785.112 60.543 787.641 63.04 787.641 66.1214Z" fill="white"/>
<path d="M785.094 66.1209C785.094 67.8115 783.706 69.1833 781.993 69.1833C780.28 69.1833 778.892 67.8128 778.892 66.1209C778.892 64.429 780.28 63.0586 781.993 63.0586C783.706 63.0586 785.094 64.429 785.094 66.1209Z" fill="#E0E0E0"/>
<path d="M834.625 66.1209C834.625 67.8115 833.237 69.1833 831.524 69.1833C829.811 69.1833 828.424 67.8128 828.424 66.1209C828.424 64.429 829.811 63.0586 831.524 63.0586C833.237 63.0586 834.625 64.429 834.625 66.1209Z" fill="#E0E0E0"/>
<path d="M782.057 66.8034L781.109 66.3477L787.07 54.2611L788.018 54.7169L782.057 66.8034Z" fill="#0B0C09"/>
<path d="M830.609 65.7984C830.609 66.7793 829.805 67.5735 828.812 67.5735C827.819 67.5735 827.015 66.7793 827.015 65.7984C827.015 64.8176 827.819 64.0234 828.812 64.0234C829.805 64.0234 830.609 64.8176 830.609 65.7984Z" fill="#D4D5D6"/>
<path d="M796.711 33.0972L796.375 32.1614L796.967 31.6328L797.586 32.6354V33.1408L796.711 33.0972Z" fill="url(#paint48_linear_1239_3985)"/>
<path d="M842.662 52.2266L841.182 52.6543V54.7181L843.07 54.5397V52.5916L842.662 52.2266Z" fill="#F44336"/>
<path d="M827.466 50.8128H845.979L848 47.9371V31.368L845.608 28.9609H827.466L825.014 31.368L825.341 48.1237L827.466 50.8128Z" fill="url(#paint49_linear_1239_3985)"/>
<path d="M827.562 50.8128L824.419 47.6197V31.9511L827.466 28.9609L827.562 50.8128Z" fill="url(#paint50_linear_1239_3985)"/>
<path d="M796.607 31.9506L796.287 31.3008L798.478 27.793L798.68 28.1689L796.71 31.2395L796.961 31.6345L796.607 31.9506Z" fill="url(#paint51_linear_1239_3985)"/>
<path d="M799.488 29.0247C798.714 28.394 797.46 26.9568 798.833 24.9747C799.026 24.6955 799.407 24.6001 799.707 24.7636C800.373 25.1259 801.273 26.1285 800.22 28.8353C800.106 29.1296 799.733 29.2249 799.488 29.0247Z" fill="url(#paint52_linear_1239_3985)"/>
<path d="M840.69 54.7617L837.63 55.0519L843.58 64.0209L844.202 64.371L844.734 64.0209L840.69 54.7617Z" fill="url(#paint53_linear_1239_3985)"/>
<path d="M828.056 61.7592C827.181 61.7592 826.371 62.0384 825.715 62.5111H819.973C818.696 62.5111 817.66 63.5342 817.66 64.7956C817.66 66.0571 818.696 67.0801 819.973 67.0801H824.329C824.897 68.5677 826.351 69.6262 828.056 69.6262C830.256 69.6262 832.039 67.8648 832.039 65.692C832.039 63.5192 830.256 61.7578 828.056 61.7578V61.7592Z" fill="url(#paint54_linear_1239_3985)"/>
<path d="M783.956 53.8521L783.963 53.8453L784.412 53.19H783.316V47.1703C784.857 46.8011 786.001 47.5149 786.676 48.1565C786.872 48.3432 787.087 48.5039 787.316 48.6415L794.076 38.1508L794.177 37.3893L792.928 36.369L793.553 34.4073C793.553 34.4073 796.051 31.8953 799.545 33.8188L801.687 36.448L801.33 37.5855L800.734 37.3103L799.545 40.6614L796.396 47.0803C795.291 53.6273 797.541 60.6075 797.541 60.6075C797.541 61.1633 797.993 61.6155 798.554 61.6224L808.777 61.7572L811.076 58.1459L808.463 54.9501C807.844 54.1926 807.473 53.2677 807.399 52.2978C806.15 51.1916 805.782 49.3989 806.524 47.9127C807.279 46.4019 808.874 44.9607 812.244 45.3149C817.557 45.8748 822.023 45.2059 823.61 44.913C823.996 44.8422 824.39 44.9852 824.639 45.2863C824.749 45.4198 824.823 45.5778 824.858 45.7467L825.338 48.1197L827.463 50.8088L840.512 50.298L843.07 52.5866V56.4254L832.905 56.6352L832.017 66.1164H831.523L830.851 56.6229L825.012 57.6323L823.88 59.564H825.458L823.368 69.8585L818.821 69.6242L817.862 68.089H814.308L813.062 69.7768C812.87 70.0356 812.564 70.1868 812.239 70.1814L795.748 69.8994C795.403 69.8939 795.076 69.7659 794.825 69.5316C794.295 69.0384 793.403 68.0399 792.908 66.57C792.117 64.2243 790.876 62.0501 789.454 60.0149C789.388 59.9209 789.294 59.8473 789.185 59.8092C782.902 57.5465 775.138 57.962 775.138 57.962C775.138 57.962 777.081 54.352 783.956 53.8507V53.8521Z" fill="url(#paint55_linear_1239_3985)"/>
<path d="M794.823 10.1815L794.249 8.68025C794.019 8.75381 793.784 8.78787 793.553 8.78787C792.64 8.78787 791.78 8.24161 791.438 7.34661L790.401 4.63165C790.231 4.18619 790.459 3.68897 790.91 3.52141L800.213 0.0558522C800.315 0.0177092 800.419 0 800.521 0C800.874 0 801.206 0.212511 801.338 0.558522L802.375 3.27349C802.802 4.39462 802.255 5.63563 801.155 6.10833L801.729 7.60953C803.513 7.22401 805.309 7.03874 807.084 7.03738C817.284 7.03738 826.886 13.1866 830.699 23.1691C831.231 24.5641 831.622 25.9781 831.891 27.3948H827.242C827.035 26.5094 826.773 25.628 826.44 24.7562C823.419 16.8456 815.641 11.5314 807.084 11.5328C805.613 11.5328 804.139 11.6908 802.7 12.0014C802.7 12.0014 800.481 12.5545 799.768 12.8201C799.058 13.0844 797.03 14.1129 797.03 14.1129C788.133 18.9843 784.136 29.7583 787.732 39.1742C788.23 40.4779 788.863 41.7053 789.601 42.855L786.779 46.7415C785.44 44.9447 784.31 42.9504 783.474 40.7599C778.998 29.0391 784.051 16.0786 794.824 10.1815H794.823Z" fill="url(#paint56_linear_1239_3985)"/>
</g>
<defs>
<linearGradient id="paint0_linear_1239_3985" x1="8.46349" y1="206.766" x2="8.46349" y2="223.521" gradientUnits="userSpaceOnUse">
<stop stop-color="#7939CC"/>
<stop offset="1" stop-color="#000088"/>
</linearGradient>
<linearGradient id="paint1_linear_1239_3985" x1="6.6568" y1="212.551" x2="6.6568" y2="224.296" gradientUnits="userSpaceOnUse">
<stop stop-color="#7939CC"/>
<stop offset="1" stop-color="#000088"/>
</linearGradient>
<linearGradient id="paint2_linear_1239_3985" x1="70.2504" y1="241.125" x2="70.2504" y2="243.111" gradientUnits="userSpaceOnUse">
<stop stop-color="#7939CC"/>
<stop offset="1" stop-color="#000088"/>
</linearGradient>
<linearGradient id="paint3_linear_1239_3985" x1="47.1855" y1="210.23" x2="47.1855" y2="247.549" gradientUnits="userSpaceOnUse">
<stop stop-color="#7939CC"/>
<stop offset="1" stop-color="#000088"/>
</linearGradient>
<linearGradient id="paint4_linear_1239_3985" x1="61.2682" y1="229.543" x2="61.2682" y2="242.115" gradientUnits="userSpaceOnUse">
<stop stop-color="#7939CC"/>
<stop offset="1" stop-color="#000088"/>
</linearGradient>
<linearGradient id="paint5_linear_1239_3985" x1="61.2682" y1="229.543" x2="61.2682" y2="242.115" gradientUnits="userSpaceOnUse">
<stop stop-color="#7939CC"/>
<stop offset="1" stop-color="#000088"/>
</linearGradient>
<linearGradient id="paint6_linear_1239_3985" x1="61.272" y1="229.547" x2="61.272" y2="241.207" gradientUnits="userSpaceOnUse">
<stop stop-color="#7939CC"/>
<stop offset="1" stop-color="#000088"/>
</linearGradient>
<linearGradient id="paint7_linear_1239_3985" x1="34.4202" y1="202.59" x2="34.4202" y2="230.453" gradientUnits="userSpaceOnUse">
<stop stop-color="#7939CC"/>
<stop offset="1" stop-color="#000088"/>
</linearGradient>
<linearGradient id="paint8_linear_1239_3985" x1="52.889" y1="202.59" x2="52.889" y2="230.453" gradientUnits="userSpaceOnUse">
<stop stop-color="#7939CC"/>
<stop offset="1" stop-color="#000088"/>
</linearGradient>
<linearGradient id="paint9_linear_1239_3985" x1="43.653" y1="192.023" x2="43.653" y2="213.188" gradientUnits="userSpaceOnUse">
<stop stop-color="#7939CC"/>
<stop offset="1" stop-color="#000088"/>
</linearGradient>
<linearGradient id="paint10_linear_1239_3985" x1="52.7504" y1="207.148" x2="52.7504" y2="212.371" gradientUnits="userSpaceOnUse">
<stop stop-color="#7939CC"/>
<stop offset="1" stop-color="#000088"/>
</linearGradient>
<linearGradient id="paint11_linear_1239_3985" x1="29.6549" y1="182.324" x2="29.6549" y2="191.307" gradientUnits="userSpaceOnUse">
<stop stop-color="#7939CC"/>
<stop offset="1" stop-color="#000088"/>
</linearGradient>
<linearGradient id="paint12_linear_1239_3985" x1="31.0052" y1="183.859" x2="31.0052" y2="191.302" gradientUnits="userSpaceOnUse">
<stop stop-color="#7939CC"/>
<stop offset="1" stop-color="#000088"/>
</linearGradient>
<linearGradient id="paint13_linear_1239_3985" x1="30.1045" y1="166" x2="30.1045" y2="192.453" gradientUnits="userSpaceOnUse">
<stop stop-color="#7939CC"/>
<stop offset="1" stop-color="#000088"/>
</linearGradient>
<linearGradient id="paint14_linear_1239_3985" x1="31.4469" y1="167.535" x2="31.4469" y2="192.453" gradientUnits="userSpaceOnUse">
<stop stop-color="#7939CC"/>
<stop offset="1" stop-color="#000088"/>
</linearGradient>
<linearGradient id="paint15_linear_1239_3985" x1="14.9841" y1="181.191" x2="14.9841" y2="187.28" gradientUnits="userSpaceOnUse">
<stop stop-color="#7939CC"/>
<stop offset="1" stop-color="#000088"/>
</linearGradient>
<linearGradient id="paint16_linear_1239_3985" x1="12.0741" y1="185.266" x2="12.0741" y2="186.772" gradientUnits="userSpaceOnUse">
<stop stop-color="#7939CC"/>
<stop offset="1" stop-color="#000088"/>
</linearGradient>
<linearGradient id="paint17_linear_1239_3985" x1="14.4142" y1="182.207" x2="14.4142" y2="191.701" gradientUnits="userSpaceOnUse">
<stop stop-color="#7939CC"/>
<stop offset="1" stop-color="#000088"/>
</linearGradient>
<linearGradient id="paint18_linear_1239_3985" x1="14.6756" y1="188.379" x2="14.6756" y2="193.454" gradientUnits="userSpaceOnUse">
<stop stop-color="#7939CC"/>
<stop offset="1" stop-color="#000088"/>
</linearGradient>
<linearGradient id="paint19_linear_1239_3985" x1="12.9887" y1="193.254" x2="12.9887" y2="195.507" gradientUnits="userSpaceOnUse">
<stop stop-color="#7939CC"/>
<stop offset="1" stop-color="#000088"/>
</linearGradient>
<linearGradient id="paint20_linear_1239_3985" x1="16.559" y1="191.211" x2="16.559" y2="193.464" gradientUnits="userSpaceOnUse">
<stop stop-color="#7939CC"/>
<stop offset="1" stop-color="#000088"/>
</linearGradient>
<linearGradient id="paint21_linear_1239_3985" x1="14.7736" y1="192.848" x2="14.7736" y2="193.874" gradientUnits="userSpaceOnUse">
<stop stop-color="#7939CC"/>
<stop offset="1" stop-color="#000088"/>
</linearGradient>
<linearGradient id="paint22_linear_1239_3985" x1="14.9834" y1="182.484" x2="14.9834" y2="185.629" gradientUnits="userSpaceOnUse">
<stop stop-color="#7939CC"/>
<stop offset="1" stop-color="#000088"/>
</linearGradient>
<linearGradient id="paint23_linear_1239_3985" x1="801.402" y1="16.0938" x2="801.402" y2="18.6768" gradientUnits="userSpaceOnUse">
<stop stop-color="#7939CC"/>
<stop offset="1" stop-color="#7939CC" stop-opacity="0"/>
</linearGradient>
<linearGradient id="paint24_linear_1239_3985" x1="792.591" y1="24.9922" x2="792.591" y2="26.3059" gradientUnits="userSpaceOnUse">
<stop stop-color="#7939CC"/>
<stop offset="1" stop-color="#7939CC" stop-opacity="0"/>
</linearGradient>
<linearGradient id="paint25_linear_1239_3985" x1="803.908" y1="16.3125" x2="803.908" y2="18.1002" gradientUnits="userSpaceOnUse">
<stop stop-color="#7939CC"/>
<stop offset="1" stop-color="#7939CC" stop-opacity="0"/>
</linearGradient>
<linearGradient id="paint26_linear_1239_3985" x1="806.291" y1="15.9883" x2="806.291" y2="17.8047" gradientUnits="userSpaceOnUse">
<stop stop-color="#7939CC"/>
<stop offset="1" stop-color="#7939CC" stop-opacity="0"/>
</linearGradient>
<linearGradient id="paint27_linear_1239_3985" x1="808.697" y1="16.0547" x2="808.697" y2="17.8655" gradientUnits="userSpaceOnUse">
<stop stop-color="#7939CC"/>
<stop offset="1" stop-color="#7939CC" stop-opacity="0"/>
</linearGradient>
<linearGradient id="paint28_linear_1239_3985" x1="811.066" y1="16.5078" x2="811.066" y2="18.2782" gradientUnits="userSpaceOnUse">
<stop stop-color="#7939CC"/>
<stop offset="1" stop-color="#7939CC" stop-opacity="0"/>
</linearGradient>
<linearGradient id="paint29_linear_1239_3985" x1="815.444" y1="18.5312" x2="815.444" y2="20.1107" gradientUnits="userSpaceOnUse">
<stop stop-color="#7939CC"/>
<stop offset="1" stop-color="#7939CC" stop-opacity="0"/>
</linearGradient>
<linearGradient id="paint30_linear_1239_3985" x1="817.359" y1="20.0469" x2="817.359" y2="21.4849" gradientUnits="userSpaceOnUse">
<stop stop-color="#7939CC"/>
<stop offset="1" stop-color="#7939CC" stop-opacity="0"/>
</linearGradient>
<linearGradient id="paint31_linear_1239_3985" x1="819.012" y1="21.8594" x2="819.012" y2="23.1262" gradientUnits="userSpaceOnUse">
<stop stop-color="#7939CC"/>
<stop offset="1" stop-color="#7939CC" stop-opacity="0"/>
</linearGradient>
<linearGradient id="paint32_linear_1239_3985" x1="820.374" y1="23.9141" x2="820.374" y2="24.9918" gradientUnits="userSpaceOnUse">
<stop stop-color="#7939CC"/>
<stop offset="1" stop-color="#7939CC" stop-opacity="0"/>
</linearGradient>
<linearGradient id="paint33_linear_1239_3985" x1="822.095" y1="28.5547" x2="822.095" y2="29.1994" gradientUnits="userSpaceOnUse">
<stop stop-color="#7939CC"/>
<stop offset="1" stop-color="#7939CC" stop-opacity="0"/>
</linearGradient>
<linearGradient id="paint34_linear_1239_3985" x1="822.409" y1="31.0273" x2="822.409" y2="31.4393" gradientUnits="userSpaceOnUse">
<stop stop-color="#7939CC"/>
<stop offset="1" stop-color="#7939CC" stop-opacity="0"/>
</linearGradient>
<linearGradient id="paint35_linear_1239_3985" x1="822.349" y1="33.3672" x2="822.349" y2="33.8566" gradientUnits="userSpaceOnUse">
<stop stop-color="#7939CC"/>
<stop offset="1" stop-color="#7939CC" stop-opacity="0"/>
</linearGradient>
<linearGradient id="paint36_linear_1239_3985" x1="821.909" y1="35.5898" x2="821.909" y2="36.3095" gradientUnits="userSpaceOnUse">
<stop stop-color="#7939CC"/>
<stop offset="1" stop-color="#7939CC" stop-opacity="0"/>
</linearGradient>
<linearGradient id="paint37_linear_1239_3985" x1="791.776" y1="32.6094" x2="791.776" y2="33.0214" gradientUnits="userSpaceOnUse">
<stop stop-color="#7939CC"/>
<stop offset="1" stop-color="#7939CC" stop-opacity="0"/>
</linearGradient>
<linearGradient id="paint38_linear_1239_3985" x1="791.833" y1="30.1953" x2="791.833" y2="30.6847" gradientUnits="userSpaceOnUse">
<stop stop-color="#7939CC"/>
<stop offset="1" stop-color="#7939CC" stop-opacity="0"/>
</linearGradient>
<linearGradient id="paint39_linear_1239_3985" x1="792.276" y1="27.7422" x2="792.276" y2="28.4618" gradientUnits="userSpaceOnUse">
<stop stop-color="#7939CC"/>
<stop offset="1" stop-color="#7939CC" stop-opacity="0"/>
</linearGradient>
<linearGradient id="paint40_linear_1239_3985" x1="794.231" y1="23.2031" x2="794.231" y2="24.3467" gradientUnits="userSpaceOnUse">
<stop stop-color="#7939CC"/>
<stop offset="1" stop-color="#7939CC" stop-opacity="0"/>
</linearGradient>
<linearGradient id="paint41_linear_1239_3985" x1="795.695" y1="21.2227" x2="795.695" y2="22.5503" gradientUnits="userSpaceOnUse">
<stop stop-color="#7939CC"/>
<stop offset="1" stop-color="#7939CC" stop-opacity="0"/>
</linearGradient>
<linearGradient id="paint42_linear_1239_3985" x1="797.435" y1="19.5078" x2="797.435" y2="20.9955" gradientUnits="userSpaceOnUse">
<stop stop-color="#7939CC"/>
<stop offset="1" stop-color="#7939CC" stop-opacity="0"/>
</linearGradient>
<linearGradient id="paint43_linear_1239_3985" x1="799.423" y1="18.0938" x2="799.423" y2="19.715" gradientUnits="userSpaceOnUse">
<stop stop-color="#7939CC"/>
<stop offset="1" stop-color="#7939CC" stop-opacity="0"/>
</linearGradient>
<linearGradient id="paint44_linear_1239_3985" x1="813.545" y1="16.4375" x2="813.545" y2="18.9717" gradientUnits="userSpaceOnUse">
<stop stop-color="#7939CC"/>
<stop offset="1" stop-color="#7939CC" stop-opacity="0"/>
</linearGradient>
<linearGradient id="paint45_linear_1239_3985" x1="821.91" y1="25.8086" x2="821.91" y2="27.0076" gradientUnits="userSpaceOnUse">
<stop stop-color="#7939CC"/>
<stop offset="1" stop-color="#7939CC" stop-opacity="0"/>
</linearGradient>
<linearGradient id="paint46_linear_1239_3985" x1="839.836" y1="62.7461" x2="823.269" y2="69.6498" gradientUnits="userSpaceOnUse">
<stop stop-color="#7939CC"/>
<stop offset="1" stop-color="#7939CC" stop-opacity="0"/>
</linearGradient>
<linearGradient id="paint47_linear_1239_3985" x1="790.172" y1="62.4268" x2="773.887" y2="69.9555" gradientUnits="userSpaceOnUse">
<stop stop-color="#7939CC"/>
<stop offset="1" stop-color="#7939CC" stop-opacity="0"/>
</linearGradient>
<linearGradient id="paint48_linear_1239_3985" x1="796.98" y1="31.6328" x2="796.98" y2="33.1408" gradientUnits="userSpaceOnUse">
<stop stop-color="#7939CC"/>
<stop offset="1" stop-color="#7939CC" stop-opacity="0"/>
</linearGradient>
<linearGradient id="paint49_linear_1239_3985" x1="836.507" y1="28.9609" x2="836.507" y2="50.8128" gradientUnits="userSpaceOnUse">
<stop stop-color="#7939CC"/>
<stop offset="1" stop-color="#7939CC" stop-opacity="0"/>
</linearGradient>
<linearGradient id="paint50_linear_1239_3985" x1="825.991" y1="28.9609" x2="825.991" y2="50.8128" gradientUnits="userSpaceOnUse">
<stop stop-color="#7939CC"/>
<stop offset="1" stop-color="#7939CC" stop-opacity="0"/>
</linearGradient>
<linearGradient id="paint51_linear_1239_3985" x1="797.483" y1="27.793" x2="797.483" y2="31.9506" gradientUnits="userSpaceOnUse">
<stop stop-color="#7939CC"/>
<stop offset="1" stop-color="#7939CC" stop-opacity="0"/>
</linearGradient>
<linearGradient id="paint52_linear_1239_3985" x1="799.462" y1="24.6836" x2="799.462" y2="29.1305" gradientUnits="userSpaceOnUse">
<stop stop-color="#7939CC"/>
<stop offset="1" stop-color="#7939CC" stop-opacity="0"/>
</linearGradient>
<linearGradient id="paint53_linear_1239_3985" x1="841.182" y1="54.7617" x2="841.182" y2="64.371" gradientUnits="userSpaceOnUse">
<stop stop-color="#7939CC"/>
<stop offset="1" stop-color="#7939CC" stop-opacity="0"/>
</linearGradient>
<linearGradient id="paint54_linear_1239_3985" x1="824.849" y1="61.7578" x2="824.849" y2="69.6262" gradientUnits="userSpaceOnUse">
<stop stop-color="#7939CC"/>
<stop offset="1" stop-color="#7939CC" stop-opacity="0"/>
</linearGradient>
<linearGradient id="paint55_linear_1239_3985" x1="809.104" y1="33.0938" x2="809.104" y2="70.1815" gradientUnits="userSpaceOnUse">
<stop stop-color="#7939CC"/>
<stop offset="1" stop-color="#7939CC" stop-opacity="0"/>
</linearGradient>
<linearGradient id="paint56_linear_1239_3985" x1="806.867" y1="0" x2="806.867" y2="46.7415" gradientUnits="userSpaceOnUse">
<stop stop-color="#7939CC"/>
<stop offset="1" stop-color="#7939CC" stop-opacity="0"/>
</linearGradient>
<clipPath id="clip0_1239_3985">
<rect width="99" height="92" fill="white" transform="translate(0 166)"/>
</clipPath>
<clipPath id="clip1_1239_3985">
<rect width="75" height="75" fill="white" transform="matrix(-1 0 0 1 848 0)"/>
</clipPath>
</defs>
</svg>
