<svg width="36" height="36" viewBox="0 0 36 36" fill="none" xmlns="http://www.w3.org/2000/svg">
<path d="M12.1162 23.9062L12.1161 24.0062C12.4757 24.0066 12.8316 24.0778 13.1637 24.2157C13.4957 24.3536 13.7973 24.5556 14.0513 24.8101C14.3053 25.0645 14.5066 25.3666 14.6439 25.6989C14.7811 26.0311 14.8516 26.3872 14.8512 26.7467C14.8502 27.2874 14.6889 27.8156 14.3877 28.2647C14.0865 28.7137 13.659 29.0634 13.1591 29.2696C12.6593 29.4758 12.1095 29.5292 11.5794 29.423C11.0492 29.3169 10.5624 29.056 10.1804 28.6733C9.79844 28.2906 9.5385 27.8032 9.43341 27.2728C9.32832 26.7424 9.38279 26.1928 9.58996 25.6934C9.79712 25.1939 10.1477 24.7671 10.5973 24.4668C11.047 24.1665 11.5755 24.0063 12.1162 24.0063L12.1162 23.9062ZM12.1162 23.9062C12.4889 23.9066 12.8579 23.9804 13.202 24.1233C13.5462 24.2663 13.8588 24.4756 14.1221 24.7394C14.3853 25.0032 14.594 25.3162 14.7363 25.6607C14.8786 26.0051 14.9516 26.3742 14.9512 26.7469C14.9501 27.3073 14.7829 27.8549 14.4707 28.3204C14.1585 28.7859 13.7154 29.1483 13.1973 29.3621C12.6791 29.5758 12.1093 29.6311 11.5597 29.5211C11.0102 29.4111 10.5055 29.1406 10.1096 28.7439C9.7137 28.3472 9.44425 27.842 9.33531 27.2923C9.22638 26.7425 9.28285 26.1727 9.49759 25.655C9.71233 25.1373 10.0757 24.6949 10.5418 24.3836C11.0079 24.0724 11.5558 23.9062 12.1162 23.9062ZM13.3859 27.4841L12.657 26.7476L13.4044 26.008L13.4046 26.0082L13.41 26.0019C13.4725 25.929 13.5051 25.8352 13.5014 25.7392C13.4977 25.6433 13.4579 25.5522 13.39 25.4843C13.3221 25.4164 13.2311 25.3767 13.1352 25.373C13.0392 25.3693 12.9454 25.4019 12.8725 25.4644L12.8723 25.4642L12.867 25.4694L12.1137 26.2176L11.377 25.4809L11.3772 25.4806L11.3713 25.4756C11.2984 25.4131 11.2045 25.3805 11.1086 25.3842C11.0126 25.3879 10.9216 25.4277 10.8537 25.4956C10.7858 25.5635 10.746 25.6545 10.7423 25.7505C10.7386 25.8464 10.7713 25.9402 10.8337 26.0132L10.8335 26.0134L10.839 26.0188L11.5754 26.7553L10.839 27.4918L10.8389 27.4918L10.8368 27.4941C10.7672 27.5682 10.7298 27.667 10.7331 27.7687C10.7363 27.8703 10.7797 27.9666 10.8539 28.0362C10.9281 28.1058 11.0268 28.1431 11.1285 28.1399C11.2296 28.1367 11.3253 28.0937 11.3949 28.0203L12.1303 27.2849L12.8592 28.0137C12.8887 28.0582 12.9272 28.096 12.9724 28.1247L13.026 28.0403L12.9724 28.1247C13.021 28.1556 13.076 28.1751 13.1333 28.1817C13.1906 28.1882 13.2486 28.1817 13.303 28.1627C13.3574 28.1436 13.4068 28.1124 13.4474 28.0715C13.488 28.0306 13.5188 27.981 13.5375 27.9265C13.5562 27.8719 13.5623 27.8139 13.5553 27.7566C13.5483 27.6994 13.5284 27.6445 13.4971 27.5961C13.4682 27.5514 13.4303 27.5132 13.3859 27.4841Z" stroke="#7939CC" stroke-width="0.2"/>
<path d="M23.8819 23.9062C23.3214 23.9063 22.7735 24.0724 22.3074 24.3836C21.8413 24.6949 21.478 25.1373 21.2632 25.655C21.0485 26.1727 20.992 26.7425 21.1009 27.2923C21.2099 27.842 21.4793 28.3472 21.8752 28.7439C22.2712 29.1406 22.7758 29.4111 23.3253 29.5211C23.8749 29.6311 24.4448 29.5758 24.9629 29.3621C25.481 29.1483 25.9242 28.7859 26.2364 28.3204C26.5485 27.8549 26.7158 27.3073 26.7169 26.7469C26.7172 26.3742 26.6442 26.0051 26.5019 25.6607C26.3597 25.3162 26.1509 25.0032 25.8877 24.7394C25.6244 24.4756 25.3118 24.2663 24.9676 24.1233C24.6235 23.9804 24.2545 23.9066 23.8819 23.9062ZM23.6006 25.875C23.6006 25.8004 23.6303 25.7289 23.683 25.6761C23.7357 25.6234 23.8073 25.5938 23.8819 25.5938C23.9565 25.5938 24.028 25.6234 24.0807 25.6761C24.1335 25.7289 24.1631 25.8004 24.1631 25.875V25.9509C24.1631 26.0255 24.1335 26.0971 24.0807 26.1498C24.028 26.2026 23.9565 26.2322 23.8819 26.2322C23.8073 26.2322 23.7357 26.2026 23.683 26.1498C23.6303 26.0971 23.6006 26.0255 23.6006 25.9509V25.875ZM24.1631 27.6384C24.1631 27.713 24.1335 27.7846 24.0807 27.8373C24.028 27.8901 23.9565 27.9197 23.8819 27.9197C23.8073 27.9197 23.7357 27.8901 23.683 27.8373C23.6303 27.7846 23.6006 27.713 23.6006 27.6384V27.5625C23.6006 27.4879 23.6303 27.4164 23.683 27.3636C23.7357 27.3109 23.8073 27.2812 23.8819 27.2812C23.9565 27.2812 24.028 27.3109 24.0807 27.3636C24.1335 27.4164 24.1631 27.4879 24.1631 27.5625V27.6384ZM25.3106 27.0281H22.4587C22.3842 27.0281 22.3126 26.9985 22.2599 26.9457C22.2071 26.893 22.1775 26.8215 22.1775 26.7469C22.1775 26.6723 22.2071 26.6007 22.2599 26.548C22.3126 26.4953 22.3842 26.4656 22.4587 26.4656H25.3106C25.3852 26.4656 25.4567 26.4953 25.5095 26.548C25.5622 26.6007 25.5919 26.6723 25.5919 26.7469C25.5919 26.8215 25.5622 26.893 25.5095 26.9457C25.4567 26.9985 25.3852 27.0281 25.3106 27.0281Z" stroke="#7939CC" stroke-width="0.2"/>
<path d="M10.5973 15.4668C11.047 15.1665 11.5755 15.0063 12.1162 15.0063L12.1162 14.9062L12.1161 15.0062C12.4757 15.0066 12.8316 15.0778 13.1637 15.2157C13.4957 15.3536 13.7973 15.5556 14.0513 15.8101C14.3053 16.0645 14.5066 16.3666 14.6439 16.6989C14.7811 17.0311 14.8516 17.3872 14.8512 17.7467C14.8502 18.2874 14.6889 18.8156 14.3877 19.2647C14.0865 19.7137 13.659 20.0634 13.1591 20.2696C12.6593 20.4758 12.1095 20.5292 11.5794 20.423C11.0492 20.3169 10.5624 20.056 10.1804 19.6733C9.79844 19.2906 9.5385 18.8032 9.43341 18.2728C9.32832 17.7424 9.38279 17.1928 9.58996 16.6934C9.79712 16.1939 10.1477 15.7671 10.5973 15.4668ZM12.4975 19.17V18.1281H13.5337H13.5394V18.1281C13.6384 18.1266 13.7332 18.0866 13.8033 18.0165C13.8748 17.945 13.915 17.848 13.915 17.7469C13.915 17.6458 13.8748 17.5488 13.8033 17.4773C13.7318 17.4058 13.6349 17.3656 13.5337 17.3656H12.4919V16.3125C12.4919 16.2114 12.4517 16.1144 12.3802 16.0429C12.3087 15.9714 12.2117 15.9313 12.1106 15.9313C12.0095 15.9313 11.9125 15.9714 11.841 16.0429C11.7695 16.1144 11.7294 16.2114 11.7294 16.3125V17.3656H10.6875C10.5864 17.3656 10.4894 17.4058 10.4179 17.4773C10.3464 17.5488 10.3062 17.6458 10.3062 17.7469C10.3062 17.848 10.3464 17.945 10.4179 18.0165C10.4894 18.088 10.5864 18.1281 10.6875 18.1281H11.735V19.17C11.735 19.2711 11.7752 19.3681 11.8467 19.4396C11.9182 19.5111 12.0151 19.5513 12.1162 19.5513C12.2174 19.5513 12.3143 19.5111 12.3858 19.4396C12.4573 19.3681 12.4975 19.2711 12.4975 19.17Z" stroke="#7939CC" stroke-width="0.2"/>
<path d="M23.8819 14.9062L23.8818 15.0062C24.2413 15.0066 24.5973 15.0778 24.9293 15.2157C25.2613 15.3536 25.5629 15.5556 25.8169 15.8101C26.0709 16.0645 26.2722 16.3665 26.4095 16.6989C26.5468 17.0311 26.6172 17.3872 26.6169 17.7467C26.6158 18.2874 26.4545 18.8156 26.1533 19.2647C25.8521 19.7137 25.4246 20.0634 24.9248 20.2696C24.4249 20.4758 23.8752 20.5292 23.345 20.423C22.8148 20.3169 22.328 20.056 21.946 19.6733C21.5641 19.2906 21.3041 18.8032 21.199 18.2728C21.0939 17.7424 21.1484 17.1928 21.3556 16.6934C21.5627 16.1939 21.9133 15.7671 22.363 15.4668C22.8126 15.1665 23.3412 15.0063 23.8819 15.0063L23.8819 14.9062ZM23.8819 14.9062C24.2545 14.9066 24.6235 14.9804 24.9676 15.1233C25.3118 15.2663 25.6244 15.4756 25.8877 15.7394C26.1509 16.0032 26.3597 16.3162 26.5019 16.6607C26.6442 17.0051 26.7172 17.3742 26.7169 17.7469C26.7158 18.3073 26.5485 18.8549 26.2364 19.3204C25.9242 19.7859 25.481 20.1483 24.9629 20.3621C24.4448 20.5758 23.8749 20.6311 23.3253 20.5211C22.7758 20.4111 22.2712 20.1406 21.8752 19.7439C21.4793 19.3472 21.2099 18.842 21.1009 18.2923C20.992 17.7425 21.0485 17.1727 21.2632 16.655C21.478 16.1373 21.8413 15.6949 22.3074 15.3836C22.7735 15.0724 23.3214 14.9062 23.8819 14.9062ZM22.4587 18.1281H25.3106C25.4117 18.1281 25.5087 18.088 25.5802 18.0165C25.6517 17.945 25.6919 17.848 25.6919 17.7469C25.6919 17.6458 25.6517 17.5488 25.5802 17.4773C25.5087 17.4058 25.4117 17.3656 25.3106 17.3656H22.4587C22.3576 17.3656 22.2607 17.4058 22.1892 17.4773C22.1177 17.5488 22.0775 17.6458 22.0775 17.7469C22.0775 17.848 22.1177 17.945 22.1892 18.0165C22.2607 18.088 22.3576 18.1281 22.4587 18.1281Z" stroke="#7939CC" stroke-width="0.2"/>
<path d="M12.1163 30.3944H12.1167C13.0834 30.3928 14.0102 30.008 14.6938 29.3244C15.3774 28.6408 15.7622 27.7141 15.7638 26.7473V26.7469C15.7638 26.0255 15.5498 25.3203 15.149 24.7204C14.7482 24.1206 14.1786 23.6531 13.5121 23.377C12.8456 23.101 12.1122 23.0287 11.4047 23.1695C10.6971 23.3102 10.0472 23.6576 9.53708 24.1677C9.02697 24.6778 8.67957 25.3277 8.53884 26.0353C8.3981 26.7428 8.47033 27.4762 8.7464 28.1427C9.02247 28.8092 9.48998 29.3789 10.0898 29.7797C10.6896 30.1805 11.3948 30.3944 12.1163 30.3944ZM12.1163 21.3944H12.1167C13.0834 21.3928 14.0102 21.008 14.6938 20.3244C15.3774 19.6408 15.7622 18.7141 15.7638 17.7473V17.7469C15.7638 17.0255 15.5498 16.3203 15.149 15.7204C14.7482 15.1206 14.1786 14.6531 13.5121 14.377C12.8456 14.101 12.1122 14.0287 11.4047 14.1695C10.6971 14.3102 10.0472 14.6576 9.53708 15.1677C9.02697 15.6778 8.67957 16.3277 8.53884 17.0353C8.3981 17.7428 8.47033 18.4762 8.7464 19.1427C9.02247 19.8092 9.48998 20.3789 10.0898 20.7797C10.6896 21.1805 11.3948 21.3944 12.1163 21.3944ZM23.8837 30.3944H23.8842C24.8509 30.3928 25.7777 30.008 26.4613 29.3244C27.1449 28.6408 27.5297 27.7141 27.5312 26.7473V26.7469C27.5312 26.0255 27.3173 25.3203 26.9165 24.7204C26.5157 24.1206 25.9461 23.6531 25.2796 23.377C24.6131 23.101 23.8797 23.0287 23.1722 23.1695C22.4646 23.3102 21.8147 23.6576 21.3046 24.1677C20.7945 24.6778 20.4471 25.3277 20.3063 26.0353C20.1656 26.7428 20.2378 27.4762 20.5139 28.1427C20.79 28.8092 21.2575 29.3789 21.8573 29.7797C22.4571 30.1805 23.1623 30.3944 23.8837 30.3944ZM23.8837 21.3944H23.8842C24.8509 21.3928 25.7777 21.008 26.4613 20.3244C27.1449 19.6408 27.5297 18.7141 27.5312 17.7473V17.7469C27.5312 17.0255 27.3173 16.3203 26.9165 15.7204C26.5157 15.1206 25.9461 14.6531 25.2796 14.377C24.6131 14.101 23.8797 14.0287 23.1722 14.1695C22.4646 14.3102 21.8147 14.6576 21.3046 15.1677C20.7945 15.6778 20.4471 16.3277 20.3063 17.0353C20.1656 17.7428 20.2378 18.4762 20.5139 19.1427C20.79 19.8092 21.2575 20.3789 21.8573 20.7797C22.4571 21.1805 23.1623 21.3944 23.8837 21.3944ZM27.1687 10.15H27.1691C27.713 10.1492 28.2343 9.9325 28.6186 9.54761C29.0029 9.16273 29.2188 8.64107 29.2188 8.09719V6.21563C29.2188 5.67174 29.0029 5.15008 28.6186 4.7652C28.2343 4.38031 27.713 4.16366 27.1691 4.16281H27.1687L8.83125 4.16281L8.83086 4.16281C8.28698 4.16366 7.76566 4.38031 7.38137 4.7652C6.99709 5.15008 6.78125 5.67174 6.78125 6.21563V8.09719C6.78125 8.64107 6.99709 9.16273 7.38137 9.54761C7.76566 9.9325 8.28698 10.1492 8.83086 10.15H8.83125H27.1687ZM9.61044 1.09375H26.3896C27.8274 1.09521 29.2059 1.66702 30.2225 2.6837C31.2393 3.70041 31.8111 5.07896 31.8125 6.51681V29.4832C31.8111 30.921 31.2393 32.2996 30.2225 33.3163C29.2058 34.333 27.8273 34.9048 26.3894 34.9062H9.61056C8.17318 34.9048 6.79503 34.3334 5.7784 33.3173C4.76181 32.3012 4.18968 30.9234 4.1875 29.4861V6.51669C4.18896 5.07889 4.76077 3.70038 5.77745 2.6837C6.79413 1.66702 8.17264 1.09521 9.61044 1.09375Z" fill="white" stroke="#7939CC" stroke-width="0.5"/>
<path d="M8.83406 4.97656H27.1687C27.497 4.97656 27.8117 5.10694 28.0438 5.33902C28.2759 5.57109 28.4062 5.88586 28.4062 6.21406V8.09562C28.4062 8.42458 28.2756 8.74005 28.043 8.97266C27.8104 9.20526 27.4949 9.33594 27.1659 9.33594H8.83125C8.50304 9.33594 8.18828 9.20556 7.95621 8.97348C7.72413 8.74141 7.59375 8.42664 7.59375 8.09844V6.21687C7.59375 5.88792 7.72443 5.57245 7.95703 5.33984C8.18963 5.10724 8.50511 4.97656 8.83406 4.97656Z" fill="#7939CC"/>
</svg>
