<svg width="36" height="36" viewBox="0 0 36 36" fill="none" xmlns="http://www.w3.org/2000/svg">
<path d="M12.6719 19.8135V19.5639V19.0014V7.92578V7.36328V7.05078H14.5273H19.4025H23.3906H26.5744H30.1213V7.36328V7.92578V17.747V18.3095V18.631C29.5442 18.6726 28.9699 18.8589 28.4607 19.1984L28.4587 19.1997L24.9902 21.5608C24.5557 21.8433 24.0679 22.0237 23.5566 22.0835C23.2481 21.2459 22.4488 20.5987 21.4618 20.602L16.2033 20.3402C15.1132 19.7652 13.8618 19.5818 12.6719 19.8135Z" fill="white" stroke="#7939CC" stroke-width="0.5"/>
<path opacity="0.2" d="M30.3713 7.36328V6.80078H26.5744H23.3906H19.4025H14.5273H12.4219V7.36328V7.92578V8.48828H16.4887H17.4844H19.4025H23.3906H24.465H30.3713V7.92578V7.36328Z" fill="#7939CC"/>
<path d="M24.4679 3.625H30.0422C30.6354 3.625 31.1198 4.10932 31.1198 4.7025V7.11256H30.3741H24.4684H23.3941H19.4059H17.4878H16.4922H12.4253H11.6797V4.7025C11.6797 4.10918 12.1636 3.625 12.7566 3.625H17.8191H19.4054H23.3935H24.4679Z" fill="white" stroke="#7939CC" stroke-width="0.5"/>
<path d="M12.9628 27.4614L13.7334 28.1758L12.5803 29.2277L5.41406 24.3002L7.48969 22.4102L8.26594 23.1245L12.9628 27.4614Z" fill="#7939CC"/>
<path d="M23.4031 21.7848C24.0218 21.7455 24.6119 21.5424 25.1294 21.2055L28.6 18.843C29.14 18.483 29.7593 18.3086 30.3719 18.3086C31.1931 18.3086 32.0031 18.6242 32.6219 19.2423L27.4469 23.6917C26.7781 24.2598 26.0018 24.693 25.1687 24.963L21.2481 26.2404C20.5388 26.4648 19.7969 26.583 19.0487 26.583H15.28C14.425 26.5773 13.5981 26.8923 12.9625 27.461L8.26562 23.1242C9.50313 21.993 10.1444 20.4236 11.7925 19.7717C12.0006 19.6873 12.2088 19.6192 12.4225 19.5635C13.66 19.2429 14.9931 19.406 16.1356 20.0242L21.4568 20.2892C22.4018 20.283 23.1606 20.9529 23.3806 21.791L23.4031 21.7848Z" fill="url(#paint0_linear_2782_12804)"/>
<path d="M23.3944 7.36313V9.91125L21.4031 8.31938L19.4062 9.88875V7.36313V3.375H23.3944V7.36313Z" fill="#7939CC"/>
<path opacity="0.2" d="M13.4743 29.8399L12.5855 29.2267L11.6315 28.5703L7.57812 32.6243H10.4142L13.4743 29.8399Z" fill="white"/>
<path opacity="0.2" d="M11.8501 26.4336L10.4922 27.7915L12.5813 29.2281L13.7344 28.1762L12.9638 27.4618L11.8501 26.4336Z" fill="black"/>
<path d="M6.03287 26.6857C6.03287 25.8284 4.70313 25.829 4.70313 26.6857C4.70256 27.5435 6.03287 27.5435 6.03287 26.6857Z" fill="#7939CC"/>
<defs>
<linearGradient id="paint0_linear_2782_12804" x1="20.4437" y1="18.3086" x2="20.4437" y2="27.461" gradientUnits="userSpaceOnUse">
<stop stop-color="#7939CC"/>
<stop offset="1" stop-color="#000088"/>
</linearGradient>
</defs>
</svg>
