<svg width="36" height="37" viewBox="0 0 36 37" fill="none" xmlns="http://www.w3.org/2000/svg">
<g clip-path="url(#clip0_2782_11212)">
<path d="M22.25 17.75C22.25 21.6096 25.3904 24.75 29.25 24.75H32.75V27.875C32.75 30.0124 31.0124 31.75 28.875 31.75H4.125C1.98757 31.75 0.25 30.0124 0.25 27.875V9.125C0.25 6.98757 1.98757 5.25 4.125 5.25H28.875C31.0124 5.25 32.75 6.98757 32.75 9.125V10.75H29.25C25.3904 10.75 22.25 13.8904 22.25 17.75Z" fill="white" stroke="#7939CC" stroke-width="0.5"/>
<path d="M34.875 13.25H29.25C26.769 13.25 24.75 15.269 24.75 17.75C24.75 20.231 26.769 22.25 29.25 22.25H34.875C35.496 22.25 36 21.746 36 21.125V14.375C36 13.754 35.496 13.25 34.875 13.25ZM29.25 19.25C28.422 19.25 27.75 18.578 27.75 17.75C27.75 16.922 28.422 16.25 29.25 16.25C30.078 16.25 30.75 16.922 30.75 17.75C30.75 18.578 30.078 19.25 29.25 19.25Z" fill="#7939CC"/>
</g>
<defs>
<clipPath id="clip0_2782_11212">
<rect width="36" height="36" fill="white" transform="translate(0 0.5)"/>
</clipPath>
</defs>
</svg>
