<svg width="36" height="37" viewBox="0 0 36 37" fill="none" xmlns="http://www.w3.org/2000/svg">
<path d="M24.2671 29.7274H11.5824C11.3441 29.7274 11.15 29.5334 11.15 29.2953C11.15 29.0571 11.3442 28.8629 11.5824 28.8629H24.2671C24.5053 28.8629 24.6995 29.0571 24.6995 29.2953C24.6995 29.5334 24.5054 29.7274 24.2671 29.7274Z" stroke="#7939CC" stroke-width="0.3"/>
<path d="M18.0001 21.7652C18.2376 21.7652 18.4529 21.8842 18.5781 22.0835L22.3148 28.034H13.6854L17.4222 22.0835C17.4222 22.0835 17.4222 22.0835 17.4222 22.0835C17.5474 21.8842 17.7627 21.7652 18.0001 21.7652ZM19.3413 24.6436C19.3413 23.9036 18.7396 23.3019 17.9996 23.3019C17.2597 23.3019 16.6579 23.9036 16.6579 24.6436C16.6579 25.3835 17.2597 25.9853 17.9996 25.9853C18.7396 25.9853 19.3413 25.3835 19.3413 24.6436Z" fill="white" stroke="#7939CC" stroke-width="0.3"/>
<path d="M28.4172 21.3844H29.176V22.5765C29.176 23.9447 28.0649 25.0575 26.7001 25.0575H21.4198L20.9432 24.2987H26.7001C27.6476 24.2987 28.4172 23.5259 28.4172 22.5765V21.3844Z" stroke="#7939CC" stroke-width="0.3"/>
<path d="M33.1489 20.2302L33.1489 20.2302C33.0583 20.4279 32.859 20.5558 32.6416 20.5558H24.9626C24.7452 20.5558 24.5459 20.4279 24.4553 20.2302L24.4553 20.2302L23.1322 17.3448L23.1322 17.3447C23.0509 17.1678 23.0644 16.9751 23.1697 16.811C23.275 16.6469 23.4446 16.5543 23.6393 16.5543H25.1384H32.4658H33.9649C34.1596 16.5543 34.3292 16.6469 34.4345 16.811C34.5398 16.9751 34.5533 17.1678 34.472 17.3447L34.472 17.3448L33.1489 20.2302Z" fill="white" stroke="#7939CC" stroke-width="0.3"/>
<path d="M8.6301 10.203L8.62972 10.2032C8.43223 10.3007 8.19924 10.2798 8.02321 10.1464C8.0232 10.1464 8.02318 10.1464 8.02316 10.1463L7.1537 9.49015L6.2842 10.1464C6.28412 10.1465 6.28405 10.1465 6.28397 10.1466C6.18172 10.2243 6.05956 10.2639 5.93641 10.2639C5.8488 10.2639 5.76049 10.244 5.6786 10.2032L8.6301 10.203ZM8.6301 10.203C8.82742 10.1048 8.95113 9.90613 8.95113 9.68558V7.27305H10.8567C11.3114 7.27305 11.6813 7.64286 11.6813 8.09682V14.9001C11.6813 15.3547 11.3113 15.7246 10.8567 15.7246H3.52924C3.07466 15.7246 2.70469 15.3547 2.70469 14.9001V8.09682M8.6301 10.203L2.70469 8.09682M2.70469 8.09682C2.70469 7.64286 3.07455 7.27305 3.52924 7.27305H5.3573M2.70469 8.09682L5.3573 7.27305M5.3573 7.27305V9.68558C5.3573 9.90632 5.48093 10.105 5.67852 10.2032L5.3573 7.27305ZM6.35828 13.4506H3.70269C3.47354 13.4506 3.28799 13.6361 3.28799 13.8653C3.28799 14.0944 3.47354 14.28 3.70269 14.28H6.35828C6.58744 14.28 6.77299 14.0944 6.77299 13.8653C6.77299 13.6361 6.58744 13.4506 6.35828 13.4506ZM5.21079 14.5689H3.70269C3.47354 14.5689 3.28799 14.7544 3.28799 14.9836C3.28799 15.2127 3.47354 15.3983 3.70269 15.3983H5.21079C5.43995 15.3983 5.6255 15.2127 5.6255 14.9836C5.6255 14.7544 5.43995 14.5689 5.21079 14.5689Z" fill="#7939CC" stroke="#7939CC" stroke-width="0.3"/>
<path d="M8.12407 9.1817L7.50442 8.71384L7.50416 8.71365C7.40116 8.63622 7.27851 8.59799 7.15631 8.59799C7.03427 8.59799 6.91094 8.63613 6.80767 8.71411L6.18906 9.181V7.27305H8.12407V9.1817Z" stroke="#7939CC" stroke-width="0.3"/>
<path d="M11.5396 20.2302L11.5396 20.2302C11.449 20.4279 11.2494 20.5558 11.0323 20.5558H3.35294C3.13581 20.5558 2.9365 20.4279 2.84589 20.2302L2.84588 20.2302L1.52287 17.3448L1.52282 17.3447C1.44156 17.1678 1.45505 16.9751 1.56032 16.811C1.66561 16.6469 1.83519 16.5543 2.02993 16.5543H3.52898H10.8565H12.3553C12.5503 16.5543 12.7199 16.647 12.8251 16.811C12.9302 16.9752 12.9438 17.168 12.8626 17.3447L12.8626 17.3448L11.5396 20.2302Z" fill="white" stroke="#7939CC" stroke-width="0.3"/>
<path d="M15.0468 24.2987L14.5703 25.0575H9.28992C7.92518 25.0575 6.81406 23.9447 6.81406 22.5765V21.3844H7.57289V22.5765C7.57289 23.5259 8.34244 24.2987 9.28992 24.2987H15.0468Z" stroke="#7939CC" stroke-width="0.3"/>
<path d="M18.5105 24.6428C18.5105 24.9257 18.2812 25.1551 17.9982 25.1551C17.7153 25.1551 17.4859 24.9257 17.4859 24.6428C17.4859 24.3598 17.7153 24.1305 17.9982 24.1305C18.2812 24.1305 18.5105 24.3598 18.5105 24.6428Z" stroke="#7939CC" stroke-width="0.3"/>
<path d="M28.417 8.71411C28.5203 8.63613 28.6436 8.59799 28.7657 8.59799C28.8879 8.59799 29.0105 8.63622 29.1135 8.71365L29.1138 8.71383L29.7337 9.18176V7.27305H27.7984V9.181M28.417 8.71411L28.4171 8.71409L28.5074 8.83381L28.417 8.71411ZM28.417 8.71411L27.7984 9.181M27.7984 9.181L27.6484 9.29421L27.7984 9.36892V9.181Z" stroke="#7939CC" stroke-width="0.3"/>
<path d="M25.1386 15.7246H32.4661C32.9207 15.7246 33.2907 15.3547 33.2907 14.9001V8.09682C33.2907 7.64286 32.9208 7.27305 32.4661 7.27305H30.5608V9.68558C30.5608 9.90617 30.437 10.1049 30.2394 10.203M25.1386 15.7246L30.1727 10.0687M25.1386 15.7246C24.684 15.7246 24.3141 15.3547 24.3141 14.9001V8.09682C24.3141 7.64286 24.6839 7.27305 25.1386 7.27305H26.9667V9.68558C26.9667 9.90593 27.0899 10.1047 27.2876 10.2029C27.4853 10.3018 27.7179 10.2797 27.8934 10.1467C27.8935 10.1467 27.8935 10.1466 27.8936 10.1466L28.7633 9.49015L29.6325 10.1463L25.1386 15.7246ZM30.2394 10.203L30.1727 10.0687M30.2394 10.203C30.2394 10.203 30.2395 10.203 30.2395 10.203L30.1727 10.0687M30.2394 10.203C30.1571 10.244 30.0688 10.2639 29.9811 10.2639C29.8573 10.2639 29.7349 10.224 29.6326 10.1464L29.6328 10.1465L29.7231 10.0268C29.7991 10.0844 29.8896 10.1139 29.9811 10.1139C30.046 10.1139 30.1114 10.0992 30.1727 10.0687M27.9679 13.4506H25.3121C25.0829 13.4506 24.8974 13.6361 24.8974 13.8653C24.8974 14.0944 25.0829 14.28 25.3121 14.28H27.9679C28.1971 14.28 28.3826 14.0944 28.3826 13.8653C28.3826 13.6361 28.1971 13.4506 27.9679 13.4506ZM26.8202 14.5689H25.3121C25.0829 14.5689 24.8974 14.7544 24.8974 14.9836C24.8974 15.2127 25.0829 15.3983 25.3121 15.3983H26.8202C27.0493 15.3983 27.2349 15.2127 27.2349 14.9836C27.2349 14.7544 27.0493 14.5689 26.8202 14.5689Z" fill="#7939CC" stroke="#7939CC" stroke-width="0.3"/>
</svg>
